M48
; DRILL file {KiCad 8.0.3} date 2024-06-16T14:00:50-0500
; FORMAT={-:-/ absolute / inch / decimal}
; #@! TF.CreationDate,2024-06-16T14:00:50-05:00
; #@! TF.GenerationSoftware,Kicad,Pcbnew,8.0.3
; #@! TF.FileFunction,Plated,1,2,PTH
FMAT,2
INCH
; #@! TA.AperFunction,Plated,PTH,ViaDrill
T1C0.0118
%
G90
G05
T1
X2.0079Y-2.0079
X2.0079Y-2.0866
X2.0079Y-2.1654
X2.0079Y-2.2441
X2.0079Y-2.3228
X2.0079Y-2.4016
X2.0079Y-2.4803
X2.0079Y-2.5591
X2.0079Y-2.6378
X2.0079Y-2.7165
X2.0079Y-2.7953
X2.0079Y-2.874
X2.0079Y-2.9528
X2.0079Y-3.0315
X2.0079Y-3.1102
X2.0079Y-3.189
X2.0079Y-3.2677
X2.0079Y-3.3465
X2.0079Y-3.4252
X2.0079Y-3.5039
X2.0079Y-3.5827
X2.0079Y-3.6614
X2.0079Y-3.7402
X2.0079Y-3.8189
X2.0079Y-3.8976
X2.0079Y-3.9764
X2.0079Y-4.0551
X2.0079Y-4.1339
X2.0079Y-4.2126
X2.0079Y-4.2913
X2.0079Y-4.3701
X2.0079Y-4.4488
X2.0079Y-4.5276
X2.0079Y-4.6063
X2.0079Y-4.685
X2.0079Y-4.7638
X2.0079Y-4.8425
X2.0079Y-4.9213
X2.0079Y-5.0
X2.0079Y-5.0787
X2.0079Y-5.1575
X2.0079Y-5.2362
X2.0079Y-5.315
X2.0079Y-5.3937
X2.0079Y-5.4724
X2.0079Y-5.5512
X2.0079Y-5.6299
X2.0079Y-5.7087
X2.0079Y-5.7874
X2.0079Y-5.8661
X2.0472Y-2.0472
X2.0472Y-2.126
X2.0472Y-2.2047
X2.0472Y-2.2835
X2.0472Y-2.3622
X2.0472Y-2.4409
X2.0472Y-2.5197
X2.0472Y-2.5984
X2.0472Y-2.6772
X2.0472Y-2.7559
X2.0472Y-2.8346
X2.0472Y-2.9134
X2.0472Y-2.9921
X2.0472Y-3.0709
X2.0472Y-3.1496
X2.0472Y-3.2283
X2.0472Y-3.3071
X2.0472Y-3.3858
X2.0472Y-3.4646
X2.0472Y-3.5433
X2.0472Y-3.622
X2.0472Y-3.7008
X2.0472Y-3.7795
X2.0472Y-3.8583
X2.0472Y-3.937
X2.0472Y-4.0157
X2.0472Y-4.0945
X2.0472Y-4.1732
X2.0472Y-4.252
X2.0472Y-4.3307
X2.0472Y-4.4094
X2.0472Y-4.4882
X2.0472Y-4.5669
X2.0472Y-4.6457
X2.0472Y-4.7244
X2.0472Y-4.8031
X2.0472Y-4.8819
X2.0472Y-4.9606
X2.0472Y-5.0394
X2.0472Y-5.1181
X2.0472Y-5.1969
X2.0472Y-5.2756
X2.0472Y-5.3543
X2.0472Y-5.4331
X2.0472Y-5.5118
X2.0472Y-5.5906
X2.0472Y-5.6693
X2.0472Y-5.748
X2.0472Y-5.8268
X2.0866Y-2.0079
X2.0866Y-2.0866
X2.0866Y-2.1654
X2.0866Y-2.2441
X2.0866Y-2.3228
X2.0866Y-2.4016
X2.0866Y-2.4803
X2.0866Y-2.5591
X2.0866Y-2.6378
X2.0866Y-2.7165
X2.0866Y-2.7953
X2.0866Y-2.874
X2.0866Y-2.9528
X2.0866Y-3.0315
X2.0866Y-3.1102
X2.0866Y-3.189
X2.0866Y-3.2677
X2.0866Y-3.3465
X2.0866Y-3.4252
X2.0866Y-3.5039
X2.0866Y-3.5827
X2.0866Y-3.6614
X2.0866Y-3.7402
X2.0866Y-3.8189
X2.0866Y-3.8976
X2.0866Y-3.9764
X2.0866Y-4.0551
X2.0866Y-4.1339
X2.0866Y-4.2126
X2.0866Y-4.2913
X2.0866Y-4.3701
X2.0866Y-4.4488
X2.0866Y-4.5276
X2.0866Y-4.6063
X2.0866Y-4.685
X2.0866Y-4.7638
X2.0866Y-4.8425
X2.0866Y-4.9213
X2.0866Y-5.0
X2.0866Y-5.0787
X2.0866Y-5.1575
X2.0866Y-5.2362
X2.0866Y-5.315
X2.0866Y-5.3937
X2.0866Y-5.4724
X2.0866Y-5.5512
X2.0866Y-5.6299
X2.0866Y-5.7087
X2.0866Y-5.7874
X2.0866Y-5.8661
X2.126Y-2.0472
X2.126Y-2.126
X2.126Y-2.2047
X2.126Y-2.2835
X2.126Y-2.3622
X2.126Y-2.4409
X2.126Y-2.5197
X2.126Y-2.5984
X2.126Y-2.6772
X2.126Y-2.7559
X2.126Y-2.8346
X2.126Y-2.9134
X2.126Y-2.9921
X2.126Y-3.0709
X2.126Y-3.1496
X2.126Y-3.2283
X2.126Y-3.3071
X2.126Y-3.3858
X2.126Y-3.4646
X2.126Y-3.5433
X2.126Y-3.622
X2.126Y-3.7008
X2.126Y-3.7795
X2.126Y-3.8583
X2.126Y-3.937
X2.126Y-4.0157
X2.126Y-4.0945
X2.126Y-4.1732
X2.126Y-4.252
X2.126Y-4.3307
X2.126Y-4.4094
X2.126Y-4.4882
X2.126Y-4.5669
X2.126Y-4.6457
X2.126Y-4.7244
X2.126Y-4.8031
X2.126Y-4.8819
X2.126Y-4.9606
X2.126Y-5.0394
X2.126Y-5.1181
X2.126Y-5.1969
X2.126Y-5.2756
X2.126Y-5.3543
X2.126Y-5.4331
X2.126Y-5.5118
X2.126Y-5.5906
X2.126Y-5.6693
X2.126Y-5.748
X2.126Y-5.8268
X2.1654Y-2.0079
X2.1654Y-2.0866
X2.1654Y-2.1654
X2.1654Y-2.2441
X2.1654Y-2.3228
X2.1654Y-2.4016
X2.1654Y-2.4803
X2.1654Y-2.5591
X2.1654Y-2.6378
X2.1654Y-2.7165
X2.1654Y-2.7953
X2.1654Y-2.874
X2.1654Y-2.9528
X2.1654Y-3.0315
X2.1654Y-3.1102
X2.1654Y-3.189
X2.1654Y-3.2677
X2.1654Y-3.3465
X2.1654Y-3.4252
X2.1654Y-3.5039
X2.1654Y-3.5827
X2.1654Y-3.6614
X2.1654Y-3.7402
X2.1654Y-3.8189
X2.1654Y-3.8976
X2.1654Y-3.9764
X2.1654Y-4.0551
X2.1654Y-4.1339
X2.1654Y-4.2126
X2.1654Y-4.2913
X2.1654Y-4.3701
X2.1654Y-4.4488
X2.1654Y-4.5276
X2.1654Y-4.6063
X2.1654Y-4.685
X2.1654Y-4.7638
X2.1654Y-4.8425
X2.1654Y-4.9213
X2.1654Y-5.0
X2.1654Y-5.0787
X2.1654Y-5.1575
X2.1654Y-5.2362
X2.1654Y-5.315
X2.1654Y-5.3937
X2.1654Y-5.4724
X2.1654Y-5.5512
X2.1654Y-5.6299
X2.1654Y-5.7087
X2.1654Y-5.7874
X2.1654Y-5.8661
X2.2047Y-2.0472
X2.2047Y-2.126
X2.2047Y-2.2047
X2.2047Y-2.2835
X2.2047Y-2.3622
X2.2047Y-2.4409
X2.2047Y-2.5197
X2.2047Y-2.5984
X2.2047Y-2.6772
X2.2047Y-2.7559
X2.2047Y-2.8346
X2.2047Y-2.9134
X2.2047Y-2.9921
X2.2047Y-3.0709
X2.2047Y-3.1496
X2.2047Y-3.2283
X2.2047Y-3.3071
X2.2047Y-3.3858
X2.2047Y-3.4646
X2.2047Y-3.5433
X2.2047Y-3.622
X2.2047Y-3.7008
X2.2047Y-3.7795
X2.2047Y-3.8583
X2.2047Y-3.937
X2.2047Y-4.0157
X2.2047Y-4.0945
X2.2047Y-4.1732
X2.2047Y-4.252
X2.2047Y-4.3307
X2.2047Y-4.4094
X2.2047Y-4.4882
X2.2047Y-4.5669
X2.2047Y-4.6457
X2.2047Y-4.7244
X2.2047Y-4.8031
X2.2047Y-4.8819
X2.2047Y-4.9606
X2.2047Y-5.0394
X2.2047Y-5.1181
X2.2047Y-5.1969
X2.2047Y-5.2756
X2.2047Y-5.3543
X2.2047Y-5.4331
X2.2047Y-5.5118
X2.2047Y-5.5906
X2.2047Y-5.6693
X2.2047Y-5.748
X2.2047Y-5.8268
X2.2441Y-2.0079
X2.2441Y-2.3228
X2.2441Y-2.4016
X2.2441Y-2.4803
X2.2441Y-2.5591
X2.2441Y-2.6378
X2.2441Y-2.7165
X2.2441Y-2.7953
X2.2441Y-2.874
X2.2441Y-2.9528
X2.2441Y-3.0315
X2.2441Y-3.1102
X2.2441Y-3.189
X2.2441Y-3.2677
X2.2441Y-3.3465
X2.2441Y-3.4252
X2.2441Y-3.5039
X2.2441Y-3.5827
X2.2441Y-3.6614
X2.2441Y-3.7402
X2.2441Y-3.8189
X2.2441Y-3.8976
X2.2441Y-3.9764
X2.2441Y-4.0551
X2.2441Y-4.1339
X2.2441Y-4.2126
X2.2441Y-4.2913
X2.2441Y-4.3701
X2.2441Y-4.4488
X2.2441Y-4.5276
X2.2441Y-4.6063
X2.2441Y-4.685
X2.2441Y-4.7638
X2.2441Y-4.8425
X2.2441Y-4.9213
X2.2441Y-5.0
X2.2441Y-5.0787
X2.2441Y-5.1575
X2.2441Y-5.2362
X2.2441Y-5.315
X2.2441Y-5.3937
X2.2441Y-5.4724
X2.2441Y-5.5512
X2.2441Y-5.8661
X2.2835Y-2.3622
X2.2835Y-2.4409
X2.2835Y-2.5197
X2.2835Y-2.5984
X2.2835Y-2.6772
X2.2835Y-2.7559
X2.2835Y-2.8346
X2.2835Y-2.9134
X2.2835Y-2.9921
X2.2835Y-3.0709
X2.2835Y-3.1496
X2.2835Y-3.2283
X2.2835Y-3.3071
X2.2835Y-3.3858
X2.2835Y-3.4646
X2.2835Y-3.5433
X2.2835Y-3.622
X2.2835Y-3.7008
X2.2835Y-3.7795
X2.2835Y-3.8583
X2.2835Y-3.937
X2.2835Y-4.0157
X2.2835Y-4.0945
X2.2835Y-4.1732
X2.2835Y-4.252
X2.2835Y-4.3307
X2.2835Y-4.4094
X2.2835Y-4.4882
X2.2835Y-4.5669
X2.2835Y-4.6457
X2.2835Y-4.7244
X2.2835Y-4.8031
X2.2835Y-4.8819
X2.2835Y-4.9606
X2.2835Y-5.0394
X2.2835Y-5.1181
X2.2835Y-5.1969
X2.2835Y-5.2756
X2.2835Y-5.3543
X2.2835Y-5.4331
X2.2835Y-5.5118
X2.3228Y-2.0079
X2.3228Y-2.3228
X2.3228Y-2.4016
X2.3228Y-2.4803
X2.3228Y-2.5591
X2.3228Y-2.6378
X2.3228Y-2.7165
X2.3228Y-2.7953
X2.3228Y-2.874
X2.3228Y-2.9528
X2.3228Y-3.0315
X2.3228Y-3.1102
X2.3228Y-3.189
X2.3228Y-3.2677
X2.3228Y-3.3465
X2.3228Y-3.4252
X2.3228Y-3.5039
X2.3228Y-3.5827
X2.3228Y-3.6614
X2.3228Y-3.7402
X2.3228Y-3.8189
X2.3228Y-3.8976
X2.3228Y-3.9764
X2.3228Y-4.0551
X2.3228Y-4.1339
X2.3228Y-4.2126
X2.3228Y-4.2913
X2.3228Y-4.3701
X2.3228Y-4.4488
X2.3228Y-4.5276
X2.3228Y-4.6063
X2.3228Y-4.685
X2.3228Y-4.7638
X2.3228Y-4.8425
X2.3228Y-4.9213
X2.3228Y-5.0
X2.3228Y-5.0787
X2.3228Y-5.1575
X2.3228Y-5.2362
X2.3228Y-5.3937
X2.3228Y-5.4724
X2.3228Y-5.5512
X2.3228Y-5.8661
X2.4016Y-2.0079
X2.4016Y-2.3228
X2.4016Y-2.4016
X2.4016Y-2.4803
X2.4016Y-2.5591
X2.4016Y-2.6378
X2.4016Y-2.7165
X2.4016Y-2.7953
X2.4016Y-2.874
X2.4016Y-2.9528
X2.4016Y-3.0315
X2.4016Y-3.1102
X2.4016Y-3.189
X2.4016Y-3.2677
X2.4016Y-3.3465
X2.4016Y-3.4252
X2.4016Y-3.5039
X2.4016Y-3.5827
X2.4016Y-3.6614
X2.4016Y-3.7402
X2.4016Y-3.8189
X2.4016Y-3.8976
X2.4016Y-3.9764
X2.4016Y-4.0551
X2.4016Y-4.1339
X2.4016Y-4.2126
X2.4016Y-4.2913
X2.4016Y-4.3701
X2.4016Y-4.4488
X2.4016Y-4.5276
X2.4016Y-4.6063
X2.4016Y-4.685
X2.4016Y-4.7638
X2.4016Y-4.8425
X2.4016Y-4.9213
X2.4016Y-5.0
X2.4016Y-5.0787
X2.4016Y-5.1575
X2.4016Y-5.2362
X2.4016Y-5.3937
X2.4016Y-5.4724
X2.4016Y-5.5512
X2.4016Y-5.8661
X2.4409Y-2.3622
X2.4409Y-2.4409
X2.4409Y-2.5197
X2.4409Y-2.5984
X2.4409Y-2.6772
X2.4409Y-2.7559
X2.4409Y-2.8346
X2.4409Y-2.9134
X2.4409Y-2.9921
X2.4409Y-3.0709
X2.4409Y-3.1496
X2.4409Y-3.2283
X2.4409Y-3.3071
X2.4409Y-3.3858
X2.4409Y-3.4646
X2.4409Y-3.5433
X2.4409Y-3.622
X2.4409Y-3.7008
X2.4409Y-3.7795
X2.4409Y-3.8583
X2.4409Y-3.937
X2.4409Y-4.0157
X2.4409Y-4.0945
X2.4409Y-4.1732
X2.4409Y-4.252
X2.4409Y-4.3307
X2.4409Y-4.4094
X2.4409Y-4.4882
X2.4409Y-4.5669
X2.4409Y-4.6457
X2.4409Y-4.7244
X2.4409Y-4.8031
X2.4409Y-4.8819
X2.4409Y-4.9606
X2.4409Y-5.0394
X2.4409Y-5.1181
X2.4409Y-5.1969
X2.4409Y-5.2756
X2.4409Y-5.3543
X2.4409Y-5.4331
X2.4409Y-5.5118
X2.4803Y-2.0079
X2.4803Y-2.3228
X2.4803Y-2.4016
X2.4803Y-2.4803
X2.4803Y-2.5591
X2.4803Y-2.6378
X2.4803Y-2.7165
X2.4803Y-2.7953
X2.4803Y-2.874
X2.4803Y-2.9528
X2.4803Y-3.0315
X2.4803Y-3.1102
X2.4803Y-3.189
X2.4803Y-3.2677
X2.4803Y-3.3465
X2.4803Y-3.4252
X2.4803Y-3.5039
X2.4803Y-3.5827
X2.4803Y-3.6614
X2.4803Y-3.7402
X2.4803Y-3.8189
X2.4803Y-3.8976
X2.4803Y-3.9764
X2.4803Y-4.0551
X2.4803Y-4.1339
X2.4803Y-4.2126
X2.4803Y-4.2913
X2.4803Y-4.3701
X2.4803Y-4.4488
X2.4803Y-4.5276
X2.4803Y-4.6063
X2.4803Y-4.685
X2.4803Y-4.7638
X2.4803Y-4.8425
X2.4803Y-4.9213
X2.4803Y-5.0
X2.4803Y-5.0787
X2.4803Y-5.1575
X2.4803Y-5.2362
X2.4803Y-5.315
X2.4803Y-5.3937
X2.4803Y-5.4724
X2.4803Y-5.5512
X2.4803Y-5.8661
X2.5197Y-2.0472
X2.5197Y-2.126
X2.5197Y-2.2047
X2.5197Y-2.2835
X2.5197Y-2.3622
X2.5197Y-2.4409
X2.5197Y-2.5197
X2.5197Y-2.5984
X2.5197Y-2.6772
X2.5197Y-2.7559
X2.5197Y-2.8346
X2.5197Y-2.9134
X2.5197Y-2.9921
X2.5197Y-3.0709
X2.5197Y-3.1496
X2.5197Y-3.2283
X2.5197Y-3.3071
X2.5197Y-3.3858
X2.5197Y-3.4646
X2.5197Y-3.5433
X2.5197Y-3.622
X2.5197Y-3.7008
X2.5197Y-3.7795
X2.5197Y-3.8583
X2.5197Y-3.937
X2.5197Y-4.0157
X2.5197Y-4.0945
X2.5197Y-4.1732
X2.5197Y-4.252
X2.5197Y-4.3307
X2.5197Y-4.4094
X2.5197Y-4.4882
X2.5197Y-4.5669
X2.5197Y-4.6457
X2.5197Y-4.7244
X2.5197Y-4.8031
X2.5197Y-4.8819
X2.5197Y-4.9606
X2.5197Y-5.0394
X2.5197Y-5.1181
X2.5197Y-5.1969
X2.5197Y-5.2756
X2.5197Y-5.3543
X2.5197Y-5.4331
X2.5197Y-5.5118
X2.5197Y-5.5906
X2.5197Y-5.6693
X2.5197Y-5.748
X2.5197Y-5.8268
X2.5591Y-2.0079
X2.5591Y-2.0866
X2.5591Y-2.1654
X2.5591Y-2.2441
X2.5591Y-2.3228
X2.5591Y-2.4016
X2.5591Y-2.4803
X2.5591Y-2.5591
X2.5591Y-2.6378
X2.5591Y-2.7165
X2.5591Y-2.7953
X2.5591Y-2.874
X2.5591Y-2.9528
X2.5591Y-3.0315
X2.5591Y-3.1102
X2.5591Y-3.189
X2.5591Y-3.2677
X2.5591Y-3.3465
X2.5591Y-3.4252
X2.5591Y-3.5039
X2.5591Y-3.5827
X2.5591Y-3.6614
X2.5591Y-3.7402
X2.5591Y-3.8189
X2.5591Y-3.8976
X2.5591Y-3.9764
X2.5591Y-4.0551
X2.5591Y-4.1339
X2.5591Y-4.2126
X2.5591Y-4.2913
X2.5591Y-4.3701
X2.5591Y-4.4488
X2.5591Y-4.5276
X2.5591Y-4.6063
X2.5591Y-4.685
X2.5591Y-4.7638
X2.5591Y-4.8425
X2.5591Y-4.9213
X2.5591Y-5.0
X2.5591Y-5.0787
X2.5591Y-5.5512
X2.5591Y-5.6299
X2.5591Y-5.7087
X2.5591Y-5.7874
X2.5591Y-5.8661
X2.5984Y-2.0472
X2.5984Y-2.126
X2.5984Y-2.2047
X2.5984Y-2.2835
X2.5984Y-2.3622
X2.5984Y-2.4409
X2.5984Y-2.5197
X2.5984Y-2.5984
X2.5984Y-2.6772
X2.5984Y-2.7559
X2.5984Y-2.8346
X2.5984Y-2.9134
X2.5984Y-2.9921
X2.5984Y-3.0709
X2.5984Y-3.1496
X2.5984Y-3.2283
X2.5984Y-3.3071
X2.5984Y-3.3858
X2.5984Y-3.4646
X2.5984Y-3.5433
X2.5984Y-3.622
X2.5984Y-3.7008
X2.5984Y-3.7795
X2.5984Y-3.8583
X2.5984Y-3.937
X2.5984Y-4.0157
X2.5984Y-4.0945
X2.5984Y-4.1732
X2.5984Y-4.252
X2.5984Y-4.3307
X2.5984Y-4.4094
X2.5984Y-4.4882
X2.5984Y-4.5669
X2.5984Y-4.6457
X2.5984Y-4.7244
X2.5984Y-4.8031
X2.5984Y-4.8819
X2.5984Y-4.9606
X2.5984Y-5.0394
X2.5984Y-5.5906
X2.5984Y-5.6693
X2.5984Y-5.748
X2.5984Y-5.8268
X2.6378Y-2.0079
X2.6378Y-2.3228
X2.6378Y-2.4016
X2.6378Y-2.4803
X2.6378Y-2.5591
X2.6378Y-2.6378
X2.6378Y-2.7165
X2.6378Y-2.7953
X2.6378Y-2.874
X2.6378Y-2.9528
X2.6378Y-3.0315
X2.6378Y-3.1102
X2.6378Y-3.189
X2.6378Y-3.2677
X2.6378Y-3.3465
X2.6378Y-3.4252
X2.6378Y-3.5039
X2.6378Y-3.5827
X2.6378Y-3.6614
X2.6378Y-3.7402
X2.6378Y-3.8189
X2.6378Y-3.8976
X2.6378Y-3.9764
X2.6378Y-4.0551
X2.6378Y-4.1339
X2.6378Y-4.2126
X2.6378Y-4.2913
X2.6378Y-4.3701
X2.6378Y-4.4488
X2.6378Y-4.5276
X2.6378Y-4.6063
X2.6378Y-4.685
X2.6378Y-4.7638
X2.6378Y-4.8425
X2.6378Y-4.9213
X2.6378Y-5.0
X2.6378Y-5.0787
X2.6378Y-5.5512
X2.6378Y-5.8661
X2.6772Y-2.3622
X2.6772Y-2.4409
X2.6772Y-2.5197
X2.6772Y-2.5984
X2.6772Y-2.6772
X2.6772Y-2.7559
X2.6772Y-2.8346
X2.6772Y-2.9134
X2.6772Y-2.9921
X2.6772Y-3.0709
X2.6772Y-3.1496
X2.6772Y-3.2283
X2.6772Y-3.3071
X2.6772Y-3.3858
X2.6772Y-3.4646
X2.6772Y-3.5433
X2.6772Y-3.622
X2.6772Y-3.7008
X2.6772Y-3.7795
X2.6772Y-3.8583
X2.6772Y-3.937
X2.6772Y-4.0157
X2.6772Y-4.0945
X2.6772Y-4.1732
X2.6772Y-4.252
X2.6772Y-4.3307
X2.6772Y-4.4094
X2.6772Y-4.4882
X2.6772Y-4.5669
X2.6772Y-4.6457
X2.6772Y-4.7244
X2.6772Y-4.8031
X2.6772Y-4.8819
X2.6772Y-4.9606
X2.6772Y-5.0394
X2.7165Y-2.0079
X2.7165Y-2.3228
X2.7165Y-2.4016
X2.7165Y-2.4803
X2.7165Y-2.5591
X2.7165Y-2.6378
X2.7165Y-2.7165
X2.7165Y-2.7953
X2.7165Y-2.874
X2.7165Y-2.9528
X2.7165Y-3.0315
X2.7165Y-3.1102
X2.7165Y-3.189
X2.7165Y-3.2677
X2.7165Y-3.3465
X2.7165Y-3.4252
X2.7165Y-3.5039
X2.7165Y-3.5827
X2.7165Y-3.6614
X2.7165Y-3.7402
X2.7165Y-3.8189
X2.7165Y-3.8976
X2.7165Y-3.9764
X2.7165Y-4.0551
X2.7165Y-4.1339
X2.7165Y-4.2126
X2.7165Y-4.2913
X2.7165Y-4.3701
X2.7165Y-4.4488
X2.7165Y-4.5276
X2.7165Y-4.6063
X2.7165Y-4.685
X2.7165Y-4.7638
X2.7165Y-4.8425
X2.7165Y-4.9213
X2.7165Y-5.0
X2.7165Y-5.0787
X2.7165Y-5.5512
X2.7165Y-5.8661
X2.7953Y-2.0079
X2.7953Y-2.3228
X2.7953Y-2.4016
X2.7953Y-2.4803
X2.7953Y-2.5591
X2.7953Y-2.6378
X2.7953Y-2.7165
X2.7953Y-2.7953
X2.7953Y-2.874
X2.7953Y-2.9528
X2.7953Y-3.0315
X2.7953Y-3.1102
X2.7953Y-3.189
X2.7953Y-3.2677
X2.7953Y-3.3465
X2.7953Y-3.4252
X2.7953Y-3.5039
X2.7953Y-3.5827
X2.7953Y-3.6614
X2.7953Y-3.7402
X2.7953Y-3.8189
X2.7953Y-3.8976
X2.7953Y-3.9764
X2.7953Y-4.0551
X2.7953Y-4.1339
X2.7953Y-4.2126
X2.7953Y-4.2913
X2.7953Y-4.3701
X2.7953Y-4.4488
X2.7953Y-4.5276
X2.7953Y-4.6063
X2.7953Y-4.685
X2.7953Y-4.7638
X2.7953Y-4.8425
X2.7953Y-4.9213
X2.7953Y-5.0
X2.7953Y-5.0787
X2.7953Y-5.1575
X2.7953Y-5.2362
X2.7953Y-5.3937
X2.7953Y-5.4724
X2.7953Y-5.5512
X2.7953Y-5.8661
X2.8346Y-2.3622
X2.8346Y-2.4409
X2.8346Y-2.5197
X2.8346Y-2.5984
X2.8346Y-2.6772
X2.8346Y-2.7559
X2.8346Y-2.8346
X2.8346Y-2.9134
X2.8346Y-2.9921
X2.8346Y-3.0709
X2.8346Y-3.1496
X2.8346Y-3.2283
X2.8346Y-3.3071
X2.8346Y-3.3858
X2.8346Y-3.4646
X2.8346Y-3.5433
X2.8346Y-3.622
X2.8346Y-3.7008
X2.8346Y-3.7795
X2.8346Y-3.8583
X2.8346Y-3.937
X2.8346Y-4.0157
X2.8346Y-4.0945
X2.8346Y-4.1732
X2.8346Y-4.252
X2.8346Y-4.3307
X2.8346Y-4.4094
X2.8346Y-4.4882
X2.8346Y-4.5669
X2.8346Y-4.6457
X2.8346Y-4.7244
X2.8346Y-4.8031
X2.8346Y-4.8819
X2.8346Y-4.9606
X2.8346Y-5.0394
X2.8346Y-5.1181
X2.8346Y-5.1969
X2.8346Y-5.2756
X2.8346Y-5.3543
X2.8346Y-5.4331
X2.8346Y-5.5118
X2.874Y-2.0079
X2.874Y-2.3228
X2.874Y-2.4016
X2.874Y-2.4803
X2.874Y-2.5591
X2.874Y-2.6378
X2.874Y-2.7165
X2.874Y-2.7953
X2.874Y-2.874
X2.874Y-2.9528
X2.874Y-3.0315
X2.874Y-3.1102
X2.874Y-3.189
X2.874Y-3.2677
X2.874Y-3.3465
X2.874Y-3.4252
X2.874Y-3.5039
X2.874Y-3.5827
X2.874Y-3.6614
X2.874Y-3.7402
X2.874Y-3.8189
X2.874Y-3.8976
X2.874Y-3.9764
X2.874Y-4.0551
X2.874Y-4.1339
X2.874Y-4.2126
X2.874Y-4.2913
X2.874Y-4.3701
X2.874Y-4.4488
X2.874Y-4.5276
X2.874Y-4.6063
X2.874Y-4.685
X2.874Y-4.7638
X2.874Y-4.8425
X2.874Y-4.9213
X2.874Y-5.0
X2.874Y-5.0787
X2.874Y-5.1575
X2.874Y-5.2362
X2.874Y-5.315
X2.874Y-5.3937
X2.874Y-5.4724
X2.874Y-5.5512
X2.874Y-5.8661
X2.9134Y-2.0472
X2.9134Y-2.126
X2.9134Y-2.2047
X2.9134Y-2.2835
X2.9134Y-2.3622
X2.9134Y-2.4409
X2.9134Y-2.5197
X2.9134Y-2.5984
X2.9134Y-2.6772
X2.9134Y-2.7559
X2.9134Y-2.8346
X2.9134Y-2.9134
X2.9134Y-2.9921
X2.9134Y-3.0709
X2.9134Y-3.1496
X2.9134Y-3.2283
X2.9134Y-3.3071
X2.9134Y-3.3858
X2.9134Y-3.4646
X2.9134Y-3.5433
X2.9134Y-3.622
X2.9134Y-3.7008
X2.9134Y-3.7795
X2.9134Y-3.8583
X2.9134Y-3.937
X2.9134Y-4.0157
X2.9134Y-4.0945
X2.9134Y-4.1732
X2.9134Y-4.252
X2.9134Y-4.3307
X2.9134Y-4.4094
X2.9134Y-4.4882
X2.9134Y-4.5669
X2.9134Y-4.6457
X2.9134Y-4.7244
X2.9134Y-4.8031
X2.9134Y-4.8819
X2.9134Y-4.9606
X2.9134Y-5.0394
X2.9134Y-5.1181
X2.9134Y-5.1969
X2.9134Y-5.2756
X2.9134Y-5.3543
X2.9134Y-5.4331
X2.9134Y-5.5118
X2.9134Y-5.5906
X2.9134Y-5.6693
X2.9134Y-5.748
X2.9134Y-5.8268
X2.9528Y-2.0079
X2.9528Y-2.0866
X2.9528Y-2.1654
X2.9528Y-2.2441
X2.9528Y-2.3228
X2.9528Y-2.4016
X2.9528Y-2.4803
X2.9528Y-2.5591
X2.9528Y-2.6378
X2.9528Y-2.7165
X2.9528Y-2.7953
X2.9528Y-2.874
X2.9528Y-2.9528
X2.9528Y-3.0315
X2.9528Y-3.1102
X2.9528Y-3.189
X2.9528Y-3.2677
X2.9528Y-3.3465
X2.9528Y-3.4252
X2.9528Y-3.5039
X2.9528Y-3.5827
X2.9528Y-3.6614
X2.9528Y-3.7402
X2.9528Y-3.8189
X2.9528Y-3.8976
X2.9528Y-3.9764
X2.9528Y-4.0551
X2.9528Y-4.1339
X2.9528Y-4.2126
X2.9528Y-4.2913
X2.9528Y-4.3701
X2.9528Y-4.4488
X2.9528Y-4.5276
X2.9528Y-4.6063
X2.9528Y-4.685
X2.9528Y-4.7638
X2.9528Y-4.8425
X2.9528Y-4.9213
X2.9528Y-5.0
X2.9528Y-5.0787
X2.9528Y-5.1575
X2.9528Y-5.2362
X2.9528Y-5.315
X2.9528Y-5.3937
X2.9528Y-5.4724
X2.9528Y-5.5512
X2.9528Y-5.6299
X2.9528Y-5.7087
X2.9528Y-5.7874
X2.9528Y-5.8661
X2.9921Y-2.0472
X2.9921Y-2.126
X2.9921Y-2.2047
X2.9921Y-2.2835
X2.9921Y-2.3622
X2.9921Y-2.4409
X2.9921Y-2.5197
X2.9921Y-2.5984
X2.9921Y-2.6772
X2.9921Y-2.7559
X2.9921Y-2.8346
X2.9921Y-2.9134
X2.9921Y-2.9921
X2.9921Y-3.0709
X2.9921Y-3.1496
X2.9921Y-3.2283
X2.9921Y-3.3071
X2.9921Y-3.3858
X2.9921Y-3.4646
X2.9921Y-3.5433
X2.9921Y-3.622
X2.9921Y-3.7008
X2.9921Y-3.7795
X2.9921Y-3.8583
X2.9921Y-3.937
X2.9921Y-4.0157
X2.9921Y-4.0945
X2.9921Y-4.1732
X2.9921Y-4.252
X2.9921Y-4.3307
X2.9921Y-4.4094
X2.9921Y-4.4882
X2.9921Y-4.5669
X2.9921Y-4.6457
X2.9921Y-4.7244
X2.9921Y-4.8031
X2.9921Y-4.8819
X2.9921Y-4.9606
X2.9921Y-5.0394
X2.9921Y-5.1181
X2.9921Y-5.1969
X2.9921Y-5.2756
X2.9921Y-5.3543
X2.9921Y-5.4331
X2.9921Y-5.5118
X2.9921Y-5.5906
X2.9921Y-5.6693
X2.9921Y-5.748
X2.9921Y-5.8268
X3.0315Y-2.0079
X3.0315Y-2.3228
X3.0315Y-2.4016
X3.0315Y-2.4803
X3.0315Y-2.5591
X3.0315Y-2.6378
X3.0315Y-2.7165
X3.0315Y-2.7953
X3.0315Y-2.874
X3.0315Y-2.9528
X3.0315Y-3.0315
X3.0315Y-3.1102
X3.0315Y-3.189
X3.0315Y-3.2677
X3.0315Y-3.3465
X3.0315Y-3.4252
X3.0315Y-3.5039
X3.0315Y-3.5827
X3.0315Y-3.6614
X3.0315Y-3.7402
X3.0315Y-3.8189
X3.0315Y-3.8976
X3.0315Y-3.9764
X3.0315Y-4.0551
X3.0315Y-4.1339
X3.0315Y-4.2126
X3.0315Y-4.2913
X3.0315Y-4.3701
X3.0315Y-4.4488
X3.0315Y-4.5276
X3.0315Y-4.6063
X3.0315Y-4.685
X3.0315Y-4.7638
X3.0315Y-4.8425
X3.0315Y-4.9213
X3.0315Y-5.0
X3.0315Y-5.0787
X3.0315Y-5.1575
X3.0315Y-5.2362
X3.0315Y-5.315
X3.0315Y-5.3937
X3.0315Y-5.4724
X3.0315Y-5.5512
X3.0315Y-5.8661
X3.0709Y-2.3622
X3.0709Y-2.4409
X3.0709Y-2.5197
X3.0709Y-2.5984
X3.0709Y-2.6772
X3.0709Y-2.7559
X3.0709Y-2.8346
X3.0709Y-2.9134
X3.0709Y-2.9921
X3.0709Y-3.0709
X3.0709Y-3.1496
X3.0709Y-3.2283
X3.0709Y-3.3071
X3.0709Y-3.3858
X3.0709Y-3.4646
X3.0709Y-3.5433
X3.0709Y-3.622
X3.0709Y-3.7008
X3.0709Y-3.7795
X3.0709Y-3.8583
X3.0709Y-3.937
X3.0709Y-4.0157
X3.0709Y-4.0945
X3.0709Y-4.1732
X3.0709Y-4.252
X3.0709Y-4.3307
X3.0709Y-4.4094
X3.0709Y-4.4882
X3.0709Y-4.5669
X3.0709Y-4.6457
X3.0709Y-4.7244
X3.0709Y-4.8031
X3.0709Y-4.8819
X3.0709Y-4.9606
X3.0709Y-5.0394
X3.0709Y-5.1181
X3.0709Y-5.1969
X3.0709Y-5.2756
X3.0709Y-5.3543
X3.0709Y-5.4331
X3.0709Y-5.5118
X3.1102Y-2.0079
X3.1102Y-2.3228
X3.1102Y-2.4016
X3.1102Y-2.4803
X3.1102Y-2.5591
X3.1102Y-2.6378
X3.1102Y-2.7165
X3.1102Y-2.7953
X3.1102Y-2.874
X3.1102Y-2.9528
X3.1102Y-3.0315
X3.1102Y-3.1102
X3.1102Y-3.189
X3.1102Y-3.2677
X3.1102Y-3.3465
X3.1102Y-3.4252
X3.1102Y-3.5039
X3.1102Y-3.5827
X3.1102Y-3.6614
X3.1102Y-3.7402
X3.1102Y-3.8189
X3.1102Y-3.8976
X3.1102Y-3.9764
X3.1102Y-4.0551
X3.1102Y-4.1339
X3.1102Y-4.2126
X3.1102Y-4.2913
X3.1102Y-4.3701
X3.1102Y-4.4488
X3.1102Y-4.5276
X3.1102Y-4.6063
X3.1102Y-4.685
X3.1102Y-4.7638
X3.1102Y-4.8425
X3.1102Y-4.9213
X3.1102Y-5.0
X3.1102Y-5.0787
X3.1102Y-5.1575
X3.1102Y-5.2362
X3.1102Y-5.3937
X3.1102Y-5.4724
X3.1102Y-5.5512
X3.1102Y-5.8661
X3.189Y-2.0079
X3.189Y-2.3228
X3.189Y-2.4016
X3.189Y-2.4803
X3.189Y-2.5591
X3.189Y-2.6378
X3.189Y-2.7165
X3.189Y-2.7953
X3.189Y-2.874
X3.189Y-2.9528
X3.189Y-3.0315
X3.189Y-3.1102
X3.189Y-3.189
X3.189Y-3.2677
X3.189Y-3.3465
X3.189Y-3.4252
X3.189Y-3.5039
X3.189Y-3.5827
X3.189Y-3.6614
X3.189Y-3.7402
X3.189Y-3.8189
X3.189Y-3.8976
X3.189Y-3.9764
X3.189Y-4.0551
X3.189Y-4.1339
X3.189Y-4.2126
X3.189Y-4.2913
X3.189Y-4.3701
X3.189Y-4.4488
X3.189Y-4.5276
X3.189Y-4.6063
X3.189Y-4.685
X3.189Y-4.7638
X3.189Y-4.8425
X3.189Y-4.9213
X3.189Y-5.0
X3.189Y-5.0787
X3.189Y-5.1575
X3.189Y-5.2362
X3.189Y-5.3937
X3.189Y-5.4724
X3.189Y-5.5512
X3.189Y-5.8661
X3.2283Y-2.3622
X3.2283Y-2.4409
X3.2283Y-2.5197
X3.2283Y-2.5984
X3.2283Y-2.6772
X3.2283Y-2.7559
X3.2283Y-2.8346
X3.2283Y-2.9134
X3.2283Y-2.9921
X3.2283Y-3.0709
X3.2283Y-3.1496
X3.2283Y-3.2283
X3.2283Y-3.3071
X3.2283Y-3.3858
X3.2283Y-3.4646
X3.2283Y-3.5433
X3.2283Y-3.622
X3.2283Y-3.7008
X3.2283Y-3.7795
X3.2283Y-3.8583
X3.2283Y-3.937
X3.2283Y-4.0157
X3.2283Y-4.0945
X3.2283Y-4.1732
X3.2283Y-4.252
X3.2283Y-4.3307
X3.2283Y-4.4094
X3.2283Y-4.4882
X3.2283Y-4.5669
X3.2283Y-4.6457
X3.2283Y-4.7244
X3.2283Y-4.8031
X3.2283Y-4.8819
X3.2283Y-4.9606
X3.2283Y-5.0394
X3.2283Y-5.1181
X3.2283Y-5.1969
X3.2283Y-5.2756
X3.2283Y-5.3543
X3.2283Y-5.4331
X3.2283Y-5.5118
X3.2677Y-2.0079
X3.2677Y-2.3228
X3.2677Y-2.4016
X3.2677Y-2.4803
X3.2677Y-2.5591
X3.2677Y-2.6378
X3.2677Y-2.7165
X3.2677Y-2.7953
X3.2677Y-2.874
X3.2677Y-2.9528
X3.2677Y-3.0315
X3.2677Y-3.1102
X3.2677Y-3.189
X3.2677Y-3.2677
X3.2677Y-3.3465
X3.2677Y-3.4252
X3.2677Y-3.5039
X3.2677Y-3.5827
X3.2677Y-3.6614
X3.2677Y-3.7402
X3.2677Y-3.8189
X3.2677Y-3.8976
X3.2677Y-3.9764
X3.2677Y-4.0551
X3.2677Y-4.1339
X3.2677Y-4.2126
X3.2677Y-4.2913
X3.2677Y-4.3701
X3.2677Y-4.4488
X3.2677Y-4.5276
X3.2677Y-4.6063
X3.2677Y-4.685
X3.2677Y-4.7638
X3.2677Y-4.8425
X3.2677Y-4.9213
X3.2677Y-5.0
X3.2677Y-5.0787
X3.2677Y-5.1575
X3.2677Y-5.2362
X3.2677Y-5.315
X3.2677Y-5.3937
X3.2677Y-5.4724
X3.2677Y-5.5512
X3.2677Y-5.8661
X3.3071Y-2.0472
X3.3071Y-2.126
X3.3071Y-2.2047
X3.3071Y-2.2835
X3.3071Y-2.3622
X3.3071Y-2.4409
X3.3071Y-2.5197
X3.3071Y-2.5984
X3.3071Y-2.6772
X3.3071Y-2.7559
X3.3071Y-2.8346
X3.3071Y-2.9134
X3.3071Y-2.9921
X3.3071Y-3.0709
X3.3071Y-3.1496
X3.3071Y-3.2283
X3.3071Y-3.3071
X3.3071Y-3.3858
X3.3071Y-3.4646
X3.3071Y-3.5433
X3.3071Y-3.622
X3.3071Y-3.7008
X3.3071Y-3.7795
X3.3071Y-3.8583
X3.3071Y-3.937
X3.3071Y-4.0157
X3.3071Y-4.0945
X3.3071Y-4.1732
X3.3071Y-4.252
X3.3071Y-4.3307
X3.3071Y-4.4094
X3.3071Y-4.4882
X3.3071Y-4.5669
X3.3071Y-4.6457
X3.3071Y-4.7244
X3.3071Y-4.8031
X3.3071Y-4.8819
X3.3071Y-4.9606
X3.3071Y-5.0394
X3.3071Y-5.1181
X3.3071Y-5.1969
X3.3071Y-5.2756
X3.3071Y-5.3543
X3.3071Y-5.4331
X3.3071Y-5.5118
X3.3071Y-5.5906
X3.3071Y-5.6693
X3.3071Y-5.748
X3.3071Y-5.8268
X3.3465Y-2.0079
X3.3465Y-2.0866
X3.3465Y-2.1654
X3.3465Y-2.2441
X3.3465Y-2.3228
X3.3465Y-2.4016
X3.3465Y-2.4803
X3.3465Y-2.5591
X3.3465Y-2.6378
X3.3465Y-2.7165
X3.3465Y-2.7953
X3.3465Y-2.874
X3.3465Y-2.9528
X3.3465Y-3.0315
X3.3465Y-3.1102
X3.3465Y-3.189
X3.3465Y-3.2677
X3.3465Y-3.3465
X3.3465Y-3.4252
X3.3465Y-3.5039
X3.3465Y-3.5827
X3.3465Y-3.6614
X3.3465Y-3.7402
X3.3465Y-3.8189
X3.3465Y-3.8976
X3.3465Y-3.9764
X3.3465Y-4.0551
X3.3465Y-4.1339
X3.3465Y-4.2126
X3.3465Y-4.2913
X3.3465Y-4.3701
X3.3465Y-4.4488
X3.3465Y-4.5276
X3.3465Y-4.6063
X3.3465Y-4.685
X3.3465Y-4.7638
X3.3465Y-4.8425
X3.3465Y-4.9213
X3.3465Y-5.0
X3.3465Y-5.0787
X3.3465Y-5.5512
X3.3465Y-5.6299
X3.3465Y-5.7087
X3.3465Y-5.7874
X3.3465Y-5.8661
X3.3858Y-2.0472
X3.3858Y-2.126
X3.3858Y-2.2047
X3.3858Y-2.2835
X3.3858Y-2.3622
X3.3858Y-2.4409
X3.3858Y-2.5197
X3.3858Y-2.5984
X3.3858Y-2.6772
X3.3858Y-2.7559
X3.3858Y-2.8346
X3.3858Y-2.9134
X3.3858Y-2.9921
X3.3858Y-3.0709
X3.3858Y-3.1496
X3.3858Y-3.2283
X3.3858Y-3.3071
X3.3858Y-3.3858
X3.3858Y-3.4646
X3.3858Y-3.5433
X3.3858Y-3.622
X3.3858Y-3.7008
X3.3858Y-3.7795
X3.3858Y-3.8583
X3.3858Y-3.937
X3.3858Y-4.0157
X3.3858Y-4.0945
X3.3858Y-4.1732
X3.3858Y-4.252
X3.3858Y-4.3307
X3.3858Y-4.4094
X3.3858Y-4.4882
X3.3858Y-4.5669
X3.3858Y-4.6457
X3.3858Y-4.7244
X3.3858Y-4.8031
X3.3858Y-4.8819
X3.3858Y-4.9606
X3.3858Y-5.0394
X3.3858Y-5.5906
X3.3858Y-5.6693
X3.3858Y-5.748
X3.3858Y-5.8268
X3.4252Y-2.0079
X3.4252Y-2.3228
X3.4252Y-2.4016
X3.4252Y-2.4803
X3.4252Y-2.5591
X3.4252Y-2.6378
X3.4252Y-2.7165
X3.4252Y-2.7953
X3.4252Y-2.874
X3.4252Y-2.9528
X3.4252Y-3.0315
X3.4252Y-3.1102
X3.4252Y-3.189
X3.4252Y-3.2677
X3.4252Y-3.3465
X3.4252Y-3.4252
X3.4252Y-3.5039
X3.4252Y-3.5827
X3.4252Y-3.6614
X3.4252Y-3.7402
X3.4252Y-3.8189
X3.4252Y-3.8976
X3.4252Y-3.9764
X3.4252Y-4.0551
X3.4252Y-4.1339
X3.4252Y-4.2126
X3.4252Y-4.2913
X3.4252Y-4.3701
X3.4252Y-4.4488
X3.4252Y-4.5276
X3.4252Y-4.6063
X3.4252Y-4.685
X3.4252Y-4.7638
X3.4252Y-4.8425
X3.4252Y-4.9213
X3.4252Y-5.0
X3.4252Y-5.0787
X3.4252Y-5.5512
X3.4252Y-5.8661
X3.4646Y-2.3622
X3.4646Y-2.4409
X3.4646Y-2.5197
X3.4646Y-2.5984
X3.4646Y-2.6772
X3.4646Y-2.7559
X3.4646Y-2.8346
X3.4646Y-2.9134
X3.4646Y-2.9921
X3.4646Y-3.0709
X3.4646Y-3.1496
X3.4646Y-3.2283
X3.4646Y-3.3071
X3.4646Y-3.3858
X3.4646Y-3.4646
X3.4646Y-3.5433
X3.4646Y-3.622
X3.4646Y-3.7008
X3.4646Y-3.7795
X3.4646Y-3.8583
X3.4646Y-3.937
X3.4646Y-4.0157
X3.4646Y-4.0945
X3.4646Y-4.1732
X3.4646Y-4.252
X3.4646Y-4.3307
X3.4646Y-4.4094
X3.4646Y-4.4882
X3.4646Y-4.5669
X3.4646Y-4.6457
X3.4646Y-4.7244
X3.4646Y-4.8031
X3.4646Y-4.8819
X3.4646Y-4.9606
X3.4646Y-5.0394
X3.5039Y-2.0079
X3.5039Y-2.3228
X3.5039Y-2.4016
X3.5039Y-2.4803
X3.5039Y-2.5591
X3.5039Y-2.6378
X3.5039Y-2.7165
X3.5039Y-2.7953
X3.5039Y-2.874
X3.5039Y-2.9528
X3.5039Y-3.0315
X3.5039Y-3.1102
X3.5039Y-3.189
X3.5039Y-3.2677
X3.5039Y-3.3465
X3.5039Y-3.4252
X3.5039Y-3.5039
X3.5039Y-3.5827
X3.5039Y-3.6614
X3.5039Y-3.7402
X3.5039Y-3.8189
X3.5039Y-3.8976
X3.5039Y-3.9764
X3.5039Y-4.0551
X3.5039Y-4.1339
X3.5039Y-4.2126
X3.5039Y-4.2913
X3.5039Y-4.3701
X3.5039Y-4.4488
X3.5039Y-4.5276
X3.5039Y-4.6063
X3.5039Y-4.685
X3.5039Y-4.7638
X3.5039Y-4.8425
X3.5039Y-4.9213
X3.5039Y-5.0
X3.5039Y-5.0787
X3.5039Y-5.5512
X3.5039Y-5.8661
X3.5827Y-2.0079
X3.5827Y-2.3228
X3.5827Y-2.4016
X3.5827Y-2.4803
X3.5827Y-2.5591
X3.5827Y-2.6378
X3.5827Y-2.7165
X3.5827Y-2.7953
X3.5827Y-2.874
X3.5827Y-2.9528
X3.5827Y-3.0315
X3.5827Y-3.1102
X3.5827Y-3.189
X3.5827Y-3.2677
X3.5827Y-3.3465
X3.5827Y-3.4252
X3.5827Y-3.5039
X3.5827Y-3.5827
X3.5827Y-3.6614
X3.5827Y-3.7402
X3.5827Y-3.8189
X3.5827Y-3.8976
X3.5827Y-3.9764
X3.5827Y-4.0551
X3.5827Y-4.1339
X3.5827Y-4.2126
X3.5827Y-4.2913
X3.5827Y-4.3701
X3.5827Y-4.4488
X3.5827Y-4.5276
X3.5827Y-4.6063
X3.5827Y-4.685
X3.5827Y-4.7638
X3.5827Y-4.8425
X3.5827Y-4.9213
X3.5827Y-5.0
X3.5827Y-5.0787
X3.5827Y-5.1575
X3.5827Y-5.2362
X3.5827Y-5.3937
X3.5827Y-5.4724
X3.5827Y-5.5512
X3.5827Y-5.8661
X3.622Y-2.3622
X3.622Y-2.4409
X3.622Y-2.5197
X3.622Y-2.5984
X3.622Y-2.6772
X3.622Y-2.7559
X3.622Y-2.8346
X3.622Y-2.9134
X3.622Y-2.9921
X3.622Y-3.0709
X3.622Y-3.1496
X3.622Y-3.2283
X3.622Y-3.3071
X3.622Y-3.3858
X3.622Y-3.4646
X3.622Y-3.5433
X3.622Y-3.622
X3.622Y-3.7008
X3.622Y-3.7795
X3.622Y-3.8583
X3.622Y-3.937
X3.622Y-4.0157
X3.622Y-4.0945
X3.622Y-4.1732
X3.622Y-4.252
X3.622Y-4.3307
X3.622Y-4.4094
X3.622Y-4.4882
X3.622Y-4.5669
X3.622Y-4.6457
X3.622Y-4.7244
X3.622Y-4.8031
X3.622Y-4.8819
X3.622Y-4.9606
X3.622Y-5.0394
X3.622Y-5.1181
X3.622Y-5.1969
X3.622Y-5.2756
X3.622Y-5.3543
X3.622Y-5.4331
X3.622Y-5.5118
X3.6614Y-2.0079
X3.6614Y-2.3228
X3.6614Y-2.4016
X3.6614Y-2.4803
X3.6614Y-2.5591
X3.6614Y-2.6378
X3.6614Y-2.7165
X3.6614Y-2.7953
X3.6614Y-2.874
X3.6614Y-2.9528
X3.6614Y-3.0315
X3.6614Y-3.1102
X3.6614Y-3.189
X3.6614Y-3.2677
X3.6614Y-3.3465
X3.6614Y-3.4252
X3.6614Y-3.5039
X3.6614Y-3.5827
X3.6614Y-3.6614
X3.6614Y-3.7402
X3.6614Y-3.8189
X3.6614Y-3.8976
X3.6614Y-3.9764
X3.6614Y-4.0551
X3.6614Y-4.1339
X3.6614Y-4.2126
X3.6614Y-4.2913
X3.6614Y-4.3701
X3.6614Y-4.4488
X3.6614Y-4.5276
X3.6614Y-4.6063
X3.6614Y-4.685
X3.6614Y-4.7638
X3.6614Y-4.8425
X3.6614Y-4.9213
X3.6614Y-5.0
X3.6614Y-5.0787
X3.6614Y-5.1575
X3.6614Y-5.2362
X3.6614Y-5.315
X3.6614Y-5.3937
X3.6614Y-5.4724
X3.6614Y-5.5512
X3.6614Y-5.8661
X3.7008Y-2.0472
X3.7008Y-2.126
X3.7008Y-2.2047
X3.7008Y-2.2835
X3.7008Y-2.3622
X3.7008Y-2.4409
X3.7008Y-2.5197
X3.7008Y-2.5984
X3.7008Y-2.6772
X3.7008Y-2.7559
X3.7008Y-2.8346
X3.7008Y-2.9134
X3.7008Y-2.9921
X3.7008Y-3.0709
X3.7008Y-3.1496
X3.7008Y-3.2283
X3.7008Y-3.3071
X3.7008Y-3.3858
X3.7008Y-3.4646
X3.7008Y-3.5433
X3.7008Y-3.622
X3.7008Y-3.7008
X3.7008Y-3.7795
X3.7008Y-3.8583
X3.7008Y-3.937
X3.7008Y-4.0157
X3.7008Y-4.0945
X3.7008Y-4.1732
X3.7008Y-4.252
X3.7008Y-4.3307
X3.7008Y-4.4094
X3.7008Y-4.4882
X3.7008Y-4.5669
X3.7008Y-4.6457
X3.7008Y-4.7244
X3.7008Y-4.8031
X3.7008Y-4.8819
X3.7008Y-4.9606
X3.7008Y-5.0394
X3.7008Y-5.1181
X3.7008Y-5.1969
X3.7008Y-5.2756
X3.7008Y-5.3543
X3.7008Y-5.4331
X3.7008Y-5.5118
X3.7008Y-5.5906
X3.7008Y-5.6693
X3.7008Y-5.748
X3.7008Y-5.8268
X3.7402Y-2.0079
X3.7402Y-2.0866
X3.7402Y-2.1654
X3.7402Y-2.2441
X3.7402Y-2.3228
X3.7402Y-2.4016
X3.7402Y-2.4803
X3.7402Y-2.5591
X3.7402Y-2.6378
X3.7402Y-2.7165
X3.7402Y-2.7953
X3.7402Y-2.874
X3.7402Y-2.9528
X3.7402Y-3.0315
X3.7402Y-3.1102
X3.7402Y-3.189
X3.7402Y-3.2677
X3.7402Y-3.3465
X3.7402Y-3.4252
X3.7402Y-3.5039
X3.7402Y-3.5827
X3.7402Y-3.6614
X3.7402Y-3.7402
X3.7402Y-3.8189
X3.7402Y-3.8976
X3.7402Y-3.9764
X3.7402Y-4.0551
X3.7402Y-4.1339
X3.7402Y-4.2126
X3.7402Y-4.2913
X3.7402Y-4.3701
X3.7402Y-4.4488
X3.7402Y-4.5276
X3.7402Y-4.6063
X3.7402Y-4.685
X3.7402Y-4.7638
X3.7402Y-4.8425
X3.7402Y-4.9213
X3.7402Y-5.0
X3.7402Y-5.0787
X3.7402Y-5.1575
X3.7402Y-5.2362
X3.7402Y-5.315
X3.7402Y-5.3937
X3.7402Y-5.4724
X3.7402Y-5.5512
X3.7402Y-5.6299
X3.7402Y-5.7087
X3.7402Y-5.7874
X3.7402Y-5.8661
X3.7795Y-2.0472
X3.7795Y-2.126
X3.7795Y-2.2047
X3.7795Y-2.2835
X3.7795Y-2.3622
X3.7795Y-2.4409
X3.7795Y-2.5197
X3.7795Y-2.5984
X3.7795Y-2.6772
X3.7795Y-2.7559
X3.7795Y-2.8346
X3.7795Y-2.9134
X3.7795Y-2.9921
X3.7795Y-3.0709
X3.7795Y-3.1496
X3.7795Y-3.2283
X3.7795Y-3.3071
X3.7795Y-3.3858
X3.7795Y-3.4646
X3.7795Y-3.5433
X3.7795Y-3.622
X3.7795Y-3.7008
X3.7795Y-3.7795
X3.7795Y-3.8583
X3.7795Y-3.937
X3.7795Y-4.0157
X3.7795Y-4.0945
X3.7795Y-4.1732
X3.7795Y-4.252
X3.7795Y-4.3307
X3.7795Y-4.4094
X3.7795Y-4.4882
X3.7795Y-4.5669
X3.7795Y-4.6457
X3.7795Y-4.7244
X3.7795Y-4.8031
X3.7795Y-4.8819
X3.7795Y-4.9606
X3.7795Y-5.0394
X3.7795Y-5.1181
X3.7795Y-5.1969
X3.7795Y-5.2756
X3.7795Y-5.3543
X3.7795Y-5.4331
X3.7795Y-5.5118
X3.7795Y-5.5906
X3.7795Y-5.6693
X3.7795Y-5.748
X3.7795Y-5.8268
X3.8189Y-2.0079
X3.8189Y-2.0866
X3.8189Y-2.1654
X3.8189Y-2.2441
X3.8189Y-2.3228
X3.8189Y-2.4016
X3.8189Y-2.4803
X3.8189Y-2.5591
X3.8189Y-2.6378
X3.8189Y-2.7165
X3.8189Y-2.7953
X3.8189Y-2.874
X3.8189Y-2.9528
X3.8189Y-3.0315
X3.8189Y-3.1102
X3.8189Y-3.189
X3.8189Y-3.2677
X3.8189Y-3.3465
X3.8189Y-3.4252
X3.8189Y-3.5039
X3.8189Y-3.5827
X3.8189Y-3.6614
X3.8189Y-3.7402
X3.8189Y-3.8189
X3.8189Y-3.8976
X3.8189Y-3.9764
X3.8189Y-4.0551
X3.8189Y-4.1339
X3.8189Y-4.2126
X3.8189Y-4.2913
X3.8189Y-4.3701
X3.8189Y-4.4488
X3.8189Y-4.5276
X3.8189Y-4.6063
X3.8189Y-4.685
X3.8189Y-4.7638
X3.8189Y-4.8425
X3.8189Y-4.9213
X3.8189Y-5.0
X3.8189Y-5.0787
X3.8189Y-5.1575
X3.8189Y-5.2362
X3.8189Y-5.315
X3.8189Y-5.3937
X3.8189Y-5.4724
X3.8189Y-5.5512
X3.8189Y-5.6299
X3.8189Y-5.7087
X3.8189Y-5.7874
X3.8189Y-5.8661
X3.8583Y-2.0472
X3.8583Y-2.126
X3.8583Y-2.2047
X3.8583Y-2.2835
X3.8583Y-2.3622
X3.8583Y-2.4409
X3.8583Y-2.5197
X3.8583Y-2.5984
X3.8583Y-2.6772
X3.8583Y-2.7559
X3.8583Y-2.8346
X3.8583Y-2.9134
X3.8583Y-2.9921
X3.8583Y-3.0709
X3.8583Y-3.1496
X3.8583Y-3.2283
X3.8583Y-3.3071
X3.8583Y-3.3858
X3.8583Y-3.4646
X3.8583Y-3.5433
X3.8583Y-3.622
X3.8583Y-3.7008
X3.8583Y-3.7795
X3.8583Y-3.8583
X3.8583Y-3.937
X3.8583Y-4.0157
X3.8583Y-4.0945
X3.8583Y-4.1732
X3.8583Y-4.252
X3.8583Y-4.3307
X3.8583Y-4.4094
X3.8583Y-4.4882
X3.8583Y-4.5669
X3.8583Y-4.6457
X3.8583Y-4.7244
X3.8583Y-4.8031
X3.8583Y-4.8819
X3.8583Y-4.9606
X3.8583Y-5.0394
X3.8583Y-5.1181
X3.8583Y-5.1969
X3.8583Y-5.2756
X3.8583Y-5.3543
X3.8583Y-5.4331
X3.8583Y-5.5118
X3.8583Y-5.5906
X3.8583Y-5.6693
X3.8583Y-5.748
X3.8583Y-5.8268
X3.8976Y-2.0079
X3.8976Y-2.0866
X3.8976Y-2.1654
X3.8976Y-2.2441
X3.8976Y-2.3228
X3.8976Y-2.4016
X3.8976Y-2.4803
X3.8976Y-2.5591
X3.8976Y-2.6378
X3.8976Y-2.7165
X3.8976Y-2.7953
X3.8976Y-2.874
X3.8976Y-2.9528
X3.8976Y-3.0315
X3.8976Y-3.1102
X3.8976Y-3.189
X3.8976Y-3.2677
X3.8976Y-3.3465
X3.8976Y-3.4252
X3.8976Y-3.5039
X3.8976Y-3.5827
X3.8976Y-3.6614
X3.8976Y-3.7402
X3.8976Y-3.8189
X3.8976Y-3.8976
X3.8976Y-3.9764
X3.8976Y-4.0551
X3.8976Y-4.1339
X3.8976Y-4.2126
X3.8976Y-4.2913
X3.8976Y-4.3701
X3.8976Y-4.4488
X3.8976Y-4.5276
X3.8976Y-4.6063
X3.8976Y-4.685
X3.8976Y-4.7638
X3.8976Y-4.8425
X3.8976Y-4.9213
X3.8976Y-5.0
X3.8976Y-5.0787
X3.8976Y-5.1575
X3.8976Y-5.2362
X3.8976Y-5.315
X3.8976Y-5.3937
X3.8976Y-5.4724
X3.8976Y-5.5512
X3.8976Y-5.6299
X3.8976Y-5.7087
X3.8976Y-5.7874
X3.8976Y-5.8661
X3.937Y-2.0472
X3.937Y-2.126
X3.937Y-2.2047
X3.937Y-2.2835
X3.937Y-2.3622
X3.937Y-2.4409
X3.937Y-2.5197
X3.937Y-2.5984
X3.937Y-2.6772
X3.937Y-2.7559
X3.937Y-2.8346
X3.937Y-2.9134
X3.937Y-2.9921
X3.937Y-3.0709
X3.937Y-3.1496
X3.937Y-3.2283
X3.937Y-3.3071
X3.937Y-3.3858
X3.937Y-3.4646
X3.937Y-3.5433
X3.937Y-3.622
X3.937Y-3.7008
X3.937Y-3.7795
X3.937Y-3.8583
X3.937Y-3.937
X3.937Y-4.0157
X3.937Y-4.0945
X3.937Y-4.1732
X3.937Y-4.252
X3.937Y-4.3307
X3.937Y-4.4094
X3.937Y-4.4882
X3.937Y-4.5669
X3.937Y-4.6457
X3.937Y-4.7244
X3.937Y-4.8031
X3.937Y-4.8819
X3.937Y-4.9606
X3.937Y-5.0394
X3.937Y-5.1181
X3.937Y-5.1969
X3.937Y-5.2756
X3.937Y-5.3543
X3.937Y-5.4331
X3.937Y-5.5118
X3.937Y-5.5906
X3.937Y-5.6693
X3.937Y-5.748
X3.937Y-5.8268
X3.9764Y-2.0079
X3.9764Y-2.0866
X3.9764Y-2.1654
X3.9764Y-2.2441
X3.9764Y-2.3228
X3.9764Y-2.4016
X3.9764Y-2.4803
X3.9764Y-2.5591
X3.9764Y-2.6378
X3.9764Y-2.7165
X3.9764Y-2.7953
X3.9764Y-2.874
X3.9764Y-2.9528
X3.9764Y-3.0315
X3.9764Y-3.1102
X3.9764Y-3.189
X3.9764Y-3.2677
X3.9764Y-3.3465
X3.9764Y-3.4252
X3.9764Y-3.5039
X3.9764Y-3.5827
X3.9764Y-3.6614
X3.9764Y-3.7402
X3.9764Y-3.8189
X3.9764Y-3.8976
X3.9764Y-3.9764
X3.9764Y-4.0551
X3.9764Y-4.1339
X3.9764Y-4.2126
X3.9764Y-4.2913
X3.9764Y-4.3701
X3.9764Y-4.4488
X3.9764Y-4.5276
X3.9764Y-4.6063
X3.9764Y-4.685
X3.9764Y-4.7638
X3.9764Y-4.8425
X3.9764Y-4.9213
X3.9764Y-5.0
X3.9764Y-5.0787
X3.9764Y-5.1575
X3.9764Y-5.2362
X3.9764Y-5.315
X3.9764Y-5.3937
X3.9764Y-5.4724
X3.9764Y-5.5512
X3.9764Y-5.6299
X3.9764Y-5.7087
X3.9764Y-5.7874
X3.9764Y-5.8661
X4.0157Y-2.0472
X4.0157Y-2.126
X4.0157Y-2.2047
X4.0157Y-2.2835
X4.0157Y-2.3622
X4.0157Y-2.4409
X4.0157Y-2.5197
X4.0157Y-2.5984
X4.0157Y-2.6772
X4.0157Y-2.7559
X4.0157Y-2.8346
X4.0157Y-2.9134
X4.0157Y-2.9921
X4.0157Y-3.0709
X4.0157Y-3.1496
X4.0157Y-3.2283
X4.0157Y-3.3071
X4.0157Y-3.3858
X4.0157Y-3.4646
X4.0157Y-3.5433
X4.0157Y-3.622
X4.0157Y-3.7008
X4.0157Y-3.7795
X4.0157Y-3.8583
X4.0157Y-3.937
X4.0157Y-4.0157
X4.0157Y-4.0945
X4.0157Y-4.1732
X4.0157Y-4.252
X4.0157Y-4.3307
X4.0157Y-4.4094
X4.0157Y-4.4882
X4.0157Y-4.5669
X4.0157Y-4.6457
X4.0157Y-4.7244
X4.0157Y-4.8031
X4.0157Y-4.8819
X4.0157Y-4.9606
X4.0157Y-5.0394
X4.0157Y-5.1181
X4.0157Y-5.1969
X4.0157Y-5.2756
X4.0157Y-5.3543
X4.0157Y-5.4331
X4.0157Y-5.5118
X4.0157Y-5.5906
X4.0157Y-5.6693
X4.0157Y-5.748
X4.0157Y-5.8268
X4.0551Y-2.0079
X4.0551Y-2.0866
X4.0551Y-2.1654
X4.0551Y-2.2441
X4.0551Y-2.3228
X4.0551Y-2.4016
X4.0551Y-2.4803
X4.0551Y-2.5591
X4.0551Y-2.6378
X4.0551Y-2.7165
X4.0551Y-2.7953
X4.0551Y-2.874
X4.0551Y-2.9528
X4.0551Y-3.0315
X4.0551Y-3.1102
X4.0551Y-3.189
X4.0551Y-3.2677
X4.0551Y-3.3465
X4.0551Y-3.4252
X4.0551Y-3.5039
X4.0551Y-3.5827
X4.0551Y-3.6614
X4.0551Y-3.7402
X4.0551Y-3.8189
X4.0551Y-3.8976
X4.0551Y-3.9764
X4.0551Y-4.0551
X4.0551Y-4.1339
X4.0551Y-4.2126
X4.0551Y-4.2913
X4.0551Y-4.3701
X4.0551Y-4.4488
X4.0551Y-4.5276
X4.0551Y-4.6063
X4.0551Y-4.685
X4.0551Y-4.7638
X4.0551Y-4.8425
X4.0551Y-4.9213
X4.0551Y-5.0
X4.0551Y-5.0787
X4.0551Y-5.1575
X4.0551Y-5.2362
X4.0551Y-5.315
X4.0551Y-5.3937
X4.0551Y-5.4724
X4.0551Y-5.5512
X4.0551Y-5.6299
X4.0551Y-5.7087
X4.0551Y-5.7874
X4.0551Y-5.8661
X4.0945Y-2.0472
X4.0945Y-2.126
X4.0945Y-2.2047
X4.0945Y-2.2835
X4.0945Y-2.3622
X4.0945Y-2.4409
X4.0945Y-2.5197
X4.0945Y-2.5984
X4.0945Y-2.6772
X4.0945Y-2.7559
X4.0945Y-2.8346
X4.0945Y-2.9134
X4.0945Y-2.9921
X4.0945Y-3.0709
X4.0945Y-3.1496
X4.0945Y-3.2283
X4.0945Y-3.3071
X4.0945Y-3.3858
X4.0945Y-3.4646
X4.0945Y-3.5433
X4.0945Y-3.622
X4.0945Y-3.7008
X4.0945Y-3.7795
X4.0945Y-3.8583
X4.0945Y-3.937
X4.0945Y-4.0157
X4.0945Y-4.0945
X4.0945Y-4.1732
X4.0945Y-4.252
X4.0945Y-4.3307
X4.0945Y-4.4094
X4.0945Y-4.4882
X4.0945Y-4.5669
X4.0945Y-4.6457
X4.0945Y-4.7244
X4.0945Y-4.8031
X4.0945Y-4.8819
X4.0945Y-4.9606
X4.0945Y-5.0394
X4.0945Y-5.1181
X4.0945Y-5.1969
X4.0945Y-5.2756
X4.0945Y-5.3543
X4.0945Y-5.4331
X4.0945Y-5.5118
X4.0945Y-5.5906
X4.0945Y-5.6693
X4.0945Y-5.748
X4.0945Y-5.8268
X4.1339Y-2.0079
X4.1339Y-2.0866
X4.1339Y-2.1654
X4.1339Y-2.2441
X4.1339Y-2.3228
X4.1339Y-2.4016
X4.1339Y-2.4803
X4.1339Y-2.5591
X4.1339Y-2.6378
X4.1339Y-2.7165
X4.1339Y-2.7953
X4.1339Y-2.874
X4.1339Y-2.9528
X4.1339Y-3.0315
X4.1339Y-3.1102
X4.1339Y-3.189
X4.1339Y-3.2677
X4.1339Y-3.3465
X4.1339Y-3.4252
X4.1339Y-3.5039
X4.1339Y-3.5827
X4.1339Y-3.6614
X4.1339Y-3.7402
X4.1339Y-3.8189
X4.1339Y-3.8976
X4.1339Y-3.9764
X4.1339Y-4.0551
X4.1339Y-4.1339
X4.1339Y-4.2126
X4.1339Y-4.2913
X4.1339Y-4.3701
X4.1339Y-4.4488
X4.1339Y-4.5276
X4.1339Y-4.6063
X4.1339Y-4.685
X4.1339Y-4.7638
X4.1339Y-4.8425
X4.1339Y-4.9213
X4.1339Y-5.0
X4.1339Y-5.0787
X4.1339Y-5.1575
X4.1339Y-5.2362
X4.1339Y-5.315
X4.1339Y-5.3937
X4.1339Y-5.4724
X4.1339Y-5.5512
X4.1339Y-5.6299
X4.1339Y-5.7087
X4.1339Y-5.7874
X4.1339Y-5.8661
X4.1732Y-2.0472
X4.1732Y-2.126
X4.1732Y-2.2047
X4.1732Y-2.2835
X4.1732Y-2.3622
X4.1732Y-2.4409
X4.1732Y-2.5197
X4.1732Y-2.5984
X4.1732Y-2.6772
X4.1732Y-2.7559
X4.1732Y-2.8346
X4.1732Y-2.9134
X4.1732Y-2.9921
X4.1732Y-3.0709
X4.1732Y-3.1496
X4.1732Y-3.2283
X4.1732Y-3.3071
X4.1732Y-3.3858
X4.1732Y-3.4646
X4.1732Y-3.5433
X4.1732Y-3.622
X4.1732Y-3.7008
X4.1732Y-3.7795
X4.1732Y-3.8583
X4.1732Y-3.937
X4.1732Y-4.0157
X4.1732Y-4.0945
X4.1732Y-4.1732
X4.1732Y-4.252
X4.1732Y-4.3307
X4.1732Y-4.4094
X4.1732Y-4.4882
X4.1732Y-4.5669
X4.1732Y-4.6457
X4.1732Y-4.7244
X4.1732Y-4.8031
X4.1732Y-4.8819
X4.1732Y-4.9606
X4.1732Y-5.0394
X4.1732Y-5.1181
X4.1732Y-5.1969
X4.1732Y-5.2756
X4.1732Y-5.3543
X4.1732Y-5.4331
X4.1732Y-5.5118
X4.1732Y-5.5906
X4.1732Y-5.6693
X4.1732Y-5.748
X4.1732Y-5.8268
X4.2126Y-2.0079
X4.2126Y-2.3228
X4.2126Y-2.4016
X4.2126Y-2.4803
X4.2126Y-2.5591
X4.2126Y-2.6378
X4.2126Y-2.7165
X4.2126Y-2.7953
X4.2126Y-2.874
X4.2126Y-2.9528
X4.2126Y-3.0315
X4.2126Y-3.1102
X4.2126Y-3.189
X4.2126Y-3.2677
X4.2126Y-3.3465
X4.2126Y-3.4252
X4.2126Y-3.5039
X4.2126Y-3.5827
X4.2126Y-3.6614
X4.2126Y-3.7402
X4.2126Y-3.8189
X4.2126Y-3.8976
X4.2126Y-3.9764
X4.2126Y-4.0551
X4.2126Y-4.1339
X4.2126Y-4.2126
X4.2126Y-4.2913
X4.2126Y-4.3701
X4.2126Y-4.4488
X4.2126Y-4.5276
X4.2126Y-4.6063
X4.2126Y-4.685
X4.2126Y-4.7638
X4.2126Y-4.8425
X4.2126Y-4.9213
X4.2126Y-5.0
X4.2126Y-5.0787
X4.2126Y-5.1575
X4.2126Y-5.2362
X4.2126Y-5.315
X4.2126Y-5.3937
X4.2126Y-5.4724
X4.2126Y-5.5512
X4.2126Y-5.8661
X4.252Y-2.3622
X4.252Y-2.4409
X4.252Y-2.5197
X4.252Y-2.5984
X4.252Y-2.6772
X4.252Y-2.7559
X4.252Y-2.8346
X4.252Y-2.9134
X4.252Y-2.9921
X4.252Y-3.0709
X4.252Y-3.1496
X4.252Y-3.2283
X4.252Y-3.3071
X4.252Y-3.3858
X4.252Y-3.4646
X4.252Y-3.5433
X4.252Y-3.622
X4.252Y-3.7008
X4.252Y-3.7795
X4.252Y-3.8583
X4.252Y-3.937
X4.252Y-4.0157
X4.252Y-4.0945
X4.252Y-4.1732
X4.252Y-4.252
X4.252Y-4.3307
X4.252Y-4.4094
X4.252Y-4.4882
X4.252Y-4.5669
X4.252Y-4.6457
X4.252Y-4.7244
X4.252Y-4.8031
X4.252Y-4.8819
X4.252Y-4.9606
X4.252Y-5.0394
X4.252Y-5.1181
X4.252Y-5.1969
X4.252Y-5.2756
X4.252Y-5.3543
X4.252Y-5.4331
X4.252Y-5.5118
X4.2913Y-2.0079
X4.2913Y-2.3228
X4.2913Y-2.4016
X4.2913Y-2.4803
X4.2913Y-2.5591
X4.2913Y-2.6378
X4.2913Y-2.7165
X4.2913Y-2.7953
X4.2913Y-2.874
X4.2913Y-2.9528
X4.2913Y-3.0315
X4.2913Y-3.1102
X4.2913Y-3.189
X4.2913Y-3.2677
X4.2913Y-3.3465
X4.2913Y-3.4252
X4.2913Y-3.5039
X4.2913Y-3.5827
X4.2913Y-3.6614
X4.2913Y-3.7402
X4.2913Y-3.8189
X4.2913Y-3.8976
X4.2913Y-3.9764
X4.2913Y-4.0551
X4.2913Y-4.1339
X4.2913Y-4.2126
X4.2913Y-4.2913
X4.2913Y-4.3701
X4.2913Y-4.4488
X4.2913Y-4.5276
X4.2913Y-4.6063
X4.2913Y-4.685
X4.2913Y-4.7638
X4.2913Y-4.8425
X4.2913Y-4.9213
X4.2913Y-5.0
X4.2913Y-5.0787
X4.2913Y-5.1575
X4.2913Y-5.2362
X4.2913Y-5.3937
X4.2913Y-5.4724
X4.2913Y-5.5512
X4.2913Y-5.8661
X4.3701Y-2.0079
X4.3701Y-2.3228
X4.3701Y-2.4016
X4.3701Y-2.4803
X4.3701Y-2.5591
X4.3701Y-2.6378
X4.3701Y-2.7165
X4.3701Y-2.7953
X4.3701Y-2.874
X4.3701Y-2.9528
X4.3701Y-3.0315
X4.3701Y-3.1102
X4.3701Y-3.189
X4.3701Y-3.2677
X4.3701Y-3.3465
X4.3701Y-3.4252
X4.3701Y-3.5039
X4.3701Y-3.5827
X4.3701Y-3.6614
X4.3701Y-3.7402
X4.3701Y-3.8189
X4.3701Y-3.8976
X4.3701Y-3.9764
X4.3701Y-4.0551
X4.3701Y-4.1339
X4.3701Y-4.2126
X4.3701Y-4.2913
X4.3701Y-4.3701
X4.3701Y-4.4488
X4.3701Y-4.5276
X4.3701Y-4.6063
X4.3701Y-4.685
X4.3701Y-4.7638
X4.3701Y-4.8425
X4.3701Y-4.9213
X4.3701Y-5.0
X4.3701Y-5.0787
X4.3701Y-5.1575
X4.3701Y-5.2362
X4.3701Y-5.3937
X4.3701Y-5.4724
X4.3701Y-5.5512
X4.3701Y-5.8661
X4.4094Y-2.3622
X4.4094Y-2.4409
X4.4094Y-2.5197
X4.4094Y-2.5984
X4.4094Y-2.6772
X4.4094Y-2.7559
X4.4094Y-2.8346
X4.4094Y-2.9134
X4.4094Y-2.9921
X4.4094Y-3.0709
X4.4094Y-3.1496
X4.4094Y-3.2283
X4.4094Y-3.3071
X4.4094Y-3.3858
X4.4094Y-3.4646
X4.4094Y-3.5433
X4.4094Y-3.622
X4.4094Y-3.7008
X4.4094Y-3.7795
X4.4094Y-3.8583
X4.4094Y-3.937
X4.4094Y-4.0157
X4.4094Y-4.0945
X4.4094Y-4.1732
X4.4094Y-4.252
X4.4094Y-4.3307
X4.4094Y-4.4094
X4.4094Y-4.4882
X4.4094Y-4.5669
X4.4094Y-4.6457
X4.4094Y-4.7244
X4.4094Y-4.8031
X4.4094Y-4.8819
X4.4094Y-4.9606
X4.4094Y-5.0394
X4.4094Y-5.1181
X4.4094Y-5.1969
X4.4094Y-5.2756
X4.4094Y-5.3543
X4.4094Y-5.4331
X4.4094Y-5.5118
X4.4488Y-2.0079
X4.4488Y-2.3228
X4.4488Y-2.4016
X4.4488Y-2.4803
X4.4488Y-2.5591
X4.4488Y-2.6378
X4.4488Y-2.7165
X4.4488Y-2.7953
X4.4488Y-2.874
X4.4488Y-2.9528
X4.4488Y-3.0315
X4.4488Y-3.1102
X4.4488Y-3.189
X4.4488Y-3.2677
X4.4488Y-3.3465
X4.4488Y-3.4252
X4.4488Y-3.5039
X4.4488Y-3.5827
X4.4488Y-3.6614
X4.4488Y-3.7402
X4.4488Y-3.8189
X4.4488Y-3.8976
X4.4488Y-3.9764
X4.4488Y-4.0551
X4.4488Y-4.1339
X4.4488Y-4.2126
X4.4488Y-4.2913
X4.4488Y-4.3701
X4.4488Y-4.4488
X4.4488Y-4.5276
X4.4488Y-4.6063
X4.4488Y-4.685
X4.4488Y-4.7638
X4.4488Y-4.8425
X4.4488Y-4.9213
X4.4488Y-5.0
X4.4488Y-5.0787
X4.4488Y-5.1575
X4.4488Y-5.2362
X4.4488Y-5.315
X4.4488Y-5.3937
X4.4488Y-5.4724
X4.4488Y-5.5512
X4.4488Y-5.8661
X4.4882Y-2.0472
X4.4882Y-2.126
X4.4882Y-2.2047
X4.4882Y-2.2835
X4.4882Y-2.3622
X4.4882Y-2.4409
X4.4882Y-2.5197
X4.4882Y-2.5984
X4.4882Y-2.6772
X4.4882Y-2.7559
X4.4882Y-2.8346
X4.4882Y-2.9134
X4.4882Y-2.9921
X4.4882Y-3.0709
X4.4882Y-3.1496
X4.4882Y-3.2283
X4.4882Y-3.3071
X4.4882Y-3.3858
X4.4882Y-3.4646
X4.4882Y-3.5433
X4.4882Y-3.622
X4.4882Y-3.7008
X4.4882Y-3.7795
X4.4882Y-3.8583
X4.4882Y-3.937
X4.4882Y-4.0157
X4.4882Y-4.0945
X4.4882Y-4.1732
X4.4882Y-4.252
X4.4882Y-4.3307
X4.4882Y-4.4094
X4.4882Y-4.4882
X4.4882Y-4.5669
X4.4882Y-4.6457
X4.4882Y-4.7244
X4.4882Y-4.8031
X4.4882Y-4.8819
X4.4882Y-4.9606
X4.4882Y-5.0394
X4.4882Y-5.1181
X4.4882Y-5.1969
X4.4882Y-5.2756
X4.4882Y-5.3543
X4.4882Y-5.4331
X4.4882Y-5.5118
X4.4882Y-5.5906
X4.4882Y-5.6693
X4.4882Y-5.748
X4.4882Y-5.8268
X4.5276Y-2.0079
X4.5276Y-2.0866
X4.5276Y-2.1654
X4.5276Y-2.2441
X4.5276Y-2.3228
X4.5276Y-2.4016
X4.5276Y-2.4803
X4.5276Y-2.5591
X4.5276Y-2.6378
X4.5276Y-2.7165
X4.5276Y-2.7953
X4.5276Y-2.874
X4.5276Y-2.9528
X4.5276Y-3.0315
X4.5276Y-3.1102
X4.5276Y-3.189
X4.5276Y-3.2677
X4.5276Y-3.3465
X4.5276Y-3.4252
X4.5276Y-3.5039
X4.5276Y-3.5827
X4.5276Y-3.6614
X4.5276Y-3.7402
X4.5276Y-3.8189
X4.5276Y-3.8976
X4.5276Y-3.9764
X4.5276Y-4.0551
X4.5276Y-4.1339
X4.5276Y-4.2126
X4.5276Y-4.2913
X4.5276Y-4.3701
X4.5276Y-4.4488
X4.5276Y-4.5276
X4.5276Y-4.6063
X4.5276Y-4.685
X4.5276Y-4.7638
X4.5276Y-4.8425
X4.5276Y-4.9213
X4.5276Y-5.0
X4.5276Y-5.0787
X4.5276Y-5.5512
X4.5276Y-5.6299
X4.5276Y-5.7087
X4.5276Y-5.7874
X4.5276Y-5.8661
X4.5669Y-2.0472
X4.5669Y-2.126
X4.5669Y-2.2047
X4.5669Y-2.2835
X4.5669Y-2.3622
X4.5669Y-2.4409
X4.5669Y-2.5197
X4.5669Y-2.5984
X4.5669Y-2.6772
X4.5669Y-2.7559
X4.5669Y-2.8346
X4.5669Y-2.9134
X4.5669Y-2.9921
X4.5669Y-3.0709
X4.5669Y-3.1496
X4.5669Y-3.2283
X4.5669Y-3.3071
X4.5669Y-3.3858
X4.5669Y-3.4646
X4.5669Y-3.5433
X4.5669Y-3.622
X4.5669Y-3.7008
X4.5669Y-3.7795
X4.5669Y-3.8583
X4.5669Y-3.937
X4.5669Y-4.0157
X4.5669Y-4.0945
X4.5669Y-4.1732
X4.5669Y-4.252
X4.5669Y-4.3307
X4.5669Y-4.4094
X4.5669Y-4.4882
X4.5669Y-4.5669
X4.5669Y-4.6457
X4.5669Y-4.7244
X4.5669Y-4.8031
X4.5669Y-4.8819
X4.5669Y-4.9606
X4.5669Y-5.0394
X4.5669Y-5.5906
X4.5669Y-5.6693
X4.5669Y-5.748
X4.5669Y-5.8268
X4.6063Y-2.0079
X4.6063Y-2.3228
X4.6063Y-2.4016
X4.6063Y-2.4803
X4.6063Y-2.5591
X4.6063Y-2.6378
X4.6063Y-2.7165
X4.6063Y-2.7953
X4.6063Y-2.874
X4.6063Y-2.9528
X4.6063Y-3.0315
X4.6063Y-3.1102
X4.6063Y-3.189
X4.6063Y-3.2677
X4.6063Y-3.3465
X4.6063Y-3.4252
X4.6063Y-3.5039
X4.6063Y-3.5827
X4.6063Y-3.6614
X4.6063Y-3.7402
X4.6063Y-3.8189
X4.6063Y-3.8976
X4.6063Y-3.9764
X4.6063Y-4.0551
X4.6063Y-4.1339
X4.6063Y-4.2126
X4.6063Y-4.2913
X4.6063Y-4.3701
X4.6063Y-4.4488
X4.6063Y-4.5276
X4.6063Y-4.6063
X4.6063Y-4.685
X4.6063Y-4.7638
X4.6063Y-4.8425
X4.6063Y-4.9213
X4.6063Y-5.0
X4.6063Y-5.0787
X4.6063Y-5.5512
X4.6063Y-5.8661
X4.6457Y-2.3622
X4.6457Y-2.4409
X4.6457Y-2.5197
X4.6457Y-2.5984
X4.6457Y-2.6772
X4.6457Y-2.7559
X4.6457Y-2.8346
X4.6457Y-2.9134
X4.6457Y-2.9921
X4.6457Y-3.0709
X4.6457Y-3.1496
X4.6457Y-3.2283
X4.6457Y-3.3071
X4.6457Y-3.3858
X4.6457Y-3.4646
X4.6457Y-3.5433
X4.6457Y-3.622
X4.6457Y-3.7008
X4.6457Y-3.7795
X4.6457Y-3.8583
X4.6457Y-3.937
X4.6457Y-4.0157
X4.6457Y-4.0945
X4.6457Y-4.1732
X4.6457Y-4.252
X4.6457Y-4.3307
X4.6457Y-4.4094
X4.6457Y-4.4882
X4.6457Y-4.5669
X4.6457Y-4.6457
X4.6457Y-4.7244
X4.6457Y-4.8031
X4.6457Y-4.8819
X4.6457Y-4.9606
X4.6457Y-5.0394
X4.685Y-2.0079
X4.685Y-2.3228
X4.685Y-2.4016
X4.685Y-2.4803
X4.685Y-2.5591
X4.685Y-2.6378
X4.685Y-2.7165
X4.685Y-2.7953
X4.685Y-2.874
X4.685Y-2.9528
X4.685Y-3.0315
X4.685Y-3.1102
X4.685Y-3.189
X4.685Y-3.2677
X4.685Y-3.3465
X4.685Y-3.4252
X4.685Y-3.5039
X4.685Y-3.5827
X4.685Y-3.6614
X4.685Y-3.7402
X4.685Y-3.8189
X4.685Y-3.8976
X4.685Y-3.9764
X4.685Y-4.0551
X4.685Y-4.1339
X4.685Y-4.2126
X4.685Y-4.2913
X4.685Y-4.3701
X4.685Y-4.4488
X4.685Y-4.5276
X4.685Y-4.6063
X4.685Y-4.685
X4.685Y-4.7638
X4.685Y-4.8425
X4.685Y-4.9213
X4.685Y-5.0
X4.685Y-5.0787
X4.685Y-5.5512
X4.685Y-5.8661
X4.7638Y-2.0079
X4.7638Y-2.3228
X4.7638Y-2.4016
X4.7638Y-2.4803
X4.7638Y-2.5591
X4.7638Y-2.6378
X4.7638Y-2.7165
X4.7638Y-2.7953
X4.7638Y-2.874
X4.7638Y-2.9528
X4.7638Y-3.0315
X4.7638Y-3.1102
X4.7638Y-3.189
X4.7638Y-3.2677
X4.7638Y-3.3465
X4.7638Y-3.4252
X4.7638Y-3.5039
X4.7638Y-3.5827
X4.7638Y-3.6614
X4.7638Y-3.7402
X4.7638Y-3.8189
X4.7638Y-3.8976
X4.7638Y-3.9764
X4.7638Y-4.0551
X4.7638Y-4.1339
X4.7638Y-4.2126
X4.7638Y-4.2913
X4.7638Y-4.3701
X4.7638Y-4.4488
X4.7638Y-4.5276
X4.7638Y-4.6063
X4.7638Y-4.685
X4.7638Y-4.7638
X4.7638Y-4.8425
X4.7638Y-4.9213
X4.7638Y-5.0
X4.7638Y-5.0787
X4.7638Y-5.1575
X4.7638Y-5.2362
X4.7638Y-5.3937
X4.7638Y-5.4724
X4.7638Y-5.5512
X4.7638Y-5.8661
X4.8031Y-2.3622
X4.8031Y-2.4409
X4.8031Y-2.5197
X4.8031Y-2.5984
X4.8031Y-2.6772
X4.8031Y-2.7559
X4.8031Y-2.8346
X4.8031Y-2.9134
X4.8031Y-2.9921
X4.8031Y-3.0709
X4.8031Y-3.1496
X4.8031Y-3.2283
X4.8031Y-3.3071
X4.8031Y-3.3858
X4.8031Y-3.4646
X4.8031Y-3.5433
X4.8031Y-3.622
X4.8031Y-3.7008
X4.8031Y-3.7795
X4.8031Y-3.8583
X4.8031Y-3.937
X4.8031Y-4.0157
X4.8031Y-4.0945
X4.8031Y-4.1732
X4.8031Y-4.252
X4.8031Y-4.3307
X4.8031Y-4.4094
X4.8031Y-4.4882
X4.8031Y-4.5669
X4.8031Y-4.6457
X4.8031Y-4.7244
X4.8031Y-4.8031
X4.8031Y-4.8819
X4.8031Y-4.9606
X4.8031Y-5.0394
X4.8031Y-5.1181
X4.8031Y-5.1969
X4.8031Y-5.2756
X4.8031Y-5.3543
X4.8031Y-5.4331
X4.8031Y-5.5118
X4.8425Y-2.0079
X4.8425Y-2.3228
X4.8425Y-2.4016
X4.8425Y-2.4803
X4.8425Y-2.5591
X4.8425Y-2.6378
X4.8425Y-2.7165
X4.8425Y-2.7953
X4.8425Y-2.874
X4.8425Y-2.9528
X4.8425Y-3.0315
X4.8425Y-3.1102
X4.8425Y-3.189
X4.8425Y-3.2677
X4.8425Y-3.3465
X4.8425Y-3.4252
X4.8425Y-3.5039
X4.8425Y-3.5827
X4.8425Y-3.6614
X4.8425Y-3.7402
X4.8425Y-3.8189
X4.8425Y-3.8976
X4.8425Y-3.9764
X4.8425Y-4.0551
X4.8425Y-4.1339
X4.8425Y-4.2126
X4.8425Y-4.2913
X4.8425Y-4.3701
X4.8425Y-4.4488
X4.8425Y-4.5276
X4.8425Y-4.6063
X4.8425Y-4.685
X4.8425Y-4.7638
X4.8425Y-4.8425
X4.8425Y-4.9213
X4.8425Y-5.0
X4.8425Y-5.0787
X4.8425Y-5.1575
X4.8425Y-5.2362
X4.8425Y-5.315
X4.8425Y-5.3937
X4.8425Y-5.4724
X4.8425Y-5.5512
X4.8425Y-5.8661
X4.8819Y-2.0472
X4.8819Y-2.126
X4.8819Y-2.2047
X4.8819Y-2.2835
X4.8819Y-2.3622
X4.8819Y-2.4409
X4.8819Y-2.5197
X4.8819Y-2.5984
X4.8819Y-2.6772
X4.8819Y-2.7559
X4.8819Y-2.8346
X4.8819Y-2.9134
X4.8819Y-2.9921
X4.8819Y-3.0709
X4.8819Y-3.1496
X4.8819Y-3.2283
X4.8819Y-3.3071
X4.8819Y-3.3858
X4.8819Y-3.4646
X4.8819Y-3.5433
X4.8819Y-3.622
X4.8819Y-3.7008
X4.8819Y-3.7795
X4.8819Y-3.8583
X4.8819Y-3.937
X4.8819Y-4.0157
X4.8819Y-4.0945
X4.8819Y-4.1732
X4.8819Y-4.252
X4.8819Y-4.3307
X4.8819Y-4.4094
X4.8819Y-4.4882
X4.8819Y-4.5669
X4.8819Y-4.6457
X4.8819Y-4.7244
X4.8819Y-4.8031
X4.8819Y-4.8819
X4.8819Y-4.9606
X4.8819Y-5.0394
X4.8819Y-5.1181
X4.8819Y-5.1969
X4.8819Y-5.2756
X4.8819Y-5.3543
X4.8819Y-5.4331
X4.8819Y-5.5118
X4.8819Y-5.5906
X4.8819Y-5.6693
X4.8819Y-5.748
X4.8819Y-5.8268
X4.9213Y-2.0079
X4.9213Y-2.0866
X4.9213Y-2.1654
X4.9213Y-2.2441
X4.9213Y-2.3228
X4.9213Y-2.4016
X4.9213Y-2.4803
X4.9213Y-2.5591
X4.9213Y-2.6378
X4.9213Y-2.7165
X4.9213Y-2.7953
X4.9213Y-2.874
X4.9213Y-2.9528
X4.9213Y-3.0315
X4.9213Y-3.1102
X4.9213Y-3.189
X4.9213Y-3.2677
X4.9213Y-3.3465
X4.9213Y-3.4252
X4.9213Y-3.5039
X4.9213Y-3.5827
X4.9213Y-3.6614
X4.9213Y-3.7402
X4.9213Y-3.8189
X4.9213Y-3.8976
X4.9213Y-3.9764
X4.9213Y-4.0551
X4.9213Y-4.1339
X4.9213Y-4.2126
X4.9213Y-4.2913
X4.9213Y-4.3701
X4.9213Y-4.4488
X4.9213Y-4.5276
X4.9213Y-4.6063
X4.9213Y-4.685
X4.9213Y-4.7638
X4.9213Y-4.8425
X4.9213Y-4.9213
X4.9213Y-5.0
X4.9213Y-5.0787
X4.9213Y-5.1575
X4.9213Y-5.2362
X4.9213Y-5.315
X4.9213Y-5.3937
X4.9213Y-5.4724
X4.9213Y-5.5512
X4.9213Y-5.6299
X4.9213Y-5.7087
X4.9213Y-5.7874
X4.9213Y-5.8661
X4.9606Y-2.0472
X4.9606Y-2.126
X4.9606Y-2.2047
X4.9606Y-2.2835
X4.9606Y-2.3622
X4.9606Y-2.4409
X4.9606Y-2.5197
X4.9606Y-2.5984
X4.9606Y-2.6772
X4.9606Y-2.7559
X4.9606Y-2.8346
X4.9606Y-2.9134
X4.9606Y-2.9921
X4.9606Y-3.0709
X4.9606Y-3.1496
X4.9606Y-3.2283
X4.9606Y-3.3071
X4.9606Y-3.3858
X4.9606Y-3.4646
X4.9606Y-3.5433
X4.9606Y-3.622
X4.9606Y-3.7008
X4.9606Y-3.7795
X4.9606Y-3.8583
X4.9606Y-3.937
X4.9606Y-4.0157
X4.9606Y-4.0945
X4.9606Y-4.1732
X4.9606Y-4.252
X4.9606Y-4.3307
X4.9606Y-4.4094
X4.9606Y-4.4882
X4.9606Y-4.5669
X4.9606Y-4.6457
X4.9606Y-4.7244
X4.9606Y-4.8031
X4.9606Y-4.8819
X4.9606Y-4.9606
X4.9606Y-5.0394
X4.9606Y-5.1181
X4.9606Y-5.1969
X4.9606Y-5.2756
X4.9606Y-5.3543
X4.9606Y-5.4331
X4.9606Y-5.5118
X4.9606Y-5.5906
X4.9606Y-5.6693
X4.9606Y-5.748
X4.9606Y-5.8268
X5.0Y-2.0079
X5.0Y-2.3228
X5.0Y-2.4016
X5.0Y-2.4803
X5.0Y-2.5591
X5.0Y-2.6378
X5.0Y-2.7165
X5.0Y-2.7953
X5.0Y-2.874
X5.0Y-2.9528
X5.0Y-3.0315
X5.0Y-3.1102
X5.0Y-3.189
X5.0Y-3.2677
X5.0Y-3.3465
X5.0Y-3.4252
X5.0Y-3.5039
X5.0Y-3.5827
X5.0Y-3.6614
X5.0Y-3.7402
X5.0Y-3.8189
X5.0Y-3.8976
X5.0Y-3.9764
X5.0Y-4.0551
X5.0Y-4.1339
X5.0Y-4.2126
X5.0Y-4.2913
X5.0Y-4.3701
X5.0Y-4.4488
X5.0Y-4.5276
X5.0Y-4.6063
X5.0Y-4.685
X5.0Y-4.7638
X5.0Y-4.8425
X5.0Y-4.9213
X5.0Y-5.0
X5.0Y-5.0787
X5.0Y-5.1575
X5.0Y-5.2362
X5.0Y-5.315
X5.0Y-5.3937
X5.0Y-5.4724
X5.0Y-5.5512
X5.0Y-5.8661
X5.0394Y-2.3622
X5.0394Y-2.4409
X5.0394Y-2.5197
X5.0394Y-2.5984
X5.0394Y-2.6772
X5.0394Y-2.7559
X5.0394Y-2.8346
X5.0394Y-2.9134
X5.0394Y-2.9921
X5.0394Y-3.0709
X5.0394Y-3.1496
X5.0394Y-3.2283
X5.0394Y-3.3071
X5.0394Y-3.3858
X5.0394Y-3.4646
X5.0394Y-3.5433
X5.0394Y-3.622
X5.0394Y-3.7008
X5.0394Y-3.7795
X5.0394Y-3.8583
X5.0394Y-3.937
X5.0394Y-4.0157
X5.0394Y-4.0945
X5.0394Y-4.1732
X5.0394Y-4.252
X5.0394Y-4.3307
X5.0394Y-4.4094
X5.0394Y-4.4882
X5.0394Y-4.5669
X5.0394Y-4.6457
X5.0394Y-4.7244
X5.0394Y-4.8031
X5.0394Y-4.8819
X5.0394Y-4.9606
X5.0394Y-5.0394
X5.0394Y-5.1181
X5.0394Y-5.1969
X5.0394Y-5.2756
X5.0394Y-5.3543
X5.0394Y-5.4331
X5.0394Y-5.5118
X5.0787Y-2.0079
X5.0787Y-2.3228
X5.0787Y-2.4016
X5.0787Y-2.4803
X5.0787Y-2.5591
X5.0787Y-2.6378
X5.0787Y-2.7165
X5.0787Y-2.7953
X5.0787Y-2.874
X5.0787Y-2.9528
X5.0787Y-3.0315
X5.0787Y-3.1102
X5.0787Y-3.189
X5.0787Y-3.2677
X5.0787Y-3.3465
X5.0787Y-3.4252
X5.0787Y-3.5039
X5.0787Y-3.5827
X5.0787Y-3.6614
X5.0787Y-3.7402
X5.0787Y-3.8189
X5.0787Y-3.8976
X5.0787Y-3.9764
X5.0787Y-4.0551
X5.0787Y-4.1339
X5.0787Y-4.2126
X5.0787Y-4.2913
X5.0787Y-4.3701
X5.0787Y-4.4488
X5.0787Y-4.5276
X5.0787Y-4.6063
X5.0787Y-4.685
X5.0787Y-4.7638
X5.0787Y-4.8425
X5.0787Y-4.9213
X5.0787Y-5.0
X5.0787Y-5.0787
X5.0787Y-5.1575
X5.0787Y-5.2362
X5.0787Y-5.3937
X5.0787Y-5.4724
X5.0787Y-5.5512
X5.0787Y-5.8661
X5.1575Y-2.0079
X5.1575Y-2.3228
X5.1575Y-2.4016
X5.1575Y-2.4803
X5.1575Y-2.5591
X5.1575Y-2.6378
X5.1575Y-2.7165
X5.1575Y-2.7953
X5.1575Y-2.874
X5.1575Y-2.9528
X5.1575Y-3.0315
X5.1575Y-3.1102
X5.1575Y-3.189
X5.1575Y-3.2677
X5.1575Y-3.3465
X5.1575Y-3.4252
X5.1575Y-3.5039
X5.1575Y-3.5827
X5.1575Y-3.6614
X5.1575Y-3.7402
X5.1575Y-3.8189
X5.1575Y-3.8976
X5.1575Y-3.9764
X5.1575Y-4.0551
X5.1575Y-4.1339
X5.1575Y-4.2126
X5.1575Y-4.2913
X5.1575Y-4.3701
X5.1575Y-4.4488
X5.1575Y-4.5276
X5.1575Y-4.6063
X5.1575Y-4.685
X5.1575Y-4.7638
X5.1575Y-4.8425
X5.1575Y-4.9213
X5.1575Y-5.0
X5.1575Y-5.0787
X5.1575Y-5.1575
X5.1575Y-5.2362
X5.1575Y-5.3937
X5.1575Y-5.4724
X5.1575Y-5.5512
X5.1575Y-5.8661
X5.1969Y-2.3622
X5.1969Y-2.4409
X5.1969Y-2.5197
X5.1969Y-2.5984
X5.1969Y-2.6772
X5.1969Y-2.7559
X5.1969Y-2.8346
X5.1969Y-2.9134
X5.1969Y-2.9921
X5.1969Y-3.0709
X5.1969Y-3.1496
X5.1969Y-3.2283
X5.1969Y-3.3071
X5.1969Y-3.3858
X5.1969Y-3.4646
X5.1969Y-3.5433
X5.1969Y-3.622
X5.1969Y-3.7008
X5.1969Y-3.7795
X5.1969Y-3.8583
X5.1969Y-3.937
X5.1969Y-4.0157
X5.1969Y-4.0945
X5.1969Y-4.1732
X5.1969Y-4.252
X5.1969Y-4.3307
X5.1969Y-4.4094
X5.1969Y-4.4882
X5.1969Y-4.5669
X5.1969Y-4.6457
X5.1969Y-4.7244
X5.1969Y-4.8031
X5.1969Y-4.8819
X5.1969Y-4.9606
X5.1969Y-5.0394
X5.1969Y-5.1181
X5.1969Y-5.1969
X5.1969Y-5.2756
X5.1969Y-5.3543
X5.1969Y-5.4331
X5.1969Y-5.5118
X5.2362Y-2.0079
X5.2362Y-2.3228
X5.2362Y-2.4016
X5.2362Y-2.4803
X5.2362Y-2.5591
X5.2362Y-2.6378
X5.2362Y-2.7165
X5.2362Y-2.7953
X5.2362Y-2.874
X5.2362Y-2.9528
X5.2362Y-3.0315
X5.2362Y-3.1102
X5.2362Y-3.189
X5.2362Y-3.2677
X5.2362Y-3.3465
X5.2362Y-3.4252
X5.2362Y-3.5039
X5.2362Y-3.5827
X5.2362Y-3.6614
X5.2362Y-3.7402
X5.2362Y-3.8189
X5.2362Y-3.8976
X5.2362Y-3.9764
X5.2362Y-4.0551
X5.2362Y-4.1339
X5.2362Y-4.2126
X5.2362Y-4.2913
X5.2362Y-4.3701
X5.2362Y-4.4488
X5.2362Y-4.5276
X5.2362Y-4.6063
X5.2362Y-4.685
X5.2362Y-4.7638
X5.2362Y-4.8425
X5.2362Y-4.9213
X5.2362Y-5.0
X5.2362Y-5.0787
X5.2362Y-5.1575
X5.2362Y-5.2362
X5.2362Y-5.315
X5.2362Y-5.3937
X5.2362Y-5.4724
X5.2362Y-5.5512
X5.2362Y-5.8661
X5.2756Y-2.0472
X5.2756Y-2.126
X5.2756Y-2.2047
X5.2756Y-2.2835
X5.2756Y-2.3622
X5.2756Y-2.4409
X5.2756Y-2.5197
X5.2756Y-2.5984
X5.2756Y-2.6772
X5.2756Y-2.7559
X5.2756Y-2.8346
X5.2756Y-2.9134
X5.2756Y-2.9921
X5.2756Y-3.0709
X5.2756Y-3.1496
X5.2756Y-3.2283
X5.2756Y-3.3071
X5.2756Y-3.3858
X5.2756Y-3.4646
X5.2756Y-3.5433
X5.2756Y-3.622
X5.2756Y-3.7008
X5.2756Y-3.7795
X5.2756Y-3.8583
X5.2756Y-3.937
X5.2756Y-4.0157
X5.2756Y-4.0945
X5.2756Y-4.1732
X5.2756Y-4.252
X5.2756Y-4.3307
X5.2756Y-4.4094
X5.2756Y-4.4882
X5.2756Y-4.5669
X5.2756Y-4.6457
X5.2756Y-4.7244
X5.2756Y-4.8031
X5.2756Y-4.8819
X5.2756Y-4.9606
X5.2756Y-5.0394
X5.2756Y-5.1181
X5.2756Y-5.1969
X5.2756Y-5.2756
X5.2756Y-5.3543
X5.2756Y-5.4331
X5.2756Y-5.5118
X5.2756Y-5.5906
X5.2756Y-5.6693
X5.2756Y-5.748
X5.2756Y-5.8268
X5.315Y-2.0079
X5.315Y-2.0866
X5.315Y-2.1654
X5.315Y-2.2441
X5.315Y-2.3228
X5.315Y-2.4016
X5.315Y-2.4803
X5.315Y-2.5591
X5.315Y-2.6378
X5.315Y-2.7165
X5.315Y-2.7953
X5.315Y-2.874
X5.315Y-2.9528
X5.315Y-3.0315
X5.315Y-3.1102
X5.315Y-3.189
X5.315Y-3.2677
X5.315Y-3.3465
X5.315Y-3.4252
X5.315Y-3.5039
X5.315Y-3.5827
X5.315Y-3.6614
X5.315Y-3.7402
X5.315Y-3.8189
X5.315Y-3.8976
X5.315Y-3.9764
X5.315Y-4.0551
X5.315Y-4.1339
X5.315Y-4.2126
X5.315Y-4.2913
X5.315Y-4.3701
X5.315Y-4.4488
X5.315Y-4.5276
X5.315Y-4.6063
X5.315Y-4.685
X5.315Y-4.7638
X5.315Y-4.8425
X5.315Y-4.9213
X5.315Y-5.0
X5.315Y-5.0787
X5.315Y-5.5512
X5.315Y-5.6299
X5.315Y-5.7087
X5.315Y-5.7874
X5.315Y-5.8661
X5.3543Y-2.0472
X5.3543Y-2.126
X5.3543Y-2.2047
X5.3543Y-2.2835
X5.3543Y-2.3622
X5.3543Y-2.4409
X5.3543Y-2.5197
X5.3543Y-2.5984
X5.3543Y-2.6772
X5.3543Y-2.7559
X5.3543Y-2.8346
X5.3543Y-2.9134
X5.3543Y-2.9921
X5.3543Y-3.0709
X5.3543Y-3.1496
X5.3543Y-3.2283
X5.3543Y-3.3071
X5.3543Y-3.3858
X5.3543Y-3.4646
X5.3543Y-3.5433
X5.3543Y-3.622
X5.3543Y-3.7008
X5.3543Y-3.7795
X5.3543Y-3.8583
X5.3543Y-3.937
X5.3543Y-4.0157
X5.3543Y-4.0945
X5.3543Y-4.1732
X5.3543Y-4.252
X5.3543Y-4.3307
X5.3543Y-4.4094
X5.3543Y-4.4882
X5.3543Y-4.5669
X5.3543Y-4.6457
X5.3543Y-4.7244
X5.3543Y-4.8031
X5.3543Y-4.8819
X5.3543Y-4.9606
X5.3543Y-5.0394
X5.3543Y-5.5906
X5.3543Y-5.6693
X5.3543Y-5.748
X5.3543Y-5.8268
X5.3937Y-2.0079
X5.3937Y-2.3228
X5.3937Y-2.4016
X5.3937Y-2.4803
X5.3937Y-2.5591
X5.3937Y-2.6378
X5.3937Y-2.7165
X5.3937Y-2.7953
X5.3937Y-2.874
X5.3937Y-2.9528
X5.3937Y-3.0315
X5.3937Y-3.1102
X5.3937Y-3.189
X5.3937Y-3.2677
X5.3937Y-3.3465
X5.3937Y-3.4252
X5.3937Y-3.5039
X5.3937Y-3.5827
X5.3937Y-3.6614
X5.3937Y-3.7402
X5.3937Y-3.8189
X5.3937Y-3.8976
X5.3937Y-3.9764
X5.3937Y-4.0551
X5.3937Y-4.1339
X5.3937Y-4.2126
X5.3937Y-4.2913
X5.3937Y-4.3701
X5.3937Y-4.4488
X5.3937Y-4.5276
X5.3937Y-4.6063
X5.3937Y-4.685
X5.3937Y-4.7638
X5.3937Y-4.8425
X5.3937Y-4.9213
X5.3937Y-5.0
X5.3937Y-5.0787
X5.3937Y-5.5512
X5.3937Y-5.8661
X5.4331Y-2.3622
X5.4331Y-2.4409
X5.4331Y-2.5197
X5.4331Y-2.5984
X5.4331Y-2.6772
X5.4331Y-2.7559
X5.4331Y-2.8346
X5.4331Y-2.9134
X5.4331Y-2.9921
X5.4331Y-3.0709
X5.4331Y-3.1496
X5.4331Y-3.2283
X5.4331Y-3.3071
X5.4331Y-3.3858
X5.4331Y-3.4646
X5.4331Y-3.5433
X5.4331Y-3.622
X5.4331Y-3.7008
X5.4331Y-3.7795
X5.4331Y-3.8583
X5.4331Y-3.937
X5.4331Y-4.0157
X5.4331Y-4.0945
X5.4331Y-4.1732
X5.4331Y-4.252
X5.4331Y-4.3307
X5.4331Y-4.4094
X5.4331Y-4.4882
X5.4331Y-4.5669
X5.4331Y-4.6457
X5.4331Y-4.7244
X5.4331Y-4.8031
X5.4331Y-4.8819
X5.4331Y-4.9606
X5.4331Y-5.0394
X5.4724Y-2.0079
X5.4724Y-2.3228
X5.4724Y-2.4016
X5.4724Y-2.4803
X5.4724Y-2.5591
X5.4724Y-2.6378
X5.4724Y-2.7165
X5.4724Y-2.7953
X5.4724Y-2.874
X5.4724Y-2.9528
X5.4724Y-3.0315
X5.4724Y-3.1102
X5.4724Y-3.189
X5.4724Y-3.2677
X5.4724Y-3.3465
X5.4724Y-3.4252
X5.4724Y-3.5039
X5.4724Y-3.5827
X5.4724Y-3.6614
X5.4724Y-3.7402
X5.4724Y-3.8189
X5.4724Y-3.8976
X5.4724Y-3.9764
X5.4724Y-4.0551
X5.4724Y-4.1339
X5.4724Y-4.2126
X5.4724Y-4.2913
X5.4724Y-4.3701
X5.4724Y-4.4488
X5.4724Y-4.5276
X5.4724Y-4.6063
X5.4724Y-4.685
X5.4724Y-4.7638
X5.4724Y-4.8425
X5.4724Y-4.9213
X5.4724Y-5.0
X5.4724Y-5.0787
X5.4724Y-5.5512
X5.4724Y-5.8661
X5.5512Y-2.0079
X5.5512Y-2.3228
X5.5512Y-2.4016
X5.5512Y-2.4803
X5.5512Y-2.5591
X5.5512Y-2.6378
X5.5512Y-2.7165
X5.5512Y-2.7953
X5.5512Y-2.874
X5.5512Y-2.9528
X5.5512Y-3.0315
X5.5512Y-3.1102
X5.5512Y-3.189
X5.5512Y-3.2677
X5.5512Y-3.3465
X5.5512Y-3.4252
X5.5512Y-3.5039
X5.5512Y-3.5827
X5.5512Y-3.6614
X5.5512Y-3.7402
X5.5512Y-3.8189
X5.5512Y-3.8976
X5.5512Y-3.9764
X5.5512Y-4.0551
X5.5512Y-4.1339
X5.5512Y-4.2126
X5.5512Y-4.2913
X5.5512Y-4.3701
X5.5512Y-4.4488
X5.5512Y-4.5276
X5.5512Y-4.6063
X5.5512Y-4.685
X5.5512Y-4.7638
X5.5512Y-4.8425
X5.5512Y-4.9213
X5.5512Y-5.0
X5.5512Y-5.0787
X5.5512Y-5.1575
X5.5512Y-5.2362
X5.5512Y-5.3937
X5.5512Y-5.4724
X5.5512Y-5.5512
X5.5512Y-5.8661
X5.5906Y-2.3622
X5.5906Y-2.4409
X5.5906Y-2.5197
X5.5906Y-2.5984
X5.5906Y-2.6772
X5.5906Y-2.7559
X5.5906Y-2.8346
X5.5906Y-2.9134
X5.5906Y-2.9921
X5.5906Y-3.0709
X5.5906Y-3.1496
X5.5906Y-3.2283
X5.5906Y-3.3071
X5.5906Y-3.3858
X5.5906Y-3.4646
X5.5906Y-3.5433
X5.5906Y-3.622
X5.5906Y-3.7008
X5.5906Y-3.7795
X5.5906Y-3.8583
X5.5906Y-3.937
X5.5906Y-4.0157
X5.5906Y-4.0945
X5.5906Y-4.1732
X5.5906Y-4.252
X5.5906Y-4.3307
X5.5906Y-4.4094
X5.5906Y-4.4882
X5.5906Y-4.5669
X5.5906Y-4.6457
X5.5906Y-4.7244
X5.5906Y-4.8031
X5.5906Y-4.8819
X5.5906Y-4.9606
X5.5906Y-5.0394
X5.5906Y-5.1181
X5.5906Y-5.1969
X5.5906Y-5.2756
X5.5906Y-5.3543
X5.5906Y-5.4331
X5.5906Y-5.5118
X5.6299Y-2.0079
X5.6299Y-2.3228
X5.6299Y-2.4016
X5.6299Y-2.4803
X5.6299Y-2.5591
X5.6299Y-2.6378
X5.6299Y-2.7165
X5.6299Y-2.7953
X5.6299Y-2.874
X5.6299Y-2.9528
X5.6299Y-3.0315
X5.6299Y-3.1102
X5.6299Y-3.189
X5.6299Y-3.2677
X5.6299Y-3.3465
X5.6299Y-3.4252
X5.6299Y-3.5039
X5.6299Y-3.5827
X5.6299Y-3.6614
X5.6299Y-3.7402
X5.6299Y-3.8189
X5.6299Y-3.8976
X5.6299Y-3.9764
X5.6299Y-4.0551
X5.6299Y-4.1339
X5.6299Y-4.2126
X5.6299Y-4.2913
X5.6299Y-4.3701
X5.6299Y-4.4488
X5.6299Y-4.5276
X5.6299Y-4.6063
X5.6299Y-4.685
X5.6299Y-4.7638
X5.6299Y-4.8425
X5.6299Y-4.9213
X5.6299Y-5.0
X5.6299Y-5.0787
X5.6299Y-5.1575
X5.6299Y-5.2362
X5.6299Y-5.315
X5.6299Y-5.3937
X5.6299Y-5.4724
X5.6299Y-5.5512
X5.6299Y-5.8661
X5.6693Y-2.0472
X5.6693Y-2.126
X5.6693Y-2.2047
X5.6693Y-2.2835
X5.6693Y-2.3622
X5.6693Y-2.4409
X5.6693Y-2.5197
X5.6693Y-2.5984
X5.6693Y-2.6772
X5.6693Y-2.7559
X5.6693Y-2.8346
X5.6693Y-2.9134
X5.6693Y-2.9921
X5.6693Y-3.0709
X5.6693Y-3.1496
X5.6693Y-3.2283
X5.6693Y-3.3071
X5.6693Y-3.3858
X5.6693Y-3.4646
X5.6693Y-3.5433
X5.6693Y-3.622
X5.6693Y-3.7008
X5.6693Y-3.7795
X5.6693Y-3.8583
X5.6693Y-3.937
X5.6693Y-4.0157
X5.6693Y-4.0945
X5.6693Y-4.1732
X5.6693Y-4.252
X5.6693Y-4.3307
X5.6693Y-4.4094
X5.6693Y-4.4882
X5.6693Y-4.5669
X5.6693Y-4.6457
X5.6693Y-4.7244
X5.6693Y-4.8031
X5.6693Y-4.8819
X5.6693Y-4.9606
X5.6693Y-5.0394
X5.6693Y-5.1181
X5.6693Y-5.1969
X5.6693Y-5.2756
X5.6693Y-5.3543
X5.6693Y-5.4331
X5.6693Y-5.5118
X5.6693Y-5.5906
X5.6693Y-5.6693
X5.6693Y-5.748
X5.6693Y-5.8268
X5.7087Y-2.0079
X5.7087Y-2.0866
X5.7087Y-2.1654
X5.7087Y-2.2441
X5.7087Y-2.3228
X5.7087Y-2.4016
X5.7087Y-2.4803
X5.7087Y-2.5591
X5.7087Y-2.6378
X5.7087Y-2.7165
X5.7087Y-2.7953
X5.7087Y-2.874
X5.7087Y-2.9528
X5.7087Y-3.0315
X5.7087Y-3.1102
X5.7087Y-3.189
X5.7087Y-3.2677
X5.7087Y-3.3465
X5.7087Y-3.4252
X5.7087Y-3.5039
X5.7087Y-3.5827
X5.7087Y-3.6614
X5.7087Y-3.7402
X5.7087Y-3.8189
X5.7087Y-3.8976
X5.7087Y-3.9764
X5.7087Y-4.0551
X5.7087Y-4.1339
X5.7087Y-4.2126
X5.7087Y-4.2913
X5.7087Y-4.3701
X5.7087Y-4.4488
X5.7087Y-4.5276
X5.7087Y-4.6063
X5.7087Y-4.685
X5.7087Y-4.7638
X5.7087Y-4.8425
X5.7087Y-4.9213
X5.7087Y-5.0
X5.7087Y-5.0787
X5.7087Y-5.1575
X5.7087Y-5.2362
X5.7087Y-5.315
X5.7087Y-5.3937
X5.7087Y-5.4724
X5.7087Y-5.5512
X5.7087Y-5.6299
X5.7087Y-5.7087
X5.7087Y-5.7874
X5.7087Y-5.8661
X5.748Y-2.0472
X5.748Y-2.126
X5.748Y-2.2047
X5.748Y-2.2835
X5.748Y-2.3622
X5.748Y-2.4409
X5.748Y-2.5197
X5.748Y-2.5984
X5.748Y-2.6772
X5.748Y-2.7559
X5.748Y-2.8346
X5.748Y-2.9134
X5.748Y-2.9921
X5.748Y-3.0709
X5.748Y-3.1496
X5.748Y-3.2283
X5.748Y-3.3071
X5.748Y-3.3858
X5.748Y-3.4646
X5.748Y-3.5433
X5.748Y-3.622
X5.748Y-3.7008
X5.748Y-3.7795
X5.748Y-3.8583
X5.748Y-3.937
X5.748Y-4.0157
X5.748Y-4.0945
X5.748Y-4.1732
X5.748Y-4.252
X5.748Y-4.3307
X5.748Y-4.4094
X5.748Y-4.4882
X5.748Y-4.5669
X5.748Y-4.6457
X5.748Y-4.7244
X5.748Y-4.8031
X5.748Y-4.8819
X5.748Y-4.9606
X5.748Y-5.0394
X5.748Y-5.1181
X5.748Y-5.1969
X5.748Y-5.2756
X5.748Y-5.3543
X5.748Y-5.4331
X5.748Y-5.5118
X5.748Y-5.5906
X5.748Y-5.6693
X5.748Y-5.748
X5.748Y-5.8268
X5.7874Y-2.0079
X5.7874Y-2.0866
X5.7874Y-2.1654
X5.7874Y-2.2441
X5.7874Y-2.3228
X5.7874Y-2.4016
X5.7874Y-2.4803
X5.7874Y-2.5591
X5.7874Y-2.6378
X5.7874Y-2.7165
X5.7874Y-2.7953
X5.7874Y-2.874
X5.7874Y-2.9528
X5.7874Y-3.0315
X5.7874Y-3.1102
X5.7874Y-3.189
X5.7874Y-3.2677
X5.7874Y-3.3465
X5.7874Y-3.4252
X5.7874Y-3.5039
X5.7874Y-3.5827
X5.7874Y-3.6614
X5.7874Y-3.7402
X5.7874Y-3.8189
X5.7874Y-3.8976
X5.7874Y-3.9764
X5.7874Y-4.0551
X5.7874Y-4.1339
X5.7874Y-4.2126
X5.7874Y-4.2913
X5.7874Y-4.3701
X5.7874Y-4.4488
X5.7874Y-4.5276
X5.7874Y-4.6063
X5.7874Y-4.685
X5.7874Y-4.7638
X5.7874Y-4.8425
X5.7874Y-4.9213
X5.7874Y-5.0
X5.7874Y-5.0787
X5.7874Y-5.1575
X5.7874Y-5.2362
X5.7874Y-5.315
X5.7874Y-5.3937
X5.7874Y-5.4724
X5.7874Y-5.5512
X5.7874Y-5.6299
X5.7874Y-5.7087
X5.7874Y-5.7874
X5.7874Y-5.8661
X5.8268Y-2.0472
X5.8268Y-2.126
X5.8268Y-2.2047
X5.8268Y-2.2835
X5.8268Y-2.3622
X5.8268Y-2.4409
X5.8268Y-2.5197
X5.8268Y-2.5984
X5.8268Y-2.6772
X5.8268Y-2.7559
X5.8268Y-2.8346
X5.8268Y-2.9134
X5.8268Y-2.9921
X5.8268Y-3.0709
X5.8268Y-3.1496
X5.8268Y-3.2283
X5.8268Y-3.3071
X5.8268Y-3.3858
X5.8268Y-3.4646
X5.8268Y-3.5433
X5.8268Y-3.622
X5.8268Y-3.7008
X5.8268Y-3.7795
X5.8268Y-3.8583
X5.8268Y-3.937
X5.8268Y-4.0157
X5.8268Y-4.0945
X5.8268Y-4.1732
X5.8268Y-4.252
X5.8268Y-4.3307
X5.8268Y-4.4094
X5.8268Y-4.4882
X5.8268Y-4.5669
X5.8268Y-4.6457
X5.8268Y-4.7244
X5.8268Y-4.8031
X5.8268Y-4.8819
X5.8268Y-4.9606
X5.8268Y-5.0394
X5.8268Y-5.1181
X5.8268Y-5.1969
X5.8268Y-5.2756
X5.8268Y-5.3543
X5.8268Y-5.4331
X5.8268Y-5.5118
X5.8268Y-5.5906
X5.8268Y-5.6693
X5.8268Y-5.748
X5.8268Y-5.8268
X5.8661Y-2.0079
X5.8661Y-2.0866
X5.8661Y-2.1654
X5.8661Y-2.2441
X5.8661Y-2.3228
X5.8661Y-2.4016
X5.8661Y-2.4803
X5.8661Y-2.5591
X5.8661Y-2.6378
X5.8661Y-2.7165
X5.8661Y-2.7953
X5.8661Y-2.874
X5.8661Y-2.9528
X5.8661Y-3.0315
X5.8661Y-3.1102
X5.8661Y-3.189
X5.8661Y-3.2677
X5.8661Y-3.3465
X5.8661Y-3.4252
X5.8661Y-3.5039
X5.8661Y-3.5827
X5.8661Y-3.6614
X5.8661Y-3.7402
X5.8661Y-3.8189
X5.8661Y-3.8976
X5.8661Y-3.9764
X5.8661Y-4.0551
X5.8661Y-4.1339
X5.8661Y-4.2126
X5.8661Y-4.2913
X5.8661Y-4.3701
X5.8661Y-4.4488
X5.8661Y-4.5276
X5.8661Y-4.6063
X5.8661Y-4.685
X5.8661Y-4.7638
X5.8661Y-4.8425
X5.8661Y-4.9213
X5.8661Y-5.0
X5.8661Y-5.0787
X5.8661Y-5.1575
X5.8661Y-5.2362
X5.8661Y-5.315
X5.8661Y-5.3937
X5.8661Y-5.4724
X5.8661Y-5.5512
X5.8661Y-5.6299
X5.8661Y-5.7087
X5.8661Y-5.7874
X5.8661Y-5.8661
M30
