%TF.GenerationSoftware,KiCad,Pcbnew,8.0.3*%
%TF.CreationDate,2024-06-16T14:00:48-05:00*%
%TF.ProjectId,jlcpcb flex RF,6a6c6370-6362-4206-966c-65782052462e,rev?*%
%TF.SameCoordinates,Original*%
%TF.FileFunction,Soldermask,Top*%
%TF.FilePolarity,Negative*%
%FSLAX46Y46*%
G04 Gerber Fmt 4.6, Leading zero omitted, Abs format (unit mm)*
G04 Created by KiCad (PCBNEW 8.0.3) date 2024-06-16 14:00:48*
%MOMM*%
%LPD*%
G01*
G04 APERTURE LIST*
G04 Aperture macros list*
%AMRoundRect*
0 Rectangle with rounded corners*
0 $1 Rounding radius*
0 $2 $3 $4 $5 $6 $7 $8 $9 X,Y pos of 4 corners*
0 Add a 4 corners polygon primitive as box body*
4,1,4,$2,$3,$4,$5,$6,$7,$8,$9,$2,$3,0*
0 Add four circle primitives for the rounded corners*
1,1,$1+$1,$2,$3*
1,1,$1+$1,$4,$5*
1,1,$1+$1,$6,$7*
1,1,$1+$1,$8,$9*
0 Add four rect primitives between the rounded corners*
20,1,$1+$1,$2,$3,$4,$5,0*
20,1,$1+$1,$4,$5,$6,$7,0*
20,1,$1+$1,$6,$7,$8,$9,0*
20,1,$1+$1,$8,$9,$2,$3,0*%
%AMFreePoly0*
4,1,25,-1.500000,1.420000,-1.360000,1.280000,-1.205000,1.155000,-1.035000,1.045000,-0.860000,0.950000,-0.675000,0.875000,-0.480000,0.820000,-0.280000,0.780000,-0.085000,0.765000,0.085000,0.765000,0.280000,0.780000,0.480000,0.820000,0.675000,0.875000,0.860000,0.950000,1.035000,1.045000,1.205000,1.155000,1.360000,1.280000,1.500000,1.420000,1.645000,1.595000,3.555000,1.595000,
3.555000,-0.755000,-3.555000,-0.755000,-3.555000,1.595000,-1.645000,1.595000,-1.500000,1.420000,-1.500000,1.420000,$1*%
G04 Aperture macros list end*
%ADD10RoundRect,0.250000X-0.350000X-0.650000X0.350000X-0.650000X0.350000X0.650000X-0.350000X0.650000X0*%
%ADD11RoundRect,0.135000X0.135000X0.185000X-0.135000X0.185000X-0.135000X-0.185000X0.135000X-0.185000X0*%
%ADD12C,1.730000*%
%ADD13FreePoly0,270.000000*%
%ADD14FreePoly0,90.000000*%
G04 APERTURE END LIST*
D10*
%TO.C,AE2*%
X87100000Y-135000000D03*
X90000000Y-135000000D03*
%TD*%
D11*
%TO.C,R2*%
X130000000Y-135000000D03*
X128980000Y-135000000D03*
%TD*%
D12*
%TO.C,J8*%
X90000000Y-145000000D03*
D13*
X87200000Y-145000000D03*
D14*
X92800000Y-145000000D03*
%TD*%
D10*
%TO.C,AE4*%
X137100000Y-135000000D03*
X140000000Y-135000000D03*
%TD*%
D12*
%TO.C,J16*%
X140000000Y-145000000D03*
D13*
X137200000Y-145000000D03*
D14*
X142800000Y-145000000D03*
%TD*%
D11*
%TO.C,R1*%
X110000000Y-135000000D03*
X108980000Y-135000000D03*
%TD*%
D12*
%TO.C,J9*%
X110000000Y-55000000D03*
D13*
X107200000Y-55000000D03*
D14*
X112800000Y-55000000D03*
%TD*%
D12*
%TO.C,J4*%
X70000000Y-145000000D03*
D13*
X67200000Y-145000000D03*
D14*
X72800000Y-145000000D03*
%TD*%
D12*
%TO.C,J7*%
X90000000Y-55000000D03*
D13*
X87200000Y-55000000D03*
D14*
X92800000Y-55000000D03*
%TD*%
D12*
%TO.C,J3*%
X70000000Y-55000000D03*
D13*
X67200000Y-55000000D03*
D14*
X72800000Y-55000000D03*
%TD*%
D12*
%TO.C,J11*%
X120000000Y-55000000D03*
D13*
X117200000Y-55000000D03*
D14*
X122800000Y-55000000D03*
%TD*%
D12*
%TO.C,J10*%
X110000000Y-145000000D03*
D13*
X107200000Y-145000000D03*
D14*
X112800000Y-145000000D03*
%TD*%
D12*
%TO.C,J14*%
X130000000Y-145000000D03*
D13*
X127200000Y-145000000D03*
D14*
X132800000Y-145000000D03*
%TD*%
D12*
%TO.C,J15*%
X140000000Y-55000000D03*
D13*
X137200000Y-55000000D03*
D14*
X142800000Y-55000000D03*
%TD*%
D10*
%TO.C,AE1*%
X67100000Y-135000000D03*
X70000000Y-135000000D03*
%TD*%
D12*
%TO.C,J12*%
X120000000Y-145000000D03*
D13*
X117200000Y-145000000D03*
D14*
X122800000Y-145000000D03*
%TD*%
D11*
%TO.C,R6*%
X80000000Y-135000000D03*
X78980000Y-135000000D03*
%TD*%
D12*
%TO.C,J6*%
X80000000Y-145000000D03*
D13*
X77200000Y-145000000D03*
D14*
X82800000Y-145000000D03*
%TD*%
D12*
%TO.C,J2*%
X60000000Y-145000000D03*
D13*
X57200000Y-145000000D03*
D14*
X62800000Y-145000000D03*
%TD*%
D11*
%TO.C,R3*%
X60000000Y-135000000D03*
X58980000Y-135000000D03*
%TD*%
D10*
%TO.C,AE3*%
X117100000Y-135000000D03*
X120000000Y-135000000D03*
%TD*%
D12*
%TO.C,J13*%
X130000000Y-55000000D03*
D13*
X127200000Y-55000000D03*
D14*
X132800000Y-55000000D03*
%TD*%
D12*
%TO.C,J1*%
X60000000Y-55000000D03*
D13*
X57200000Y-55000000D03*
D14*
X62800000Y-55000000D03*
%TD*%
D12*
%TO.C,J5*%
X80000000Y-55000000D03*
D13*
X77200000Y-55000000D03*
D14*
X82800000Y-55000000D03*
%TD*%
G36*
X80443039Y-136019685D02*
G01*
X80488794Y-136072489D01*
X80500000Y-136124000D01*
X80500000Y-136500000D01*
X80626000Y-136500000D01*
X80693039Y-136519685D01*
X80738794Y-136572489D01*
X80750000Y-136624000D01*
X80750000Y-140376000D01*
X80730315Y-140443039D01*
X80677511Y-140488794D01*
X80626000Y-140500000D01*
X80500000Y-140500000D01*
X80500000Y-144876000D01*
X80480315Y-144943039D01*
X80427511Y-144988794D01*
X80376000Y-145000000D01*
X79624000Y-145000000D01*
X79556961Y-144980315D01*
X79511206Y-144927511D01*
X79500000Y-144876000D01*
X79500000Y-140500000D01*
X79374000Y-140500000D01*
X79306961Y-140480315D01*
X79261206Y-140427511D01*
X79250000Y-140376000D01*
X79250000Y-136624000D01*
X79269685Y-136556961D01*
X79322489Y-136511206D01*
X79374000Y-136500000D01*
X79500000Y-136500000D01*
X79500000Y-136124000D01*
X79519685Y-136056961D01*
X79572489Y-136011206D01*
X79624000Y-136000000D01*
X80376000Y-136000000D01*
X80443039Y-136019685D01*
G37*
G36*
X130443039Y-54519685D02*
G01*
X130488794Y-54572489D01*
X130500000Y-54624000D01*
X130500000Y-59500000D01*
X130626000Y-59500000D01*
X130693039Y-59519685D01*
X130738794Y-59572489D01*
X130750000Y-59624000D01*
X130750000Y-133376000D01*
X130730315Y-133443039D01*
X130677511Y-133488794D01*
X130626000Y-133500000D01*
X130500000Y-133500000D01*
X130500000Y-133876000D01*
X130480315Y-133943039D01*
X130427511Y-133988794D01*
X130376000Y-134000000D01*
X129624000Y-134000000D01*
X129556961Y-133980315D01*
X129511206Y-133927511D01*
X129500000Y-133876000D01*
X129500000Y-133500000D01*
X129374000Y-133500000D01*
X129306961Y-133480315D01*
X129261206Y-133427511D01*
X129250000Y-133376000D01*
X129250000Y-59624000D01*
X129269685Y-59556961D01*
X129322489Y-59511206D01*
X129374000Y-59500000D01*
X129500000Y-59500000D01*
X129500000Y-54624000D01*
X129519685Y-54556961D01*
X129572489Y-54511206D01*
X129624000Y-54500000D01*
X130376000Y-54500000D01*
X130443039Y-54519685D01*
G37*
G36*
X90443039Y-55019685D02*
G01*
X90488794Y-55072489D01*
X90500000Y-55124000D01*
X90500000Y-59500000D01*
X90626000Y-59500000D01*
X90693039Y-59519685D01*
X90738794Y-59572489D01*
X90750000Y-59624000D01*
X90750000Y-133376000D01*
X90730315Y-133443039D01*
X90677511Y-133488794D01*
X90626000Y-133500000D01*
X89500000Y-133500000D01*
X89499103Y-133500896D01*
X89480315Y-133564882D01*
X89427511Y-133610637D01*
X89358353Y-133620581D01*
X89294797Y-133591556D01*
X89257023Y-133532778D01*
X89254383Y-133522036D01*
X89252383Y-133511982D01*
X89250000Y-133487789D01*
X89250000Y-59624000D01*
X89269685Y-59556961D01*
X89322489Y-59511206D01*
X89374000Y-59500000D01*
X89500000Y-59500000D01*
X89500000Y-55124000D01*
X89519685Y-55056961D01*
X89572489Y-55011206D01*
X89624000Y-55000000D01*
X90376000Y-55000000D01*
X90443039Y-55019685D01*
G37*
G36*
X140443039Y-55019685D02*
G01*
X140488794Y-55072489D01*
X140500000Y-55124000D01*
X140500000Y-59500000D01*
X140626000Y-59500000D01*
X140693039Y-59519685D01*
X140738794Y-59572489D01*
X140750000Y-59624000D01*
X140750000Y-133376000D01*
X140730315Y-133443039D01*
X140677511Y-133488794D01*
X140626000Y-133500000D01*
X139500000Y-133500000D01*
X139499103Y-133500896D01*
X139480315Y-133564882D01*
X139427511Y-133610637D01*
X139358353Y-133620581D01*
X139294797Y-133591556D01*
X139257023Y-133532778D01*
X139254383Y-133522036D01*
X139252383Y-133511982D01*
X139250000Y-133487789D01*
X139250000Y-59624000D01*
X139269685Y-59556961D01*
X139322489Y-59511206D01*
X139374000Y-59500000D01*
X139500000Y-59500000D01*
X139500000Y-55124000D01*
X139519685Y-55056961D01*
X139572489Y-55011206D01*
X139624000Y-55000000D01*
X140376000Y-55000000D01*
X140443039Y-55019685D01*
G37*
G36*
X139417254Y-136385220D02*
G01*
X139473926Y-136426087D01*
X139499507Y-136491105D01*
X139499899Y-136499899D01*
X139500000Y-136500000D01*
X140626000Y-136500000D01*
X140693039Y-136519685D01*
X140738794Y-136572489D01*
X140750000Y-136624000D01*
X140750000Y-140376000D01*
X140730315Y-140443039D01*
X140677511Y-140488794D01*
X140626000Y-140500000D01*
X140500000Y-140500000D01*
X140500000Y-144876000D01*
X140480315Y-144943039D01*
X140427511Y-144988794D01*
X140376000Y-145000000D01*
X139624000Y-145000000D01*
X139556961Y-144980315D01*
X139511206Y-144927511D01*
X139500000Y-144876000D01*
X139500000Y-140500000D01*
X139374000Y-140500000D01*
X139306961Y-140480315D01*
X139261206Y-140427511D01*
X139250000Y-140376000D01*
X139250000Y-136512210D01*
X139252383Y-136488017D01*
X139254383Y-136477963D01*
X139286769Y-136416053D01*
X139347485Y-136381479D01*
X139417254Y-136385220D01*
G37*
G36*
X130443039Y-136019685D02*
G01*
X130488794Y-136072489D01*
X130500000Y-136124000D01*
X130500000Y-136500000D01*
X130626000Y-136500000D01*
X130693039Y-136519685D01*
X130738794Y-136572489D01*
X130750000Y-136624000D01*
X130750000Y-140376000D01*
X130730315Y-140443039D01*
X130677511Y-140488794D01*
X130626000Y-140500000D01*
X130500000Y-140500000D01*
X130500000Y-144876000D01*
X130480315Y-144943039D01*
X130427511Y-144988794D01*
X130376000Y-145000000D01*
X129624000Y-145000000D01*
X129556961Y-144980315D01*
X129511206Y-144927511D01*
X129500000Y-144876000D01*
X129500000Y-140500000D01*
X129374000Y-140500000D01*
X129306961Y-140480315D01*
X129261206Y-140427511D01*
X129250000Y-140376000D01*
X129250000Y-136624000D01*
X129269685Y-136556961D01*
X129322489Y-136511206D01*
X129374000Y-136500000D01*
X129500000Y-136500000D01*
X129500000Y-136124000D01*
X129519685Y-136056961D01*
X129572489Y-136011206D01*
X129624000Y-136000000D01*
X130376000Y-136000000D01*
X130443039Y-136019685D01*
G37*
G36*
X80443039Y-55019685D02*
G01*
X80488794Y-55072489D01*
X80500000Y-55124000D01*
X80500000Y-59500000D01*
X80626000Y-59500000D01*
X80693039Y-59519685D01*
X80738794Y-59572489D01*
X80750000Y-59624000D01*
X80750000Y-133376000D01*
X80730315Y-133443039D01*
X80677511Y-133488794D01*
X80626000Y-133500000D01*
X80500000Y-133500000D01*
X80500000Y-133876000D01*
X80480315Y-133943039D01*
X80427511Y-133988794D01*
X80376000Y-134000000D01*
X79624000Y-134000000D01*
X79556961Y-133980315D01*
X79511206Y-133927511D01*
X79500000Y-133876000D01*
X79500000Y-133500000D01*
X79374000Y-133500000D01*
X79306961Y-133480315D01*
X79261206Y-133427511D01*
X79250000Y-133376000D01*
X79250000Y-59624000D01*
X79269685Y-59556961D01*
X79322489Y-59511206D01*
X79374000Y-59500000D01*
X79500000Y-59500000D01*
X79500000Y-55124000D01*
X79519685Y-55056961D01*
X79572489Y-55011206D01*
X79624000Y-55000000D01*
X80376000Y-55000000D01*
X80443039Y-55019685D01*
G37*
G36*
X89417254Y-136385220D02*
G01*
X89473926Y-136426087D01*
X89499507Y-136491105D01*
X89499899Y-136499899D01*
X89500000Y-136500000D01*
X90626000Y-136500000D01*
X90693039Y-136519685D01*
X90738794Y-136572489D01*
X90750000Y-136624000D01*
X90750000Y-140376000D01*
X90730315Y-140443039D01*
X90677511Y-140488794D01*
X90626000Y-140500000D01*
X90500000Y-140500000D01*
X90500000Y-144876000D01*
X90480315Y-144943039D01*
X90427511Y-144988794D01*
X90376000Y-145000000D01*
X89624000Y-145000000D01*
X89556961Y-144980315D01*
X89511206Y-144927511D01*
X89500000Y-144876000D01*
X89500000Y-140500000D01*
X89374000Y-140500000D01*
X89306961Y-140480315D01*
X89261206Y-140427511D01*
X89250000Y-140376000D01*
X89250000Y-136512210D01*
X89252383Y-136488017D01*
X89254383Y-136477963D01*
X89286769Y-136416053D01*
X89347485Y-136381479D01*
X89417254Y-136385220D01*
G37*
G36*
X79705203Y-59408443D02*
G01*
X79742977Y-59467221D01*
X79745617Y-59477963D01*
X79747617Y-59488017D01*
X79750000Y-59512210D01*
X79750000Y-133487789D01*
X79747617Y-133511982D01*
X79745617Y-133522036D01*
X79713231Y-133583946D01*
X79652515Y-133618520D01*
X79582746Y-133614779D01*
X79526074Y-133573912D01*
X79500493Y-133508894D01*
X79500100Y-133500100D01*
X79500000Y-133500000D01*
X77624000Y-133500000D01*
X77556961Y-133480315D01*
X77511206Y-133427511D01*
X77500000Y-133376000D01*
X77500000Y-59624000D01*
X77519685Y-59556961D01*
X77572489Y-59511206D01*
X77624000Y-59500000D01*
X79500000Y-59500000D01*
X79500896Y-59499103D01*
X79519685Y-59435117D01*
X79572489Y-59389362D01*
X79641647Y-59379418D01*
X79705203Y-59408443D01*
G37*
G36*
X80417254Y-59385220D02*
G01*
X80473926Y-59426087D01*
X80499507Y-59491105D01*
X80499899Y-59499899D01*
X80500000Y-59500000D01*
X82376000Y-59500000D01*
X82443039Y-59519685D01*
X82488794Y-59572489D01*
X82500000Y-59624000D01*
X82500000Y-133376000D01*
X82480315Y-133443039D01*
X82427511Y-133488794D01*
X82376000Y-133500000D01*
X80500000Y-133500000D01*
X80499103Y-133500896D01*
X80480315Y-133564882D01*
X80427511Y-133610637D01*
X80358353Y-133620581D01*
X80294797Y-133591556D01*
X80257023Y-133532778D01*
X80254383Y-133522036D01*
X80252383Y-133511982D01*
X80250000Y-133487789D01*
X80250000Y-59512210D01*
X80252383Y-59488017D01*
X80254383Y-59477963D01*
X80286769Y-59416053D01*
X80347485Y-59381479D01*
X80417254Y-59385220D01*
G37*
G36*
X79705203Y-136408443D02*
G01*
X79742977Y-136467221D01*
X79745617Y-136477963D01*
X79747617Y-136488017D01*
X79750000Y-136512210D01*
X79750000Y-140487789D01*
X79747617Y-140511982D01*
X79745617Y-140522036D01*
X79713231Y-140583946D01*
X79652515Y-140618520D01*
X79582746Y-140614779D01*
X79526074Y-140573912D01*
X79500493Y-140508894D01*
X79500100Y-140500100D01*
X79500000Y-140500000D01*
X77624000Y-140500000D01*
X77556961Y-140480315D01*
X77511206Y-140427511D01*
X77500000Y-140376000D01*
X77500000Y-136624000D01*
X77519685Y-136556961D01*
X77572489Y-136511206D01*
X77624000Y-136500000D01*
X79500000Y-136500000D01*
X79500896Y-136499103D01*
X79519685Y-136435117D01*
X79572489Y-136389362D01*
X79641647Y-136379418D01*
X79705203Y-136408443D01*
G37*
G36*
X80417254Y-136385220D02*
G01*
X80473926Y-136426087D01*
X80499507Y-136491105D01*
X80499899Y-136499899D01*
X80500000Y-136500000D01*
X82376000Y-136500000D01*
X82443039Y-136519685D01*
X82488794Y-136572489D01*
X82500000Y-136624000D01*
X82500000Y-140376000D01*
X82480315Y-140443039D01*
X82427511Y-140488794D01*
X82376000Y-140500000D01*
X80500000Y-140500000D01*
X80499103Y-140500896D01*
X80480315Y-140564882D01*
X80427511Y-140610637D01*
X80358353Y-140620581D01*
X80294797Y-140591556D01*
X80257023Y-140532778D01*
X80254383Y-140522036D01*
X80252383Y-140511982D01*
X80250000Y-140487789D01*
X80250000Y-136512210D01*
X80252383Y-136488017D01*
X80254383Y-136477963D01*
X80286769Y-136416053D01*
X80347485Y-136381479D01*
X80417254Y-136385220D01*
G37*
G36*
X129705203Y-136408443D02*
G01*
X129742977Y-136467221D01*
X129745617Y-136477963D01*
X129747617Y-136488017D01*
X129750000Y-136512210D01*
X129750000Y-140487789D01*
X129747617Y-140511982D01*
X129745617Y-140522036D01*
X129713231Y-140583946D01*
X129652515Y-140618520D01*
X129582746Y-140614779D01*
X129526074Y-140573912D01*
X129500493Y-140508894D01*
X129500100Y-140500100D01*
X129500000Y-140500000D01*
X127624000Y-140500000D01*
X127556961Y-140480315D01*
X127511206Y-140427511D01*
X127500000Y-140376000D01*
X127500000Y-136624000D01*
X127519685Y-136556961D01*
X127572489Y-136511206D01*
X127624000Y-136500000D01*
X129500000Y-136500000D01*
X129500896Y-136499103D01*
X129519685Y-136435117D01*
X129572489Y-136389362D01*
X129641647Y-136379418D01*
X129705203Y-136408443D01*
G37*
G36*
X130417254Y-136385220D02*
G01*
X130473926Y-136426087D01*
X130499507Y-136491105D01*
X130499899Y-136499899D01*
X130500000Y-136500000D01*
X132376000Y-136500000D01*
X132443039Y-136519685D01*
X132488794Y-136572489D01*
X132500000Y-136624000D01*
X132500000Y-140376000D01*
X132480315Y-140443039D01*
X132427511Y-140488794D01*
X132376000Y-140500000D01*
X130500000Y-140500000D01*
X130499103Y-140500896D01*
X130480315Y-140564882D01*
X130427511Y-140610637D01*
X130358353Y-140620581D01*
X130294797Y-140591556D01*
X130257023Y-140532778D01*
X130254383Y-140522036D01*
X130252383Y-140511982D01*
X130250000Y-140487789D01*
X130250000Y-136512210D01*
X130252383Y-136488017D01*
X130254383Y-136477963D01*
X130286769Y-136416053D01*
X130347485Y-136381479D01*
X130417254Y-136385220D01*
G37*
G36*
X130417254Y-59385220D02*
G01*
X130473926Y-59426087D01*
X130499507Y-59491105D01*
X130499899Y-59499899D01*
X130500000Y-59500000D01*
X132376000Y-59500000D01*
X132443039Y-59519685D01*
X132488794Y-59572489D01*
X132500000Y-59624000D01*
X132500000Y-133376000D01*
X132480315Y-133443039D01*
X132427511Y-133488794D01*
X132376000Y-133500000D01*
X130500000Y-133500000D01*
X130499103Y-133500896D01*
X130480315Y-133564882D01*
X130427511Y-133610637D01*
X130358353Y-133620581D01*
X130294797Y-133591556D01*
X130257023Y-133532778D01*
X130254383Y-133522036D01*
X130252383Y-133511982D01*
X130250000Y-133487789D01*
X130250000Y-59512210D01*
X130252383Y-59488017D01*
X130254383Y-59477963D01*
X130286769Y-59416053D01*
X130347485Y-59381479D01*
X130417254Y-59385220D01*
G37*
G36*
X129705203Y-59408443D02*
G01*
X129742977Y-59467221D01*
X129745617Y-59477963D01*
X129747617Y-59488017D01*
X129750000Y-59512210D01*
X129750000Y-133487789D01*
X129747617Y-133511982D01*
X129745617Y-133522036D01*
X129713231Y-133583946D01*
X129652515Y-133618520D01*
X129582746Y-133614779D01*
X129526074Y-133573912D01*
X129500493Y-133508894D01*
X129500100Y-133500100D01*
X129500000Y-133500000D01*
X127624000Y-133500000D01*
X127556961Y-133480315D01*
X127511206Y-133427511D01*
X127500000Y-133376000D01*
X127500000Y-59624000D01*
X127519685Y-59556961D01*
X127572489Y-59511206D01*
X127624000Y-59500000D01*
X129500000Y-59500000D01*
X129500896Y-59499103D01*
X129519685Y-59435117D01*
X129572489Y-59389362D01*
X129641647Y-59379418D01*
X129705203Y-59408443D01*
G37*
G36*
X89443039Y-136269685D02*
G01*
X89488794Y-136322489D01*
X89500000Y-136374000D01*
X89500000Y-136500000D01*
X89626000Y-136500000D01*
X89693039Y-136519685D01*
X89738794Y-136572489D01*
X89750000Y-136624000D01*
X89750000Y-140487789D01*
X89747617Y-140511982D01*
X89745617Y-140522036D01*
X89713231Y-140583946D01*
X89652515Y-140618520D01*
X89582746Y-140614779D01*
X89526074Y-140573912D01*
X89500493Y-140508894D01*
X89500100Y-140500100D01*
X89500000Y-140500000D01*
X87624000Y-140500000D01*
X87556961Y-140480315D01*
X87511206Y-140427511D01*
X87500000Y-140376000D01*
X87500000Y-140000000D01*
X87374000Y-140000000D01*
X87306961Y-139980315D01*
X87261206Y-139927511D01*
X87250000Y-139876000D01*
X87250000Y-136512210D01*
X87252383Y-136488019D01*
X87264218Y-136428519D01*
X87282732Y-136383820D01*
X87309518Y-136343731D01*
X87343731Y-136309518D01*
X87383820Y-136282732D01*
X87428520Y-136264217D01*
X87488021Y-136252382D01*
X87512211Y-136250000D01*
X89376000Y-136250000D01*
X89443039Y-136269685D01*
G37*
G36*
X92443039Y-136519685D02*
G01*
X92488794Y-136572489D01*
X92500000Y-136624000D01*
X92500000Y-140376000D01*
X92480315Y-140443039D01*
X92427511Y-140488794D01*
X92376000Y-140500000D01*
X90500000Y-140500000D01*
X90499103Y-140500896D01*
X90480315Y-140564882D01*
X90427511Y-140610637D01*
X90358353Y-140620581D01*
X90294797Y-140591556D01*
X90257023Y-140532778D01*
X90254383Y-140522036D01*
X90252383Y-140511982D01*
X90250000Y-140487789D01*
X90250000Y-136624000D01*
X90269685Y-136556961D01*
X90322489Y-136511206D01*
X90374000Y-136500000D01*
X92376000Y-136500000D01*
X92443039Y-136519685D01*
G37*
G36*
X90417254Y-59385220D02*
G01*
X90473926Y-59426087D01*
X90499507Y-59491105D01*
X90499899Y-59499899D01*
X90500000Y-59500000D01*
X92376000Y-59500000D01*
X92443039Y-59519685D01*
X92488794Y-59572489D01*
X92500000Y-59624000D01*
X92500000Y-133376000D01*
X92480315Y-133443039D01*
X92427511Y-133488794D01*
X92376000Y-133500000D01*
X90374000Y-133500000D01*
X90306961Y-133480315D01*
X90261206Y-133427511D01*
X90250000Y-133376000D01*
X90250000Y-59512210D01*
X90252383Y-59488017D01*
X90254383Y-59477963D01*
X90286769Y-59416053D01*
X90347485Y-59381479D01*
X90417254Y-59385220D01*
G37*
G36*
X89705203Y-59408443D02*
G01*
X89742977Y-59467221D01*
X89745617Y-59477963D01*
X89747617Y-59488017D01*
X89750000Y-59512210D01*
X89750000Y-133376000D01*
X89730315Y-133443039D01*
X89677511Y-133488794D01*
X89626000Y-133500000D01*
X89500000Y-133500000D01*
X89500000Y-136500000D01*
X89500896Y-136500896D01*
X89564883Y-136519685D01*
X89610638Y-136572489D01*
X89620582Y-136641647D01*
X89591557Y-136705203D01*
X89532779Y-136742977D01*
X89522034Y-136745618D01*
X89511979Y-136747618D01*
X89487789Y-136750000D01*
X87512211Y-136750000D01*
X87488019Y-136747617D01*
X87428518Y-136735781D01*
X87383820Y-136717267D01*
X87343731Y-136690481D01*
X87309518Y-136656268D01*
X87282732Y-136616179D01*
X87264218Y-136571480D01*
X87252383Y-136511980D01*
X87250000Y-136487789D01*
X87250000Y-130124000D01*
X87269685Y-130056961D01*
X87322489Y-130011206D01*
X87374000Y-130000000D01*
X87500000Y-130000000D01*
X87500000Y-59624000D01*
X87519685Y-59556961D01*
X87572489Y-59511206D01*
X87624000Y-59500000D01*
X89500000Y-59500000D01*
X89500896Y-59499103D01*
X89519685Y-59435117D01*
X89572489Y-59389362D01*
X89641647Y-59379418D01*
X89705203Y-59408443D01*
G37*
G36*
X87705203Y-129908443D02*
G01*
X87742977Y-129967221D01*
X87745617Y-129977963D01*
X87747617Y-129988017D01*
X87750000Y-130012210D01*
X87750000Y-139987789D01*
X87747617Y-140011982D01*
X87745617Y-140022036D01*
X87713231Y-140083946D01*
X87652515Y-140118520D01*
X87582746Y-140114779D01*
X87526074Y-140073912D01*
X87500493Y-140008894D01*
X87500100Y-140000100D01*
X87500000Y-140000000D01*
X85124000Y-140000000D01*
X85056961Y-139980315D01*
X85011206Y-139927511D01*
X85000000Y-139876000D01*
X85000000Y-130124000D01*
X85019685Y-130056961D01*
X85072489Y-130011206D01*
X85124000Y-130000000D01*
X87500000Y-130000000D01*
X87500896Y-129999103D01*
X87519685Y-129935117D01*
X87572489Y-129889362D01*
X87641647Y-129879418D01*
X87705203Y-129908443D01*
G37*
G36*
X137705203Y-129908443D02*
G01*
X137742977Y-129967221D01*
X137745617Y-129977963D01*
X137747617Y-129988017D01*
X137750000Y-130012210D01*
X137750000Y-139987789D01*
X137747617Y-140011982D01*
X137745617Y-140022036D01*
X137713231Y-140083946D01*
X137652515Y-140118520D01*
X137582746Y-140114779D01*
X137526074Y-140073912D01*
X137500493Y-140008894D01*
X137500100Y-140000100D01*
X137500000Y-140000000D01*
X135124000Y-140000000D01*
X135056961Y-139980315D01*
X135011206Y-139927511D01*
X135000000Y-139876000D01*
X135000000Y-130124000D01*
X135019685Y-130056961D01*
X135072489Y-130011206D01*
X135124000Y-130000000D01*
X137500000Y-130000000D01*
X137500896Y-129999103D01*
X137519685Y-129935117D01*
X137572489Y-129889362D01*
X137641647Y-129879418D01*
X137705203Y-129908443D01*
G37*
G36*
X142443039Y-136519685D02*
G01*
X142488794Y-136572489D01*
X142500000Y-136624000D01*
X142500000Y-140376000D01*
X142480315Y-140443039D01*
X142427511Y-140488794D01*
X142376000Y-140500000D01*
X140500000Y-140500000D01*
X140499103Y-140500896D01*
X140480315Y-140564882D01*
X140427511Y-140610637D01*
X140358353Y-140620581D01*
X140294797Y-140591556D01*
X140257023Y-140532778D01*
X140254383Y-140522036D01*
X140252383Y-140511982D01*
X140250000Y-140487789D01*
X140250000Y-136624000D01*
X140269685Y-136556961D01*
X140322489Y-136511206D01*
X140374000Y-136500000D01*
X142376000Y-136500000D01*
X142443039Y-136519685D01*
G37*
G36*
X139705203Y-59408443D02*
G01*
X139742977Y-59467221D01*
X139745617Y-59477963D01*
X139747617Y-59488017D01*
X139750000Y-59512210D01*
X139750000Y-133376000D01*
X139730315Y-133443039D01*
X139677511Y-133488794D01*
X139626000Y-133500000D01*
X139500000Y-133500000D01*
X139500000Y-136500000D01*
X139500896Y-136500896D01*
X139564883Y-136519685D01*
X139610638Y-136572489D01*
X139620582Y-136641647D01*
X139591557Y-136705203D01*
X139532779Y-136742977D01*
X139522034Y-136745618D01*
X139511979Y-136747618D01*
X139487789Y-136750000D01*
X137512211Y-136750000D01*
X137488019Y-136747617D01*
X137428518Y-136735781D01*
X137383820Y-136717267D01*
X137343731Y-136690481D01*
X137309518Y-136656268D01*
X137282732Y-136616179D01*
X137264218Y-136571480D01*
X137252383Y-136511980D01*
X137250000Y-136487789D01*
X137250000Y-130124000D01*
X137269685Y-130056961D01*
X137322489Y-130011206D01*
X137374000Y-130000000D01*
X137500000Y-130000000D01*
X137500000Y-59624000D01*
X137519685Y-59556961D01*
X137572489Y-59511206D01*
X137624000Y-59500000D01*
X139500000Y-59500000D01*
X139500896Y-59499103D01*
X139519685Y-59435117D01*
X139572489Y-59389362D01*
X139641647Y-59379418D01*
X139705203Y-59408443D01*
G37*
G36*
X139443039Y-136269685D02*
G01*
X139488794Y-136322489D01*
X139500000Y-136374000D01*
X139500000Y-136500000D01*
X139626000Y-136500000D01*
X139693039Y-136519685D01*
X139738794Y-136572489D01*
X139750000Y-136624000D01*
X139750000Y-140487789D01*
X139747617Y-140511982D01*
X139745617Y-140522036D01*
X139713231Y-140583946D01*
X139652515Y-140618520D01*
X139582746Y-140614779D01*
X139526074Y-140573912D01*
X139500493Y-140508894D01*
X139500100Y-140500100D01*
X139500000Y-140500000D01*
X137624000Y-140500000D01*
X137556961Y-140480315D01*
X137511206Y-140427511D01*
X137500000Y-140376000D01*
X137500000Y-140000000D01*
X137374000Y-140000000D01*
X137306961Y-139980315D01*
X137261206Y-139927511D01*
X137250000Y-139876000D01*
X137250000Y-136512210D01*
X137252383Y-136488019D01*
X137264218Y-136428519D01*
X137282732Y-136383820D01*
X137309518Y-136343731D01*
X137343731Y-136309518D01*
X137383820Y-136282732D01*
X137428520Y-136264217D01*
X137488021Y-136252382D01*
X137512211Y-136250000D01*
X139376000Y-136250000D01*
X139443039Y-136269685D01*
G37*
G36*
X140417254Y-59385220D02*
G01*
X140473926Y-59426087D01*
X140499507Y-59491105D01*
X140499899Y-59499899D01*
X140500000Y-59500000D01*
X142376000Y-59500000D01*
X142443039Y-59519685D01*
X142488794Y-59572489D01*
X142500000Y-59624000D01*
X142500000Y-133376000D01*
X142480315Y-133443039D01*
X142427511Y-133488794D01*
X142376000Y-133500000D01*
X140374000Y-133500000D01*
X140306961Y-133480315D01*
X140261206Y-133427511D01*
X140250000Y-133376000D01*
X140250000Y-59512210D01*
X140252383Y-59488017D01*
X140254383Y-59477963D01*
X140286769Y-59416053D01*
X140347485Y-59381479D01*
X140417254Y-59385220D01*
G37*
M02*
