%TF.GenerationSoftware,KiCad,Pcbnew,8.0.3*%
%TF.CreationDate,2024-06-13T14:30:09-05:00*%
%TF.ProjectId,jlcpcb flex RF,6a6c6370-6362-4206-966c-65782052462e,rev?*%
%TF.SameCoordinates,Original*%
%TF.FileFunction,Legend,Top*%
%TF.FilePolarity,Positive*%
%FSLAX46Y46*%
G04 Gerber Fmt 4.6, Leading zero omitted, Abs format (unit mm)*
G04 Created by KiCad (PCBNEW 8.0.3) date 2024-06-13 14:30:09*
%MOMM*%
%LPD*%
G01*
G04 APERTURE LIST*
%ADD10C,0.500000*%
%ADD11C,0.150000*%
%ADD12C,0.120000*%
G04 APERTURE END LIST*
D10*
X86249714Y-126599624D02*
X86249714Y-125171053D01*
X87106857Y-126885338D02*
X84106857Y-125885338D01*
X84106857Y-125885338D02*
X87106857Y-124885338D01*
X87106857Y-123885338D02*
X84106857Y-123885338D01*
X84106857Y-123885338D02*
X87106857Y-122171052D01*
X87106857Y-122171052D02*
X84106857Y-122171052D01*
X84106857Y-121171052D02*
X84106857Y-119456767D01*
X87106857Y-120313909D02*
X84106857Y-120313909D01*
X85964000Y-116171053D02*
X85964000Y-113885339D01*
X84392571Y-110313910D02*
X84249714Y-110171053D01*
X84249714Y-110171053D02*
X84106857Y-109885339D01*
X84106857Y-109885339D02*
X84106857Y-109171053D01*
X84106857Y-109171053D02*
X84249714Y-108885339D01*
X84249714Y-108885339D02*
X84392571Y-108742481D01*
X84392571Y-108742481D02*
X84678285Y-108599624D01*
X84678285Y-108599624D02*
X84964000Y-108599624D01*
X84964000Y-108599624D02*
X85392571Y-108742481D01*
X85392571Y-108742481D02*
X87106857Y-110456767D01*
X87106857Y-110456767D02*
X87106857Y-108599624D01*
X87106857Y-105028196D02*
X84106857Y-105028196D01*
X84106857Y-105028196D02*
X86249714Y-104028196D01*
X86249714Y-104028196D02*
X84106857Y-103028196D01*
X84106857Y-103028196D02*
X87106857Y-103028196D01*
X87106857Y-101599625D02*
X85106857Y-101599625D01*
X84106857Y-101599625D02*
X84249714Y-101742482D01*
X84249714Y-101742482D02*
X84392571Y-101599625D01*
X84392571Y-101599625D02*
X84249714Y-101456768D01*
X84249714Y-101456768D02*
X84106857Y-101599625D01*
X84106857Y-101599625D02*
X84392571Y-101599625D01*
X87106857Y-99742482D02*
X86964000Y-100028197D01*
X86964000Y-100028197D02*
X86678285Y-100171054D01*
X86678285Y-100171054D02*
X84106857Y-100171054D01*
X86964000Y-98456768D02*
X87106857Y-98456768D01*
X87106857Y-98456768D02*
X87392571Y-98599625D01*
X87392571Y-98599625D02*
X87535428Y-98742482D01*
X87106857Y-94885340D02*
X84106857Y-94885340D01*
X84106857Y-94885340D02*
X87106857Y-93171054D01*
X87106857Y-93171054D02*
X84106857Y-93171054D01*
X87106857Y-91313911D02*
X86964000Y-91599626D01*
X86964000Y-91599626D02*
X86821142Y-91742483D01*
X86821142Y-91742483D02*
X86535428Y-91885340D01*
X86535428Y-91885340D02*
X85678285Y-91885340D01*
X85678285Y-91885340D02*
X85392571Y-91742483D01*
X85392571Y-91742483D02*
X85249714Y-91599626D01*
X85249714Y-91599626D02*
X85106857Y-91313911D01*
X85106857Y-91313911D02*
X85106857Y-90885340D01*
X85106857Y-90885340D02*
X85249714Y-90599626D01*
X85249714Y-90599626D02*
X85392571Y-90456769D01*
X85392571Y-90456769D02*
X85678285Y-90313911D01*
X85678285Y-90313911D02*
X86535428Y-90313911D01*
X86535428Y-90313911D02*
X86821142Y-90456769D01*
X86821142Y-90456769D02*
X86964000Y-90599626D01*
X86964000Y-90599626D02*
X87106857Y-90885340D01*
X87106857Y-90885340D02*
X87106857Y-91313911D01*
X86821142Y-85028197D02*
X86964000Y-85171054D01*
X86964000Y-85171054D02*
X87106857Y-85599626D01*
X87106857Y-85599626D02*
X87106857Y-85885340D01*
X87106857Y-85885340D02*
X86964000Y-86313911D01*
X86964000Y-86313911D02*
X86678285Y-86599626D01*
X86678285Y-86599626D02*
X86392571Y-86742483D01*
X86392571Y-86742483D02*
X85821142Y-86885340D01*
X85821142Y-86885340D02*
X85392571Y-86885340D01*
X85392571Y-86885340D02*
X84821142Y-86742483D01*
X84821142Y-86742483D02*
X84535428Y-86599626D01*
X84535428Y-86599626D02*
X84249714Y-86313911D01*
X84249714Y-86313911D02*
X84106857Y-85885340D01*
X84106857Y-85885340D02*
X84106857Y-85599626D01*
X84106857Y-85599626D02*
X84249714Y-85171054D01*
X84249714Y-85171054D02*
X84392571Y-85028197D01*
X87106857Y-83313911D02*
X86964000Y-83599626D01*
X86964000Y-83599626D02*
X86821142Y-83742483D01*
X86821142Y-83742483D02*
X86535428Y-83885340D01*
X86535428Y-83885340D02*
X85678285Y-83885340D01*
X85678285Y-83885340D02*
X85392571Y-83742483D01*
X85392571Y-83742483D02*
X85249714Y-83599626D01*
X85249714Y-83599626D02*
X85106857Y-83313911D01*
X85106857Y-83313911D02*
X85106857Y-82885340D01*
X85106857Y-82885340D02*
X85249714Y-82599626D01*
X85249714Y-82599626D02*
X85392571Y-82456769D01*
X85392571Y-82456769D02*
X85678285Y-82313911D01*
X85678285Y-82313911D02*
X86535428Y-82313911D01*
X86535428Y-82313911D02*
X86821142Y-82456769D01*
X86821142Y-82456769D02*
X86964000Y-82599626D01*
X86964000Y-82599626D02*
X87106857Y-82885340D01*
X87106857Y-82885340D02*
X87106857Y-83313911D01*
X85106857Y-81313911D02*
X87106857Y-80599625D01*
X87106857Y-80599625D02*
X85106857Y-79885340D01*
X86964000Y-77599626D02*
X87106857Y-77885340D01*
X87106857Y-77885340D02*
X87106857Y-78456769D01*
X87106857Y-78456769D02*
X86964000Y-78742483D01*
X86964000Y-78742483D02*
X86678285Y-78885340D01*
X86678285Y-78885340D02*
X85535428Y-78885340D01*
X85535428Y-78885340D02*
X85249714Y-78742483D01*
X85249714Y-78742483D02*
X85106857Y-78456769D01*
X85106857Y-78456769D02*
X85106857Y-77885340D01*
X85106857Y-77885340D02*
X85249714Y-77599626D01*
X85249714Y-77599626D02*
X85535428Y-77456769D01*
X85535428Y-77456769D02*
X85821142Y-77456769D01*
X85821142Y-77456769D02*
X86106857Y-78885340D01*
X87106857Y-76171054D02*
X85106857Y-76171054D01*
X85678285Y-76171054D02*
X85392571Y-76028197D01*
X85392571Y-76028197D02*
X85249714Y-75885340D01*
X85249714Y-75885340D02*
X85106857Y-75599625D01*
X85106857Y-75599625D02*
X85106857Y-75313911D01*
X87106857Y-73885339D02*
X86964000Y-74171054D01*
X86964000Y-74171054D02*
X86678285Y-74313911D01*
X86678285Y-74313911D02*
X84106857Y-74313911D01*
X87106857Y-71456768D02*
X85535428Y-71456768D01*
X85535428Y-71456768D02*
X85249714Y-71599625D01*
X85249714Y-71599625D02*
X85106857Y-71885339D01*
X85106857Y-71885339D02*
X85106857Y-72456768D01*
X85106857Y-72456768D02*
X85249714Y-72742482D01*
X86964000Y-71456768D02*
X87106857Y-71742482D01*
X87106857Y-71742482D02*
X87106857Y-72456768D01*
X87106857Y-72456768D02*
X86964000Y-72742482D01*
X86964000Y-72742482D02*
X86678285Y-72885339D01*
X86678285Y-72885339D02*
X86392571Y-72885339D01*
X86392571Y-72885339D02*
X86106857Y-72742482D01*
X86106857Y-72742482D02*
X85964000Y-72456768D01*
X85964000Y-72456768D02*
X85964000Y-71742482D01*
X85964000Y-71742482D02*
X85821142Y-71456768D01*
X85106857Y-70313910D02*
X87106857Y-69599624D01*
X85106857Y-68885339D02*
X87106857Y-69599624D01*
X87106857Y-69599624D02*
X87821142Y-69885339D01*
X87821142Y-69885339D02*
X87964000Y-70028196D01*
X87964000Y-70028196D02*
X88106857Y-70313910D01*
X116249714Y-126599624D02*
X116249714Y-125171053D01*
X117106857Y-126885338D02*
X114106857Y-125885338D01*
X114106857Y-125885338D02*
X117106857Y-124885338D01*
X117106857Y-123885338D02*
X114106857Y-123885338D01*
X114106857Y-123885338D02*
X117106857Y-122171052D01*
X117106857Y-122171052D02*
X114106857Y-122171052D01*
X114106857Y-121171052D02*
X114106857Y-119456767D01*
X117106857Y-120313909D02*
X114106857Y-120313909D01*
X115964000Y-116171053D02*
X115964000Y-113885339D01*
X114106857Y-110456767D02*
X114106857Y-108599624D01*
X114106857Y-108599624D02*
X115249714Y-109599624D01*
X115249714Y-109599624D02*
X115249714Y-109171053D01*
X115249714Y-109171053D02*
X115392571Y-108885339D01*
X115392571Y-108885339D02*
X115535428Y-108742481D01*
X115535428Y-108742481D02*
X115821142Y-108599624D01*
X115821142Y-108599624D02*
X116535428Y-108599624D01*
X116535428Y-108599624D02*
X116821142Y-108742481D01*
X116821142Y-108742481D02*
X116964000Y-108885339D01*
X116964000Y-108885339D02*
X117106857Y-109171053D01*
X117106857Y-109171053D02*
X117106857Y-110028196D01*
X117106857Y-110028196D02*
X116964000Y-110313910D01*
X116964000Y-110313910D02*
X116821142Y-110456767D01*
X117106857Y-105028196D02*
X114106857Y-105028196D01*
X114106857Y-105028196D02*
X116249714Y-104028196D01*
X116249714Y-104028196D02*
X114106857Y-103028196D01*
X114106857Y-103028196D02*
X117106857Y-103028196D01*
X117106857Y-101599625D02*
X115106857Y-101599625D01*
X114106857Y-101599625D02*
X114249714Y-101742482D01*
X114249714Y-101742482D02*
X114392571Y-101599625D01*
X114392571Y-101599625D02*
X114249714Y-101456768D01*
X114249714Y-101456768D02*
X114106857Y-101599625D01*
X114106857Y-101599625D02*
X114392571Y-101599625D01*
X117106857Y-99742482D02*
X116964000Y-100028197D01*
X116964000Y-100028197D02*
X116678285Y-100171054D01*
X116678285Y-100171054D02*
X114106857Y-100171054D01*
X116964000Y-98456768D02*
X117106857Y-98456768D01*
X117106857Y-98456768D02*
X117392571Y-98599625D01*
X117392571Y-98599625D02*
X117535428Y-98742482D01*
X116821142Y-93171054D02*
X116964000Y-93313911D01*
X116964000Y-93313911D02*
X117106857Y-93742483D01*
X117106857Y-93742483D02*
X117106857Y-94028197D01*
X117106857Y-94028197D02*
X116964000Y-94456768D01*
X116964000Y-94456768D02*
X116678285Y-94742483D01*
X116678285Y-94742483D02*
X116392571Y-94885340D01*
X116392571Y-94885340D02*
X115821142Y-95028197D01*
X115821142Y-95028197D02*
X115392571Y-95028197D01*
X115392571Y-95028197D02*
X114821142Y-94885340D01*
X114821142Y-94885340D02*
X114535428Y-94742483D01*
X114535428Y-94742483D02*
X114249714Y-94456768D01*
X114249714Y-94456768D02*
X114106857Y-94028197D01*
X114106857Y-94028197D02*
X114106857Y-93742483D01*
X114106857Y-93742483D02*
X114249714Y-93313911D01*
X114249714Y-93313911D02*
X114392571Y-93171054D01*
X117106857Y-91456768D02*
X116964000Y-91742483D01*
X116964000Y-91742483D02*
X116821142Y-91885340D01*
X116821142Y-91885340D02*
X116535428Y-92028197D01*
X116535428Y-92028197D02*
X115678285Y-92028197D01*
X115678285Y-92028197D02*
X115392571Y-91885340D01*
X115392571Y-91885340D02*
X115249714Y-91742483D01*
X115249714Y-91742483D02*
X115106857Y-91456768D01*
X115106857Y-91456768D02*
X115106857Y-91028197D01*
X115106857Y-91028197D02*
X115249714Y-90742483D01*
X115249714Y-90742483D02*
X115392571Y-90599626D01*
X115392571Y-90599626D02*
X115678285Y-90456768D01*
X115678285Y-90456768D02*
X116535428Y-90456768D01*
X116535428Y-90456768D02*
X116821142Y-90599626D01*
X116821142Y-90599626D02*
X116964000Y-90742483D01*
X116964000Y-90742483D02*
X117106857Y-91028197D01*
X117106857Y-91028197D02*
X117106857Y-91456768D01*
X115106857Y-89456768D02*
X117106857Y-88742482D01*
X117106857Y-88742482D02*
X115106857Y-88028197D01*
X116964000Y-85742483D02*
X117106857Y-86028197D01*
X117106857Y-86028197D02*
X117106857Y-86599626D01*
X117106857Y-86599626D02*
X116964000Y-86885340D01*
X116964000Y-86885340D02*
X116678285Y-87028197D01*
X116678285Y-87028197D02*
X115535428Y-87028197D01*
X115535428Y-87028197D02*
X115249714Y-86885340D01*
X115249714Y-86885340D02*
X115106857Y-86599626D01*
X115106857Y-86599626D02*
X115106857Y-86028197D01*
X115106857Y-86028197D02*
X115249714Y-85742483D01*
X115249714Y-85742483D02*
X115535428Y-85599626D01*
X115535428Y-85599626D02*
X115821142Y-85599626D01*
X115821142Y-85599626D02*
X116106857Y-87028197D01*
X117106857Y-84313911D02*
X115106857Y-84313911D01*
X115678285Y-84313911D02*
X115392571Y-84171054D01*
X115392571Y-84171054D02*
X115249714Y-84028197D01*
X115249714Y-84028197D02*
X115106857Y-83742482D01*
X115106857Y-83742482D02*
X115106857Y-83456768D01*
X117106857Y-82028196D02*
X116964000Y-82313911D01*
X116964000Y-82313911D02*
X116678285Y-82456768D01*
X116678285Y-82456768D02*
X114106857Y-82456768D01*
X117106857Y-79599625D02*
X115535428Y-79599625D01*
X115535428Y-79599625D02*
X115249714Y-79742482D01*
X115249714Y-79742482D02*
X115106857Y-80028196D01*
X115106857Y-80028196D02*
X115106857Y-80599625D01*
X115106857Y-80599625D02*
X115249714Y-80885339D01*
X116964000Y-79599625D02*
X117106857Y-79885339D01*
X117106857Y-79885339D02*
X117106857Y-80599625D01*
X117106857Y-80599625D02*
X116964000Y-80885339D01*
X116964000Y-80885339D02*
X116678285Y-81028196D01*
X116678285Y-81028196D02*
X116392571Y-81028196D01*
X116392571Y-81028196D02*
X116106857Y-80885339D01*
X116106857Y-80885339D02*
X115964000Y-80599625D01*
X115964000Y-80599625D02*
X115964000Y-79885339D01*
X115964000Y-79885339D02*
X115821142Y-79599625D01*
X115106857Y-78456767D02*
X117106857Y-77742481D01*
X115106857Y-77028196D02*
X117106857Y-77742481D01*
X117106857Y-77742481D02*
X117821142Y-78028196D01*
X117821142Y-78028196D02*
X117964000Y-78171053D01*
X117964000Y-78171053D02*
X118106857Y-78456767D01*
X57106857Y-125028195D02*
X57106857Y-126456767D01*
X57106857Y-126456767D02*
X54106857Y-126456767D01*
X54106857Y-123456767D02*
X54106857Y-122885339D01*
X54106857Y-122885339D02*
X54249714Y-122599624D01*
X54249714Y-122599624D02*
X54535428Y-122313910D01*
X54535428Y-122313910D02*
X55106857Y-122171053D01*
X55106857Y-122171053D02*
X56106857Y-122171053D01*
X56106857Y-122171053D02*
X56678285Y-122313910D01*
X56678285Y-122313910D02*
X56964000Y-122599624D01*
X56964000Y-122599624D02*
X57106857Y-122885339D01*
X57106857Y-122885339D02*
X57106857Y-123456767D01*
X57106857Y-123456767D02*
X56964000Y-123742482D01*
X56964000Y-123742482D02*
X56678285Y-124028196D01*
X56678285Y-124028196D02*
X56106857Y-124171053D01*
X56106857Y-124171053D02*
X55106857Y-124171053D01*
X55106857Y-124171053D02*
X54535428Y-124028196D01*
X54535428Y-124028196D02*
X54249714Y-123742482D01*
X54249714Y-123742482D02*
X54106857Y-123456767D01*
X56249714Y-121028196D02*
X56249714Y-119599625D01*
X57106857Y-121313910D02*
X54106857Y-120313910D01*
X54106857Y-120313910D02*
X57106857Y-119313910D01*
X57106857Y-118313910D02*
X54106857Y-118313910D01*
X54106857Y-118313910D02*
X54106857Y-117599624D01*
X54106857Y-117599624D02*
X54249714Y-117171053D01*
X54249714Y-117171053D02*
X54535428Y-116885338D01*
X54535428Y-116885338D02*
X54821142Y-116742481D01*
X54821142Y-116742481D02*
X55392571Y-116599624D01*
X55392571Y-116599624D02*
X55821142Y-116599624D01*
X55821142Y-116599624D02*
X56392571Y-116742481D01*
X56392571Y-116742481D02*
X56678285Y-116885338D01*
X56678285Y-116885338D02*
X56964000Y-117171053D01*
X56964000Y-117171053D02*
X57106857Y-117599624D01*
X57106857Y-117599624D02*
X57106857Y-118313910D01*
X55964000Y-113028196D02*
X55964000Y-110742482D01*
X54392571Y-107171053D02*
X54249714Y-107028196D01*
X54249714Y-107028196D02*
X54106857Y-106742482D01*
X54106857Y-106742482D02*
X54106857Y-106028196D01*
X54106857Y-106028196D02*
X54249714Y-105742482D01*
X54249714Y-105742482D02*
X54392571Y-105599624D01*
X54392571Y-105599624D02*
X54678285Y-105456767D01*
X54678285Y-105456767D02*
X54964000Y-105456767D01*
X54964000Y-105456767D02*
X55392571Y-105599624D01*
X55392571Y-105599624D02*
X57106857Y-107313910D01*
X57106857Y-107313910D02*
X57106857Y-105456767D01*
X57106857Y-101885339D02*
X54106857Y-101885339D01*
X54106857Y-101885339D02*
X56249714Y-100885339D01*
X56249714Y-100885339D02*
X54106857Y-99885339D01*
X54106857Y-99885339D02*
X57106857Y-99885339D01*
X57106857Y-98456768D02*
X55106857Y-98456768D01*
X54106857Y-98456768D02*
X54249714Y-98599625D01*
X54249714Y-98599625D02*
X54392571Y-98456768D01*
X54392571Y-98456768D02*
X54249714Y-98313911D01*
X54249714Y-98313911D02*
X54106857Y-98456768D01*
X54106857Y-98456768D02*
X54392571Y-98456768D01*
X57106857Y-96599625D02*
X56964000Y-96885340D01*
X56964000Y-96885340D02*
X56678285Y-97028197D01*
X56678285Y-97028197D02*
X54106857Y-97028197D01*
X56964000Y-95313911D02*
X57106857Y-95313911D01*
X57106857Y-95313911D02*
X57392571Y-95456768D01*
X57392571Y-95456768D02*
X57535428Y-95599625D01*
X56821142Y-90028197D02*
X56964000Y-90171054D01*
X56964000Y-90171054D02*
X57106857Y-90599626D01*
X57106857Y-90599626D02*
X57106857Y-90885340D01*
X57106857Y-90885340D02*
X56964000Y-91313911D01*
X56964000Y-91313911D02*
X56678285Y-91599626D01*
X56678285Y-91599626D02*
X56392571Y-91742483D01*
X56392571Y-91742483D02*
X55821142Y-91885340D01*
X55821142Y-91885340D02*
X55392571Y-91885340D01*
X55392571Y-91885340D02*
X54821142Y-91742483D01*
X54821142Y-91742483D02*
X54535428Y-91599626D01*
X54535428Y-91599626D02*
X54249714Y-91313911D01*
X54249714Y-91313911D02*
X54106857Y-90885340D01*
X54106857Y-90885340D02*
X54106857Y-90599626D01*
X54106857Y-90599626D02*
X54249714Y-90171054D01*
X54249714Y-90171054D02*
X54392571Y-90028197D01*
X57106857Y-88313911D02*
X56964000Y-88599626D01*
X56964000Y-88599626D02*
X56821142Y-88742483D01*
X56821142Y-88742483D02*
X56535428Y-88885340D01*
X56535428Y-88885340D02*
X55678285Y-88885340D01*
X55678285Y-88885340D02*
X55392571Y-88742483D01*
X55392571Y-88742483D02*
X55249714Y-88599626D01*
X55249714Y-88599626D02*
X55106857Y-88313911D01*
X55106857Y-88313911D02*
X55106857Y-87885340D01*
X55106857Y-87885340D02*
X55249714Y-87599626D01*
X55249714Y-87599626D02*
X55392571Y-87456769D01*
X55392571Y-87456769D02*
X55678285Y-87313911D01*
X55678285Y-87313911D02*
X56535428Y-87313911D01*
X56535428Y-87313911D02*
X56821142Y-87456769D01*
X56821142Y-87456769D02*
X56964000Y-87599626D01*
X56964000Y-87599626D02*
X57106857Y-87885340D01*
X57106857Y-87885340D02*
X57106857Y-88313911D01*
X55106857Y-86313911D02*
X57106857Y-85599625D01*
X57106857Y-85599625D02*
X55106857Y-84885340D01*
X56964000Y-82599626D02*
X57106857Y-82885340D01*
X57106857Y-82885340D02*
X57106857Y-83456769D01*
X57106857Y-83456769D02*
X56964000Y-83742483D01*
X56964000Y-83742483D02*
X56678285Y-83885340D01*
X56678285Y-83885340D02*
X55535428Y-83885340D01*
X55535428Y-83885340D02*
X55249714Y-83742483D01*
X55249714Y-83742483D02*
X55106857Y-83456769D01*
X55106857Y-83456769D02*
X55106857Y-82885340D01*
X55106857Y-82885340D02*
X55249714Y-82599626D01*
X55249714Y-82599626D02*
X55535428Y-82456769D01*
X55535428Y-82456769D02*
X55821142Y-82456769D01*
X55821142Y-82456769D02*
X56106857Y-83885340D01*
X57106857Y-81171054D02*
X55106857Y-81171054D01*
X55678285Y-81171054D02*
X55392571Y-81028197D01*
X55392571Y-81028197D02*
X55249714Y-80885340D01*
X55249714Y-80885340D02*
X55106857Y-80599625D01*
X55106857Y-80599625D02*
X55106857Y-80313911D01*
X57106857Y-78885339D02*
X56964000Y-79171054D01*
X56964000Y-79171054D02*
X56678285Y-79313911D01*
X56678285Y-79313911D02*
X54106857Y-79313911D01*
X57106857Y-76456768D02*
X55535428Y-76456768D01*
X55535428Y-76456768D02*
X55249714Y-76599625D01*
X55249714Y-76599625D02*
X55106857Y-76885339D01*
X55106857Y-76885339D02*
X55106857Y-77456768D01*
X55106857Y-77456768D02*
X55249714Y-77742482D01*
X56964000Y-76456768D02*
X57106857Y-76742482D01*
X57106857Y-76742482D02*
X57106857Y-77456768D01*
X57106857Y-77456768D02*
X56964000Y-77742482D01*
X56964000Y-77742482D02*
X56678285Y-77885339D01*
X56678285Y-77885339D02*
X56392571Y-77885339D01*
X56392571Y-77885339D02*
X56106857Y-77742482D01*
X56106857Y-77742482D02*
X55964000Y-77456768D01*
X55964000Y-77456768D02*
X55964000Y-76742482D01*
X55964000Y-76742482D02*
X55821142Y-76456768D01*
X55106857Y-75313910D02*
X57106857Y-74599624D01*
X55106857Y-73885339D02*
X57106857Y-74599624D01*
X57106857Y-74599624D02*
X57821142Y-74885339D01*
X57821142Y-74885339D02*
X57964000Y-75028196D01*
X57964000Y-75028196D02*
X58106857Y-75313910D01*
X77106857Y-125028195D02*
X77106857Y-126456767D01*
X77106857Y-126456767D02*
X74106857Y-126456767D01*
X74106857Y-123456767D02*
X74106857Y-122885339D01*
X74106857Y-122885339D02*
X74249714Y-122599624D01*
X74249714Y-122599624D02*
X74535428Y-122313910D01*
X74535428Y-122313910D02*
X75106857Y-122171053D01*
X75106857Y-122171053D02*
X76106857Y-122171053D01*
X76106857Y-122171053D02*
X76678285Y-122313910D01*
X76678285Y-122313910D02*
X76964000Y-122599624D01*
X76964000Y-122599624D02*
X77106857Y-122885339D01*
X77106857Y-122885339D02*
X77106857Y-123456767D01*
X77106857Y-123456767D02*
X76964000Y-123742482D01*
X76964000Y-123742482D02*
X76678285Y-124028196D01*
X76678285Y-124028196D02*
X76106857Y-124171053D01*
X76106857Y-124171053D02*
X75106857Y-124171053D01*
X75106857Y-124171053D02*
X74535428Y-124028196D01*
X74535428Y-124028196D02*
X74249714Y-123742482D01*
X74249714Y-123742482D02*
X74106857Y-123456767D01*
X76249714Y-121028196D02*
X76249714Y-119599625D01*
X77106857Y-121313910D02*
X74106857Y-120313910D01*
X74106857Y-120313910D02*
X77106857Y-119313910D01*
X77106857Y-118313910D02*
X74106857Y-118313910D01*
X74106857Y-118313910D02*
X74106857Y-117599624D01*
X74106857Y-117599624D02*
X74249714Y-117171053D01*
X74249714Y-117171053D02*
X74535428Y-116885338D01*
X74535428Y-116885338D02*
X74821142Y-116742481D01*
X74821142Y-116742481D02*
X75392571Y-116599624D01*
X75392571Y-116599624D02*
X75821142Y-116599624D01*
X75821142Y-116599624D02*
X76392571Y-116742481D01*
X76392571Y-116742481D02*
X76678285Y-116885338D01*
X76678285Y-116885338D02*
X76964000Y-117171053D01*
X76964000Y-117171053D02*
X77106857Y-117599624D01*
X77106857Y-117599624D02*
X77106857Y-118313910D01*
X75964000Y-113028196D02*
X75964000Y-110742482D01*
X74392571Y-107171053D02*
X74249714Y-107028196D01*
X74249714Y-107028196D02*
X74106857Y-106742482D01*
X74106857Y-106742482D02*
X74106857Y-106028196D01*
X74106857Y-106028196D02*
X74249714Y-105742482D01*
X74249714Y-105742482D02*
X74392571Y-105599624D01*
X74392571Y-105599624D02*
X74678285Y-105456767D01*
X74678285Y-105456767D02*
X74964000Y-105456767D01*
X74964000Y-105456767D02*
X75392571Y-105599624D01*
X75392571Y-105599624D02*
X77106857Y-107313910D01*
X77106857Y-107313910D02*
X77106857Y-105456767D01*
X77106857Y-101885339D02*
X74106857Y-101885339D01*
X74106857Y-101885339D02*
X76249714Y-100885339D01*
X76249714Y-100885339D02*
X74106857Y-99885339D01*
X74106857Y-99885339D02*
X77106857Y-99885339D01*
X77106857Y-98456768D02*
X75106857Y-98456768D01*
X74106857Y-98456768D02*
X74249714Y-98599625D01*
X74249714Y-98599625D02*
X74392571Y-98456768D01*
X74392571Y-98456768D02*
X74249714Y-98313911D01*
X74249714Y-98313911D02*
X74106857Y-98456768D01*
X74106857Y-98456768D02*
X74392571Y-98456768D01*
X77106857Y-96599625D02*
X76964000Y-96885340D01*
X76964000Y-96885340D02*
X76678285Y-97028197D01*
X76678285Y-97028197D02*
X74106857Y-97028197D01*
X76964000Y-95313911D02*
X77106857Y-95313911D01*
X77106857Y-95313911D02*
X77392571Y-95456768D01*
X77392571Y-95456768D02*
X77535428Y-95599625D01*
X77106857Y-91742483D02*
X74106857Y-91742483D01*
X74106857Y-91742483D02*
X77106857Y-90028197D01*
X77106857Y-90028197D02*
X74106857Y-90028197D01*
X77106857Y-88171054D02*
X76964000Y-88456769D01*
X76964000Y-88456769D02*
X76821142Y-88599626D01*
X76821142Y-88599626D02*
X76535428Y-88742483D01*
X76535428Y-88742483D02*
X75678285Y-88742483D01*
X75678285Y-88742483D02*
X75392571Y-88599626D01*
X75392571Y-88599626D02*
X75249714Y-88456769D01*
X75249714Y-88456769D02*
X75106857Y-88171054D01*
X75106857Y-88171054D02*
X75106857Y-87742483D01*
X75106857Y-87742483D02*
X75249714Y-87456769D01*
X75249714Y-87456769D02*
X75392571Y-87313912D01*
X75392571Y-87313912D02*
X75678285Y-87171054D01*
X75678285Y-87171054D02*
X76535428Y-87171054D01*
X76535428Y-87171054D02*
X76821142Y-87313912D01*
X76821142Y-87313912D02*
X76964000Y-87456769D01*
X76964000Y-87456769D02*
X77106857Y-87742483D01*
X77106857Y-87742483D02*
X77106857Y-88171054D01*
X76821142Y-81885340D02*
X76964000Y-82028197D01*
X76964000Y-82028197D02*
X77106857Y-82456769D01*
X77106857Y-82456769D02*
X77106857Y-82742483D01*
X77106857Y-82742483D02*
X76964000Y-83171054D01*
X76964000Y-83171054D02*
X76678285Y-83456769D01*
X76678285Y-83456769D02*
X76392571Y-83599626D01*
X76392571Y-83599626D02*
X75821142Y-83742483D01*
X75821142Y-83742483D02*
X75392571Y-83742483D01*
X75392571Y-83742483D02*
X74821142Y-83599626D01*
X74821142Y-83599626D02*
X74535428Y-83456769D01*
X74535428Y-83456769D02*
X74249714Y-83171054D01*
X74249714Y-83171054D02*
X74106857Y-82742483D01*
X74106857Y-82742483D02*
X74106857Y-82456769D01*
X74106857Y-82456769D02*
X74249714Y-82028197D01*
X74249714Y-82028197D02*
X74392571Y-81885340D01*
X77106857Y-80171054D02*
X76964000Y-80456769D01*
X76964000Y-80456769D02*
X76821142Y-80599626D01*
X76821142Y-80599626D02*
X76535428Y-80742483D01*
X76535428Y-80742483D02*
X75678285Y-80742483D01*
X75678285Y-80742483D02*
X75392571Y-80599626D01*
X75392571Y-80599626D02*
X75249714Y-80456769D01*
X75249714Y-80456769D02*
X75106857Y-80171054D01*
X75106857Y-80171054D02*
X75106857Y-79742483D01*
X75106857Y-79742483D02*
X75249714Y-79456769D01*
X75249714Y-79456769D02*
X75392571Y-79313912D01*
X75392571Y-79313912D02*
X75678285Y-79171054D01*
X75678285Y-79171054D02*
X76535428Y-79171054D01*
X76535428Y-79171054D02*
X76821142Y-79313912D01*
X76821142Y-79313912D02*
X76964000Y-79456769D01*
X76964000Y-79456769D02*
X77106857Y-79742483D01*
X77106857Y-79742483D02*
X77106857Y-80171054D01*
X75106857Y-78171054D02*
X77106857Y-77456768D01*
X77106857Y-77456768D02*
X75106857Y-76742483D01*
X76964000Y-74456769D02*
X77106857Y-74742483D01*
X77106857Y-74742483D02*
X77106857Y-75313912D01*
X77106857Y-75313912D02*
X76964000Y-75599626D01*
X76964000Y-75599626D02*
X76678285Y-75742483D01*
X76678285Y-75742483D02*
X75535428Y-75742483D01*
X75535428Y-75742483D02*
X75249714Y-75599626D01*
X75249714Y-75599626D02*
X75106857Y-75313912D01*
X75106857Y-75313912D02*
X75106857Y-74742483D01*
X75106857Y-74742483D02*
X75249714Y-74456769D01*
X75249714Y-74456769D02*
X75535428Y-74313912D01*
X75535428Y-74313912D02*
X75821142Y-74313912D01*
X75821142Y-74313912D02*
X76106857Y-75742483D01*
X77106857Y-73028197D02*
X75106857Y-73028197D01*
X75678285Y-73028197D02*
X75392571Y-72885340D01*
X75392571Y-72885340D02*
X75249714Y-72742483D01*
X75249714Y-72742483D02*
X75106857Y-72456768D01*
X75106857Y-72456768D02*
X75106857Y-72171054D01*
X77106857Y-70742482D02*
X76964000Y-71028197D01*
X76964000Y-71028197D02*
X76678285Y-71171054D01*
X76678285Y-71171054D02*
X74106857Y-71171054D01*
X77106857Y-68313911D02*
X75535428Y-68313911D01*
X75535428Y-68313911D02*
X75249714Y-68456768D01*
X75249714Y-68456768D02*
X75106857Y-68742482D01*
X75106857Y-68742482D02*
X75106857Y-69313911D01*
X75106857Y-69313911D02*
X75249714Y-69599625D01*
X76964000Y-68313911D02*
X77106857Y-68599625D01*
X77106857Y-68599625D02*
X77106857Y-69313911D01*
X77106857Y-69313911D02*
X76964000Y-69599625D01*
X76964000Y-69599625D02*
X76678285Y-69742482D01*
X76678285Y-69742482D02*
X76392571Y-69742482D01*
X76392571Y-69742482D02*
X76106857Y-69599625D01*
X76106857Y-69599625D02*
X75964000Y-69313911D01*
X75964000Y-69313911D02*
X75964000Y-68599625D01*
X75964000Y-68599625D02*
X75821142Y-68313911D01*
X75106857Y-67171053D02*
X77106857Y-66456767D01*
X75106857Y-65742482D02*
X77106857Y-66456767D01*
X77106857Y-66456767D02*
X77821142Y-66742482D01*
X77821142Y-66742482D02*
X77964000Y-66885339D01*
X77964000Y-66885339D02*
X78106857Y-67171053D01*
X127106857Y-125028195D02*
X127106857Y-126456767D01*
X127106857Y-126456767D02*
X124106857Y-126456767D01*
X124106857Y-123456767D02*
X124106857Y-122885339D01*
X124106857Y-122885339D02*
X124249714Y-122599624D01*
X124249714Y-122599624D02*
X124535428Y-122313910D01*
X124535428Y-122313910D02*
X125106857Y-122171053D01*
X125106857Y-122171053D02*
X126106857Y-122171053D01*
X126106857Y-122171053D02*
X126678285Y-122313910D01*
X126678285Y-122313910D02*
X126964000Y-122599624D01*
X126964000Y-122599624D02*
X127106857Y-122885339D01*
X127106857Y-122885339D02*
X127106857Y-123456767D01*
X127106857Y-123456767D02*
X126964000Y-123742482D01*
X126964000Y-123742482D02*
X126678285Y-124028196D01*
X126678285Y-124028196D02*
X126106857Y-124171053D01*
X126106857Y-124171053D02*
X125106857Y-124171053D01*
X125106857Y-124171053D02*
X124535428Y-124028196D01*
X124535428Y-124028196D02*
X124249714Y-123742482D01*
X124249714Y-123742482D02*
X124106857Y-123456767D01*
X126249714Y-121028196D02*
X126249714Y-119599625D01*
X127106857Y-121313910D02*
X124106857Y-120313910D01*
X124106857Y-120313910D02*
X127106857Y-119313910D01*
X127106857Y-118313910D02*
X124106857Y-118313910D01*
X124106857Y-118313910D02*
X124106857Y-117599624D01*
X124106857Y-117599624D02*
X124249714Y-117171053D01*
X124249714Y-117171053D02*
X124535428Y-116885338D01*
X124535428Y-116885338D02*
X124821142Y-116742481D01*
X124821142Y-116742481D02*
X125392571Y-116599624D01*
X125392571Y-116599624D02*
X125821142Y-116599624D01*
X125821142Y-116599624D02*
X126392571Y-116742481D01*
X126392571Y-116742481D02*
X126678285Y-116885338D01*
X126678285Y-116885338D02*
X126964000Y-117171053D01*
X126964000Y-117171053D02*
X127106857Y-117599624D01*
X127106857Y-117599624D02*
X127106857Y-118313910D01*
X125964000Y-113028196D02*
X125964000Y-110742482D01*
X124106857Y-107313910D02*
X124106857Y-105456767D01*
X124106857Y-105456767D02*
X125249714Y-106456767D01*
X125249714Y-106456767D02*
X125249714Y-106028196D01*
X125249714Y-106028196D02*
X125392571Y-105742482D01*
X125392571Y-105742482D02*
X125535428Y-105599624D01*
X125535428Y-105599624D02*
X125821142Y-105456767D01*
X125821142Y-105456767D02*
X126535428Y-105456767D01*
X126535428Y-105456767D02*
X126821142Y-105599624D01*
X126821142Y-105599624D02*
X126964000Y-105742482D01*
X126964000Y-105742482D02*
X127106857Y-106028196D01*
X127106857Y-106028196D02*
X127106857Y-106885339D01*
X127106857Y-106885339D02*
X126964000Y-107171053D01*
X126964000Y-107171053D02*
X126821142Y-107313910D01*
X127106857Y-101885339D02*
X124106857Y-101885339D01*
X124106857Y-101885339D02*
X126249714Y-100885339D01*
X126249714Y-100885339D02*
X124106857Y-99885339D01*
X124106857Y-99885339D02*
X127106857Y-99885339D01*
X127106857Y-98456768D02*
X125106857Y-98456768D01*
X124106857Y-98456768D02*
X124249714Y-98599625D01*
X124249714Y-98599625D02*
X124392571Y-98456768D01*
X124392571Y-98456768D02*
X124249714Y-98313911D01*
X124249714Y-98313911D02*
X124106857Y-98456768D01*
X124106857Y-98456768D02*
X124392571Y-98456768D01*
X127106857Y-96599625D02*
X126964000Y-96885340D01*
X126964000Y-96885340D02*
X126678285Y-97028197D01*
X126678285Y-97028197D02*
X124106857Y-97028197D01*
X126964000Y-95313911D02*
X127106857Y-95313911D01*
X127106857Y-95313911D02*
X127392571Y-95456768D01*
X127392571Y-95456768D02*
X127535428Y-95599625D01*
X127106857Y-91742483D02*
X124106857Y-91742483D01*
X124106857Y-91742483D02*
X127106857Y-90028197D01*
X127106857Y-90028197D02*
X124106857Y-90028197D01*
X127106857Y-88171054D02*
X126964000Y-88456769D01*
X126964000Y-88456769D02*
X126821142Y-88599626D01*
X126821142Y-88599626D02*
X126535428Y-88742483D01*
X126535428Y-88742483D02*
X125678285Y-88742483D01*
X125678285Y-88742483D02*
X125392571Y-88599626D01*
X125392571Y-88599626D02*
X125249714Y-88456769D01*
X125249714Y-88456769D02*
X125106857Y-88171054D01*
X125106857Y-88171054D02*
X125106857Y-87742483D01*
X125106857Y-87742483D02*
X125249714Y-87456769D01*
X125249714Y-87456769D02*
X125392571Y-87313912D01*
X125392571Y-87313912D02*
X125678285Y-87171054D01*
X125678285Y-87171054D02*
X126535428Y-87171054D01*
X126535428Y-87171054D02*
X126821142Y-87313912D01*
X126821142Y-87313912D02*
X126964000Y-87456769D01*
X126964000Y-87456769D02*
X127106857Y-87742483D01*
X127106857Y-87742483D02*
X127106857Y-88171054D01*
X126821142Y-81885340D02*
X126964000Y-82028197D01*
X126964000Y-82028197D02*
X127106857Y-82456769D01*
X127106857Y-82456769D02*
X127106857Y-82742483D01*
X127106857Y-82742483D02*
X126964000Y-83171054D01*
X126964000Y-83171054D02*
X126678285Y-83456769D01*
X126678285Y-83456769D02*
X126392571Y-83599626D01*
X126392571Y-83599626D02*
X125821142Y-83742483D01*
X125821142Y-83742483D02*
X125392571Y-83742483D01*
X125392571Y-83742483D02*
X124821142Y-83599626D01*
X124821142Y-83599626D02*
X124535428Y-83456769D01*
X124535428Y-83456769D02*
X124249714Y-83171054D01*
X124249714Y-83171054D02*
X124106857Y-82742483D01*
X124106857Y-82742483D02*
X124106857Y-82456769D01*
X124106857Y-82456769D02*
X124249714Y-82028197D01*
X124249714Y-82028197D02*
X124392571Y-81885340D01*
X127106857Y-80171054D02*
X126964000Y-80456769D01*
X126964000Y-80456769D02*
X126821142Y-80599626D01*
X126821142Y-80599626D02*
X126535428Y-80742483D01*
X126535428Y-80742483D02*
X125678285Y-80742483D01*
X125678285Y-80742483D02*
X125392571Y-80599626D01*
X125392571Y-80599626D02*
X125249714Y-80456769D01*
X125249714Y-80456769D02*
X125106857Y-80171054D01*
X125106857Y-80171054D02*
X125106857Y-79742483D01*
X125106857Y-79742483D02*
X125249714Y-79456769D01*
X125249714Y-79456769D02*
X125392571Y-79313912D01*
X125392571Y-79313912D02*
X125678285Y-79171054D01*
X125678285Y-79171054D02*
X126535428Y-79171054D01*
X126535428Y-79171054D02*
X126821142Y-79313912D01*
X126821142Y-79313912D02*
X126964000Y-79456769D01*
X126964000Y-79456769D02*
X127106857Y-79742483D01*
X127106857Y-79742483D02*
X127106857Y-80171054D01*
X125106857Y-78171054D02*
X127106857Y-77456768D01*
X127106857Y-77456768D02*
X125106857Y-76742483D01*
X126964000Y-74456769D02*
X127106857Y-74742483D01*
X127106857Y-74742483D02*
X127106857Y-75313912D01*
X127106857Y-75313912D02*
X126964000Y-75599626D01*
X126964000Y-75599626D02*
X126678285Y-75742483D01*
X126678285Y-75742483D02*
X125535428Y-75742483D01*
X125535428Y-75742483D02*
X125249714Y-75599626D01*
X125249714Y-75599626D02*
X125106857Y-75313912D01*
X125106857Y-75313912D02*
X125106857Y-74742483D01*
X125106857Y-74742483D02*
X125249714Y-74456769D01*
X125249714Y-74456769D02*
X125535428Y-74313912D01*
X125535428Y-74313912D02*
X125821142Y-74313912D01*
X125821142Y-74313912D02*
X126106857Y-75742483D01*
X127106857Y-73028197D02*
X125106857Y-73028197D01*
X125678285Y-73028197D02*
X125392571Y-72885340D01*
X125392571Y-72885340D02*
X125249714Y-72742483D01*
X125249714Y-72742483D02*
X125106857Y-72456768D01*
X125106857Y-72456768D02*
X125106857Y-72171054D01*
X127106857Y-70742482D02*
X126964000Y-71028197D01*
X126964000Y-71028197D02*
X126678285Y-71171054D01*
X126678285Y-71171054D02*
X124106857Y-71171054D01*
X127106857Y-68313911D02*
X125535428Y-68313911D01*
X125535428Y-68313911D02*
X125249714Y-68456768D01*
X125249714Y-68456768D02*
X125106857Y-68742482D01*
X125106857Y-68742482D02*
X125106857Y-69313911D01*
X125106857Y-69313911D02*
X125249714Y-69599625D01*
X126964000Y-68313911D02*
X127106857Y-68599625D01*
X127106857Y-68599625D02*
X127106857Y-69313911D01*
X127106857Y-69313911D02*
X126964000Y-69599625D01*
X126964000Y-69599625D02*
X126678285Y-69742482D01*
X126678285Y-69742482D02*
X126392571Y-69742482D01*
X126392571Y-69742482D02*
X126106857Y-69599625D01*
X126106857Y-69599625D02*
X125964000Y-69313911D01*
X125964000Y-69313911D02*
X125964000Y-68599625D01*
X125964000Y-68599625D02*
X125821142Y-68313911D01*
X125106857Y-67171053D02*
X127106857Y-66456767D01*
X125106857Y-65742482D02*
X127106857Y-66456767D01*
X127106857Y-66456767D02*
X127821142Y-66742482D01*
X127821142Y-66742482D02*
X127964000Y-66885339D01*
X127964000Y-66885339D02*
X128106857Y-67171053D01*
X66249714Y-126599624D02*
X66249714Y-125171053D01*
X67106857Y-126885338D02*
X64106857Y-125885338D01*
X64106857Y-125885338D02*
X67106857Y-124885338D01*
X67106857Y-123885338D02*
X64106857Y-123885338D01*
X64106857Y-123885338D02*
X67106857Y-122171052D01*
X67106857Y-122171052D02*
X64106857Y-122171052D01*
X64106857Y-121171052D02*
X64106857Y-119456767D01*
X67106857Y-120313909D02*
X64106857Y-120313909D01*
X65964000Y-116171053D02*
X65964000Y-113885339D01*
X64392571Y-110313910D02*
X64249714Y-110171053D01*
X64249714Y-110171053D02*
X64106857Y-109885339D01*
X64106857Y-109885339D02*
X64106857Y-109171053D01*
X64106857Y-109171053D02*
X64249714Y-108885339D01*
X64249714Y-108885339D02*
X64392571Y-108742481D01*
X64392571Y-108742481D02*
X64678285Y-108599624D01*
X64678285Y-108599624D02*
X64964000Y-108599624D01*
X64964000Y-108599624D02*
X65392571Y-108742481D01*
X65392571Y-108742481D02*
X67106857Y-110456767D01*
X67106857Y-110456767D02*
X67106857Y-108599624D01*
X67106857Y-105028196D02*
X64106857Y-105028196D01*
X64106857Y-105028196D02*
X66249714Y-104028196D01*
X66249714Y-104028196D02*
X64106857Y-103028196D01*
X64106857Y-103028196D02*
X67106857Y-103028196D01*
X67106857Y-101599625D02*
X65106857Y-101599625D01*
X64106857Y-101599625D02*
X64249714Y-101742482D01*
X64249714Y-101742482D02*
X64392571Y-101599625D01*
X64392571Y-101599625D02*
X64249714Y-101456768D01*
X64249714Y-101456768D02*
X64106857Y-101599625D01*
X64106857Y-101599625D02*
X64392571Y-101599625D01*
X67106857Y-99742482D02*
X66964000Y-100028197D01*
X66964000Y-100028197D02*
X66678285Y-100171054D01*
X66678285Y-100171054D02*
X64106857Y-100171054D01*
X66964000Y-98456768D02*
X67106857Y-98456768D01*
X67106857Y-98456768D02*
X67392571Y-98599625D01*
X67392571Y-98599625D02*
X67535428Y-98742482D01*
X66821142Y-93171054D02*
X66964000Y-93313911D01*
X66964000Y-93313911D02*
X67106857Y-93742483D01*
X67106857Y-93742483D02*
X67106857Y-94028197D01*
X67106857Y-94028197D02*
X66964000Y-94456768D01*
X66964000Y-94456768D02*
X66678285Y-94742483D01*
X66678285Y-94742483D02*
X66392571Y-94885340D01*
X66392571Y-94885340D02*
X65821142Y-95028197D01*
X65821142Y-95028197D02*
X65392571Y-95028197D01*
X65392571Y-95028197D02*
X64821142Y-94885340D01*
X64821142Y-94885340D02*
X64535428Y-94742483D01*
X64535428Y-94742483D02*
X64249714Y-94456768D01*
X64249714Y-94456768D02*
X64106857Y-94028197D01*
X64106857Y-94028197D02*
X64106857Y-93742483D01*
X64106857Y-93742483D02*
X64249714Y-93313911D01*
X64249714Y-93313911D02*
X64392571Y-93171054D01*
X67106857Y-91456768D02*
X66964000Y-91742483D01*
X66964000Y-91742483D02*
X66821142Y-91885340D01*
X66821142Y-91885340D02*
X66535428Y-92028197D01*
X66535428Y-92028197D02*
X65678285Y-92028197D01*
X65678285Y-92028197D02*
X65392571Y-91885340D01*
X65392571Y-91885340D02*
X65249714Y-91742483D01*
X65249714Y-91742483D02*
X65106857Y-91456768D01*
X65106857Y-91456768D02*
X65106857Y-91028197D01*
X65106857Y-91028197D02*
X65249714Y-90742483D01*
X65249714Y-90742483D02*
X65392571Y-90599626D01*
X65392571Y-90599626D02*
X65678285Y-90456768D01*
X65678285Y-90456768D02*
X66535428Y-90456768D01*
X66535428Y-90456768D02*
X66821142Y-90599626D01*
X66821142Y-90599626D02*
X66964000Y-90742483D01*
X66964000Y-90742483D02*
X67106857Y-91028197D01*
X67106857Y-91028197D02*
X67106857Y-91456768D01*
X65106857Y-89456768D02*
X67106857Y-88742482D01*
X67106857Y-88742482D02*
X65106857Y-88028197D01*
X66964000Y-85742483D02*
X67106857Y-86028197D01*
X67106857Y-86028197D02*
X67106857Y-86599626D01*
X67106857Y-86599626D02*
X66964000Y-86885340D01*
X66964000Y-86885340D02*
X66678285Y-87028197D01*
X66678285Y-87028197D02*
X65535428Y-87028197D01*
X65535428Y-87028197D02*
X65249714Y-86885340D01*
X65249714Y-86885340D02*
X65106857Y-86599626D01*
X65106857Y-86599626D02*
X65106857Y-86028197D01*
X65106857Y-86028197D02*
X65249714Y-85742483D01*
X65249714Y-85742483D02*
X65535428Y-85599626D01*
X65535428Y-85599626D02*
X65821142Y-85599626D01*
X65821142Y-85599626D02*
X66106857Y-87028197D01*
X67106857Y-84313911D02*
X65106857Y-84313911D01*
X65678285Y-84313911D02*
X65392571Y-84171054D01*
X65392571Y-84171054D02*
X65249714Y-84028197D01*
X65249714Y-84028197D02*
X65106857Y-83742482D01*
X65106857Y-83742482D02*
X65106857Y-83456768D01*
X67106857Y-82028196D02*
X66964000Y-82313911D01*
X66964000Y-82313911D02*
X66678285Y-82456768D01*
X66678285Y-82456768D02*
X64106857Y-82456768D01*
X67106857Y-79599625D02*
X65535428Y-79599625D01*
X65535428Y-79599625D02*
X65249714Y-79742482D01*
X65249714Y-79742482D02*
X65106857Y-80028196D01*
X65106857Y-80028196D02*
X65106857Y-80599625D01*
X65106857Y-80599625D02*
X65249714Y-80885339D01*
X66964000Y-79599625D02*
X67106857Y-79885339D01*
X67106857Y-79885339D02*
X67106857Y-80599625D01*
X67106857Y-80599625D02*
X66964000Y-80885339D01*
X66964000Y-80885339D02*
X66678285Y-81028196D01*
X66678285Y-81028196D02*
X66392571Y-81028196D01*
X66392571Y-81028196D02*
X66106857Y-80885339D01*
X66106857Y-80885339D02*
X65964000Y-80599625D01*
X65964000Y-80599625D02*
X65964000Y-79885339D01*
X65964000Y-79885339D02*
X65821142Y-79599625D01*
X65106857Y-78456767D02*
X67106857Y-77742481D01*
X65106857Y-77028196D02*
X67106857Y-77742481D01*
X67106857Y-77742481D02*
X67821142Y-78028196D01*
X67821142Y-78028196D02*
X67964000Y-78171053D01*
X67964000Y-78171053D02*
X68106857Y-78456767D01*
X136249714Y-126599624D02*
X136249714Y-125171053D01*
X137106857Y-126885338D02*
X134106857Y-125885338D01*
X134106857Y-125885338D02*
X137106857Y-124885338D01*
X137106857Y-123885338D02*
X134106857Y-123885338D01*
X134106857Y-123885338D02*
X137106857Y-122171052D01*
X137106857Y-122171052D02*
X134106857Y-122171052D01*
X134106857Y-121171052D02*
X134106857Y-119456767D01*
X137106857Y-120313909D02*
X134106857Y-120313909D01*
X135964000Y-116171053D02*
X135964000Y-113885339D01*
X134106857Y-110456767D02*
X134106857Y-108599624D01*
X134106857Y-108599624D02*
X135249714Y-109599624D01*
X135249714Y-109599624D02*
X135249714Y-109171053D01*
X135249714Y-109171053D02*
X135392571Y-108885339D01*
X135392571Y-108885339D02*
X135535428Y-108742481D01*
X135535428Y-108742481D02*
X135821142Y-108599624D01*
X135821142Y-108599624D02*
X136535428Y-108599624D01*
X136535428Y-108599624D02*
X136821142Y-108742481D01*
X136821142Y-108742481D02*
X136964000Y-108885339D01*
X136964000Y-108885339D02*
X137106857Y-109171053D01*
X137106857Y-109171053D02*
X137106857Y-110028196D01*
X137106857Y-110028196D02*
X136964000Y-110313910D01*
X136964000Y-110313910D02*
X136821142Y-110456767D01*
X137106857Y-105028196D02*
X134106857Y-105028196D01*
X134106857Y-105028196D02*
X136249714Y-104028196D01*
X136249714Y-104028196D02*
X134106857Y-103028196D01*
X134106857Y-103028196D02*
X137106857Y-103028196D01*
X137106857Y-101599625D02*
X135106857Y-101599625D01*
X134106857Y-101599625D02*
X134249714Y-101742482D01*
X134249714Y-101742482D02*
X134392571Y-101599625D01*
X134392571Y-101599625D02*
X134249714Y-101456768D01*
X134249714Y-101456768D02*
X134106857Y-101599625D01*
X134106857Y-101599625D02*
X134392571Y-101599625D01*
X137106857Y-99742482D02*
X136964000Y-100028197D01*
X136964000Y-100028197D02*
X136678285Y-100171054D01*
X136678285Y-100171054D02*
X134106857Y-100171054D01*
X136964000Y-98456768D02*
X137106857Y-98456768D01*
X137106857Y-98456768D02*
X137392571Y-98599625D01*
X137392571Y-98599625D02*
X137535428Y-98742482D01*
X137106857Y-94885340D02*
X134106857Y-94885340D01*
X134106857Y-94885340D02*
X137106857Y-93171054D01*
X137106857Y-93171054D02*
X134106857Y-93171054D01*
X137106857Y-91313911D02*
X136964000Y-91599626D01*
X136964000Y-91599626D02*
X136821142Y-91742483D01*
X136821142Y-91742483D02*
X136535428Y-91885340D01*
X136535428Y-91885340D02*
X135678285Y-91885340D01*
X135678285Y-91885340D02*
X135392571Y-91742483D01*
X135392571Y-91742483D02*
X135249714Y-91599626D01*
X135249714Y-91599626D02*
X135106857Y-91313911D01*
X135106857Y-91313911D02*
X135106857Y-90885340D01*
X135106857Y-90885340D02*
X135249714Y-90599626D01*
X135249714Y-90599626D02*
X135392571Y-90456769D01*
X135392571Y-90456769D02*
X135678285Y-90313911D01*
X135678285Y-90313911D02*
X136535428Y-90313911D01*
X136535428Y-90313911D02*
X136821142Y-90456769D01*
X136821142Y-90456769D02*
X136964000Y-90599626D01*
X136964000Y-90599626D02*
X137106857Y-90885340D01*
X137106857Y-90885340D02*
X137106857Y-91313911D01*
X136821142Y-85028197D02*
X136964000Y-85171054D01*
X136964000Y-85171054D02*
X137106857Y-85599626D01*
X137106857Y-85599626D02*
X137106857Y-85885340D01*
X137106857Y-85885340D02*
X136964000Y-86313911D01*
X136964000Y-86313911D02*
X136678285Y-86599626D01*
X136678285Y-86599626D02*
X136392571Y-86742483D01*
X136392571Y-86742483D02*
X135821142Y-86885340D01*
X135821142Y-86885340D02*
X135392571Y-86885340D01*
X135392571Y-86885340D02*
X134821142Y-86742483D01*
X134821142Y-86742483D02*
X134535428Y-86599626D01*
X134535428Y-86599626D02*
X134249714Y-86313911D01*
X134249714Y-86313911D02*
X134106857Y-85885340D01*
X134106857Y-85885340D02*
X134106857Y-85599626D01*
X134106857Y-85599626D02*
X134249714Y-85171054D01*
X134249714Y-85171054D02*
X134392571Y-85028197D01*
X137106857Y-83313911D02*
X136964000Y-83599626D01*
X136964000Y-83599626D02*
X136821142Y-83742483D01*
X136821142Y-83742483D02*
X136535428Y-83885340D01*
X136535428Y-83885340D02*
X135678285Y-83885340D01*
X135678285Y-83885340D02*
X135392571Y-83742483D01*
X135392571Y-83742483D02*
X135249714Y-83599626D01*
X135249714Y-83599626D02*
X135106857Y-83313911D01*
X135106857Y-83313911D02*
X135106857Y-82885340D01*
X135106857Y-82885340D02*
X135249714Y-82599626D01*
X135249714Y-82599626D02*
X135392571Y-82456769D01*
X135392571Y-82456769D02*
X135678285Y-82313911D01*
X135678285Y-82313911D02*
X136535428Y-82313911D01*
X136535428Y-82313911D02*
X136821142Y-82456769D01*
X136821142Y-82456769D02*
X136964000Y-82599626D01*
X136964000Y-82599626D02*
X137106857Y-82885340D01*
X137106857Y-82885340D02*
X137106857Y-83313911D01*
X135106857Y-81313911D02*
X137106857Y-80599625D01*
X137106857Y-80599625D02*
X135106857Y-79885340D01*
X136964000Y-77599626D02*
X137106857Y-77885340D01*
X137106857Y-77885340D02*
X137106857Y-78456769D01*
X137106857Y-78456769D02*
X136964000Y-78742483D01*
X136964000Y-78742483D02*
X136678285Y-78885340D01*
X136678285Y-78885340D02*
X135535428Y-78885340D01*
X135535428Y-78885340D02*
X135249714Y-78742483D01*
X135249714Y-78742483D02*
X135106857Y-78456769D01*
X135106857Y-78456769D02*
X135106857Y-77885340D01*
X135106857Y-77885340D02*
X135249714Y-77599626D01*
X135249714Y-77599626D02*
X135535428Y-77456769D01*
X135535428Y-77456769D02*
X135821142Y-77456769D01*
X135821142Y-77456769D02*
X136106857Y-78885340D01*
X137106857Y-76171054D02*
X135106857Y-76171054D01*
X135678285Y-76171054D02*
X135392571Y-76028197D01*
X135392571Y-76028197D02*
X135249714Y-75885340D01*
X135249714Y-75885340D02*
X135106857Y-75599625D01*
X135106857Y-75599625D02*
X135106857Y-75313911D01*
X137106857Y-73885339D02*
X136964000Y-74171054D01*
X136964000Y-74171054D02*
X136678285Y-74313911D01*
X136678285Y-74313911D02*
X134106857Y-74313911D01*
X137106857Y-71456768D02*
X135535428Y-71456768D01*
X135535428Y-71456768D02*
X135249714Y-71599625D01*
X135249714Y-71599625D02*
X135106857Y-71885339D01*
X135106857Y-71885339D02*
X135106857Y-72456768D01*
X135106857Y-72456768D02*
X135249714Y-72742482D01*
X136964000Y-71456768D02*
X137106857Y-71742482D01*
X137106857Y-71742482D02*
X137106857Y-72456768D01*
X137106857Y-72456768D02*
X136964000Y-72742482D01*
X136964000Y-72742482D02*
X136678285Y-72885339D01*
X136678285Y-72885339D02*
X136392571Y-72885339D01*
X136392571Y-72885339D02*
X136106857Y-72742482D01*
X136106857Y-72742482D02*
X135964000Y-72456768D01*
X135964000Y-72456768D02*
X135964000Y-71742482D01*
X135964000Y-71742482D02*
X135821142Y-71456768D01*
X135106857Y-70313910D02*
X137106857Y-69599624D01*
X135106857Y-68885339D02*
X137106857Y-69599624D01*
X137106857Y-69599624D02*
X137821142Y-69885339D01*
X137821142Y-69885339D02*
X137964000Y-70028196D01*
X137964000Y-70028196D02*
X138106857Y-70313910D01*
X107106857Y-125028195D02*
X107106857Y-126456767D01*
X107106857Y-126456767D02*
X104106857Y-126456767D01*
X104106857Y-123456767D02*
X104106857Y-122885339D01*
X104106857Y-122885339D02*
X104249714Y-122599624D01*
X104249714Y-122599624D02*
X104535428Y-122313910D01*
X104535428Y-122313910D02*
X105106857Y-122171053D01*
X105106857Y-122171053D02*
X106106857Y-122171053D01*
X106106857Y-122171053D02*
X106678285Y-122313910D01*
X106678285Y-122313910D02*
X106964000Y-122599624D01*
X106964000Y-122599624D02*
X107106857Y-122885339D01*
X107106857Y-122885339D02*
X107106857Y-123456767D01*
X107106857Y-123456767D02*
X106964000Y-123742482D01*
X106964000Y-123742482D02*
X106678285Y-124028196D01*
X106678285Y-124028196D02*
X106106857Y-124171053D01*
X106106857Y-124171053D02*
X105106857Y-124171053D01*
X105106857Y-124171053D02*
X104535428Y-124028196D01*
X104535428Y-124028196D02*
X104249714Y-123742482D01*
X104249714Y-123742482D02*
X104106857Y-123456767D01*
X106249714Y-121028196D02*
X106249714Y-119599625D01*
X107106857Y-121313910D02*
X104106857Y-120313910D01*
X104106857Y-120313910D02*
X107106857Y-119313910D01*
X107106857Y-118313910D02*
X104106857Y-118313910D01*
X104106857Y-118313910D02*
X104106857Y-117599624D01*
X104106857Y-117599624D02*
X104249714Y-117171053D01*
X104249714Y-117171053D02*
X104535428Y-116885338D01*
X104535428Y-116885338D02*
X104821142Y-116742481D01*
X104821142Y-116742481D02*
X105392571Y-116599624D01*
X105392571Y-116599624D02*
X105821142Y-116599624D01*
X105821142Y-116599624D02*
X106392571Y-116742481D01*
X106392571Y-116742481D02*
X106678285Y-116885338D01*
X106678285Y-116885338D02*
X106964000Y-117171053D01*
X106964000Y-117171053D02*
X107106857Y-117599624D01*
X107106857Y-117599624D02*
X107106857Y-118313910D01*
X105964000Y-113028196D02*
X105964000Y-110742482D01*
X104106857Y-107313910D02*
X104106857Y-105456767D01*
X104106857Y-105456767D02*
X105249714Y-106456767D01*
X105249714Y-106456767D02*
X105249714Y-106028196D01*
X105249714Y-106028196D02*
X105392571Y-105742482D01*
X105392571Y-105742482D02*
X105535428Y-105599624D01*
X105535428Y-105599624D02*
X105821142Y-105456767D01*
X105821142Y-105456767D02*
X106535428Y-105456767D01*
X106535428Y-105456767D02*
X106821142Y-105599624D01*
X106821142Y-105599624D02*
X106964000Y-105742482D01*
X106964000Y-105742482D02*
X107106857Y-106028196D01*
X107106857Y-106028196D02*
X107106857Y-106885339D01*
X107106857Y-106885339D02*
X106964000Y-107171053D01*
X106964000Y-107171053D02*
X106821142Y-107313910D01*
X107106857Y-101885339D02*
X104106857Y-101885339D01*
X104106857Y-101885339D02*
X106249714Y-100885339D01*
X106249714Y-100885339D02*
X104106857Y-99885339D01*
X104106857Y-99885339D02*
X107106857Y-99885339D01*
X107106857Y-98456768D02*
X105106857Y-98456768D01*
X104106857Y-98456768D02*
X104249714Y-98599625D01*
X104249714Y-98599625D02*
X104392571Y-98456768D01*
X104392571Y-98456768D02*
X104249714Y-98313911D01*
X104249714Y-98313911D02*
X104106857Y-98456768D01*
X104106857Y-98456768D02*
X104392571Y-98456768D01*
X107106857Y-96599625D02*
X106964000Y-96885340D01*
X106964000Y-96885340D02*
X106678285Y-97028197D01*
X106678285Y-97028197D02*
X104106857Y-97028197D01*
X106964000Y-95313911D02*
X107106857Y-95313911D01*
X107106857Y-95313911D02*
X107392571Y-95456768D01*
X107392571Y-95456768D02*
X107535428Y-95599625D01*
X106821142Y-90028197D02*
X106964000Y-90171054D01*
X106964000Y-90171054D02*
X107106857Y-90599626D01*
X107106857Y-90599626D02*
X107106857Y-90885340D01*
X107106857Y-90885340D02*
X106964000Y-91313911D01*
X106964000Y-91313911D02*
X106678285Y-91599626D01*
X106678285Y-91599626D02*
X106392571Y-91742483D01*
X106392571Y-91742483D02*
X105821142Y-91885340D01*
X105821142Y-91885340D02*
X105392571Y-91885340D01*
X105392571Y-91885340D02*
X104821142Y-91742483D01*
X104821142Y-91742483D02*
X104535428Y-91599626D01*
X104535428Y-91599626D02*
X104249714Y-91313911D01*
X104249714Y-91313911D02*
X104106857Y-90885340D01*
X104106857Y-90885340D02*
X104106857Y-90599626D01*
X104106857Y-90599626D02*
X104249714Y-90171054D01*
X104249714Y-90171054D02*
X104392571Y-90028197D01*
X107106857Y-88313911D02*
X106964000Y-88599626D01*
X106964000Y-88599626D02*
X106821142Y-88742483D01*
X106821142Y-88742483D02*
X106535428Y-88885340D01*
X106535428Y-88885340D02*
X105678285Y-88885340D01*
X105678285Y-88885340D02*
X105392571Y-88742483D01*
X105392571Y-88742483D02*
X105249714Y-88599626D01*
X105249714Y-88599626D02*
X105106857Y-88313911D01*
X105106857Y-88313911D02*
X105106857Y-87885340D01*
X105106857Y-87885340D02*
X105249714Y-87599626D01*
X105249714Y-87599626D02*
X105392571Y-87456769D01*
X105392571Y-87456769D02*
X105678285Y-87313911D01*
X105678285Y-87313911D02*
X106535428Y-87313911D01*
X106535428Y-87313911D02*
X106821142Y-87456769D01*
X106821142Y-87456769D02*
X106964000Y-87599626D01*
X106964000Y-87599626D02*
X107106857Y-87885340D01*
X107106857Y-87885340D02*
X107106857Y-88313911D01*
X105106857Y-86313911D02*
X107106857Y-85599625D01*
X107106857Y-85599625D02*
X105106857Y-84885340D01*
X106964000Y-82599626D02*
X107106857Y-82885340D01*
X107106857Y-82885340D02*
X107106857Y-83456769D01*
X107106857Y-83456769D02*
X106964000Y-83742483D01*
X106964000Y-83742483D02*
X106678285Y-83885340D01*
X106678285Y-83885340D02*
X105535428Y-83885340D01*
X105535428Y-83885340D02*
X105249714Y-83742483D01*
X105249714Y-83742483D02*
X105106857Y-83456769D01*
X105106857Y-83456769D02*
X105106857Y-82885340D01*
X105106857Y-82885340D02*
X105249714Y-82599626D01*
X105249714Y-82599626D02*
X105535428Y-82456769D01*
X105535428Y-82456769D02*
X105821142Y-82456769D01*
X105821142Y-82456769D02*
X106106857Y-83885340D01*
X107106857Y-81171054D02*
X105106857Y-81171054D01*
X105678285Y-81171054D02*
X105392571Y-81028197D01*
X105392571Y-81028197D02*
X105249714Y-80885340D01*
X105249714Y-80885340D02*
X105106857Y-80599625D01*
X105106857Y-80599625D02*
X105106857Y-80313911D01*
X107106857Y-78885339D02*
X106964000Y-79171054D01*
X106964000Y-79171054D02*
X106678285Y-79313911D01*
X106678285Y-79313911D02*
X104106857Y-79313911D01*
X107106857Y-76456768D02*
X105535428Y-76456768D01*
X105535428Y-76456768D02*
X105249714Y-76599625D01*
X105249714Y-76599625D02*
X105106857Y-76885339D01*
X105106857Y-76885339D02*
X105106857Y-77456768D01*
X105106857Y-77456768D02*
X105249714Y-77742482D01*
X106964000Y-76456768D02*
X107106857Y-76742482D01*
X107106857Y-76742482D02*
X107106857Y-77456768D01*
X107106857Y-77456768D02*
X106964000Y-77742482D01*
X106964000Y-77742482D02*
X106678285Y-77885339D01*
X106678285Y-77885339D02*
X106392571Y-77885339D01*
X106392571Y-77885339D02*
X106106857Y-77742482D01*
X106106857Y-77742482D02*
X105964000Y-77456768D01*
X105964000Y-77456768D02*
X105964000Y-76742482D01*
X105964000Y-76742482D02*
X105821142Y-76456768D01*
X105106857Y-75313910D02*
X107106857Y-74599624D01*
X105106857Y-73885339D02*
X107106857Y-74599624D01*
X107106857Y-74599624D02*
X107821142Y-74885339D01*
X107821142Y-74885339D02*
X107964000Y-75028196D01*
X107964000Y-75028196D02*
X108106857Y-75313910D01*
D11*
X83833333Y-137669104D02*
X84309523Y-137669104D01*
X83738095Y-137954819D02*
X84071428Y-136954819D01*
X84071428Y-136954819D02*
X84404761Y-137954819D01*
X84738095Y-137431009D02*
X85071428Y-137431009D01*
X85214285Y-137954819D02*
X84738095Y-137954819D01*
X84738095Y-137954819D02*
X84738095Y-136954819D01*
X84738095Y-136954819D02*
X85214285Y-136954819D01*
X85595238Y-137050057D02*
X85642857Y-137002438D01*
X85642857Y-137002438D02*
X85738095Y-136954819D01*
X85738095Y-136954819D02*
X85976190Y-136954819D01*
X85976190Y-136954819D02*
X86071428Y-137002438D01*
X86071428Y-137002438D02*
X86119047Y-137050057D01*
X86119047Y-137050057D02*
X86166666Y-137145295D01*
X86166666Y-137145295D02*
X86166666Y-137240533D01*
X86166666Y-137240533D02*
X86119047Y-137383390D01*
X86119047Y-137383390D02*
X85547619Y-137954819D01*
X85547619Y-137954819D02*
X86166666Y-137954819D01*
X127333333Y-136624819D02*
X127000000Y-136148628D01*
X126761905Y-136624819D02*
X126761905Y-135624819D01*
X126761905Y-135624819D02*
X127142857Y-135624819D01*
X127142857Y-135624819D02*
X127238095Y-135672438D01*
X127238095Y-135672438D02*
X127285714Y-135720057D01*
X127285714Y-135720057D02*
X127333333Y-135815295D01*
X127333333Y-135815295D02*
X127333333Y-135958152D01*
X127333333Y-135958152D02*
X127285714Y-136053390D01*
X127285714Y-136053390D02*
X127238095Y-136101009D01*
X127238095Y-136101009D02*
X127142857Y-136148628D01*
X127142857Y-136148628D02*
X126761905Y-136148628D01*
X127714286Y-135720057D02*
X127761905Y-135672438D01*
X127761905Y-135672438D02*
X127857143Y-135624819D01*
X127857143Y-135624819D02*
X128095238Y-135624819D01*
X128095238Y-135624819D02*
X128190476Y-135672438D01*
X128190476Y-135672438D02*
X128238095Y-135720057D01*
X128238095Y-135720057D02*
X128285714Y-135815295D01*
X128285714Y-135815295D02*
X128285714Y-135910533D01*
X128285714Y-135910533D02*
X128238095Y-136053390D01*
X128238095Y-136053390D02*
X127666667Y-136624819D01*
X127666667Y-136624819D02*
X128285714Y-136624819D01*
X84704819Y-145333333D02*
X85419104Y-145333333D01*
X85419104Y-145333333D02*
X85561961Y-145380952D01*
X85561961Y-145380952D02*
X85657200Y-145476190D01*
X85657200Y-145476190D02*
X85704819Y-145619047D01*
X85704819Y-145619047D02*
X85704819Y-145714285D01*
X85133390Y-144714285D02*
X85085771Y-144809523D01*
X85085771Y-144809523D02*
X85038152Y-144857142D01*
X85038152Y-144857142D02*
X84942914Y-144904761D01*
X84942914Y-144904761D02*
X84895295Y-144904761D01*
X84895295Y-144904761D02*
X84800057Y-144857142D01*
X84800057Y-144857142D02*
X84752438Y-144809523D01*
X84752438Y-144809523D02*
X84704819Y-144714285D01*
X84704819Y-144714285D02*
X84704819Y-144523809D01*
X84704819Y-144523809D02*
X84752438Y-144428571D01*
X84752438Y-144428571D02*
X84800057Y-144380952D01*
X84800057Y-144380952D02*
X84895295Y-144333333D01*
X84895295Y-144333333D02*
X84942914Y-144333333D01*
X84942914Y-144333333D02*
X85038152Y-144380952D01*
X85038152Y-144380952D02*
X85085771Y-144428571D01*
X85085771Y-144428571D02*
X85133390Y-144523809D01*
X85133390Y-144523809D02*
X85133390Y-144714285D01*
X85133390Y-144714285D02*
X85181009Y-144809523D01*
X85181009Y-144809523D02*
X85228628Y-144857142D01*
X85228628Y-144857142D02*
X85323866Y-144904761D01*
X85323866Y-144904761D02*
X85514342Y-144904761D01*
X85514342Y-144904761D02*
X85609580Y-144857142D01*
X85609580Y-144857142D02*
X85657200Y-144809523D01*
X85657200Y-144809523D02*
X85704819Y-144714285D01*
X85704819Y-144714285D02*
X85704819Y-144523809D01*
X85704819Y-144523809D02*
X85657200Y-144428571D01*
X85657200Y-144428571D02*
X85609580Y-144380952D01*
X85609580Y-144380952D02*
X85514342Y-144333333D01*
X85514342Y-144333333D02*
X85323866Y-144333333D01*
X85323866Y-144333333D02*
X85228628Y-144380952D01*
X85228628Y-144380952D02*
X85181009Y-144428571D01*
X85181009Y-144428571D02*
X85133390Y-144523809D01*
X133833333Y-137669104D02*
X134309523Y-137669104D01*
X133738095Y-137954819D02*
X134071428Y-136954819D01*
X134071428Y-136954819D02*
X134404761Y-137954819D01*
X134738095Y-137431009D02*
X135071428Y-137431009D01*
X135214285Y-137954819D02*
X134738095Y-137954819D01*
X134738095Y-137954819D02*
X134738095Y-136954819D01*
X134738095Y-136954819D02*
X135214285Y-136954819D01*
X136071428Y-137288152D02*
X136071428Y-137954819D01*
X135833333Y-136907200D02*
X135595238Y-137621485D01*
X135595238Y-137621485D02*
X136214285Y-137621485D01*
X134704819Y-145809523D02*
X135419104Y-145809523D01*
X135419104Y-145809523D02*
X135561961Y-145857142D01*
X135561961Y-145857142D02*
X135657200Y-145952380D01*
X135657200Y-145952380D02*
X135704819Y-146095237D01*
X135704819Y-146095237D02*
X135704819Y-146190475D01*
X135704819Y-144809523D02*
X135704819Y-145380951D01*
X135704819Y-145095237D02*
X134704819Y-145095237D01*
X134704819Y-145095237D02*
X134847676Y-145190475D01*
X134847676Y-145190475D02*
X134942914Y-145285713D01*
X134942914Y-145285713D02*
X134990533Y-145380951D01*
X134704819Y-143952380D02*
X134704819Y-144142856D01*
X134704819Y-144142856D02*
X134752438Y-144238094D01*
X134752438Y-144238094D02*
X134800057Y-144285713D01*
X134800057Y-144285713D02*
X134942914Y-144380951D01*
X134942914Y-144380951D02*
X135133390Y-144428570D01*
X135133390Y-144428570D02*
X135514342Y-144428570D01*
X135514342Y-144428570D02*
X135609580Y-144380951D01*
X135609580Y-144380951D02*
X135657200Y-144333332D01*
X135657200Y-144333332D02*
X135704819Y-144238094D01*
X135704819Y-144238094D02*
X135704819Y-144047618D01*
X135704819Y-144047618D02*
X135657200Y-143952380D01*
X135657200Y-143952380D02*
X135609580Y-143904761D01*
X135609580Y-143904761D02*
X135514342Y-143857142D01*
X135514342Y-143857142D02*
X135276247Y-143857142D01*
X135276247Y-143857142D02*
X135181009Y-143904761D01*
X135181009Y-143904761D02*
X135133390Y-143952380D01*
X135133390Y-143952380D02*
X135085771Y-144047618D01*
X135085771Y-144047618D02*
X135085771Y-144238094D01*
X135085771Y-144238094D02*
X135133390Y-144333332D01*
X135133390Y-144333332D02*
X135181009Y-144380951D01*
X135181009Y-144380951D02*
X135276247Y-144428570D01*
X107333333Y-136624819D02*
X107000000Y-136148628D01*
X106761905Y-136624819D02*
X106761905Y-135624819D01*
X106761905Y-135624819D02*
X107142857Y-135624819D01*
X107142857Y-135624819D02*
X107238095Y-135672438D01*
X107238095Y-135672438D02*
X107285714Y-135720057D01*
X107285714Y-135720057D02*
X107333333Y-135815295D01*
X107333333Y-135815295D02*
X107333333Y-135958152D01*
X107333333Y-135958152D02*
X107285714Y-136053390D01*
X107285714Y-136053390D02*
X107238095Y-136101009D01*
X107238095Y-136101009D02*
X107142857Y-136148628D01*
X107142857Y-136148628D02*
X106761905Y-136148628D01*
X108285714Y-136624819D02*
X107714286Y-136624819D01*
X108000000Y-136624819D02*
X108000000Y-135624819D01*
X108000000Y-135624819D02*
X107904762Y-135767676D01*
X107904762Y-135767676D02*
X107809524Y-135862914D01*
X107809524Y-135862914D02*
X107714286Y-135910533D01*
X104704819Y-55333333D02*
X105419104Y-55333333D01*
X105419104Y-55333333D02*
X105561961Y-55380952D01*
X105561961Y-55380952D02*
X105657200Y-55476190D01*
X105657200Y-55476190D02*
X105704819Y-55619047D01*
X105704819Y-55619047D02*
X105704819Y-55714285D01*
X105704819Y-54809523D02*
X105704819Y-54619047D01*
X105704819Y-54619047D02*
X105657200Y-54523809D01*
X105657200Y-54523809D02*
X105609580Y-54476190D01*
X105609580Y-54476190D02*
X105466723Y-54380952D01*
X105466723Y-54380952D02*
X105276247Y-54333333D01*
X105276247Y-54333333D02*
X104895295Y-54333333D01*
X104895295Y-54333333D02*
X104800057Y-54380952D01*
X104800057Y-54380952D02*
X104752438Y-54428571D01*
X104752438Y-54428571D02*
X104704819Y-54523809D01*
X104704819Y-54523809D02*
X104704819Y-54714285D01*
X104704819Y-54714285D02*
X104752438Y-54809523D01*
X104752438Y-54809523D02*
X104800057Y-54857142D01*
X104800057Y-54857142D02*
X104895295Y-54904761D01*
X104895295Y-54904761D02*
X105133390Y-54904761D01*
X105133390Y-54904761D02*
X105228628Y-54857142D01*
X105228628Y-54857142D02*
X105276247Y-54809523D01*
X105276247Y-54809523D02*
X105323866Y-54714285D01*
X105323866Y-54714285D02*
X105323866Y-54523809D01*
X105323866Y-54523809D02*
X105276247Y-54428571D01*
X105276247Y-54428571D02*
X105228628Y-54380952D01*
X105228628Y-54380952D02*
X105133390Y-54333333D01*
X64704819Y-145333333D02*
X65419104Y-145333333D01*
X65419104Y-145333333D02*
X65561961Y-145380952D01*
X65561961Y-145380952D02*
X65657200Y-145476190D01*
X65657200Y-145476190D02*
X65704819Y-145619047D01*
X65704819Y-145619047D02*
X65704819Y-145714285D01*
X65038152Y-144428571D02*
X65704819Y-144428571D01*
X64657200Y-144666666D02*
X65371485Y-144904761D01*
X65371485Y-144904761D02*
X65371485Y-144285714D01*
X84704819Y-55333333D02*
X85419104Y-55333333D01*
X85419104Y-55333333D02*
X85561961Y-55380952D01*
X85561961Y-55380952D02*
X85657200Y-55476190D01*
X85657200Y-55476190D02*
X85704819Y-55619047D01*
X85704819Y-55619047D02*
X85704819Y-55714285D01*
X84704819Y-54952380D02*
X84704819Y-54285714D01*
X84704819Y-54285714D02*
X85704819Y-54714285D01*
X64704819Y-55333333D02*
X65419104Y-55333333D01*
X65419104Y-55333333D02*
X65561961Y-55380952D01*
X65561961Y-55380952D02*
X65657200Y-55476190D01*
X65657200Y-55476190D02*
X65704819Y-55619047D01*
X65704819Y-55619047D02*
X65704819Y-55714285D01*
X64704819Y-54952380D02*
X64704819Y-54333333D01*
X64704819Y-54333333D02*
X65085771Y-54666666D01*
X65085771Y-54666666D02*
X65085771Y-54523809D01*
X65085771Y-54523809D02*
X65133390Y-54428571D01*
X65133390Y-54428571D02*
X65181009Y-54380952D01*
X65181009Y-54380952D02*
X65276247Y-54333333D01*
X65276247Y-54333333D02*
X65514342Y-54333333D01*
X65514342Y-54333333D02*
X65609580Y-54380952D01*
X65609580Y-54380952D02*
X65657200Y-54428571D01*
X65657200Y-54428571D02*
X65704819Y-54523809D01*
X65704819Y-54523809D02*
X65704819Y-54809523D01*
X65704819Y-54809523D02*
X65657200Y-54904761D01*
X65657200Y-54904761D02*
X65609580Y-54952380D01*
X114704819Y-55809523D02*
X115419104Y-55809523D01*
X115419104Y-55809523D02*
X115561961Y-55857142D01*
X115561961Y-55857142D02*
X115657200Y-55952380D01*
X115657200Y-55952380D02*
X115704819Y-56095237D01*
X115704819Y-56095237D02*
X115704819Y-56190475D01*
X115704819Y-54809523D02*
X115704819Y-55380951D01*
X115704819Y-55095237D02*
X114704819Y-55095237D01*
X114704819Y-55095237D02*
X114847676Y-55190475D01*
X114847676Y-55190475D02*
X114942914Y-55285713D01*
X114942914Y-55285713D02*
X114990533Y-55380951D01*
X115704819Y-53857142D02*
X115704819Y-54428570D01*
X115704819Y-54142856D02*
X114704819Y-54142856D01*
X114704819Y-54142856D02*
X114847676Y-54238094D01*
X114847676Y-54238094D02*
X114942914Y-54333332D01*
X114942914Y-54333332D02*
X114990533Y-54428570D01*
X104704819Y-145809523D02*
X105419104Y-145809523D01*
X105419104Y-145809523D02*
X105561961Y-145857142D01*
X105561961Y-145857142D02*
X105657200Y-145952380D01*
X105657200Y-145952380D02*
X105704819Y-146095237D01*
X105704819Y-146095237D02*
X105704819Y-146190475D01*
X105704819Y-144809523D02*
X105704819Y-145380951D01*
X105704819Y-145095237D02*
X104704819Y-145095237D01*
X104704819Y-145095237D02*
X104847676Y-145190475D01*
X104847676Y-145190475D02*
X104942914Y-145285713D01*
X104942914Y-145285713D02*
X104990533Y-145380951D01*
X104704819Y-144190475D02*
X104704819Y-144095237D01*
X104704819Y-144095237D02*
X104752438Y-143999999D01*
X104752438Y-143999999D02*
X104800057Y-143952380D01*
X104800057Y-143952380D02*
X104895295Y-143904761D01*
X104895295Y-143904761D02*
X105085771Y-143857142D01*
X105085771Y-143857142D02*
X105323866Y-143857142D01*
X105323866Y-143857142D02*
X105514342Y-143904761D01*
X105514342Y-143904761D02*
X105609580Y-143952380D01*
X105609580Y-143952380D02*
X105657200Y-143999999D01*
X105657200Y-143999999D02*
X105704819Y-144095237D01*
X105704819Y-144095237D02*
X105704819Y-144190475D01*
X105704819Y-144190475D02*
X105657200Y-144285713D01*
X105657200Y-144285713D02*
X105609580Y-144333332D01*
X105609580Y-144333332D02*
X105514342Y-144380951D01*
X105514342Y-144380951D02*
X105323866Y-144428570D01*
X105323866Y-144428570D02*
X105085771Y-144428570D01*
X105085771Y-144428570D02*
X104895295Y-144380951D01*
X104895295Y-144380951D02*
X104800057Y-144333332D01*
X104800057Y-144333332D02*
X104752438Y-144285713D01*
X104752438Y-144285713D02*
X104704819Y-144190475D01*
X124704819Y-145809523D02*
X125419104Y-145809523D01*
X125419104Y-145809523D02*
X125561961Y-145857142D01*
X125561961Y-145857142D02*
X125657200Y-145952380D01*
X125657200Y-145952380D02*
X125704819Y-146095237D01*
X125704819Y-146095237D02*
X125704819Y-146190475D01*
X125704819Y-144809523D02*
X125704819Y-145380951D01*
X125704819Y-145095237D02*
X124704819Y-145095237D01*
X124704819Y-145095237D02*
X124847676Y-145190475D01*
X124847676Y-145190475D02*
X124942914Y-145285713D01*
X124942914Y-145285713D02*
X124990533Y-145380951D01*
X125038152Y-143952380D02*
X125704819Y-143952380D01*
X124657200Y-144190475D02*
X125371485Y-144428570D01*
X125371485Y-144428570D02*
X125371485Y-143809523D01*
X134704819Y-55809523D02*
X135419104Y-55809523D01*
X135419104Y-55809523D02*
X135561961Y-55857142D01*
X135561961Y-55857142D02*
X135657200Y-55952380D01*
X135657200Y-55952380D02*
X135704819Y-56095237D01*
X135704819Y-56095237D02*
X135704819Y-56190475D01*
X135704819Y-54809523D02*
X135704819Y-55380951D01*
X135704819Y-55095237D02*
X134704819Y-55095237D01*
X134704819Y-55095237D02*
X134847676Y-55190475D01*
X134847676Y-55190475D02*
X134942914Y-55285713D01*
X134942914Y-55285713D02*
X134990533Y-55380951D01*
X134704819Y-53904761D02*
X134704819Y-54380951D01*
X134704819Y-54380951D02*
X135181009Y-54428570D01*
X135181009Y-54428570D02*
X135133390Y-54380951D01*
X135133390Y-54380951D02*
X135085771Y-54285713D01*
X135085771Y-54285713D02*
X135085771Y-54047618D01*
X135085771Y-54047618D02*
X135133390Y-53952380D01*
X135133390Y-53952380D02*
X135181009Y-53904761D01*
X135181009Y-53904761D02*
X135276247Y-53857142D01*
X135276247Y-53857142D02*
X135514342Y-53857142D01*
X135514342Y-53857142D02*
X135609580Y-53904761D01*
X135609580Y-53904761D02*
X135657200Y-53952380D01*
X135657200Y-53952380D02*
X135704819Y-54047618D01*
X135704819Y-54047618D02*
X135704819Y-54285713D01*
X135704819Y-54285713D02*
X135657200Y-54380951D01*
X135657200Y-54380951D02*
X135609580Y-54428570D01*
X63833333Y-137669104D02*
X64309523Y-137669104D01*
X63738095Y-137954819D02*
X64071428Y-136954819D01*
X64071428Y-136954819D02*
X64404761Y-137954819D01*
X64738095Y-137431009D02*
X65071428Y-137431009D01*
X65214285Y-137954819D02*
X64738095Y-137954819D01*
X64738095Y-137954819D02*
X64738095Y-136954819D01*
X64738095Y-136954819D02*
X65214285Y-136954819D01*
X66166666Y-137954819D02*
X65595238Y-137954819D01*
X65880952Y-137954819D02*
X65880952Y-136954819D01*
X65880952Y-136954819D02*
X65785714Y-137097676D01*
X65785714Y-137097676D02*
X65690476Y-137192914D01*
X65690476Y-137192914D02*
X65595238Y-137240533D01*
X114704819Y-145809523D02*
X115419104Y-145809523D01*
X115419104Y-145809523D02*
X115561961Y-145857142D01*
X115561961Y-145857142D02*
X115657200Y-145952380D01*
X115657200Y-145952380D02*
X115704819Y-146095237D01*
X115704819Y-146095237D02*
X115704819Y-146190475D01*
X115704819Y-144809523D02*
X115704819Y-145380951D01*
X115704819Y-145095237D02*
X114704819Y-145095237D01*
X114704819Y-145095237D02*
X114847676Y-145190475D01*
X114847676Y-145190475D02*
X114942914Y-145285713D01*
X114942914Y-145285713D02*
X114990533Y-145380951D01*
X114800057Y-144428570D02*
X114752438Y-144380951D01*
X114752438Y-144380951D02*
X114704819Y-144285713D01*
X114704819Y-144285713D02*
X114704819Y-144047618D01*
X114704819Y-144047618D02*
X114752438Y-143952380D01*
X114752438Y-143952380D02*
X114800057Y-143904761D01*
X114800057Y-143904761D02*
X114895295Y-143857142D01*
X114895295Y-143857142D02*
X114990533Y-143857142D01*
X114990533Y-143857142D02*
X115133390Y-143904761D01*
X115133390Y-143904761D02*
X115704819Y-144476189D01*
X115704819Y-144476189D02*
X115704819Y-143857142D01*
X77333333Y-137954819D02*
X77000000Y-137478628D01*
X76761905Y-137954819D02*
X76761905Y-136954819D01*
X76761905Y-136954819D02*
X77142857Y-136954819D01*
X77142857Y-136954819D02*
X77238095Y-137002438D01*
X77238095Y-137002438D02*
X77285714Y-137050057D01*
X77285714Y-137050057D02*
X77333333Y-137145295D01*
X77333333Y-137145295D02*
X77333333Y-137288152D01*
X77333333Y-137288152D02*
X77285714Y-137383390D01*
X77285714Y-137383390D02*
X77238095Y-137431009D01*
X77238095Y-137431009D02*
X77142857Y-137478628D01*
X77142857Y-137478628D02*
X76761905Y-137478628D01*
X78190476Y-136954819D02*
X78000000Y-136954819D01*
X78000000Y-136954819D02*
X77904762Y-137002438D01*
X77904762Y-137002438D02*
X77857143Y-137050057D01*
X77857143Y-137050057D02*
X77761905Y-137192914D01*
X77761905Y-137192914D02*
X77714286Y-137383390D01*
X77714286Y-137383390D02*
X77714286Y-137764342D01*
X77714286Y-137764342D02*
X77761905Y-137859580D01*
X77761905Y-137859580D02*
X77809524Y-137907200D01*
X77809524Y-137907200D02*
X77904762Y-137954819D01*
X77904762Y-137954819D02*
X78095238Y-137954819D01*
X78095238Y-137954819D02*
X78190476Y-137907200D01*
X78190476Y-137907200D02*
X78238095Y-137859580D01*
X78238095Y-137859580D02*
X78285714Y-137764342D01*
X78285714Y-137764342D02*
X78285714Y-137526247D01*
X78285714Y-137526247D02*
X78238095Y-137431009D01*
X78238095Y-137431009D02*
X78190476Y-137383390D01*
X78190476Y-137383390D02*
X78095238Y-137335771D01*
X78095238Y-137335771D02*
X77904762Y-137335771D01*
X77904762Y-137335771D02*
X77809524Y-137383390D01*
X77809524Y-137383390D02*
X77761905Y-137431009D01*
X77761905Y-137431009D02*
X77714286Y-137526247D01*
X74704819Y-145333333D02*
X75419104Y-145333333D01*
X75419104Y-145333333D02*
X75561961Y-145380952D01*
X75561961Y-145380952D02*
X75657200Y-145476190D01*
X75657200Y-145476190D02*
X75704819Y-145619047D01*
X75704819Y-145619047D02*
X75704819Y-145714285D01*
X74704819Y-144428571D02*
X74704819Y-144619047D01*
X74704819Y-144619047D02*
X74752438Y-144714285D01*
X74752438Y-144714285D02*
X74800057Y-144761904D01*
X74800057Y-144761904D02*
X74942914Y-144857142D01*
X74942914Y-144857142D02*
X75133390Y-144904761D01*
X75133390Y-144904761D02*
X75514342Y-144904761D01*
X75514342Y-144904761D02*
X75609580Y-144857142D01*
X75609580Y-144857142D02*
X75657200Y-144809523D01*
X75657200Y-144809523D02*
X75704819Y-144714285D01*
X75704819Y-144714285D02*
X75704819Y-144523809D01*
X75704819Y-144523809D02*
X75657200Y-144428571D01*
X75657200Y-144428571D02*
X75609580Y-144380952D01*
X75609580Y-144380952D02*
X75514342Y-144333333D01*
X75514342Y-144333333D02*
X75276247Y-144333333D01*
X75276247Y-144333333D02*
X75181009Y-144380952D01*
X75181009Y-144380952D02*
X75133390Y-144428571D01*
X75133390Y-144428571D02*
X75085771Y-144523809D01*
X75085771Y-144523809D02*
X75085771Y-144714285D01*
X75085771Y-144714285D02*
X75133390Y-144809523D01*
X75133390Y-144809523D02*
X75181009Y-144857142D01*
X75181009Y-144857142D02*
X75276247Y-144904761D01*
X54704819Y-145333333D02*
X55419104Y-145333333D01*
X55419104Y-145333333D02*
X55561961Y-145380952D01*
X55561961Y-145380952D02*
X55657200Y-145476190D01*
X55657200Y-145476190D02*
X55704819Y-145619047D01*
X55704819Y-145619047D02*
X55704819Y-145714285D01*
X54800057Y-144904761D02*
X54752438Y-144857142D01*
X54752438Y-144857142D02*
X54704819Y-144761904D01*
X54704819Y-144761904D02*
X54704819Y-144523809D01*
X54704819Y-144523809D02*
X54752438Y-144428571D01*
X54752438Y-144428571D02*
X54800057Y-144380952D01*
X54800057Y-144380952D02*
X54895295Y-144333333D01*
X54895295Y-144333333D02*
X54990533Y-144333333D01*
X54990533Y-144333333D02*
X55133390Y-144380952D01*
X55133390Y-144380952D02*
X55704819Y-144952380D01*
X55704819Y-144952380D02*
X55704819Y-144333333D01*
X57333333Y-137954819D02*
X57000000Y-137478628D01*
X56761905Y-137954819D02*
X56761905Y-136954819D01*
X56761905Y-136954819D02*
X57142857Y-136954819D01*
X57142857Y-136954819D02*
X57238095Y-137002438D01*
X57238095Y-137002438D02*
X57285714Y-137050057D01*
X57285714Y-137050057D02*
X57333333Y-137145295D01*
X57333333Y-137145295D02*
X57333333Y-137288152D01*
X57333333Y-137288152D02*
X57285714Y-137383390D01*
X57285714Y-137383390D02*
X57238095Y-137431009D01*
X57238095Y-137431009D02*
X57142857Y-137478628D01*
X57142857Y-137478628D02*
X56761905Y-137478628D01*
X57666667Y-136954819D02*
X58285714Y-136954819D01*
X58285714Y-136954819D02*
X57952381Y-137335771D01*
X57952381Y-137335771D02*
X58095238Y-137335771D01*
X58095238Y-137335771D02*
X58190476Y-137383390D01*
X58190476Y-137383390D02*
X58238095Y-137431009D01*
X58238095Y-137431009D02*
X58285714Y-137526247D01*
X58285714Y-137526247D02*
X58285714Y-137764342D01*
X58285714Y-137764342D02*
X58238095Y-137859580D01*
X58238095Y-137859580D02*
X58190476Y-137907200D01*
X58190476Y-137907200D02*
X58095238Y-137954819D01*
X58095238Y-137954819D02*
X57809524Y-137954819D01*
X57809524Y-137954819D02*
X57714286Y-137907200D01*
X57714286Y-137907200D02*
X57666667Y-137859580D01*
X113833333Y-137669104D02*
X114309523Y-137669104D01*
X113738095Y-137954819D02*
X114071428Y-136954819D01*
X114071428Y-136954819D02*
X114404761Y-137954819D01*
X114738095Y-137431009D02*
X115071428Y-137431009D01*
X115214285Y-137954819D02*
X114738095Y-137954819D01*
X114738095Y-137954819D02*
X114738095Y-136954819D01*
X114738095Y-136954819D02*
X115214285Y-136954819D01*
X115547619Y-136954819D02*
X116166666Y-136954819D01*
X116166666Y-136954819D02*
X115833333Y-137335771D01*
X115833333Y-137335771D02*
X115976190Y-137335771D01*
X115976190Y-137335771D02*
X116071428Y-137383390D01*
X116071428Y-137383390D02*
X116119047Y-137431009D01*
X116119047Y-137431009D02*
X116166666Y-137526247D01*
X116166666Y-137526247D02*
X116166666Y-137764342D01*
X116166666Y-137764342D02*
X116119047Y-137859580D01*
X116119047Y-137859580D02*
X116071428Y-137907200D01*
X116071428Y-137907200D02*
X115976190Y-137954819D01*
X115976190Y-137954819D02*
X115690476Y-137954819D01*
X115690476Y-137954819D02*
X115595238Y-137907200D01*
X115595238Y-137907200D02*
X115547619Y-137859580D01*
X124704819Y-55809523D02*
X125419104Y-55809523D01*
X125419104Y-55809523D02*
X125561961Y-55857142D01*
X125561961Y-55857142D02*
X125657200Y-55952380D01*
X125657200Y-55952380D02*
X125704819Y-56095237D01*
X125704819Y-56095237D02*
X125704819Y-56190475D01*
X125704819Y-54809523D02*
X125704819Y-55380951D01*
X125704819Y-55095237D02*
X124704819Y-55095237D01*
X124704819Y-55095237D02*
X124847676Y-55190475D01*
X124847676Y-55190475D02*
X124942914Y-55285713D01*
X124942914Y-55285713D02*
X124990533Y-55380951D01*
X124704819Y-54476189D02*
X124704819Y-53857142D01*
X124704819Y-53857142D02*
X125085771Y-54190475D01*
X125085771Y-54190475D02*
X125085771Y-54047618D01*
X125085771Y-54047618D02*
X125133390Y-53952380D01*
X125133390Y-53952380D02*
X125181009Y-53904761D01*
X125181009Y-53904761D02*
X125276247Y-53857142D01*
X125276247Y-53857142D02*
X125514342Y-53857142D01*
X125514342Y-53857142D02*
X125609580Y-53904761D01*
X125609580Y-53904761D02*
X125657200Y-53952380D01*
X125657200Y-53952380D02*
X125704819Y-54047618D01*
X125704819Y-54047618D02*
X125704819Y-54333332D01*
X125704819Y-54333332D02*
X125657200Y-54428570D01*
X125657200Y-54428570D02*
X125609580Y-54476189D01*
X54704819Y-55333333D02*
X55419104Y-55333333D01*
X55419104Y-55333333D02*
X55561961Y-55380952D01*
X55561961Y-55380952D02*
X55657200Y-55476190D01*
X55657200Y-55476190D02*
X55704819Y-55619047D01*
X55704819Y-55619047D02*
X55704819Y-55714285D01*
X55704819Y-54333333D02*
X55704819Y-54904761D01*
X55704819Y-54619047D02*
X54704819Y-54619047D01*
X54704819Y-54619047D02*
X54847676Y-54714285D01*
X54847676Y-54714285D02*
X54942914Y-54809523D01*
X54942914Y-54809523D02*
X54990533Y-54904761D01*
X74704819Y-55333333D02*
X75419104Y-55333333D01*
X75419104Y-55333333D02*
X75561961Y-55380952D01*
X75561961Y-55380952D02*
X75657200Y-55476190D01*
X75657200Y-55476190D02*
X75704819Y-55619047D01*
X75704819Y-55619047D02*
X75704819Y-55714285D01*
X74704819Y-54380952D02*
X74704819Y-54857142D01*
X74704819Y-54857142D02*
X75181009Y-54904761D01*
X75181009Y-54904761D02*
X75133390Y-54857142D01*
X75133390Y-54857142D02*
X75085771Y-54761904D01*
X75085771Y-54761904D02*
X75085771Y-54523809D01*
X75085771Y-54523809D02*
X75133390Y-54428571D01*
X75133390Y-54428571D02*
X75181009Y-54380952D01*
X75181009Y-54380952D02*
X75276247Y-54333333D01*
X75276247Y-54333333D02*
X75514342Y-54333333D01*
X75514342Y-54333333D02*
X75609580Y-54380952D01*
X75609580Y-54380952D02*
X75657200Y-54428571D01*
X75657200Y-54428571D02*
X75704819Y-54523809D01*
X75704819Y-54523809D02*
X75704819Y-54761904D01*
X75704819Y-54761904D02*
X75657200Y-54857142D01*
X75657200Y-54857142D02*
X75609580Y-54904761D01*
D12*
%TO.C,AE2*%
X86240000Y-133840000D02*
X86240000Y-136160000D01*
X86240000Y-136160000D02*
X90150000Y-136160000D01*
X90150000Y-133840000D02*
X86240000Y-133840000D01*
%TO.C,R2*%
X129643641Y-134620000D02*
X129336359Y-134620000D01*
X129643641Y-135380000D02*
X129336359Y-135380000D01*
%TO.C,J8*%
X89060000Y-141645000D02*
X90940000Y-141645000D01*
X89060000Y-148355000D02*
X90940000Y-148355000D01*
%TO.C,AE4*%
X136240000Y-133840000D02*
X136240000Y-136160000D01*
X136240000Y-136160000D02*
X140150000Y-136160000D01*
X140150000Y-133840000D02*
X136240000Y-133840000D01*
%TO.C,J16*%
X139060000Y-141645000D02*
X140940000Y-141645000D01*
X139060000Y-148355000D02*
X140940000Y-148355000D01*
%TO.C,R1*%
X109643641Y-134620000D02*
X109336359Y-134620000D01*
X109643641Y-135380000D02*
X109336359Y-135380000D01*
%TO.C,J9*%
X109060000Y-51645000D02*
X110940000Y-51645000D01*
X109060000Y-58355000D02*
X110940000Y-58355000D01*
%TO.C,J4*%
X69060000Y-141645000D02*
X70940000Y-141645000D01*
X69060000Y-148355000D02*
X70940000Y-148355000D01*
%TO.C,J7*%
X89060000Y-51645000D02*
X90940000Y-51645000D01*
X89060000Y-58355000D02*
X90940000Y-58355000D01*
%TO.C,J3*%
X69060000Y-51645000D02*
X70940000Y-51645000D01*
X69060000Y-58355000D02*
X70940000Y-58355000D01*
%TO.C,J11*%
X119060000Y-51645000D02*
X120940000Y-51645000D01*
X119060000Y-58355000D02*
X120940000Y-58355000D01*
%TO.C,J10*%
X109060000Y-141645000D02*
X110940000Y-141645000D01*
X109060000Y-148355000D02*
X110940000Y-148355000D01*
%TO.C,J14*%
X129060000Y-141645000D02*
X130940000Y-141645000D01*
X129060000Y-148355000D02*
X130940000Y-148355000D01*
%TO.C,J15*%
X139060000Y-51645000D02*
X140940000Y-51645000D01*
X139060000Y-58355000D02*
X140940000Y-58355000D01*
%TO.C,AE1*%
X66240000Y-133840000D02*
X66240000Y-136160000D01*
X66240000Y-136160000D02*
X70150000Y-136160000D01*
X70150000Y-133840000D02*
X66240000Y-133840000D01*
%TO.C,J12*%
X119060000Y-141645000D02*
X120940000Y-141645000D01*
X119060000Y-148355000D02*
X120940000Y-148355000D01*
%TO.C,R6*%
X79643641Y-134620000D02*
X79336359Y-134620000D01*
X79643641Y-135380000D02*
X79336359Y-135380000D01*
%TO.C,J6*%
X79060000Y-141645000D02*
X80940000Y-141645000D01*
X79060000Y-148355000D02*
X80940000Y-148355000D01*
%TO.C,J2*%
X59060000Y-141645000D02*
X60940000Y-141645000D01*
X59060000Y-148355000D02*
X60940000Y-148355000D01*
%TO.C,R3*%
X59643641Y-134620000D02*
X59336359Y-134620000D01*
X59643641Y-135380000D02*
X59336359Y-135380000D01*
%TO.C,AE3*%
X116240000Y-133840000D02*
X116240000Y-136160000D01*
X116240000Y-136160000D02*
X120150000Y-136160000D01*
X120150000Y-133840000D02*
X116240000Y-133840000D01*
%TO.C,J13*%
X129060000Y-51645000D02*
X130940000Y-51645000D01*
X129060000Y-58355000D02*
X130940000Y-58355000D01*
%TO.C,J1*%
X59060000Y-51645000D02*
X60940000Y-51645000D01*
X59060000Y-58355000D02*
X60940000Y-58355000D01*
%TO.C,J5*%
X79060000Y-51645000D02*
X80940000Y-51645000D01*
X79060000Y-58355000D02*
X80940000Y-58355000D01*
%TD*%
M02*
