%TF.GenerationSoftware,KiCad,Pcbnew,8.0.3*%
%TF.CreationDate,2024-06-13T14:30:09-05:00*%
%TF.ProjectId,jlcpcb flex RF,6a6c6370-6362-4206-966c-65782052462e,rev?*%
%TF.SameCoordinates,Original*%
%TF.FileFunction,Copper,L1,Top*%
%TF.FilePolarity,Positive*%
%FSLAX46Y46*%
G04 Gerber Fmt 4.6, Leading zero omitted, Abs format (unit mm)*
G04 Created by KiCad (PCBNEW 8.0.3) date 2024-06-13 14:30:09*
%MOMM*%
%LPD*%
G01*
G04 APERTURE LIST*
G04 Aperture macros list*
%AMRoundRect*
0 Rectangle with rounded corners*
0 $1 Rounding radius*
0 $2 $3 $4 $5 $6 $7 $8 $9 X,Y pos of 4 corners*
0 Add a 4 corners polygon primitive as box body*
4,1,4,$2,$3,$4,$5,$6,$7,$8,$9,$2,$3,0*
0 Add four circle primitives for the rounded corners*
1,1,$1+$1,$2,$3*
1,1,$1+$1,$4,$5*
1,1,$1+$1,$6,$7*
1,1,$1+$1,$8,$9*
0 Add four rect primitives between the rounded corners*
20,1,$1+$1,$2,$3,$4,$5,0*
20,1,$1+$1,$4,$5,$6,$7,0*
20,1,$1+$1,$6,$7,$8,$9,0*
20,1,$1+$1,$8,$9,$2,$3,0*%
%AMFreePoly0*
4,1,25,-1.500000,1.420000,-1.360000,1.280000,-1.205000,1.155000,-1.035000,1.045000,-0.860000,0.950000,-0.675000,0.875000,-0.480000,0.820000,-0.280000,0.780000,-0.085000,0.765000,0.085000,0.765000,0.280000,0.780000,0.480000,0.820000,0.675000,0.875000,0.860000,0.950000,1.035000,1.045000,1.205000,1.155000,1.360000,1.280000,1.500000,1.420000,1.645000,1.595000,3.555000,1.595000,
3.555000,-0.755000,-3.555000,-0.755000,-3.555000,1.595000,-1.645000,1.595000,-1.500000,1.420000,-1.500000,1.420000,$1*%
G04 Aperture macros list end*
%TA.AperFunction,SMDPad,CuDef*%
%ADD10RoundRect,0.250000X-0.350000X-0.650000X0.350000X-0.650000X0.350000X0.650000X-0.350000X0.650000X0*%
%TD*%
%TA.AperFunction,SMDPad,CuDef*%
%ADD11RoundRect,0.135000X0.135000X0.185000X-0.135000X0.185000X-0.135000X-0.185000X0.135000X-0.185000X0*%
%TD*%
%TA.AperFunction,SMDPad,CuDef*%
%ADD12C,1.730000*%
%TD*%
%TA.AperFunction,SMDPad,CuDef*%
%ADD13FreePoly0,270.000000*%
%TD*%
%TA.AperFunction,SMDPad,CuDef*%
%ADD14FreePoly0,90.000000*%
%TD*%
%TA.AperFunction,ViaPad*%
%ADD15C,0.600000*%
%TD*%
%TA.AperFunction,Conductor*%
%ADD16C,0.050800*%
%TD*%
%TA.AperFunction,Conductor*%
%ADD17C,0.076200*%
%TD*%
G04 APERTURE END LIST*
D10*
%TO.P,AE2,1,FEED*%
%TO.N,unconnected-(AE2-FEED-Pad1)*%
X87100000Y-135000000D03*
%TO.P,AE2,2,PCB_Trace*%
%TO.N,Net-(AE2-PCB_Trace)*%
X90000000Y-135000000D03*
%TD*%
D11*
%TO.P,R2,1*%
%TO.N,Net-(J13-In)*%
X130000000Y-135000000D03*
%TO.P,R2,2*%
%TO.N,GND*%
X128980000Y-135000000D03*
%TD*%
D12*
%TO.P,J8,1,In*%
%TO.N,Net-(AE2-PCB_Trace)*%
X90000000Y-145000000D03*
D13*
%TO.P,J8,2,Ext*%
%TO.N,GND*%
X87200000Y-145000000D03*
D14*
X92800000Y-145000000D03*
%TD*%
D10*
%TO.P,AE4,1,FEED*%
%TO.N,unconnected-(AE4-FEED-Pad1)*%
X137100000Y-135000000D03*
%TO.P,AE4,2,PCB_Trace*%
%TO.N,Net-(AE4-PCB_Trace)*%
X140000000Y-135000000D03*
%TD*%
D12*
%TO.P,J16,1,In*%
%TO.N,Net-(AE4-PCB_Trace)*%
X140000000Y-145000000D03*
D13*
%TO.P,J16,2,Ext*%
%TO.N,GND*%
X137200000Y-145000000D03*
D14*
X142800000Y-145000000D03*
%TD*%
D11*
%TO.P,R1,1*%
%TO.N,Net-(J10-In)*%
X110000000Y-135000000D03*
%TO.P,R1,2*%
%TO.N,GND*%
X108980000Y-135000000D03*
%TD*%
D12*
%TO.P,J9,1,In*%
%TO.N,Net-(J10-In)*%
X110000000Y-55000000D03*
D13*
%TO.P,J9,2,Ext*%
%TO.N,GND*%
X107200000Y-55000000D03*
D14*
X112800000Y-55000000D03*
%TD*%
D12*
%TO.P,J4,1,In*%
%TO.N,Net-(AE1-PCB_Trace)*%
X70000000Y-145000000D03*
D13*
%TO.P,J4,2,Ext*%
%TO.N,GND*%
X67200000Y-145000000D03*
D14*
X72800000Y-145000000D03*
%TD*%
D12*
%TO.P,J7,1,In*%
%TO.N,Net-(AE2-PCB_Trace)*%
X90000000Y-55000000D03*
D13*
%TO.P,J7,2,Ext*%
%TO.N,GND*%
X87200000Y-55000000D03*
D14*
X92800000Y-55000000D03*
%TD*%
D12*
%TO.P,J3,1,In*%
%TO.N,Net-(AE1-PCB_Trace)*%
X70000000Y-55000000D03*
D13*
%TO.P,J3,2,Ext*%
%TO.N,GND*%
X67200000Y-55000000D03*
D14*
X72800000Y-55000000D03*
%TD*%
D12*
%TO.P,J11,1,In*%
%TO.N,Net-(AE3-PCB_Trace)*%
X120000000Y-55000000D03*
D13*
%TO.P,J11,2,Ext*%
%TO.N,GND*%
X117200000Y-55000000D03*
D14*
X122800000Y-55000000D03*
%TD*%
D12*
%TO.P,J10,1,In*%
%TO.N,Net-(J10-In)*%
X110000000Y-145000000D03*
D13*
%TO.P,J10,2,Ext*%
%TO.N,GND*%
X107200000Y-145000000D03*
D14*
X112800000Y-145000000D03*
%TD*%
D12*
%TO.P,J14,1,In*%
%TO.N,Net-(J13-In)*%
X130000000Y-145000000D03*
D13*
%TO.P,J14,2,Ext*%
%TO.N,GND*%
X127200000Y-145000000D03*
D14*
X132800000Y-145000000D03*
%TD*%
D12*
%TO.P,J15,1,In*%
%TO.N,Net-(AE4-PCB_Trace)*%
X140000000Y-55000000D03*
D13*
%TO.P,J15,2,Ext*%
%TO.N,GND*%
X137200000Y-55000000D03*
D14*
X142800000Y-55000000D03*
%TD*%
D10*
%TO.P,AE1,1,FEED*%
%TO.N,unconnected-(AE1-FEED-Pad1)*%
X67100000Y-135000000D03*
%TO.P,AE1,2,PCB_Trace*%
%TO.N,Net-(AE1-PCB_Trace)*%
X70000000Y-135000000D03*
%TD*%
D12*
%TO.P,J12,1,In*%
%TO.N,Net-(AE3-PCB_Trace)*%
X120000000Y-145000000D03*
D13*
%TO.P,J12,2,Ext*%
%TO.N,GND*%
X117200000Y-145000000D03*
D14*
X122800000Y-145000000D03*
%TD*%
D11*
%TO.P,R6,1*%
%TO.N,Net-(J5-In)*%
X80000000Y-135000000D03*
%TO.P,R6,2*%
%TO.N,GND*%
X78980000Y-135000000D03*
%TD*%
D12*
%TO.P,J6,1,In*%
%TO.N,Net-(J5-In)*%
X80000000Y-145000000D03*
D13*
%TO.P,J6,2,Ext*%
%TO.N,GND*%
X77200000Y-145000000D03*
D14*
X82800000Y-145000000D03*
%TD*%
D12*
%TO.P,J2,1,In*%
%TO.N,Net-(J1-In)*%
X60000000Y-145000000D03*
D13*
%TO.P,J2,2,Ext*%
%TO.N,GND*%
X57200000Y-145000000D03*
D14*
X62800000Y-145000000D03*
%TD*%
D11*
%TO.P,R3,1*%
%TO.N,Net-(J1-In)*%
X60000000Y-135000000D03*
%TO.P,R3,2*%
%TO.N,GND*%
X58980000Y-135000000D03*
%TD*%
D10*
%TO.P,AE3,1,FEED*%
%TO.N,unconnected-(AE3-FEED-Pad1)*%
X117100000Y-135000000D03*
%TO.P,AE3,2,PCB_Trace*%
%TO.N,Net-(AE3-PCB_Trace)*%
X120000000Y-135000000D03*
%TD*%
D12*
%TO.P,J13,1,In*%
%TO.N,Net-(J13-In)*%
X130000000Y-55000000D03*
D13*
%TO.P,J13,2,Ext*%
%TO.N,GND*%
X127200000Y-55000000D03*
D14*
X132800000Y-55000000D03*
%TD*%
D12*
%TO.P,J1,1,In*%
%TO.N,Net-(J1-In)*%
X60000000Y-55000000D03*
D13*
%TO.P,J1,2,Ext*%
%TO.N,GND*%
X57200000Y-55000000D03*
D14*
X62800000Y-55000000D03*
%TD*%
D12*
%TO.P,J5,1,In*%
%TO.N,Net-(J5-In)*%
X80000000Y-55000000D03*
D13*
%TO.P,J5,2,Ext*%
%TO.N,GND*%
X77200000Y-55000000D03*
D14*
X82800000Y-55000000D03*
%TD*%
D15*
%TO.N,GND*%
X66000000Y-52000000D03*
X96000000Y-68000000D03*
X98000000Y-132000000D03*
X67000000Y-59000000D03*
X129000000Y-89000000D03*
X59000000Y-63000000D03*
X92000000Y-68000000D03*
X122000000Y-108000000D03*
X133000000Y-123000000D03*
X97000000Y-55000000D03*
X124000000Y-84000000D03*
X96000000Y-100000000D03*
X145000000Y-111000000D03*
X100000000Y-110000000D03*
X85000000Y-83000000D03*
X61000000Y-119000000D03*
X54000000Y-56000000D03*
X77000000Y-137000000D03*
X134000000Y-66000000D03*
X141000000Y-149000000D03*
X107000000Y-67000000D03*
X132000000Y-136000000D03*
X93000000Y-61000000D03*
X128000000Y-138000000D03*
X75000000Y-85000000D03*
X137000000Y-87000000D03*
X62000000Y-90000000D03*
X105000000Y-99000000D03*
X65000000Y-71000000D03*
X111000000Y-117000000D03*
X108000000Y-132000000D03*
X129000000Y-79000000D03*
X97000000Y-109000000D03*
X119000000Y-61000000D03*
X104000000Y-132000000D03*
X144000000Y-142000000D03*
X138000000Y-70000000D03*
X69000000Y-113000000D03*
X101000000Y-147000000D03*
X127000000Y-85000000D03*
X56000000Y-128000000D03*
X93000000Y-85000000D03*
X84000000Y-58000000D03*
X66000000Y-100000000D03*
X114000000Y-104000000D03*
X123000000Y-101000000D03*
X115000000Y-115000000D03*
X51000000Y-117000000D03*
X116000000Y-148000000D03*
X100000000Y-90000000D03*
X93000000Y-75000000D03*
X99000000Y-79000000D03*
X66000000Y-106000000D03*
X109000000Y-67000000D03*
X81000000Y-139000000D03*
X146000000Y-112000000D03*
X98000000Y-58000000D03*
X108000000Y-96000000D03*
X87000000Y-115000000D03*
X109000000Y-97000000D03*
X133000000Y-149000000D03*
X106000000Y-118000000D03*
X75000000Y-141000000D03*
X148000000Y-118000000D03*
X69000000Y-87000000D03*
X53000000Y-105000000D03*
X98000000Y-104000000D03*
X85000000Y-57000000D03*
X88000000Y-108000000D03*
X131000000Y-71000000D03*
X132000000Y-118000000D03*
X105000000Y-105000000D03*
X64000000Y-82000000D03*
X121000000Y-127000000D03*
X57000000Y-51000000D03*
X106000000Y-60000000D03*
X94000000Y-116000000D03*
X147000000Y-119000000D03*
X107000000Y-99000000D03*
X144000000Y-116000000D03*
X81000000Y-67000000D03*
X53000000Y-93000000D03*
X91000000Y-73000000D03*
X123000000Y-87000000D03*
X96000000Y-60000000D03*
X53000000Y-131000000D03*
X93000000Y-99000000D03*
X131000000Y-85000000D03*
X66000000Y-144000000D03*
X53000000Y-77000000D03*
X141000000Y-91000000D03*
X114000000Y-146000000D03*
X61000000Y-51000000D03*
X53000000Y-111000000D03*
X55000000Y-53000000D03*
X139000000Y-111000000D03*
X144000000Y-122000000D03*
X113000000Y-81000000D03*
X73000000Y-139000000D03*
X136000000Y-130000000D03*
X75000000Y-111000000D03*
X53000000Y-69000000D03*
X125000000Y-103000000D03*
X139000000Y-129000000D03*
X95000000Y-131000000D03*
X75000000Y-89000000D03*
X107000000Y-71000000D03*
X146000000Y-142000000D03*
X132000000Y-106000000D03*
X106000000Y-100000000D03*
X107000000Y-115000000D03*
X103000000Y-61000000D03*
X61000000Y-149000000D03*
X51000000Y-133000000D03*
X127000000Y-113000000D03*
X115000000Y-89000000D03*
X109000000Y-149000000D03*
X136000000Y-54000000D03*
X77000000Y-71000000D03*
X100000000Y-70000000D03*
X94000000Y-84000000D03*
X53000000Y-113000000D03*
X133000000Y-139000000D03*
X134000000Y-60000000D03*
X113000000Y-89000000D03*
X112000000Y-98000000D03*
X89000000Y-79000000D03*
X51000000Y-119000000D03*
X146000000Y-82000000D03*
X118000000Y-90000000D03*
X133000000Y-99000000D03*
X141000000Y-123000000D03*
X67000000Y-115000000D03*
X65000000Y-95000000D03*
X93000000Y-73000000D03*
X78000000Y-90000000D03*
X58000000Y-72000000D03*
X103000000Y-97000000D03*
X54000000Y-94000000D03*
X67000000Y-79000000D03*
X114000000Y-76000000D03*
X131000000Y-91000000D03*
X91000000Y-139000000D03*
X96000000Y-86000000D03*
X106000000Y-84000000D03*
X137000000Y-67000000D03*
X98000000Y-136000000D03*
X136000000Y-72000000D03*
X113000000Y-109000000D03*
X73000000Y-75000000D03*
X112000000Y-110000000D03*
X53000000Y-85000000D03*
X69000000Y-131000000D03*
X103000000Y-137000000D03*
X149000000Y-101000000D03*
X142000000Y-130000000D03*
X97000000Y-129000000D03*
X68000000Y-120000000D03*
X79000000Y-77000000D03*
X79000000Y-105000000D03*
X114000000Y-138000000D03*
X74000000Y-118000000D03*
X134000000Y-88000000D03*
X137000000Y-119000000D03*
X89000000Y-103000000D03*
X91000000Y-129000000D03*
X139000000Y-85000000D03*
X109000000Y-137000000D03*
X100000000Y-96000000D03*
X113000000Y-67000000D03*
X71000000Y-111000000D03*
X54000000Y-116000000D03*
X73000000Y-123000000D03*
X59000000Y-61000000D03*
X67000000Y-107000000D03*
X63000000Y-117000000D03*
X98000000Y-64000000D03*
X76000000Y-62000000D03*
X64000000Y-92000000D03*
X143000000Y-103000000D03*
X89000000Y-89000000D03*
X127000000Y-139000000D03*
X79000000Y-63000000D03*
X116000000Y-66000000D03*
X88000000Y-70000000D03*
X102000000Y-68000000D03*
X129000000Y-91000000D03*
X76000000Y-70000000D03*
X51000000Y-143000000D03*
X126000000Y-96000000D03*
X96000000Y-110000000D03*
X142000000Y-106000000D03*
X78000000Y-66000000D03*
X146000000Y-108000000D03*
X62000000Y-140000000D03*
X69000000Y-95000000D03*
X85000000Y-127000000D03*
X61000000Y-61000000D03*
X139000000Y-99000000D03*
X103000000Y-113000000D03*
X99000000Y-117000000D03*
X96000000Y-106000000D03*
X109000000Y-141000000D03*
X141000000Y-115000000D03*
X117000000Y-93000000D03*
X107000000Y-113000000D03*
X87000000Y-109000000D03*
X143000000Y-109000000D03*
X145000000Y-123000000D03*
X66000000Y-116000000D03*
X54000000Y-76000000D03*
X100000000Y-134000000D03*
X134000000Y-90000000D03*
X104000000Y-68000000D03*
X143000000Y-81000000D03*
X54000000Y-146000000D03*
X148000000Y-112000000D03*
X99000000Y-89000000D03*
X144000000Y-60000000D03*
X141000000Y-81000000D03*
X145000000Y-85000000D03*
X85000000Y-125000000D03*
X81000000Y-87000000D03*
X116000000Y-128000000D03*
X103000000Y-65000000D03*
X52000000Y-132000000D03*
X121000000Y-91000000D03*
X84000000Y-122000000D03*
X123000000Y-51000000D03*
X65000000Y-123000000D03*
X85000000Y-147000000D03*
X118000000Y-82000000D03*
X129000000Y-51000000D03*
X66000000Y-112000000D03*
X107000000Y-107000000D03*
X73000000Y-137000000D03*
X76000000Y-56000000D03*
X95000000Y-95000000D03*
X139000000Y-73000000D03*
X142000000Y-110000000D03*
X52000000Y-124000000D03*
X146000000Y-134000000D03*
X79000000Y-149000000D03*
X79000000Y-81000000D03*
X61000000Y-67000000D03*
X115000000Y-137000000D03*
X143000000Y-119000000D03*
X78000000Y-134000000D03*
X147000000Y-53000000D03*
X81000000Y-123000000D03*
X144000000Y-130000000D03*
X106000000Y-134000000D03*
X79000000Y-133000000D03*
X87000000Y-81000000D03*
X107000000Y-103000000D03*
X147000000Y-95000000D03*
X148000000Y-106000000D03*
X74000000Y-84000000D03*
X91000000Y-65000000D03*
X72000000Y-68000000D03*
X112000000Y-126000000D03*
X102000000Y-66000000D03*
X148000000Y-80000000D03*
X145000000Y-89000000D03*
X121000000Y-87000000D03*
X97000000Y-145000000D03*
X106000000Y-90000000D03*
X143000000Y-139000000D03*
X112000000Y-116000000D03*
X104000000Y-60000000D03*
X59000000Y-115000000D03*
X99000000Y-55000000D03*
X92000000Y-132000000D03*
X82000000Y-134000000D03*
X109000000Y-107000000D03*
X107000000Y-119000000D03*
X58000000Y-90000000D03*
X88000000Y-74000000D03*
X79000000Y-73000000D03*
X115000000Y-59000000D03*
X112000000Y-92000000D03*
X132000000Y-70000000D03*
X51000000Y-147000000D03*
X108000000Y-136000000D03*
X83000000Y-141000000D03*
X131000000Y-59000000D03*
X106000000Y-110000000D03*
X91000000Y-123000000D03*
X102000000Y-98000000D03*
X75000000Y-137000000D03*
X123000000Y-115000000D03*
X134000000Y-92000000D03*
X125000000Y-107000000D03*
X89000000Y-123000000D03*
X65000000Y-111000000D03*
X84000000Y-114000000D03*
X56000000Y-96000000D03*
X119000000Y-123000000D03*
X141000000Y-129000000D03*
X73000000Y-117000000D03*
X122000000Y-82000000D03*
X86000000Y-110000000D03*
X85000000Y-117000000D03*
X114000000Y-60000000D03*
X76000000Y-124000000D03*
X128000000Y-70000000D03*
X143000000Y-97000000D03*
X59000000Y-127000000D03*
X133000000Y-129000000D03*
X129000000Y-63000000D03*
X98000000Y-66000000D03*
X68000000Y-132000000D03*
X145000000Y-115000000D03*
X143000000Y-133000000D03*
X115000000Y-111000000D03*
X94000000Y-138000000D03*
X136000000Y-70000000D03*
X100000000Y-78000000D03*
X117000000Y-119000000D03*
X75000000Y-83000000D03*
X105000000Y-147000000D03*
X148000000Y-142000000D03*
X113000000Y-51000000D03*
X89000000Y-73000000D03*
X124000000Y-64000000D03*
X107000000Y-83000000D03*
X59000000Y-87000000D03*
X144000000Y-98000000D03*
X87000000Y-127000000D03*
X112000000Y-96000000D03*
X125000000Y-139000000D03*
X56000000Y-98000000D03*
X107000000Y-149000000D03*
X109000000Y-93000000D03*
X122000000Y-128000000D03*
X92000000Y-140000000D03*
X53000000Y-83000000D03*
X62000000Y-72000000D03*
X132000000Y-94000000D03*
X89000000Y-121000000D03*
X53000000Y-147000000D03*
X83000000Y-89000000D03*
X131000000Y-125000000D03*
X97000000Y-63000000D03*
X115000000Y-73000000D03*
X73000000Y-65000000D03*
X59000000Y-83000000D03*
X52000000Y-138000000D03*
X115000000Y-109000000D03*
X79000000Y-127000000D03*
X83000000Y-69000000D03*
X72000000Y-94000000D03*
X106000000Y-148000000D03*
X129000000Y-119000000D03*
X111000000Y-149000000D03*
X85000000Y-89000000D03*
X88000000Y-110000000D03*
X106000000Y-126000000D03*
X64000000Y-106000000D03*
X72000000Y-66000000D03*
X114000000Y-86000000D03*
X68000000Y-98000000D03*
X107000000Y-131000000D03*
X123000000Y-123000000D03*
X113000000Y-75000000D03*
X55000000Y-57000000D03*
X77000000Y-99000000D03*
X125000000Y-123000000D03*
X85000000Y-61000000D03*
X61000000Y-89000000D03*
X98000000Y-96000000D03*
X91000000Y-111000000D03*
X129000000Y-101000000D03*
X75000000Y-115000000D03*
X102000000Y-64000000D03*
X97000000Y-67000000D03*
X135000000Y-61000000D03*
X117000000Y-95000000D03*
X136000000Y-84000000D03*
X124000000Y-138000000D03*
X134000000Y-122000000D03*
X82000000Y-122000000D03*
X136000000Y-124000000D03*
X96000000Y-128000000D03*
X114000000Y-130000000D03*
X92000000Y-110000000D03*
X101000000Y-83000000D03*
X136000000Y-88000000D03*
X94000000Y-132000000D03*
X132000000Y-66000000D03*
X65000000Y-61000000D03*
X133000000Y-69000000D03*
X59000000Y-79000000D03*
X61000000Y-69000000D03*
X65000000Y-129000000D03*
X115000000Y-107000000D03*
X147000000Y-121000000D03*
X63000000Y-67000000D03*
X55000000Y-131000000D03*
X61000000Y-125000000D03*
X147000000Y-75000000D03*
X82000000Y-82000000D03*
X77000000Y-119000000D03*
X115000000Y-85000000D03*
X118000000Y-88000000D03*
X100000000Y-116000000D03*
X98000000Y-56000000D03*
X88000000Y-140000000D03*
X149000000Y-61000000D03*
X99000000Y-95000000D03*
X141000000Y-95000000D03*
X139000000Y-119000000D03*
X135000000Y-71000000D03*
X103000000Y-125000000D03*
X98000000Y-122000000D03*
X141000000Y-67000000D03*
X105000000Y-115000000D03*
X126000000Y-140000000D03*
X138000000Y-66000000D03*
X102000000Y-76000000D03*
X67000000Y-95000000D03*
X136000000Y-146000000D03*
X145000000Y-133000000D03*
X91000000Y-59000000D03*
X115000000Y-93000000D03*
X104000000Y-144000000D03*
X123000000Y-91000000D03*
X71000000Y-127000000D03*
X103000000Y-67000000D03*
X61000000Y-133000000D03*
X136000000Y-140000000D03*
X139000000Y-115000000D03*
X52000000Y-136000000D03*
X58000000Y-68000000D03*
X106000000Y-116000000D03*
X105000000Y-51000000D03*
X91000000Y-101000000D03*
X145000000Y-109000000D03*
X138000000Y-108000000D03*
X105000000Y-143000000D03*
X104000000Y-128000000D03*
X135000000Y-141000000D03*
X107000000Y-127000000D03*
X113000000Y-137000000D03*
X149000000Y-79000000D03*
X83000000Y-79000000D03*
X65000000Y-51000000D03*
X102000000Y-54000000D03*
X87000000Y-63000000D03*
X144000000Y-74000000D03*
X125000000Y-63000000D03*
X51000000Y-67000000D03*
X100000000Y-138000000D03*
X119000000Y-59000000D03*
X75000000Y-77000000D03*
X97000000Y-71000000D03*
X59000000Y-75000000D03*
X83000000Y-125000000D03*
X144000000Y-120000000D03*
X124000000Y-114000000D03*
X85000000Y-145000000D03*
X57000000Y-79000000D03*
X117000000Y-99000000D03*
X65000000Y-107000000D03*
X86000000Y-52000000D03*
X54000000Y-64000000D03*
X143000000Y-91000000D03*
X106000000Y-88000000D03*
X75000000Y-117000000D03*
X109000000Y-65000000D03*
X147000000Y-127000000D03*
X56000000Y-78000000D03*
X102000000Y-78000000D03*
X76000000Y-92000000D03*
X66000000Y-82000000D03*
X133000000Y-83000000D03*
X95000000Y-99000000D03*
X79000000Y-99000000D03*
X133000000Y-135000000D03*
X62000000Y-88000000D03*
X93000000Y-51000000D03*
X75000000Y-57000000D03*
X51000000Y-123000000D03*
X125000000Y-61000000D03*
X135000000Y-97000000D03*
X100000000Y-92000000D03*
X62000000Y-114000000D03*
X57000000Y-135000000D03*
X145000000Y-137000000D03*
X131000000Y-129000000D03*
X109000000Y-119000000D03*
X135000000Y-129000000D03*
X112000000Y-134000000D03*
X147000000Y-97000000D03*
X143000000Y-77000000D03*
X148000000Y-126000000D03*
X145000000Y-61000000D03*
X148000000Y-84000000D03*
X69000000Y-67000000D03*
X96000000Y-92000000D03*
X136000000Y-148000000D03*
X105000000Y-127000000D03*
X132000000Y-138000000D03*
X86000000Y-140000000D03*
X116000000Y-54000000D03*
X74000000Y-74000000D03*
X74000000Y-52000000D03*
X72000000Y-84000000D03*
X62000000Y-78000000D03*
X149000000Y-67000000D03*
X73000000Y-99000000D03*
X132000000Y-124000000D03*
X56000000Y-132000000D03*
X76000000Y-142000000D03*
X97000000Y-101000000D03*
X95000000Y-83000000D03*
X111000000Y-63000000D03*
X125000000Y-115000000D03*
X104000000Y-66000000D03*
X74000000Y-140000000D03*
X144000000Y-114000000D03*
X105000000Y-111000000D03*
X127000000Y-105000000D03*
X135000000Y-113000000D03*
X64000000Y-52000000D03*
X106000000Y-124000000D03*
X133000000Y-89000000D03*
X101000000Y-125000000D03*
X97000000Y-147000000D03*
X115000000Y-133000000D03*
X86000000Y-142000000D03*
X114000000Y-92000000D03*
X85000000Y-93000000D03*
X106000000Y-86000000D03*
X94000000Y-96000000D03*
X63000000Y-75000000D03*
X101000000Y-145000000D03*
X96000000Y-104000000D03*
X57000000Y-129000000D03*
X93000000Y-71000000D03*
X77000000Y-81000000D03*
X136000000Y-94000000D03*
X103000000Y-87000000D03*
X99000000Y-123000000D03*
X73000000Y-77000000D03*
X52000000Y-140000000D03*
X72000000Y-134000000D03*
X108000000Y-68000000D03*
X145000000Y-69000000D03*
X112000000Y-76000000D03*
X55000000Y-129000000D03*
X69000000Y-133000000D03*
X99000000Y-67000000D03*
X112000000Y-94000000D03*
X108000000Y-88000000D03*
X126000000Y-90000000D03*
X138000000Y-116000000D03*
X79000000Y-65000000D03*
X74000000Y-62000000D03*
X51000000Y-131000000D03*
X85000000Y-121000000D03*
X125000000Y-59000000D03*
X57000000Y-81000000D03*
X105000000Y-85000000D03*
X104000000Y-136000000D03*
X100000000Y-72000000D03*
X124000000Y-104000000D03*
X136000000Y-64000000D03*
X107000000Y-89000000D03*
X65000000Y-135000000D03*
X91000000Y-63000000D03*
X68000000Y-130000000D03*
X75000000Y-149000000D03*
X94000000Y-102000000D03*
X134000000Y-96000000D03*
X135000000Y-67000000D03*
X57000000Y-115000000D03*
X64000000Y-136000000D03*
X82000000Y-128000000D03*
X106000000Y-108000000D03*
X135000000Y-101000000D03*
X133000000Y-87000000D03*
X112000000Y-114000000D03*
X100000000Y-114000000D03*
X72000000Y-132000000D03*
X88000000Y-78000000D03*
X65000000Y-67000000D03*
X142000000Y-112000000D03*
X101000000Y-107000000D03*
X117000000Y-107000000D03*
X127000000Y-103000000D03*
X114000000Y-100000000D03*
X144000000Y-66000000D03*
X61000000Y-63000000D03*
X78000000Y-106000000D03*
X63000000Y-91000000D03*
X129000000Y-81000000D03*
X71000000Y-65000000D03*
X51000000Y-139000000D03*
X98000000Y-144000000D03*
X108000000Y-120000000D03*
X124000000Y-136000000D03*
X75000000Y-145000000D03*
X102000000Y-144000000D03*
X93000000Y-109000000D03*
X74000000Y-146000000D03*
X114000000Y-90000000D03*
X84000000Y-138000000D03*
X84000000Y-94000000D03*
X97000000Y-135000000D03*
X99000000Y-63000000D03*
X91000000Y-71000000D03*
X66000000Y-98000000D03*
X99000000Y-53000000D03*
X114000000Y-110000000D03*
X139000000Y-123000000D03*
X85000000Y-137000000D03*
X94000000Y-90000000D03*
X64000000Y-148000000D03*
X114000000Y-80000000D03*
X78000000Y-60000000D03*
X147000000Y-137000000D03*
X134000000Y-94000000D03*
X106000000Y-64000000D03*
X105000000Y-121000000D03*
X79000000Y-79000000D03*
X145000000Y-63000000D03*
X82000000Y-138000000D03*
X148000000Y-108000000D03*
X74000000Y-56000000D03*
X72000000Y-80000000D03*
X127000000Y-95000000D03*
X63000000Y-63000000D03*
X136000000Y-68000000D03*
X107000000Y-63000000D03*
X54000000Y-82000000D03*
X71000000Y-67000000D03*
X56000000Y-102000000D03*
X82000000Y-108000000D03*
X138000000Y-64000000D03*
X69000000Y-107000000D03*
X141000000Y-127000000D03*
X87000000Y-97000000D03*
X59000000Y-109000000D03*
X126000000Y-132000000D03*
X148000000Y-136000000D03*
X119000000Y-139000000D03*
X137000000Y-73000000D03*
X141000000Y-63000000D03*
X128000000Y-120000000D03*
X65000000Y-127000000D03*
X86000000Y-68000000D03*
X55000000Y-123000000D03*
X129000000Y-141000000D03*
X84000000Y-80000000D03*
X114000000Y-64000000D03*
X73000000Y-63000000D03*
X87000000Y-107000000D03*
X129000000Y-87000000D03*
X66000000Y-122000000D03*
X146000000Y-84000000D03*
X127000000Y-67000000D03*
X86000000Y-76000000D03*
X94000000Y-78000000D03*
X91000000Y-89000000D03*
X67000000Y-133000000D03*
X147000000Y-87000000D03*
X133000000Y-51000000D03*
X86000000Y-64000000D03*
X62000000Y-108000000D03*
X116000000Y-52000000D03*
X59000000Y-105000000D03*
X66000000Y-96000000D03*
X89000000Y-69000000D03*
X94000000Y-54000000D03*
X59000000Y-121000000D03*
X77000000Y-109000000D03*
X69000000Y-63000000D03*
X56000000Y-60000000D03*
X141000000Y-125000000D03*
X74000000Y-126000000D03*
X91000000Y-51000000D03*
X147000000Y-91000000D03*
X145000000Y-93000000D03*
X94000000Y-88000000D03*
X77000000Y-117000000D03*
X67000000Y-51000000D03*
X96000000Y-120000000D03*
X76000000Y-86000000D03*
X149000000Y-83000000D03*
X112000000Y-90000000D03*
X65000000Y-97000000D03*
X146000000Y-124000000D03*
X115000000Y-55000000D03*
X114000000Y-116000000D03*
X149000000Y-115000000D03*
X113000000Y-83000000D03*
X61000000Y-113000000D03*
X116000000Y-118000000D03*
X94000000Y-68000000D03*
X113000000Y-123000000D03*
X55000000Y-103000000D03*
X94000000Y-128000000D03*
X115000000Y-95000000D03*
X100000000Y-122000000D03*
X98000000Y-54000000D03*
X101000000Y-53000000D03*
X74000000Y-136000000D03*
X117000000Y-101000000D03*
X78000000Y-140000000D03*
X92000000Y-106000000D03*
X137000000Y-61000000D03*
X134000000Y-98000000D03*
X109000000Y-139000000D03*
X71000000Y-95000000D03*
X92000000Y-92000000D03*
X137000000Y-127000000D03*
X79000000Y-111000000D03*
X106000000Y-138000000D03*
X73000000Y-93000000D03*
X113000000Y-127000000D03*
X133000000Y-63000000D03*
X102000000Y-136000000D03*
X134000000Y-108000000D03*
X139000000Y-71000000D03*
X113000000Y-129000000D03*
X69000000Y-97000000D03*
X61000000Y-107000000D03*
X104000000Y-146000000D03*
X94000000Y-60000000D03*
X147000000Y-125000000D03*
X103000000Y-51000000D03*
X141000000Y-79000000D03*
X126000000Y-116000000D03*
X76000000Y-146000000D03*
X54000000Y-126000000D03*
X145000000Y-119000000D03*
X147000000Y-63000000D03*
X109000000Y-59000000D03*
X92000000Y-64000000D03*
X145000000Y-147000000D03*
X98000000Y-74000000D03*
X55000000Y-75000000D03*
X148000000Y-146000000D03*
X51000000Y-101000000D03*
X107000000Y-77000000D03*
X148000000Y-144000000D03*
X142000000Y-90000000D03*
X126000000Y-146000000D03*
X81000000Y-121000000D03*
X137000000Y-137000000D03*
X95000000Y-73000000D03*
X59000000Y-67000000D03*
X85000000Y-129000000D03*
X97000000Y-79000000D03*
X87000000Y-77000000D03*
X133000000Y-59000000D03*
X132000000Y-130000000D03*
X79000000Y-95000000D03*
X126000000Y-80000000D03*
X61000000Y-131000000D03*
X144000000Y-70000000D03*
X96000000Y-90000000D03*
X111000000Y-89000000D03*
X128000000Y-116000000D03*
X57000000Y-83000000D03*
X59000000Y-99000000D03*
X104000000Y-52000000D03*
X107000000Y-111000000D03*
X96000000Y-116000000D03*
X103000000Y-71000000D03*
X116000000Y-90000000D03*
X145000000Y-103000000D03*
X124000000Y-134000000D03*
X142000000Y-76000000D03*
X138000000Y-74000000D03*
X96000000Y-140000000D03*
X79000000Y-75000000D03*
X122000000Y-86000000D03*
X83000000Y-105000000D03*
X71000000Y-63000000D03*
X104000000Y-116000000D03*
X133000000Y-73000000D03*
X107000000Y-105000000D03*
X102000000Y-142000000D03*
X87000000Y-133000000D03*
X147000000Y-107000000D03*
X94000000Y-148000000D03*
X51000000Y-71000000D03*
X95000000Y-109000000D03*
X131000000Y-119000000D03*
X67000000Y-71000000D03*
X87000000Y-79000000D03*
X149000000Y-123000000D03*
X103000000Y-101000000D03*
X115000000Y-69000000D03*
X118000000Y-120000000D03*
X57000000Y-119000000D03*
X63000000Y-99000000D03*
X115000000Y-97000000D03*
X149000000Y-103000000D03*
X77000000Y-85000000D03*
X84000000Y-146000000D03*
X93000000Y-133000000D03*
X107000000Y-133000000D03*
X64000000Y-104000000D03*
X137000000Y-63000000D03*
X109000000Y-79000000D03*
X103000000Y-59000000D03*
X131000000Y-103000000D03*
X66000000Y-104000000D03*
X141000000Y-75000000D03*
X101000000Y-131000000D03*
X61000000Y-121000000D03*
X126000000Y-52000000D03*
X143000000Y-75000000D03*
X95000000Y-129000000D03*
X105000000Y-103000000D03*
X115000000Y-141000000D03*
X95000000Y-123000000D03*
X78000000Y-108000000D03*
X97000000Y-53000000D03*
X117000000Y-127000000D03*
X61000000Y-103000000D03*
X97000000Y-89000000D03*
X125000000Y-127000000D03*
X87000000Y-105000000D03*
X53000000Y-63000000D03*
X145000000Y-143000000D03*
X87000000Y-111000000D03*
X121000000Y-97000000D03*
X71000000Y-83000000D03*
X102000000Y-52000000D03*
X126000000Y-76000000D03*
X52000000Y-112000000D03*
X131000000Y-61000000D03*
X97000000Y-131000000D03*
X56000000Y-70000000D03*
X52000000Y-54000000D03*
X54000000Y-72000000D03*
X145000000Y-107000000D03*
X145000000Y-139000000D03*
X108000000Y-82000000D03*
X89000000Y-77000000D03*
X146000000Y-148000000D03*
X142000000Y-60000000D03*
X68000000Y-68000000D03*
X91000000Y-103000000D03*
X79000000Y-121000000D03*
X133000000Y-121000000D03*
X101000000Y-71000000D03*
X147000000Y-81000000D03*
X64000000Y-112000000D03*
X119000000Y-117000000D03*
X64000000Y-70000000D03*
X100000000Y-124000000D03*
X77000000Y-89000000D03*
X123000000Y-141000000D03*
X124000000Y-58000000D03*
X141000000Y-93000000D03*
X57000000Y-107000000D03*
X116000000Y-100000000D03*
X149000000Y-89000000D03*
X103000000Y-63000000D03*
X142000000Y-68000000D03*
X144000000Y-112000000D03*
X88000000Y-138000000D03*
X136000000Y-100000000D03*
X95000000Y-125000000D03*
X119000000Y-125000000D03*
X148000000Y-70000000D03*
X147000000Y-133000000D03*
X95000000Y-61000000D03*
X84000000Y-82000000D03*
X104000000Y-64000000D03*
X86000000Y-92000000D03*
X147000000Y-115000000D03*
X71000000Y-99000000D03*
X115000000Y-63000000D03*
X52000000Y-82000000D03*
X64000000Y-122000000D03*
X125000000Y-125000000D03*
X134000000Y-138000000D03*
X96000000Y-66000000D03*
X113000000Y-77000000D03*
X92000000Y-70000000D03*
X99000000Y-103000000D03*
X128000000Y-80000000D03*
X103000000Y-129000000D03*
X63000000Y-89000000D03*
X132000000Y-68000000D03*
X82000000Y-68000000D03*
X57000000Y-73000000D03*
X99000000Y-91000000D03*
X66000000Y-138000000D03*
X144000000Y-104000000D03*
X125000000Y-97000000D03*
X99000000Y-99000000D03*
X64000000Y-88000000D03*
X105000000Y-135000000D03*
X95000000Y-93000000D03*
X131000000Y-137000000D03*
X116000000Y-88000000D03*
X54000000Y-124000000D03*
X111000000Y-103000000D03*
X94000000Y-100000000D03*
X83000000Y-91000000D03*
X134000000Y-72000000D03*
X71000000Y-81000000D03*
X133000000Y-65000000D03*
X76000000Y-144000000D03*
X75000000Y-75000000D03*
X79000000Y-101000000D03*
X125000000Y-79000000D03*
X129000000Y-139000000D03*
X137000000Y-51000000D03*
X123000000Y-131000000D03*
X103000000Y-57000000D03*
X93000000Y-149000000D03*
X142000000Y-88000000D03*
X66000000Y-132000000D03*
X81000000Y-51000000D03*
X99000000Y-139000000D03*
X67000000Y-65000000D03*
X54000000Y-138000000D03*
X75000000Y-131000000D03*
X57000000Y-131000000D03*
X69000000Y-139000000D03*
X84000000Y-108000000D03*
X127000000Y-135000000D03*
X61000000Y-83000000D03*
X141000000Y-131000000D03*
X139000000Y-149000000D03*
X99000000Y-113000000D03*
X54000000Y-110000000D03*
X135000000Y-63000000D03*
X83000000Y-87000000D03*
X84000000Y-118000000D03*
X126000000Y-64000000D03*
X53000000Y-67000000D03*
X87000000Y-73000000D03*
X149000000Y-135000000D03*
X75000000Y-125000000D03*
X62000000Y-112000000D03*
X128000000Y-130000000D03*
X81000000Y-131000000D03*
X68000000Y-116000000D03*
X143000000Y-67000000D03*
X100000000Y-58000000D03*
X115000000Y-135000000D03*
X65000000Y-89000000D03*
X65000000Y-109000000D03*
X147000000Y-135000000D03*
X125000000Y-77000000D03*
X117000000Y-129000000D03*
X92000000Y-118000000D03*
X57000000Y-77000000D03*
X128000000Y-132000000D03*
X109000000Y-69000000D03*
X68000000Y-96000000D03*
X147000000Y-147000000D03*
X63000000Y-87000000D03*
X125000000Y-135000000D03*
X109000000Y-89000000D03*
X77000000Y-101000000D03*
X59000000Y-65000000D03*
X135000000Y-145000000D03*
X71000000Y-105000000D03*
X143000000Y-111000000D03*
X58000000Y-74000000D03*
X135000000Y-137000000D03*
X123000000Y-75000000D03*
X144000000Y-148000000D03*
X126000000Y-88000000D03*
X93000000Y-129000000D03*
X62000000Y-118000000D03*
X76000000Y-108000000D03*
X103000000Y-141000000D03*
X84000000Y-52000000D03*
X61000000Y-59000000D03*
X74000000Y-64000000D03*
X124000000Y-82000000D03*
X64000000Y-74000000D03*
X149000000Y-143000000D03*
X100000000Y-80000000D03*
X116000000Y-62000000D03*
X93000000Y-135000000D03*
X78000000Y-132000000D03*
X141000000Y-121000000D03*
X61000000Y-97000000D03*
X56000000Y-136000000D03*
X124000000Y-72000000D03*
X96000000Y-144000000D03*
X133000000Y-115000000D03*
X81000000Y-77000000D03*
X59000000Y-119000000D03*
X131000000Y-121000000D03*
X51000000Y-51000000D03*
X144000000Y-144000000D03*
X111000000Y-121000000D03*
X132000000Y-120000000D03*
X99000000Y-73000000D03*
X64000000Y-64000000D03*
X82000000Y-66000000D03*
X84000000Y-78000000D03*
X115000000Y-91000000D03*
X93000000Y-93000000D03*
X92000000Y-84000000D03*
X74000000Y-98000000D03*
X85000000Y-67000000D03*
X63000000Y-73000000D03*
X142000000Y-136000000D03*
X123000000Y-137000000D03*
X62000000Y-74000000D03*
X122000000Y-74000000D03*
X124000000Y-94000000D03*
X106000000Y-146000000D03*
X108000000Y-70000000D03*
X102000000Y-86000000D03*
X107000000Y-117000000D03*
X81000000Y-101000000D03*
X78000000Y-76000000D03*
X85000000Y-133000000D03*
X74000000Y-108000000D03*
X147000000Y-55000000D03*
X57000000Y-109000000D03*
X111000000Y-99000000D03*
X62000000Y-110000000D03*
X87000000Y-137000000D03*
X149000000Y-55000000D03*
X51000000Y-135000000D03*
X63000000Y-113000000D03*
X106000000Y-72000000D03*
X136000000Y-110000000D03*
X136000000Y-96000000D03*
X73000000Y-109000000D03*
X139000000Y-133000000D03*
X91000000Y-67000000D03*
X89000000Y-83000000D03*
X79000000Y-107000000D03*
X63000000Y-119000000D03*
X113000000Y-63000000D03*
X88000000Y-86000000D03*
X93000000Y-101000000D03*
X69000000Y-137000000D03*
X144000000Y-54000000D03*
X74000000Y-92000000D03*
X106000000Y-130000000D03*
X128000000Y-72000000D03*
X64000000Y-102000000D03*
X98000000Y-106000000D03*
X100000000Y-62000000D03*
X118000000Y-104000000D03*
X102000000Y-100000000D03*
X134000000Y-114000000D03*
X71000000Y-85000000D03*
X84000000Y-84000000D03*
X134000000Y-68000000D03*
X119000000Y-75000000D03*
X86000000Y-102000000D03*
X64000000Y-128000000D03*
X83000000Y-77000000D03*
X133000000Y-67000000D03*
X85000000Y-149000000D03*
X118000000Y-64000000D03*
X146000000Y-146000000D03*
X107000000Y-137000000D03*
X135000000Y-79000000D03*
X129000000Y-125000000D03*
X135000000Y-117000000D03*
X63000000Y-79000000D03*
X66000000Y-70000000D03*
X100000000Y-130000000D03*
X114000000Y-148000000D03*
X128000000Y-118000000D03*
X105000000Y-101000000D03*
X136000000Y-74000000D03*
X75000000Y-93000000D03*
X78000000Y-100000000D03*
X64000000Y-76000000D03*
X58000000Y-70000000D03*
X143000000Y-123000000D03*
X134000000Y-102000000D03*
X55000000Y-67000000D03*
X92000000Y-80000000D03*
X53000000Y-123000000D03*
X69000000Y-79000000D03*
X94000000Y-82000000D03*
X82000000Y-94000000D03*
X104000000Y-74000000D03*
X101000000Y-119000000D03*
X91000000Y-107000000D03*
X114000000Y-126000000D03*
X126000000Y-62000000D03*
X58000000Y-100000000D03*
X52000000Y-88000000D03*
X116000000Y-94000000D03*
X75000000Y-105000000D03*
X145000000Y-105000000D03*
X66000000Y-94000000D03*
X61000000Y-137000000D03*
X135000000Y-91000000D03*
X142000000Y-104000000D03*
X108000000Y-94000000D03*
X145000000Y-141000000D03*
X143000000Y-51000000D03*
X111000000Y-59000000D03*
X91000000Y-105000000D03*
X77000000Y-75000000D03*
X52000000Y-100000000D03*
X114000000Y-144000000D03*
X103000000Y-127000000D03*
X115000000Y-131000000D03*
X109000000Y-109000000D03*
X97000000Y-125000000D03*
X139000000Y-137000000D03*
X144000000Y-82000000D03*
X139000000Y-125000000D03*
X112000000Y-122000000D03*
X115000000Y-105000000D03*
X136000000Y-138000000D03*
X79000000Y-141000000D03*
X88000000Y-102000000D03*
X104000000Y-134000000D03*
X147000000Y-113000000D03*
X55000000Y-109000000D03*
X109000000Y-85000000D03*
X129000000Y-103000000D03*
X68000000Y-94000000D03*
X54000000Y-122000000D03*
X147000000Y-83000000D03*
X63000000Y-115000000D03*
X121000000Y-111000000D03*
X83000000Y-83000000D03*
X133000000Y-137000000D03*
X59000000Y-139000000D03*
X84000000Y-106000000D03*
X56000000Y-124000000D03*
X55000000Y-143000000D03*
X71000000Y-133000000D03*
X67000000Y-121000000D03*
X125000000Y-57000000D03*
X132000000Y-140000000D03*
X72000000Y-122000000D03*
X104000000Y-90000000D03*
X53000000Y-137000000D03*
X119000000Y-99000000D03*
X74000000Y-96000000D03*
X122000000Y-84000000D03*
X99000000Y-143000000D03*
X59000000Y-51000000D03*
X85000000Y-69000000D03*
X101000000Y-67000000D03*
X122000000Y-72000000D03*
X144000000Y-96000000D03*
X131000000Y-65000000D03*
X116000000Y-122000000D03*
X91000000Y-115000000D03*
X101000000Y-91000000D03*
X128000000Y-74000000D03*
X143000000Y-65000000D03*
X124000000Y-106000000D03*
X126000000Y-126000000D03*
X86000000Y-56000000D03*
X128000000Y-64000000D03*
X73000000Y-135000000D03*
X87000000Y-141000000D03*
X61000000Y-105000000D03*
X57000000Y-139000000D03*
X126000000Y-100000000D03*
X116000000Y-96000000D03*
X146000000Y-52000000D03*
X83000000Y-71000000D03*
X131000000Y-111000000D03*
X55000000Y-85000000D03*
X76000000Y-130000000D03*
X101000000Y-117000000D03*
X64000000Y-96000000D03*
X128000000Y-136000000D03*
X146000000Y-92000000D03*
X82000000Y-110000000D03*
X92000000Y-108000000D03*
X124000000Y-110000000D03*
X91000000Y-95000000D03*
X129000000Y-123000000D03*
X83000000Y-109000000D03*
X134000000Y-120000000D03*
X75000000Y-135000000D03*
X145000000Y-95000000D03*
X121000000Y-129000000D03*
X146000000Y-120000000D03*
X64000000Y-146000000D03*
X75000000Y-55000000D03*
X64000000Y-60000000D03*
X129000000Y-111000000D03*
X56000000Y-114000000D03*
X141000000Y-107000000D03*
X75000000Y-71000000D03*
X66000000Y-60000000D03*
X125000000Y-109000000D03*
X51000000Y-61000000D03*
X52000000Y-114000000D03*
X126000000Y-104000000D03*
X109000000Y-101000000D03*
X69000000Y-69000000D03*
X77000000Y-139000000D03*
X132000000Y-108000000D03*
X143000000Y-73000000D03*
X136000000Y-120000000D03*
X138000000Y-62000000D03*
X128000000Y-86000000D03*
X127000000Y-51000000D03*
X132000000Y-80000000D03*
X59000000Y-71000000D03*
X126000000Y-108000000D03*
X56000000Y-62000000D03*
X118000000Y-110000000D03*
X121000000Y-119000000D03*
X84000000Y-88000000D03*
X119000000Y-69000000D03*
X115000000Y-81000000D03*
X51000000Y-97000000D03*
X95000000Y-145000000D03*
X85000000Y-79000000D03*
X127000000Y-115000000D03*
X87000000Y-131000000D03*
X88000000Y-60000000D03*
X114000000Y-108000000D03*
X103000000Y-95000000D03*
X102000000Y-70000000D03*
X82000000Y-78000000D03*
X115000000Y-125000000D03*
X115000000Y-57000000D03*
X96000000Y-82000000D03*
X134000000Y-70000000D03*
X122000000Y-110000000D03*
X53000000Y-139000000D03*
X131000000Y-123000000D03*
X88000000Y-72000000D03*
X112000000Y-72000000D03*
X54000000Y-78000000D03*
X68000000Y-124000000D03*
X65000000Y-115000000D03*
X112000000Y-112000000D03*
X114000000Y-136000000D03*
X114000000Y-112000000D03*
X93000000Y-123000000D03*
X84000000Y-56000000D03*
X68000000Y-118000000D03*
X107000000Y-93000000D03*
X142000000Y-80000000D03*
X77000000Y-73000000D03*
X115000000Y-113000000D03*
X82000000Y-116000000D03*
X57000000Y-101000000D03*
X103000000Y-55000000D03*
X95000000Y-59000000D03*
X86000000Y-58000000D03*
X84000000Y-100000000D03*
X76000000Y-100000000D03*
X146000000Y-136000000D03*
X93000000Y-113000000D03*
X56000000Y-84000000D03*
X119000000Y-67000000D03*
X144000000Y-58000000D03*
X86000000Y-138000000D03*
X65000000Y-113000000D03*
X142000000Y-72000000D03*
X148000000Y-64000000D03*
X84000000Y-128000000D03*
X55000000Y-59000000D03*
X64000000Y-54000000D03*
X94000000Y-112000000D03*
X74000000Y-144000000D03*
X116000000Y-130000000D03*
X119000000Y-133000000D03*
X123000000Y-89000000D03*
X91000000Y-149000000D03*
X59000000Y-91000000D03*
X112000000Y-108000000D03*
X74000000Y-128000000D03*
X72000000Y-124000000D03*
X98000000Y-94000000D03*
X113000000Y-105000000D03*
X81000000Y-95000000D03*
X87000000Y-71000000D03*
X128000000Y-124000000D03*
X115000000Y-127000000D03*
X72000000Y-130000000D03*
X114000000Y-134000000D03*
X68000000Y-114000000D03*
X57000000Y-91000000D03*
X92000000Y-130000000D03*
X104000000Y-96000000D03*
X114000000Y-128000000D03*
X69000000Y-141000000D03*
X118000000Y-100000000D03*
X62000000Y-60000000D03*
X129000000Y-105000000D03*
X84000000Y-98000000D03*
X138000000Y-72000000D03*
X122000000Y-88000000D03*
X137000000Y-71000000D03*
X134000000Y-140000000D03*
X75000000Y-61000000D03*
X83000000Y-119000000D03*
X147000000Y-109000000D03*
X104000000Y-104000000D03*
X66000000Y-62000000D03*
X62000000Y-68000000D03*
X115000000Y-51000000D03*
X104000000Y-122000000D03*
X78000000Y-138000000D03*
X124000000Y-80000000D03*
X53000000Y-101000000D03*
X91000000Y-69000000D03*
X66000000Y-56000000D03*
X84000000Y-132000000D03*
X94000000Y-108000000D03*
X118000000Y-114000000D03*
X118000000Y-112000000D03*
X85000000Y-87000000D03*
X111000000Y-71000000D03*
X124000000Y-92000000D03*
X127000000Y-149000000D03*
X95000000Y-107000000D03*
X99000000Y-119000000D03*
X95000000Y-105000000D03*
X52000000Y-126000000D03*
X51000000Y-55000000D03*
X71000000Y-149000000D03*
X57000000Y-89000000D03*
X99000000Y-131000000D03*
X147000000Y-93000000D03*
X58000000Y-116000000D03*
X79000000Y-139000000D03*
X145000000Y-79000000D03*
X63000000Y-133000000D03*
X117000000Y-133000000D03*
X91000000Y-81000000D03*
X136000000Y-82000000D03*
X66000000Y-64000000D03*
X65000000Y-131000000D03*
X63000000Y-109000000D03*
X98000000Y-112000000D03*
X68000000Y-62000000D03*
X132000000Y-128000000D03*
X71000000Y-137000000D03*
X144000000Y-124000000D03*
X111000000Y-95000000D03*
X148000000Y-148000000D03*
X124000000Y-118000000D03*
X91000000Y-109000000D03*
X72000000Y-92000000D03*
X79000000Y-83000000D03*
X73000000Y-125000000D03*
X112000000Y-104000000D03*
X86000000Y-112000000D03*
X61000000Y-71000000D03*
X65000000Y-143000000D03*
X58000000Y-60000000D03*
X73000000Y-129000000D03*
X148000000Y-74000000D03*
X96000000Y-56000000D03*
X66000000Y-146000000D03*
X126000000Y-138000000D03*
X114000000Y-120000000D03*
X63000000Y-135000000D03*
X93000000Y-115000000D03*
X131000000Y-115000000D03*
X129000000Y-109000000D03*
X145000000Y-145000000D03*
X117000000Y-71000000D03*
X63000000Y-137000000D03*
X102000000Y-140000000D03*
X65000000Y-79000000D03*
X91000000Y-137000000D03*
X92000000Y-116000000D03*
X100000000Y-54000000D03*
X109000000Y-121000000D03*
X127000000Y-101000000D03*
X89000000Y-117000000D03*
X101000000Y-105000000D03*
X64000000Y-72000000D03*
X138000000Y-124000000D03*
X73000000Y-81000000D03*
X63000000Y-69000000D03*
X89000000Y-113000000D03*
X103000000Y-77000000D03*
X115000000Y-149000000D03*
X102000000Y-82000000D03*
X98000000Y-114000000D03*
X143000000Y-89000000D03*
X86000000Y-86000000D03*
X104000000Y-94000000D03*
X136000000Y-128000000D03*
X92000000Y-88000000D03*
X75000000Y-119000000D03*
X133000000Y-61000000D03*
X111000000Y-109000000D03*
X106000000Y-140000000D03*
X127000000Y-61000000D03*
X86000000Y-128000000D03*
X83000000Y-61000000D03*
X143000000Y-59000000D03*
X87000000Y-83000000D03*
X128000000Y-114000000D03*
X129000000Y-67000000D03*
X111000000Y-129000000D03*
X111000000Y-107000000D03*
X73000000Y-101000000D03*
X97000000Y-103000000D03*
X105000000Y-145000000D03*
X121000000Y-117000000D03*
X111000000Y-133000000D03*
X122000000Y-66000000D03*
X93000000Y-139000000D03*
X142000000Y-96000000D03*
X58000000Y-82000000D03*
X126000000Y-74000000D03*
X92000000Y-114000000D03*
X145000000Y-125000000D03*
X122000000Y-90000000D03*
X91000000Y-131000000D03*
X78000000Y-124000000D03*
X88000000Y-66000000D03*
X108000000Y-62000000D03*
X64000000Y-56000000D03*
X118000000Y-96000000D03*
X76000000Y-120000000D03*
X142000000Y-128000000D03*
X149000000Y-77000000D03*
X97000000Y-119000000D03*
X92000000Y-136000000D03*
X146000000Y-90000000D03*
X98000000Y-124000000D03*
X144000000Y-126000000D03*
X59000000Y-117000000D03*
X93000000Y-67000000D03*
X128000000Y-122000000D03*
X102000000Y-126000000D03*
X71000000Y-97000000D03*
X58000000Y-140000000D03*
X93000000Y-107000000D03*
X112000000Y-124000000D03*
X68000000Y-128000000D03*
X77000000Y-67000000D03*
X107000000Y-51000000D03*
X93000000Y-103000000D03*
X64000000Y-114000000D03*
X113000000Y-107000000D03*
X95000000Y-121000000D03*
X57000000Y-87000000D03*
X124000000Y-52000000D03*
X73000000Y-67000000D03*
X141000000Y-65000000D03*
X79000000Y-85000000D03*
X76000000Y-88000000D03*
X57000000Y-75000000D03*
X125000000Y-65000000D03*
X144000000Y-136000000D03*
X124000000Y-62000000D03*
X142000000Y-116000000D03*
X63000000Y-65000000D03*
X78000000Y-114000000D03*
X107000000Y-69000000D03*
X133000000Y-85000000D03*
X84000000Y-62000000D03*
X59000000Y-81000000D03*
X99000000Y-59000000D03*
X126000000Y-118000000D03*
X115000000Y-61000000D03*
X112000000Y-128000000D03*
X146000000Y-56000000D03*
X89000000Y-115000000D03*
X122000000Y-132000000D03*
X73000000Y-121000000D03*
X128000000Y-110000000D03*
X138000000Y-106000000D03*
X57000000Y-141000000D03*
X72000000Y-100000000D03*
X62000000Y-138000000D03*
X149000000Y-91000000D03*
X123000000Y-103000000D03*
X62000000Y-94000000D03*
X88000000Y-90000000D03*
X142000000Y-122000000D03*
X103000000Y-149000000D03*
X61000000Y-95000000D03*
X126000000Y-148000000D03*
X135000000Y-139000000D03*
X88000000Y-128000000D03*
X143000000Y-83000000D03*
X75000000Y-109000000D03*
X92000000Y-102000000D03*
X138000000Y-120000000D03*
X109000000Y-95000000D03*
X116000000Y-56000000D03*
X141000000Y-61000000D03*
X126000000Y-72000000D03*
X94000000Y-110000000D03*
X144000000Y-56000000D03*
X108000000Y-110000000D03*
X67000000Y-149000000D03*
X103000000Y-93000000D03*
X59000000Y-95000000D03*
X144000000Y-134000000D03*
X132000000Y-62000000D03*
X122000000Y-80000000D03*
X76000000Y-138000000D03*
X86000000Y-66000000D03*
X114000000Y-82000000D03*
X75000000Y-121000000D03*
X78000000Y-92000000D03*
X92000000Y-124000000D03*
X88000000Y-64000000D03*
X132000000Y-114000000D03*
X105000000Y-125000000D03*
X61000000Y-123000000D03*
X133000000Y-103000000D03*
X104000000Y-58000000D03*
X138000000Y-80000000D03*
X138000000Y-110000000D03*
X128000000Y-100000000D03*
X71000000Y-121000000D03*
X73000000Y-87000000D03*
X56000000Y-118000000D03*
X99000000Y-121000000D03*
X117000000Y-117000000D03*
X146000000Y-130000000D03*
X118000000Y-126000000D03*
X118000000Y-68000000D03*
X121000000Y-137000000D03*
X66000000Y-58000000D03*
X148000000Y-76000000D03*
X149000000Y-95000000D03*
X149000000Y-65000000D03*
X104000000Y-100000000D03*
X82000000Y-124000000D03*
X103000000Y-117000000D03*
X137000000Y-103000000D03*
X109000000Y-77000000D03*
X107000000Y-129000000D03*
X56000000Y-56000000D03*
X97000000Y-105000000D03*
X99000000Y-71000000D03*
X117000000Y-131000000D03*
X108000000Y-138000000D03*
X68000000Y-100000000D03*
X119000000Y-109000000D03*
X125000000Y-55000000D03*
X54000000Y-100000000D03*
X135000000Y-89000000D03*
X121000000Y-93000000D03*
X121000000Y-99000000D03*
X131000000Y-51000000D03*
X55000000Y-95000000D03*
X113000000Y-111000000D03*
X111000000Y-79000000D03*
X98000000Y-138000000D03*
X101000000Y-127000000D03*
X77000000Y-141000000D03*
X131000000Y-93000000D03*
X71000000Y-101000000D03*
X74000000Y-88000000D03*
X145000000Y-91000000D03*
X138000000Y-112000000D03*
X72000000Y-72000000D03*
X91000000Y-93000000D03*
X56000000Y-94000000D03*
X119000000Y-111000000D03*
X74000000Y-110000000D03*
X113000000Y-125000000D03*
X136000000Y-108000000D03*
X141000000Y-99000000D03*
X108000000Y-64000000D03*
X54000000Y-60000000D03*
X134000000Y-106000000D03*
X108000000Y-78000000D03*
X109000000Y-103000000D03*
X99000000Y-105000000D03*
X112000000Y-136000000D03*
X73000000Y-127000000D03*
X128000000Y-108000000D03*
X88000000Y-132000000D03*
X147000000Y-51000000D03*
X76000000Y-106000000D03*
X66000000Y-108000000D03*
X101000000Y-103000000D03*
X119000000Y-149000000D03*
X138000000Y-86000000D03*
X128000000Y-96000000D03*
X135000000Y-105000000D03*
X123000000Y-97000000D03*
X63000000Y-141000000D03*
X67000000Y-111000000D03*
X131000000Y-97000000D03*
X88000000Y-68000000D03*
X85000000Y-73000000D03*
X139000000Y-107000000D03*
X56000000Y-100000000D03*
X147000000Y-123000000D03*
X63000000Y-131000000D03*
X149000000Y-147000000D03*
X87000000Y-125000000D03*
X103000000Y-143000000D03*
X53000000Y-55000000D03*
X69000000Y-103000000D03*
X85000000Y-141000000D03*
X65000000Y-63000000D03*
X131000000Y-113000000D03*
X89000000Y-101000000D03*
X65000000Y-117000000D03*
X64000000Y-120000000D03*
X118000000Y-124000000D03*
X146000000Y-116000000D03*
X144000000Y-90000000D03*
X56000000Y-64000000D03*
X89000000Y-75000000D03*
X85000000Y-143000000D03*
X59000000Y-77000000D03*
X66000000Y-92000000D03*
X106000000Y-98000000D03*
X69000000Y-127000000D03*
X78000000Y-104000000D03*
X144000000Y-64000000D03*
X68000000Y-104000000D03*
X83000000Y-137000000D03*
X101000000Y-81000000D03*
X134000000Y-54000000D03*
X129000000Y-129000000D03*
X125000000Y-121000000D03*
X66000000Y-66000000D03*
X81000000Y-125000000D03*
X63000000Y-81000000D03*
X108000000Y-124000000D03*
X138000000Y-78000000D03*
X83000000Y-127000000D03*
X52000000Y-90000000D03*
X125000000Y-113000000D03*
X98000000Y-60000000D03*
X88000000Y-98000000D03*
X85000000Y-63000000D03*
X71000000Y-107000000D03*
X147000000Y-111000000D03*
X51000000Y-89000000D03*
X87000000Y-103000000D03*
X73000000Y-85000000D03*
X127000000Y-129000000D03*
X141000000Y-111000000D03*
X134000000Y-86000000D03*
X88000000Y-112000000D03*
X102000000Y-122000000D03*
X117000000Y-77000000D03*
X121000000Y-61000000D03*
X121000000Y-141000000D03*
X67000000Y-99000000D03*
X62000000Y-120000000D03*
X138000000Y-130000000D03*
X118000000Y-98000000D03*
X57000000Y-127000000D03*
X99000000Y-83000000D03*
X135000000Y-81000000D03*
X53000000Y-79000000D03*
X56000000Y-54000000D03*
X100000000Y-94000000D03*
X99000000Y-87000000D03*
X116000000Y-144000000D03*
X118000000Y-140000000D03*
X142000000Y-118000000D03*
X78000000Y-102000000D03*
X52000000Y-72000000D03*
X134000000Y-56000000D03*
X108000000Y-84000000D03*
X116000000Y-60000000D03*
X88000000Y-84000000D03*
X133000000Y-77000000D03*
X134000000Y-124000000D03*
X127000000Y-63000000D03*
X147000000Y-99000000D03*
X95000000Y-55000000D03*
X125000000Y-105000000D03*
X126000000Y-106000000D03*
X105000000Y-117000000D03*
X98000000Y-120000000D03*
X79000000Y-93000000D03*
X116000000Y-114000000D03*
X138000000Y-132000000D03*
X100000000Y-118000000D03*
X125000000Y-133000000D03*
X88000000Y-100000000D03*
X76000000Y-116000000D03*
X98000000Y-86000000D03*
X52000000Y-142000000D03*
X64000000Y-78000000D03*
X89000000Y-105000000D03*
X111000000Y-131000000D03*
X101000000Y-61000000D03*
X117000000Y-81000000D03*
X139000000Y-101000000D03*
X142000000Y-78000000D03*
X74000000Y-54000000D03*
X96000000Y-58000000D03*
X124000000Y-140000000D03*
X139000000Y-51000000D03*
X74000000Y-106000000D03*
X129000000Y-83000000D03*
X128000000Y-126000000D03*
X131000000Y-109000000D03*
X127000000Y-83000000D03*
X149000000Y-127000000D03*
X58000000Y-120000000D03*
X139000000Y-87000000D03*
X53000000Y-75000000D03*
X54000000Y-88000000D03*
X148000000Y-56000000D03*
X135000000Y-99000000D03*
X132000000Y-98000000D03*
X124000000Y-70000000D03*
X142000000Y-74000000D03*
X111000000Y-51000000D03*
X84000000Y-76000000D03*
X65000000Y-53000000D03*
X145000000Y-65000000D03*
X84000000Y-66000000D03*
X71000000Y-113000000D03*
X135000000Y-149000000D03*
X127000000Y-123000000D03*
X128000000Y-140000000D03*
X77000000Y-149000000D03*
X125000000Y-75000000D03*
X68000000Y-122000000D03*
X131000000Y-69000000D03*
X139000000Y-131000000D03*
X129000000Y-93000000D03*
X92000000Y-134000000D03*
X92000000Y-86000000D03*
X58000000Y-108000000D03*
X73000000Y-131000000D03*
X61000000Y-99000000D03*
X67000000Y-93000000D03*
X78000000Y-116000000D03*
X55000000Y-55000000D03*
X149000000Y-75000000D03*
X114000000Y-52000000D03*
X117000000Y-73000000D03*
X79000000Y-91000000D03*
X69000000Y-65000000D03*
X85000000Y-101000000D03*
X67000000Y-75000000D03*
X109000000Y-87000000D03*
X56000000Y-122000000D03*
X100000000Y-102000000D03*
X101000000Y-133000000D03*
X84000000Y-60000000D03*
X76000000Y-140000000D03*
X135000000Y-133000000D03*
X102000000Y-96000000D03*
X51000000Y-145000000D03*
X82000000Y-98000000D03*
X111000000Y-105000000D03*
X133000000Y-111000000D03*
X64000000Y-110000000D03*
X54000000Y-132000000D03*
X122000000Y-60000000D03*
X97000000Y-113000000D03*
X54000000Y-70000000D03*
X88000000Y-62000000D03*
X118000000Y-78000000D03*
X144000000Y-100000000D03*
X64000000Y-116000000D03*
X114000000Y-78000000D03*
X132000000Y-132000000D03*
X109000000Y-113000000D03*
X87000000Y-123000000D03*
X68000000Y-78000000D03*
X75000000Y-79000000D03*
X68000000Y-86000000D03*
X129000000Y-115000000D03*
X89000000Y-133000000D03*
X79000000Y-113000000D03*
X148000000Y-54000000D03*
X139000000Y-127000000D03*
X65000000Y-59000000D03*
X107000000Y-85000000D03*
X103000000Y-81000000D03*
X79000000Y-89000000D03*
X129000000Y-73000000D03*
X149000000Y-73000000D03*
X79000000Y-125000000D03*
X123000000Y-117000000D03*
X68000000Y-102000000D03*
X102000000Y-56000000D03*
X144000000Y-86000000D03*
X121000000Y-51000000D03*
X94000000Y-74000000D03*
X99000000Y-81000000D03*
X55000000Y-99000000D03*
X72000000Y-102000000D03*
X65000000Y-121000000D03*
X146000000Y-98000000D03*
X81000000Y-99000000D03*
X141000000Y-87000000D03*
X144000000Y-102000000D03*
X145000000Y-53000000D03*
X51000000Y-121000000D03*
X134000000Y-112000000D03*
X101000000Y-129000000D03*
X148000000Y-124000000D03*
X58000000Y-118000000D03*
X135000000Y-77000000D03*
X66000000Y-130000000D03*
X125000000Y-143000000D03*
X73000000Y-149000000D03*
X149000000Y-81000000D03*
X56000000Y-138000000D03*
X78000000Y-110000000D03*
X148000000Y-138000000D03*
X67000000Y-125000000D03*
X128000000Y-102000000D03*
X146000000Y-54000000D03*
X102000000Y-84000000D03*
X121000000Y-103000000D03*
X72000000Y-70000000D03*
X118000000Y-76000000D03*
X103000000Y-89000000D03*
X72000000Y-136000000D03*
X85000000Y-111000000D03*
X129000000Y-121000000D03*
X106000000Y-58000000D03*
X112000000Y-100000000D03*
X55000000Y-147000000D03*
X103000000Y-145000000D03*
X119000000Y-103000000D03*
X137000000Y-75000000D03*
X100000000Y-142000000D03*
X143000000Y-99000000D03*
X108000000Y-90000000D03*
X137000000Y-131000000D03*
X100000000Y-128000000D03*
X98000000Y-100000000D03*
X89000000Y-85000000D03*
X86000000Y-126000000D03*
X71000000Y-75000000D03*
X56000000Y-116000000D03*
X52000000Y-58000000D03*
X107000000Y-123000000D03*
X66000000Y-84000000D03*
X109000000Y-117000000D03*
X135000000Y-119000000D03*
X123000000Y-119000000D03*
X132000000Y-92000000D03*
X113000000Y-59000000D03*
X119000000Y-119000000D03*
X52000000Y-94000000D03*
X138000000Y-76000000D03*
X111000000Y-69000000D03*
X78000000Y-88000000D03*
X114000000Y-74000000D03*
X115000000Y-99000000D03*
X106000000Y-66000000D03*
X136000000Y-56000000D03*
X62000000Y-62000000D03*
X103000000Y-119000000D03*
X136000000Y-132000000D03*
X95000000Y-149000000D03*
X64000000Y-132000000D03*
X124000000Y-66000000D03*
X51000000Y-73000000D03*
X133000000Y-109000000D03*
X86000000Y-60000000D03*
X105000000Y-63000000D03*
X136000000Y-114000000D03*
X129000000Y-149000000D03*
X138000000Y-128000000D03*
X68000000Y-66000000D03*
X123000000Y-149000000D03*
X84000000Y-90000000D03*
X83000000Y-133000000D03*
X83000000Y-65000000D03*
X53000000Y-91000000D03*
X106000000Y-62000000D03*
X76000000Y-134000000D03*
X108000000Y-116000000D03*
X101000000Y-109000000D03*
X107000000Y-101000000D03*
X97000000Y-115000000D03*
X52000000Y-120000000D03*
X84000000Y-130000000D03*
X131000000Y-63000000D03*
X55000000Y-119000000D03*
X58000000Y-138000000D03*
X77000000Y-105000000D03*
X76000000Y-126000000D03*
X95000000Y-69000000D03*
X133000000Y-75000000D03*
X149000000Y-107000000D03*
X111000000Y-123000000D03*
X105000000Y-131000000D03*
X81000000Y-89000000D03*
X141000000Y-89000000D03*
X94000000Y-62000000D03*
X113000000Y-73000000D03*
X54000000Y-136000000D03*
X55000000Y-83000000D03*
X125000000Y-91000000D03*
X142000000Y-126000000D03*
X92000000Y-112000000D03*
X145000000Y-83000000D03*
X77000000Y-133000000D03*
X96000000Y-64000000D03*
X113000000Y-141000000D03*
X125000000Y-137000000D03*
X69000000Y-59000000D03*
X119000000Y-115000000D03*
X64000000Y-144000000D03*
X55000000Y-125000000D03*
X64000000Y-138000000D03*
X76000000Y-128000000D03*
X108000000Y-130000000D03*
X79000000Y-71000000D03*
X94000000Y-114000000D03*
X96000000Y-96000000D03*
X149000000Y-129000000D03*
X71000000Y-141000000D03*
X105000000Y-69000000D03*
X128000000Y-134000000D03*
X131000000Y-89000000D03*
X129000000Y-117000000D03*
X121000000Y-79000000D03*
X66000000Y-110000000D03*
X77000000Y-131000000D03*
X103000000Y-105000000D03*
X74000000Y-104000000D03*
X121000000Y-125000000D03*
X101000000Y-143000000D03*
X125000000Y-51000000D03*
X125000000Y-99000000D03*
X132000000Y-76000000D03*
X124000000Y-122000000D03*
X105000000Y-91000000D03*
X114000000Y-142000000D03*
X138000000Y-96000000D03*
X79000000Y-61000000D03*
X102000000Y-90000000D03*
X93000000Y-95000000D03*
X125000000Y-85000000D03*
X76000000Y-60000000D03*
X57000000Y-59000000D03*
X107000000Y-97000000D03*
X123000000Y-107000000D03*
X122000000Y-64000000D03*
X86000000Y-90000000D03*
X143000000Y-63000000D03*
X58000000Y-92000000D03*
X91000000Y-141000000D03*
X146000000Y-86000000D03*
X66000000Y-120000000D03*
X131000000Y-141000000D03*
X134000000Y-146000000D03*
X77000000Y-97000000D03*
X149000000Y-71000000D03*
X146000000Y-104000000D03*
X143000000Y-131000000D03*
X78000000Y-94000000D03*
X92000000Y-104000000D03*
X92000000Y-100000000D03*
X104000000Y-130000000D03*
X93000000Y-141000000D03*
X64000000Y-58000000D03*
X67000000Y-123000000D03*
X78000000Y-96000000D03*
X97000000Y-149000000D03*
X147000000Y-149000000D03*
X112000000Y-68000000D03*
X83000000Y-129000000D03*
X127000000Y-119000000D03*
X97000000Y-93000000D03*
X123000000Y-77000000D03*
X144000000Y-140000000D03*
X94000000Y-86000000D03*
X92000000Y-66000000D03*
X58000000Y-94000000D03*
X147000000Y-101000000D03*
X104000000Y-140000000D03*
X115000000Y-75000000D03*
X137000000Y-123000000D03*
X102000000Y-58000000D03*
X135000000Y-123000000D03*
X129000000Y-99000000D03*
X88000000Y-122000000D03*
X86000000Y-74000000D03*
X68000000Y-108000000D03*
X62000000Y-92000000D03*
X62000000Y-124000000D03*
X132000000Y-116000000D03*
X122000000Y-78000000D03*
X138000000Y-118000000D03*
X97000000Y-75000000D03*
X101000000Y-137000000D03*
X123000000Y-65000000D03*
X71000000Y-87000000D03*
X102000000Y-60000000D03*
X118000000Y-130000000D03*
X118000000Y-102000000D03*
X58000000Y-96000000D03*
X52000000Y-66000000D03*
X126000000Y-98000000D03*
X77000000Y-93000000D03*
X95000000Y-67000000D03*
X56000000Y-148000000D03*
X63000000Y-51000000D03*
X104000000Y-108000000D03*
X85000000Y-75000000D03*
X94000000Y-106000000D03*
X53000000Y-129000000D03*
X93000000Y-97000000D03*
X112000000Y-74000000D03*
X87000000Y-51000000D03*
X74000000Y-76000000D03*
X85000000Y-103000000D03*
X131000000Y-95000000D03*
X128000000Y-78000000D03*
X103000000Y-131000000D03*
X95000000Y-139000000D03*
X119000000Y-91000000D03*
X52000000Y-108000000D03*
X118000000Y-94000000D03*
X126000000Y-136000000D03*
X83000000Y-97000000D03*
X54000000Y-106000000D03*
X137000000Y-85000000D03*
X97000000Y-95000000D03*
X54000000Y-68000000D03*
X139000000Y-83000000D03*
X67000000Y-61000000D03*
X131000000Y-107000000D03*
X121000000Y-131000000D03*
X116000000Y-108000000D03*
X94000000Y-134000000D03*
X68000000Y-72000000D03*
X102000000Y-88000000D03*
X95000000Y-71000000D03*
X88000000Y-80000000D03*
X74000000Y-78000000D03*
X143000000Y-71000000D03*
X115000000Y-121000000D03*
X98000000Y-88000000D03*
X112000000Y-138000000D03*
X53000000Y-145000000D03*
X119000000Y-79000000D03*
X78000000Y-136000000D03*
X102000000Y-102000000D03*
X125000000Y-53000000D03*
X135000000Y-69000000D03*
X94000000Y-72000000D03*
X131000000Y-127000000D03*
X125000000Y-81000000D03*
X147000000Y-139000000D03*
X61000000Y-73000000D03*
X82000000Y-62000000D03*
X52000000Y-76000000D03*
X61000000Y-75000000D03*
X65000000Y-103000000D03*
X82000000Y-90000000D03*
X102000000Y-110000000D03*
X69000000Y-81000000D03*
X112000000Y-80000000D03*
X77000000Y-69000000D03*
X117000000Y-65000000D03*
X53000000Y-53000000D03*
X88000000Y-130000000D03*
X137000000Y-125000000D03*
X101000000Y-93000000D03*
X121000000Y-89000000D03*
X119000000Y-101000000D03*
X55000000Y-77000000D03*
X101000000Y-75000000D03*
X116000000Y-104000000D03*
X136000000Y-102000000D03*
X95000000Y-79000000D03*
X95000000Y-115000000D03*
X121000000Y-139000000D03*
X78000000Y-118000000D03*
X97000000Y-117000000D03*
X84000000Y-124000000D03*
X136000000Y-104000000D03*
X62000000Y-136000000D03*
X74000000Y-122000000D03*
X98000000Y-140000000D03*
X145000000Y-121000000D03*
X53000000Y-99000000D03*
X55000000Y-139000000D03*
X122000000Y-94000000D03*
X147000000Y-85000000D03*
X139000000Y-109000000D03*
X67000000Y-63000000D03*
X86000000Y-88000000D03*
X96000000Y-118000000D03*
X113000000Y-85000000D03*
X137000000Y-139000000D03*
X129000000Y-61000000D03*
X119000000Y-89000000D03*
X141000000Y-133000000D03*
X144000000Y-68000000D03*
X128000000Y-60000000D03*
X102000000Y-62000000D03*
X112000000Y-140000000D03*
X146000000Y-68000000D03*
X103000000Y-75000000D03*
X79000000Y-119000000D03*
X65000000Y-139000000D03*
X131000000Y-131000000D03*
X63000000Y-103000000D03*
X124000000Y-124000000D03*
X102000000Y-132000000D03*
X105000000Y-81000000D03*
X74000000Y-86000000D03*
X149000000Y-119000000D03*
X74000000Y-82000000D03*
X95000000Y-65000000D03*
X51000000Y-149000000D03*
X63000000Y-105000000D03*
X108000000Y-92000000D03*
X132000000Y-88000000D03*
X58000000Y-98000000D03*
X109000000Y-99000000D03*
X132000000Y-84000000D03*
X131000000Y-101000000D03*
X57000000Y-67000000D03*
X64000000Y-84000000D03*
X92000000Y-96000000D03*
X143000000Y-79000000D03*
X53000000Y-57000000D03*
X135000000Y-121000000D03*
X116000000Y-138000000D03*
X123000000Y-85000000D03*
X75000000Y-87000000D03*
X97000000Y-141000000D03*
X106000000Y-76000000D03*
X106000000Y-122000000D03*
X111000000Y-141000000D03*
X53000000Y-87000000D03*
X75000000Y-133000000D03*
X123000000Y-105000000D03*
X58000000Y-76000000D03*
X65000000Y-149000000D03*
X55000000Y-89000000D03*
X122000000Y-68000000D03*
X124000000Y-112000000D03*
X99000000Y-85000000D03*
X108000000Y-86000000D03*
X123000000Y-59000000D03*
X68000000Y-106000000D03*
X101000000Y-87000000D03*
X105000000Y-87000000D03*
X71000000Y-123000000D03*
X92000000Y-138000000D03*
X149000000Y-59000000D03*
X148000000Y-90000000D03*
X94000000Y-52000000D03*
X65000000Y-65000000D03*
X124000000Y-76000000D03*
X122000000Y-118000000D03*
X101000000Y-99000000D03*
X131000000Y-79000000D03*
X119000000Y-87000000D03*
X53000000Y-103000000D03*
X72000000Y-116000000D03*
X145000000Y-99000000D03*
X83000000Y-99000000D03*
X132000000Y-100000000D03*
X54000000Y-92000000D03*
X142000000Y-70000000D03*
X97000000Y-69000000D03*
X116000000Y-80000000D03*
X144000000Y-76000000D03*
X94000000Y-124000000D03*
X97000000Y-87000000D03*
X97000000Y-139000000D03*
X61000000Y-111000000D03*
X85000000Y-99000000D03*
X103000000Y-107000000D03*
X75000000Y-51000000D03*
X66000000Y-88000000D03*
X57000000Y-149000000D03*
X127000000Y-127000000D03*
X86000000Y-118000000D03*
X125000000Y-95000000D03*
X73000000Y-91000000D03*
X144000000Y-88000000D03*
X135000000Y-87000000D03*
X57000000Y-99000000D03*
X142000000Y-92000000D03*
X134000000Y-84000000D03*
X79000000Y-131000000D03*
X144000000Y-106000000D03*
X76000000Y-72000000D03*
X136000000Y-122000000D03*
X127000000Y-71000000D03*
X85000000Y-105000000D03*
X86000000Y-84000000D03*
X134000000Y-132000000D03*
X114000000Y-56000000D03*
X124000000Y-102000000D03*
X136000000Y-106000000D03*
X59000000Y-89000000D03*
X114000000Y-96000000D03*
X61000000Y-65000000D03*
X143000000Y-93000000D03*
X146000000Y-94000000D03*
X75000000Y-101000000D03*
X144000000Y-92000000D03*
X139000000Y-121000000D03*
X85000000Y-113000000D03*
X91000000Y-83000000D03*
X113000000Y-71000000D03*
X122000000Y-124000000D03*
X76000000Y-94000000D03*
X143000000Y-125000000D03*
X148000000Y-82000000D03*
X89000000Y-125000000D03*
X79000000Y-129000000D03*
X72000000Y-82000000D03*
X108000000Y-106000000D03*
X62000000Y-134000000D03*
X51000000Y-93000000D03*
X85000000Y-71000000D03*
X73000000Y-103000000D03*
X129000000Y-137000000D03*
X72000000Y-96000000D03*
X116000000Y-98000000D03*
X147000000Y-61000000D03*
X99000000Y-51000000D03*
X149000000Y-141000000D03*
X125000000Y-67000000D03*
X144000000Y-128000000D03*
X58000000Y-132000000D03*
X93000000Y-59000000D03*
X139000000Y-61000000D03*
X111000000Y-119000000D03*
X101000000Y-123000000D03*
X62000000Y-80000000D03*
X52000000Y-52000000D03*
X104000000Y-114000000D03*
X63000000Y-97000000D03*
X141000000Y-73000000D03*
X138000000Y-126000000D03*
X101000000Y-121000000D03*
X126000000Y-142000000D03*
X72000000Y-120000000D03*
X65000000Y-73000000D03*
X56000000Y-130000000D03*
X136000000Y-78000000D03*
X57000000Y-117000000D03*
X89000000Y-99000000D03*
X101000000Y-63000000D03*
X74000000Y-142000000D03*
X68000000Y-60000000D03*
X146000000Y-70000000D03*
X86000000Y-96000000D03*
X148000000Y-52000000D03*
X102000000Y-130000000D03*
X75000000Y-95000000D03*
X69000000Y-101000000D03*
X105000000Y-149000000D03*
X124000000Y-108000000D03*
X116000000Y-82000000D03*
X95000000Y-133000000D03*
X53000000Y-61000000D03*
X125000000Y-71000000D03*
X51000000Y-83000000D03*
X122000000Y-96000000D03*
X103000000Y-139000000D03*
X51000000Y-111000000D03*
X147000000Y-89000000D03*
X106000000Y-54000000D03*
X142000000Y-84000000D03*
X65000000Y-69000000D03*
X101000000Y-73000000D03*
X114000000Y-114000000D03*
X149000000Y-87000000D03*
X128000000Y-68000000D03*
X82000000Y-102000000D03*
X139000000Y-93000000D03*
X101000000Y-89000000D03*
X75000000Y-127000000D03*
X86000000Y-116000000D03*
X69000000Y-71000000D03*
X123000000Y-79000000D03*
X97000000Y-51000000D03*
X61000000Y-79000000D03*
X96000000Y-72000000D03*
X84000000Y-104000000D03*
X133000000Y-113000000D03*
X61000000Y-87000000D03*
X142000000Y-120000000D03*
X149000000Y-125000000D03*
X94000000Y-94000000D03*
X87000000Y-87000000D03*
X53000000Y-73000000D03*
X96000000Y-136000000D03*
X124000000Y-86000000D03*
X89000000Y-127000000D03*
X134000000Y-142000000D03*
X141000000Y-139000000D03*
X137000000Y-89000000D03*
X57000000Y-113000000D03*
X78000000Y-68000000D03*
X94000000Y-140000000D03*
X51000000Y-99000000D03*
X52000000Y-68000000D03*
X95000000Y-103000000D03*
X56000000Y-142000000D03*
X86000000Y-114000000D03*
X55000000Y-65000000D03*
X147000000Y-65000000D03*
X54000000Y-54000000D03*
X83000000Y-95000000D03*
X92000000Y-72000000D03*
X124000000Y-132000000D03*
X145000000Y-149000000D03*
X71000000Y-119000000D03*
X55000000Y-97000000D03*
X62000000Y-130000000D03*
X98000000Y-146000000D03*
X57000000Y-123000000D03*
X87000000Y-119000000D03*
X65000000Y-87000000D03*
X111000000Y-125000000D03*
X125000000Y-73000000D03*
X79000000Y-137000000D03*
X138000000Y-92000000D03*
X138000000Y-68000000D03*
X72000000Y-104000000D03*
X55000000Y-73000000D03*
X122000000Y-130000000D03*
X103000000Y-79000000D03*
X105000000Y-73000000D03*
X132000000Y-72000000D03*
X144000000Y-84000000D03*
X62000000Y-98000000D03*
X68000000Y-82000000D03*
X54000000Y-128000000D03*
X121000000Y-85000000D03*
X66000000Y-140000000D03*
X65000000Y-147000000D03*
X82000000Y-64000000D03*
X93000000Y-111000000D03*
X81000000Y-119000000D03*
X145000000Y-117000000D03*
X57000000Y-121000000D03*
X84000000Y-70000000D03*
X72000000Y-78000000D03*
X73000000Y-133000000D03*
X111000000Y-97000000D03*
X52000000Y-64000000D03*
X98000000Y-126000000D03*
X96000000Y-142000000D03*
X72000000Y-118000000D03*
X89000000Y-59000000D03*
X147000000Y-59000000D03*
X123000000Y-133000000D03*
X81000000Y-69000000D03*
X123000000Y-95000000D03*
X111000000Y-115000000D03*
X109000000Y-123000000D03*
X112000000Y-64000000D03*
X105000000Y-123000000D03*
X113000000Y-101000000D03*
X106000000Y-142000000D03*
X68000000Y-80000000D03*
X129000000Y-75000000D03*
X98000000Y-70000000D03*
X52000000Y-74000000D03*
X75000000Y-129000000D03*
X123000000Y-139000000D03*
X64000000Y-142000000D03*
X56000000Y-146000000D03*
X83000000Y-81000000D03*
X132000000Y-90000000D03*
X149000000Y-63000000D03*
X118000000Y-108000000D03*
X148000000Y-132000000D03*
X55000000Y-117000000D03*
X128000000Y-82000000D03*
X128000000Y-128000000D03*
X119000000Y-127000000D03*
X69000000Y-93000000D03*
X55000000Y-121000000D03*
X91000000Y-99000000D03*
X96000000Y-124000000D03*
X86000000Y-120000000D03*
X134000000Y-148000000D03*
X89000000Y-141000000D03*
X139000000Y-91000000D03*
X108000000Y-60000000D03*
X142000000Y-132000000D03*
X63000000Y-107000000D03*
X82000000Y-132000000D03*
X67000000Y-109000000D03*
X61000000Y-81000000D03*
X64000000Y-124000000D03*
X143000000Y-61000000D03*
X131000000Y-75000000D03*
X136000000Y-90000000D03*
X134000000Y-104000000D03*
X107000000Y-59000000D03*
X58000000Y-126000000D03*
X126000000Y-54000000D03*
X142000000Y-102000000D03*
X89000000Y-149000000D03*
X109000000Y-127000000D03*
X121000000Y-109000000D03*
X98000000Y-76000000D03*
X117000000Y-69000000D03*
X119000000Y-51000000D03*
X96000000Y-134000000D03*
X99000000Y-65000000D03*
X72000000Y-74000000D03*
X55000000Y-91000000D03*
X105000000Y-129000000D03*
X133000000Y-81000000D03*
X141000000Y-113000000D03*
X75000000Y-73000000D03*
X62000000Y-100000000D03*
X148000000Y-66000000D03*
X131000000Y-105000000D03*
X56000000Y-112000000D03*
X112000000Y-130000000D03*
X76000000Y-114000000D03*
X64000000Y-140000000D03*
X118000000Y-86000000D03*
X94000000Y-130000000D03*
X129000000Y-127000000D03*
X86000000Y-54000000D03*
X117000000Y-139000000D03*
X81000000Y-103000000D03*
X54000000Y-108000000D03*
X61000000Y-109000000D03*
X137000000Y-97000000D03*
X59000000Y-97000000D03*
X146000000Y-80000000D03*
X79000000Y-67000000D03*
X149000000Y-105000000D03*
X139000000Y-81000000D03*
X111000000Y-65000000D03*
X131000000Y-73000000D03*
X117000000Y-121000000D03*
X122000000Y-100000000D03*
X133000000Y-93000000D03*
X119000000Y-63000000D03*
X89000000Y-51000000D03*
X145000000Y-51000000D03*
X97000000Y-133000000D03*
X92000000Y-128000000D03*
X116000000Y-116000000D03*
X104000000Y-78000000D03*
X135000000Y-135000000D03*
X108000000Y-122000000D03*
X81000000Y-127000000D03*
X78000000Y-72000000D03*
X73000000Y-51000000D03*
X99000000Y-137000000D03*
X95000000Y-81000000D03*
X141000000Y-59000000D03*
X141000000Y-51000000D03*
X132000000Y-126000000D03*
X78000000Y-128000000D03*
X72000000Y-108000000D03*
X113000000Y-87000000D03*
X53000000Y-71000000D03*
X125000000Y-83000000D03*
X58000000Y-130000000D03*
X148000000Y-62000000D03*
X75000000Y-143000000D03*
X52000000Y-84000000D03*
X87000000Y-69000000D03*
X105000000Y-107000000D03*
X71000000Y-129000000D03*
X143000000Y-121000000D03*
X100000000Y-144000000D03*
X117000000Y-83000000D03*
X51000000Y-79000000D03*
X74000000Y-70000000D03*
X126000000Y-86000000D03*
X51000000Y-105000000D03*
X147000000Y-105000000D03*
X131000000Y-99000000D03*
X146000000Y-64000000D03*
X144000000Y-132000000D03*
X145000000Y-81000000D03*
X103000000Y-103000000D03*
X145000000Y-101000000D03*
X51000000Y-113000000D03*
X58000000Y-86000000D03*
X123000000Y-113000000D03*
X95000000Y-97000000D03*
X83000000Y-101000000D03*
X67000000Y-137000000D03*
X98000000Y-82000000D03*
X73000000Y-111000000D03*
X81000000Y-97000000D03*
X86000000Y-94000000D03*
X106000000Y-112000000D03*
X54000000Y-140000000D03*
X114000000Y-140000000D03*
X87000000Y-99000000D03*
X76000000Y-54000000D03*
X107000000Y-135000000D03*
X125000000Y-89000000D03*
X94000000Y-58000000D03*
X126000000Y-84000000D03*
X126000000Y-92000000D03*
X138000000Y-104000000D03*
X136000000Y-62000000D03*
X59000000Y-69000000D03*
X115000000Y-87000000D03*
X104000000Y-82000000D03*
X85000000Y-95000000D03*
X55000000Y-141000000D03*
X88000000Y-106000000D03*
X126000000Y-112000000D03*
X78000000Y-130000000D03*
X63000000Y-111000000D03*
X137000000Y-113000000D03*
X129000000Y-97000000D03*
X77000000Y-121000000D03*
X126000000Y-134000000D03*
X54000000Y-142000000D03*
X83000000Y-63000000D03*
X62000000Y-76000000D03*
X61000000Y-77000000D03*
X81000000Y-75000000D03*
X54000000Y-120000000D03*
X51000000Y-125000000D03*
X107000000Y-79000000D03*
X89000000Y-139000000D03*
X121000000Y-63000000D03*
X63000000Y-129000000D03*
X89000000Y-63000000D03*
X61000000Y-85000000D03*
X143000000Y-115000000D03*
X118000000Y-60000000D03*
X62000000Y-116000000D03*
X72000000Y-86000000D03*
X109000000Y-71000000D03*
X69000000Y-105000000D03*
X114000000Y-68000000D03*
X137000000Y-109000000D03*
X108000000Y-100000000D03*
X127000000Y-87000000D03*
X55000000Y-145000000D03*
X149000000Y-111000000D03*
X115000000Y-83000000D03*
X79000000Y-123000000D03*
X128000000Y-84000000D03*
X68000000Y-92000000D03*
X76000000Y-122000000D03*
X74000000Y-124000000D03*
X143000000Y-105000000D03*
X112000000Y-88000000D03*
X89000000Y-87000000D03*
X127000000Y-73000000D03*
X95000000Y-117000000D03*
X115000000Y-101000000D03*
X135000000Y-75000000D03*
X71000000Y-61000000D03*
X112000000Y-86000000D03*
X56000000Y-58000000D03*
X72000000Y-126000000D03*
X112000000Y-82000000D03*
X96000000Y-114000000D03*
X99000000Y-101000000D03*
X59000000Y-103000000D03*
X75000000Y-63000000D03*
X91000000Y-127000000D03*
X99000000Y-61000000D03*
X64000000Y-98000000D03*
X144000000Y-146000000D03*
X118000000Y-72000000D03*
X108000000Y-74000000D03*
X89000000Y-107000000D03*
X104000000Y-72000000D03*
X132000000Y-60000000D03*
X71000000Y-59000000D03*
X143000000Y-149000000D03*
X122000000Y-102000000D03*
X111000000Y-73000000D03*
X96000000Y-146000000D03*
X76000000Y-102000000D03*
X91000000Y-125000000D03*
X149000000Y-145000000D03*
X121000000Y-77000000D03*
X64000000Y-126000000D03*
X104000000Y-80000000D03*
X92000000Y-74000000D03*
X78000000Y-78000000D03*
X132000000Y-102000000D03*
X74000000Y-94000000D03*
X85000000Y-81000000D03*
X78000000Y-64000000D03*
X62000000Y-104000000D03*
X65000000Y-55000000D03*
X71000000Y-125000000D03*
X132000000Y-110000000D03*
X115000000Y-79000000D03*
X99000000Y-135000000D03*
X112000000Y-70000000D03*
X75000000Y-67000000D03*
X117000000Y-61000000D03*
X87000000Y-85000000D03*
X99000000Y-133000000D03*
X99000000Y-145000000D03*
X91000000Y-77000000D03*
X95000000Y-119000000D03*
X81000000Y-149000000D03*
X69000000Y-91000000D03*
X76000000Y-52000000D03*
X82000000Y-126000000D03*
X117000000Y-105000000D03*
X76000000Y-80000000D03*
X51000000Y-69000000D03*
X96000000Y-138000000D03*
X59000000Y-93000000D03*
X96000000Y-84000000D03*
X98000000Y-62000000D03*
X93000000Y-91000000D03*
X113000000Y-135000000D03*
X83000000Y-123000000D03*
X103000000Y-111000000D03*
X123000000Y-93000000D03*
X71000000Y-109000000D03*
X74000000Y-102000000D03*
X107000000Y-75000000D03*
X142000000Y-82000000D03*
X55000000Y-149000000D03*
X117000000Y-85000000D03*
X121000000Y-69000000D03*
X82000000Y-92000000D03*
X58000000Y-128000000D03*
X121000000Y-95000000D03*
X135000000Y-83000000D03*
X113000000Y-139000000D03*
X84000000Y-92000000D03*
X127000000Y-79000000D03*
X66000000Y-124000000D03*
X74000000Y-138000000D03*
X68000000Y-64000000D03*
X136000000Y-66000000D03*
X75000000Y-69000000D03*
X103000000Y-147000000D03*
X104000000Y-148000000D03*
X73000000Y-95000000D03*
X127000000Y-89000000D03*
X69000000Y-51000000D03*
X65000000Y-105000000D03*
X144000000Y-138000000D03*
X123000000Y-109000000D03*
X108000000Y-80000000D03*
X127000000Y-69000000D03*
X56000000Y-110000000D03*
X69000000Y-123000000D03*
X101000000Y-51000000D03*
X135000000Y-107000000D03*
X59000000Y-85000000D03*
X114000000Y-124000000D03*
X84000000Y-110000000D03*
X146000000Y-114000000D03*
X107000000Y-81000000D03*
X123000000Y-129000000D03*
X57000000Y-85000000D03*
X104000000Y-126000000D03*
X94000000Y-126000000D03*
X112000000Y-60000000D03*
X133000000Y-107000000D03*
X75000000Y-107000000D03*
X111000000Y-85000000D03*
X91000000Y-61000000D03*
X67000000Y-77000000D03*
X137000000Y-95000000D03*
X136000000Y-76000000D03*
X53000000Y-117000000D03*
X111000000Y-101000000D03*
X98000000Y-80000000D03*
X137000000Y-93000000D03*
X100000000Y-108000000D03*
X67000000Y-85000000D03*
X104000000Y-112000000D03*
X136000000Y-80000000D03*
X105000000Y-67000000D03*
X77000000Y-87000000D03*
X97000000Y-77000000D03*
X87000000Y-117000000D03*
X105000000Y-109000000D03*
X55000000Y-101000000D03*
X83000000Y-131000000D03*
X104000000Y-110000000D03*
X85000000Y-131000000D03*
X139000000Y-105000000D03*
X108000000Y-98000000D03*
X65000000Y-99000000D03*
X77000000Y-77000000D03*
X97000000Y-123000000D03*
X127000000Y-141000000D03*
X114000000Y-102000000D03*
X73000000Y-83000000D03*
X64000000Y-100000000D03*
X59000000Y-59000000D03*
X103000000Y-115000000D03*
X134000000Y-76000000D03*
X129000000Y-85000000D03*
X86000000Y-122000000D03*
X126000000Y-60000000D03*
X82000000Y-118000000D03*
X55000000Y-115000000D03*
X77000000Y-63000000D03*
X135000000Y-115000000D03*
X115000000Y-77000000D03*
X127000000Y-77000000D03*
X77000000Y-127000000D03*
X104000000Y-120000000D03*
X124000000Y-54000000D03*
X108000000Y-114000000D03*
X133000000Y-71000000D03*
X117000000Y-103000000D03*
X149000000Y-69000000D03*
X123000000Y-71000000D03*
X141000000Y-101000000D03*
X75000000Y-147000000D03*
X85000000Y-59000000D03*
X141000000Y-137000000D03*
X109000000Y-73000000D03*
X95000000Y-127000000D03*
X121000000Y-101000000D03*
X135000000Y-65000000D03*
X75000000Y-139000000D03*
X81000000Y-79000000D03*
X146000000Y-78000000D03*
X56000000Y-82000000D03*
X106000000Y-80000000D03*
X111000000Y-87000000D03*
X65000000Y-141000000D03*
X146000000Y-128000000D03*
X96000000Y-70000000D03*
X115000000Y-139000000D03*
X117000000Y-91000000D03*
X78000000Y-82000000D03*
X137000000Y-105000000D03*
X108000000Y-104000000D03*
X81000000Y-71000000D03*
X143000000Y-137000000D03*
X146000000Y-76000000D03*
X84000000Y-86000000D03*
X117000000Y-109000000D03*
X145000000Y-135000000D03*
X99000000Y-111000000D03*
X106000000Y-96000000D03*
X135000000Y-53000000D03*
X114000000Y-62000000D03*
X102000000Y-80000000D03*
X135000000Y-73000000D03*
X69000000Y-73000000D03*
X119000000Y-93000000D03*
X91000000Y-97000000D03*
X57000000Y-103000000D03*
X79000000Y-59000000D03*
X127000000Y-117000000D03*
X82000000Y-106000000D03*
X76000000Y-96000000D03*
X97000000Y-83000000D03*
X76000000Y-112000000D03*
X109000000Y-91000000D03*
X68000000Y-126000000D03*
X113000000Y-121000000D03*
X145000000Y-77000000D03*
X112000000Y-120000000D03*
X84000000Y-120000000D03*
X57000000Y-97000000D03*
X98000000Y-134000000D03*
X100000000Y-66000000D03*
X65000000Y-75000000D03*
X112000000Y-66000000D03*
X67000000Y-97000000D03*
X106000000Y-114000000D03*
X137000000Y-107000000D03*
X93000000Y-105000000D03*
X146000000Y-100000000D03*
X126000000Y-58000000D03*
X51000000Y-65000000D03*
X86000000Y-78000000D03*
X52000000Y-118000000D03*
X119000000Y-129000000D03*
X81000000Y-109000000D03*
X65000000Y-133000000D03*
X83000000Y-113000000D03*
X106000000Y-106000000D03*
X82000000Y-136000000D03*
X96000000Y-130000000D03*
X73000000Y-71000000D03*
X138000000Y-138000000D03*
X147000000Y-145000000D03*
X106000000Y-78000000D03*
X148000000Y-68000000D03*
X93000000Y-69000000D03*
X52000000Y-116000000D03*
X72000000Y-98000000D03*
X143000000Y-85000000D03*
X54000000Y-96000000D03*
X59000000Y-131000000D03*
X62000000Y-122000000D03*
X147000000Y-69000000D03*
X66000000Y-128000000D03*
X54000000Y-104000000D03*
X93000000Y-65000000D03*
X73000000Y-73000000D03*
X102000000Y-114000000D03*
X98000000Y-52000000D03*
X77000000Y-51000000D03*
X73000000Y-79000000D03*
X64000000Y-86000000D03*
X56000000Y-80000000D03*
X58000000Y-88000000D03*
X69000000Y-119000000D03*
X100000000Y-136000000D03*
X141000000Y-85000000D03*
X63000000Y-127000000D03*
X54000000Y-66000000D03*
X115000000Y-103000000D03*
X52000000Y-96000000D03*
X64000000Y-90000000D03*
X142000000Y-94000000D03*
X117000000Y-115000000D03*
X133000000Y-127000000D03*
X55000000Y-135000000D03*
X69000000Y-109000000D03*
X93000000Y-87000000D03*
X86000000Y-80000000D03*
X58000000Y-112000000D03*
X134000000Y-62000000D03*
X63000000Y-95000000D03*
X147000000Y-131000000D03*
X119000000Y-107000000D03*
X117000000Y-89000000D03*
X118000000Y-116000000D03*
X78000000Y-84000000D03*
X87000000Y-101000000D03*
X79000000Y-103000000D03*
X64000000Y-80000000D03*
X126000000Y-70000000D03*
X99000000Y-77000000D03*
X135000000Y-125000000D03*
X94000000Y-122000000D03*
X57000000Y-95000000D03*
X58000000Y-62000000D03*
X106000000Y-120000000D03*
X107000000Y-95000000D03*
X148000000Y-116000000D03*
X73000000Y-59000000D03*
X67000000Y-113000000D03*
X94000000Y-70000000D03*
X149000000Y-51000000D03*
X103000000Y-83000000D03*
X124000000Y-96000000D03*
X116000000Y-142000000D03*
X113000000Y-149000000D03*
X57000000Y-133000000D03*
X100000000Y-60000000D03*
X145000000Y-75000000D03*
X134000000Y-64000000D03*
X51000000Y-115000000D03*
X134000000Y-52000000D03*
X118000000Y-92000000D03*
X113000000Y-65000000D03*
X67000000Y-139000000D03*
X92000000Y-78000000D03*
X137000000Y-69000000D03*
X124000000Y-128000000D03*
X108000000Y-76000000D03*
X149000000Y-53000000D03*
X85000000Y-135000000D03*
X92000000Y-94000000D03*
X116000000Y-110000000D03*
X85000000Y-51000000D03*
X82000000Y-130000000D03*
X116000000Y-84000000D03*
X127000000Y-111000000D03*
X104000000Y-98000000D03*
X55000000Y-93000000D03*
X113000000Y-61000000D03*
X148000000Y-140000000D03*
X119000000Y-83000000D03*
X62000000Y-106000000D03*
X109000000Y-51000000D03*
X53000000Y-135000000D03*
X149000000Y-137000000D03*
X111000000Y-137000000D03*
X137000000Y-115000000D03*
X81000000Y-83000000D03*
X72000000Y-140000000D03*
X97000000Y-107000000D03*
X144000000Y-72000000D03*
X84000000Y-68000000D03*
X127000000Y-97000000D03*
X74000000Y-132000000D03*
X101000000Y-77000000D03*
X102000000Y-104000000D03*
X105000000Y-59000000D03*
X126000000Y-94000000D03*
X134000000Y-134000000D03*
X116000000Y-106000000D03*
X78000000Y-74000000D03*
X54000000Y-118000000D03*
X87000000Y-149000000D03*
X53000000Y-115000000D03*
X124000000Y-146000000D03*
X55000000Y-107000000D03*
X89000000Y-61000000D03*
X114000000Y-84000000D03*
X62000000Y-64000000D03*
X53000000Y-141000000D03*
X82000000Y-100000000D03*
X112000000Y-106000000D03*
X83000000Y-149000000D03*
X86000000Y-100000000D03*
X128000000Y-90000000D03*
X68000000Y-90000000D03*
X137000000Y-117000000D03*
X64000000Y-66000000D03*
X148000000Y-92000000D03*
X145000000Y-87000000D03*
X114000000Y-66000000D03*
X104000000Y-102000000D03*
X84000000Y-136000000D03*
X96000000Y-76000000D03*
X117000000Y-75000000D03*
X102000000Y-128000000D03*
X135000000Y-59000000D03*
X95000000Y-77000000D03*
X132000000Y-134000000D03*
X100000000Y-56000000D03*
X136000000Y-58000000D03*
X111000000Y-67000000D03*
X133000000Y-119000000D03*
X96000000Y-98000000D03*
X53000000Y-97000000D03*
X121000000Y-115000000D03*
X76000000Y-118000000D03*
X105000000Y-61000000D03*
X87000000Y-95000000D03*
X148000000Y-94000000D03*
X69000000Y-125000000D03*
X116000000Y-146000000D03*
X87000000Y-67000000D03*
X76000000Y-98000000D03*
X58000000Y-114000000D03*
X81000000Y-85000000D03*
X138000000Y-100000000D03*
X122000000Y-76000000D03*
X108000000Y-128000000D03*
X139000000Y-75000000D03*
X61000000Y-101000000D03*
X87000000Y-91000000D03*
X129000000Y-59000000D03*
X87000000Y-129000000D03*
X148000000Y-102000000D03*
X53000000Y-125000000D03*
X122000000Y-126000000D03*
X52000000Y-128000000D03*
X53000000Y-149000000D03*
X100000000Y-148000000D03*
X72000000Y-64000000D03*
X71000000Y-117000000D03*
X132000000Y-82000000D03*
X68000000Y-140000000D03*
X108000000Y-72000000D03*
X66000000Y-148000000D03*
X145000000Y-55000000D03*
X82000000Y-70000000D03*
X100000000Y-74000000D03*
X97000000Y-61000000D03*
X125000000Y-141000000D03*
X136000000Y-86000000D03*
X78000000Y-112000000D03*
X87000000Y-61000000D03*
X96000000Y-122000000D03*
X66000000Y-114000000D03*
X77000000Y-91000000D03*
X104000000Y-56000000D03*
X81000000Y-129000000D03*
X111000000Y-127000000D03*
X55000000Y-127000000D03*
X148000000Y-114000000D03*
X148000000Y-130000000D03*
X127000000Y-107000000D03*
X148000000Y-96000000D03*
X137000000Y-111000000D03*
X133000000Y-95000000D03*
X146000000Y-72000000D03*
X149000000Y-93000000D03*
X96000000Y-94000000D03*
X122000000Y-70000000D03*
X129000000Y-77000000D03*
X122000000Y-138000000D03*
X96000000Y-132000000D03*
X68000000Y-74000000D03*
X103000000Y-133000000D03*
X129000000Y-71000000D03*
X116000000Y-72000000D03*
X66000000Y-118000000D03*
X76000000Y-66000000D03*
X69000000Y-61000000D03*
X132000000Y-64000000D03*
X66000000Y-72000000D03*
X115000000Y-71000000D03*
X66000000Y-86000000D03*
X139000000Y-67000000D03*
X71000000Y-139000000D03*
X55000000Y-61000000D03*
X81000000Y-93000000D03*
X100000000Y-104000000D03*
X119000000Y-71000000D03*
X74000000Y-134000000D03*
X54000000Y-102000000D03*
X125000000Y-131000000D03*
X114000000Y-106000000D03*
X123000000Y-61000000D03*
X100000000Y-84000000D03*
X71000000Y-89000000D03*
X55000000Y-81000000D03*
X66000000Y-142000000D03*
X134000000Y-80000000D03*
X51000000Y-107000000D03*
X116000000Y-126000000D03*
X51000000Y-103000000D03*
X105000000Y-83000000D03*
X102000000Y-138000000D03*
X122000000Y-62000000D03*
X125000000Y-147000000D03*
X101000000Y-95000000D03*
X75000000Y-103000000D03*
X135000000Y-131000000D03*
X88000000Y-76000000D03*
X51000000Y-77000000D03*
X105000000Y-55000000D03*
X137000000Y-99000000D03*
X98000000Y-110000000D03*
X95000000Y-147000000D03*
X66000000Y-102000000D03*
X55000000Y-69000000D03*
X116000000Y-70000000D03*
X65000000Y-145000000D03*
X89000000Y-91000000D03*
X91000000Y-113000000D03*
X106000000Y-68000000D03*
X128000000Y-88000000D03*
X116000000Y-124000000D03*
X107000000Y-141000000D03*
X108000000Y-126000000D03*
X105000000Y-57000000D03*
X63000000Y-149000000D03*
X76000000Y-110000000D03*
X134000000Y-110000000D03*
X93000000Y-83000000D03*
X56000000Y-140000000D03*
X113000000Y-103000000D03*
X128000000Y-106000000D03*
X71000000Y-79000000D03*
X147000000Y-79000000D03*
X125000000Y-101000000D03*
X54000000Y-112000000D03*
X97000000Y-97000000D03*
X92000000Y-62000000D03*
X107000000Y-121000000D03*
X106000000Y-92000000D03*
X119000000Y-141000000D03*
X121000000Y-105000000D03*
X123000000Y-73000000D03*
X111000000Y-61000000D03*
X105000000Y-139000000D03*
X82000000Y-60000000D03*
X85000000Y-65000000D03*
X100000000Y-126000000D03*
X52000000Y-62000000D03*
X74000000Y-68000000D03*
X102000000Y-74000000D03*
X127000000Y-137000000D03*
X81000000Y-91000000D03*
X101000000Y-85000000D03*
X135000000Y-147000000D03*
X116000000Y-92000000D03*
X63000000Y-59000000D03*
X81000000Y-107000000D03*
X51000000Y-129000000D03*
X139000000Y-97000000D03*
X102000000Y-124000000D03*
X111000000Y-93000000D03*
X85000000Y-107000000D03*
X111000000Y-113000000D03*
X98000000Y-130000000D03*
X51000000Y-109000000D03*
X121000000Y-83000000D03*
X67000000Y-89000000D03*
X54000000Y-84000000D03*
X71000000Y-91000000D03*
X67000000Y-131000000D03*
X71000000Y-51000000D03*
X95000000Y-135000000D03*
X103000000Y-73000000D03*
X75000000Y-123000000D03*
X89000000Y-109000000D03*
X133000000Y-131000000D03*
X125000000Y-93000000D03*
X52000000Y-106000000D03*
X133000000Y-79000000D03*
X52000000Y-134000000D03*
X51000000Y-91000000D03*
X53000000Y-107000000D03*
X139000000Y-141000000D03*
X114000000Y-118000000D03*
X78000000Y-86000000D03*
X72000000Y-110000000D03*
X65000000Y-57000000D03*
X127000000Y-131000000D03*
X76000000Y-64000000D03*
X104000000Y-92000000D03*
X59000000Y-129000000D03*
X116000000Y-120000000D03*
X100000000Y-112000000D03*
X61000000Y-93000000D03*
X77000000Y-65000000D03*
X146000000Y-106000000D03*
X126000000Y-82000000D03*
X122000000Y-104000000D03*
X95000000Y-89000000D03*
X133000000Y-117000000D03*
X121000000Y-113000000D03*
X53000000Y-65000000D03*
X132000000Y-104000000D03*
X73000000Y-119000000D03*
X63000000Y-71000000D03*
X75000000Y-65000000D03*
X105000000Y-141000000D03*
X65000000Y-125000000D03*
X132000000Y-122000000D03*
X99000000Y-141000000D03*
X83000000Y-75000000D03*
X116000000Y-132000000D03*
X147000000Y-129000000D03*
X88000000Y-124000000D03*
X96000000Y-78000000D03*
X112000000Y-132000000D03*
X142000000Y-100000000D03*
X104000000Y-54000000D03*
X76000000Y-82000000D03*
X105000000Y-77000000D03*
X97000000Y-127000000D03*
X136000000Y-98000000D03*
X51000000Y-137000000D03*
X96000000Y-112000000D03*
X114000000Y-98000000D03*
X55000000Y-51000000D03*
X142000000Y-134000000D03*
X85000000Y-115000000D03*
X143000000Y-141000000D03*
X126000000Y-114000000D03*
X135000000Y-85000000D03*
X145000000Y-59000000D03*
X87000000Y-59000000D03*
X133000000Y-141000000D03*
X87000000Y-75000000D03*
X74000000Y-66000000D03*
X58000000Y-104000000D03*
X114000000Y-58000000D03*
X88000000Y-82000000D03*
X99000000Y-107000000D03*
X52000000Y-86000000D03*
X118000000Y-122000000D03*
X149000000Y-139000000D03*
X109000000Y-81000000D03*
X134000000Y-116000000D03*
X123000000Y-111000000D03*
X84000000Y-102000000D03*
X59000000Y-133000000D03*
X114000000Y-132000000D03*
X98000000Y-128000000D03*
X87000000Y-65000000D03*
X123000000Y-83000000D03*
X97000000Y-81000000D03*
X111000000Y-139000000D03*
X124000000Y-68000000D03*
X134000000Y-58000000D03*
X53000000Y-127000000D03*
X106000000Y-104000000D03*
X66000000Y-90000000D03*
X74000000Y-116000000D03*
X93000000Y-125000000D03*
X99000000Y-93000000D03*
X116000000Y-78000000D03*
X85000000Y-139000000D03*
X95000000Y-91000000D03*
X148000000Y-120000000D03*
X116000000Y-74000000D03*
X115000000Y-147000000D03*
X77000000Y-111000000D03*
X136000000Y-112000000D03*
X85000000Y-85000000D03*
X77000000Y-103000000D03*
X83000000Y-103000000D03*
X83000000Y-111000000D03*
X96000000Y-54000000D03*
X141000000Y-69000000D03*
X58000000Y-66000000D03*
X78000000Y-98000000D03*
X55000000Y-113000000D03*
X87000000Y-139000000D03*
X66000000Y-76000000D03*
X76000000Y-84000000D03*
X114000000Y-88000000D03*
X145000000Y-127000000D03*
X135000000Y-55000000D03*
X105000000Y-65000000D03*
X98000000Y-116000000D03*
X77000000Y-115000000D03*
X103000000Y-121000000D03*
X107000000Y-87000000D03*
X132000000Y-86000000D03*
X148000000Y-88000000D03*
X84000000Y-126000000D03*
X106000000Y-52000000D03*
X149000000Y-99000000D03*
X146000000Y-66000000D03*
X119000000Y-77000000D03*
X127000000Y-65000000D03*
X93000000Y-137000000D03*
X106000000Y-70000000D03*
X89000000Y-65000000D03*
X124000000Y-130000000D03*
X79000000Y-87000000D03*
X117000000Y-137000000D03*
X92000000Y-60000000D03*
X122000000Y-140000000D03*
X147000000Y-117000000D03*
X53000000Y-119000000D03*
X122000000Y-106000000D03*
X146000000Y-118000000D03*
X121000000Y-107000000D03*
X105000000Y-79000000D03*
X67000000Y-129000000D03*
X139000000Y-103000000D03*
X114000000Y-54000000D03*
X129000000Y-133000000D03*
X67000000Y-119000000D03*
X65000000Y-119000000D03*
X147000000Y-103000000D03*
X59000000Y-101000000D03*
X89000000Y-71000000D03*
X58000000Y-84000000D03*
X65000000Y-77000000D03*
X114000000Y-70000000D03*
X58000000Y-102000000D03*
X53000000Y-59000000D03*
X84000000Y-134000000D03*
X54000000Y-90000000D03*
X143000000Y-127000000D03*
X68000000Y-84000000D03*
X111000000Y-75000000D03*
X123000000Y-135000000D03*
X58000000Y-80000000D03*
X101000000Y-57000000D03*
X54000000Y-58000000D03*
X59000000Y-123000000D03*
X93000000Y-121000000D03*
X111000000Y-91000000D03*
X124000000Y-144000000D03*
X107000000Y-109000000D03*
X146000000Y-88000000D03*
X94000000Y-92000000D03*
X105000000Y-53000000D03*
X72000000Y-138000000D03*
X141000000Y-97000000D03*
X104000000Y-62000000D03*
X108000000Y-118000000D03*
X89000000Y-67000000D03*
X137000000Y-141000000D03*
X84000000Y-148000000D03*
X147000000Y-73000000D03*
X91000000Y-119000000D03*
X145000000Y-73000000D03*
X83000000Y-67000000D03*
X104000000Y-142000000D03*
X102000000Y-92000000D03*
X86000000Y-98000000D03*
X126000000Y-120000000D03*
X77000000Y-95000000D03*
X55000000Y-87000000D03*
X137000000Y-81000000D03*
X116000000Y-140000000D03*
X128000000Y-76000000D03*
X55000000Y-63000000D03*
X87000000Y-93000000D03*
X53000000Y-51000000D03*
X139000000Y-79000000D03*
X109000000Y-75000000D03*
X73000000Y-115000000D03*
X88000000Y-92000000D03*
X64000000Y-62000000D03*
X142000000Y-114000000D03*
X76000000Y-132000000D03*
X52000000Y-102000000D03*
X85000000Y-109000000D03*
X145000000Y-113000000D03*
X144000000Y-52000000D03*
X126000000Y-78000000D03*
X133000000Y-105000000D03*
X122000000Y-136000000D03*
X73000000Y-105000000D03*
X102000000Y-118000000D03*
X113000000Y-115000000D03*
X136000000Y-126000000D03*
X76000000Y-58000000D03*
X67000000Y-91000000D03*
X85000000Y-53000000D03*
X136000000Y-92000000D03*
X139000000Y-95000000D03*
X55000000Y-79000000D03*
X98000000Y-68000000D03*
X56000000Y-68000000D03*
X112000000Y-102000000D03*
X93000000Y-81000000D03*
X101000000Y-79000000D03*
X137000000Y-101000000D03*
X146000000Y-126000000D03*
X102000000Y-106000000D03*
X78000000Y-120000000D03*
X75000000Y-91000000D03*
X97000000Y-85000000D03*
X118000000Y-128000000D03*
X122000000Y-120000000D03*
X121000000Y-59000000D03*
X129000000Y-113000000D03*
X73000000Y-97000000D03*
X119000000Y-65000000D03*
X83000000Y-117000000D03*
X52000000Y-56000000D03*
X100000000Y-132000000D03*
X62000000Y-66000000D03*
X59000000Y-137000000D03*
X97000000Y-137000000D03*
X123000000Y-125000000D03*
X141000000Y-105000000D03*
X82000000Y-140000000D03*
X117000000Y-149000000D03*
X137000000Y-129000000D03*
X128000000Y-94000000D03*
X101000000Y-65000000D03*
X99000000Y-57000000D03*
X87000000Y-89000000D03*
X131000000Y-117000000D03*
X145000000Y-131000000D03*
X62000000Y-86000000D03*
X138000000Y-122000000D03*
X139000000Y-139000000D03*
X124000000Y-148000000D03*
X137000000Y-79000000D03*
X74000000Y-60000000D03*
X88000000Y-116000000D03*
X104000000Y-86000000D03*
X88000000Y-96000000D03*
X89000000Y-95000000D03*
X61000000Y-117000000D03*
X57000000Y-69000000D03*
X96000000Y-126000000D03*
X82000000Y-120000000D03*
X64000000Y-130000000D03*
X52000000Y-146000000D03*
X121000000Y-67000000D03*
X119000000Y-105000000D03*
X93000000Y-131000000D03*
X146000000Y-144000000D03*
X100000000Y-82000000D03*
X83000000Y-107000000D03*
X134000000Y-128000000D03*
X53000000Y-81000000D03*
X128000000Y-98000000D03*
X125000000Y-149000000D03*
X146000000Y-60000000D03*
X105000000Y-113000000D03*
X128000000Y-92000000D03*
X100000000Y-76000000D03*
X139000000Y-63000000D03*
X135000000Y-111000000D03*
X71000000Y-93000000D03*
X97000000Y-65000000D03*
X56000000Y-106000000D03*
X89000000Y-129000000D03*
X109000000Y-115000000D03*
X84000000Y-54000000D03*
X135000000Y-57000000D03*
X98000000Y-102000000D03*
X71000000Y-71000000D03*
X124000000Y-100000000D03*
X82000000Y-84000000D03*
X115000000Y-143000000D03*
X86000000Y-104000000D03*
X141000000Y-83000000D03*
X131000000Y-83000000D03*
X127000000Y-125000000D03*
X104000000Y-88000000D03*
X57000000Y-125000000D03*
X113000000Y-99000000D03*
X56000000Y-86000000D03*
X121000000Y-121000000D03*
X114000000Y-122000000D03*
X108000000Y-102000000D03*
X54000000Y-74000000D03*
X131000000Y-81000000D03*
X103000000Y-109000000D03*
X126000000Y-144000000D03*
X116000000Y-112000000D03*
X62000000Y-96000000D03*
X73000000Y-69000000D03*
X145000000Y-57000000D03*
X51000000Y-63000000D03*
X139000000Y-65000000D03*
X81000000Y-115000000D03*
X148000000Y-110000000D03*
X114000000Y-72000000D03*
X75000000Y-59000000D03*
X95000000Y-63000000D03*
X73000000Y-89000000D03*
X141000000Y-109000000D03*
X72000000Y-60000000D03*
X71000000Y-103000000D03*
X94000000Y-136000000D03*
X141000000Y-119000000D03*
X131000000Y-149000000D03*
X79000000Y-69000000D03*
X66000000Y-74000000D03*
X126000000Y-124000000D03*
X107000000Y-91000000D03*
X142000000Y-124000000D03*
X111000000Y-81000000D03*
X75000000Y-113000000D03*
X99000000Y-125000000D03*
X126000000Y-56000000D03*
X108000000Y-66000000D03*
X57000000Y-61000000D03*
X88000000Y-126000000D03*
X135000000Y-103000000D03*
X88000000Y-104000000D03*
X108000000Y-134000000D03*
X123000000Y-69000000D03*
X53000000Y-95000000D03*
X143000000Y-117000000D03*
X81000000Y-63000000D03*
X149000000Y-57000000D03*
X122000000Y-134000000D03*
X69000000Y-129000000D03*
X109000000Y-125000000D03*
X92000000Y-122000000D03*
X67000000Y-117000000D03*
X117000000Y-59000000D03*
X118000000Y-138000000D03*
X139000000Y-117000000D03*
X138000000Y-114000000D03*
X113000000Y-79000000D03*
X93000000Y-79000000D03*
X77000000Y-59000000D03*
X71000000Y-69000000D03*
X97000000Y-121000000D03*
X116000000Y-64000000D03*
X54000000Y-130000000D03*
X52000000Y-98000000D03*
X107000000Y-139000000D03*
X78000000Y-62000000D03*
X124000000Y-116000000D03*
X123000000Y-81000000D03*
X147000000Y-57000000D03*
X137000000Y-65000000D03*
X51000000Y-87000000D03*
X66000000Y-80000000D03*
X81000000Y-141000000D03*
X149000000Y-131000000D03*
X72000000Y-128000000D03*
X61000000Y-129000000D03*
X142000000Y-66000000D03*
X86000000Y-62000000D03*
X79000000Y-115000000D03*
X65000000Y-137000000D03*
X147000000Y-143000000D03*
X78000000Y-70000000D03*
X74000000Y-112000000D03*
X116000000Y-76000000D03*
X109000000Y-131000000D03*
X127000000Y-59000000D03*
X129000000Y-107000000D03*
X109000000Y-111000000D03*
X73000000Y-141000000D03*
X74000000Y-100000000D03*
X146000000Y-140000000D03*
X86000000Y-132000000D03*
X92000000Y-76000000D03*
X144000000Y-80000000D03*
X105000000Y-71000000D03*
X82000000Y-88000000D03*
X109000000Y-83000000D03*
X117000000Y-141000000D03*
X77000000Y-125000000D03*
X56000000Y-92000000D03*
X74000000Y-72000000D03*
X138000000Y-94000000D03*
X82000000Y-72000000D03*
X124000000Y-90000000D03*
X56000000Y-72000000D03*
X129000000Y-65000000D03*
X69000000Y-121000000D03*
X97000000Y-111000000D03*
X78000000Y-126000000D03*
X58000000Y-124000000D03*
X81000000Y-73000000D03*
X116000000Y-86000000D03*
X51000000Y-81000000D03*
X132000000Y-74000000D03*
X52000000Y-122000000D03*
X58000000Y-64000000D03*
X86000000Y-70000000D03*
X59000000Y-107000000D03*
X148000000Y-78000000D03*
X68000000Y-112000000D03*
X97000000Y-57000000D03*
X53000000Y-143000000D03*
X101000000Y-111000000D03*
X102000000Y-134000000D03*
X67000000Y-105000000D03*
X141000000Y-141000000D03*
X74000000Y-114000000D03*
X61000000Y-139000000D03*
X86000000Y-148000000D03*
X61000000Y-127000000D03*
X91000000Y-75000000D03*
X81000000Y-111000000D03*
X66000000Y-68000000D03*
X77000000Y-129000000D03*
X147000000Y-71000000D03*
X104000000Y-118000000D03*
X51000000Y-127000000D03*
X100000000Y-52000000D03*
X81000000Y-105000000D03*
X106000000Y-132000000D03*
X106000000Y-94000000D03*
X109000000Y-61000000D03*
X84000000Y-142000000D03*
X91000000Y-91000000D03*
X56000000Y-120000000D03*
X149000000Y-121000000D03*
X101000000Y-113000000D03*
X124000000Y-88000000D03*
X83000000Y-121000000D03*
X106000000Y-82000000D03*
X74000000Y-90000000D03*
X108000000Y-112000000D03*
X102000000Y-108000000D03*
X126000000Y-68000000D03*
X100000000Y-120000000D03*
X99000000Y-97000000D03*
X87000000Y-113000000D03*
X65000000Y-83000000D03*
X127000000Y-99000000D03*
X89000000Y-111000000D03*
X78000000Y-122000000D03*
X143000000Y-69000000D03*
X139000000Y-69000000D03*
X105000000Y-133000000D03*
X63000000Y-121000000D03*
X121000000Y-123000000D03*
X109000000Y-105000000D03*
X146000000Y-58000000D03*
X129000000Y-95000000D03*
X94000000Y-98000000D03*
X112000000Y-84000000D03*
X63000000Y-83000000D03*
X122000000Y-116000000D03*
X81000000Y-81000000D03*
X95000000Y-57000000D03*
X101000000Y-141000000D03*
X149000000Y-133000000D03*
X96000000Y-148000000D03*
X126000000Y-110000000D03*
X143000000Y-113000000D03*
X94000000Y-64000000D03*
X113000000Y-119000000D03*
X143000000Y-87000000D03*
X63000000Y-85000000D03*
X103000000Y-91000000D03*
X107000000Y-73000000D03*
X101000000Y-135000000D03*
X129000000Y-131000000D03*
X133000000Y-97000000D03*
X142000000Y-98000000D03*
X138000000Y-140000000D03*
X117000000Y-67000000D03*
X115000000Y-53000000D03*
X84000000Y-144000000D03*
X125000000Y-111000000D03*
X117000000Y-79000000D03*
X134000000Y-126000000D03*
X105000000Y-93000000D03*
X85000000Y-119000000D03*
X84000000Y-116000000D03*
X93000000Y-89000000D03*
X95000000Y-85000000D03*
X136000000Y-144000000D03*
X148000000Y-72000000D03*
X135000000Y-93000000D03*
X71000000Y-115000000D03*
X119000000Y-113000000D03*
X125000000Y-87000000D03*
X62000000Y-82000000D03*
X52000000Y-78000000D03*
X79000000Y-97000000D03*
X95000000Y-75000000D03*
X56000000Y-52000000D03*
X73000000Y-107000000D03*
X58000000Y-110000000D03*
X65000000Y-91000000D03*
X94000000Y-120000000D03*
X142000000Y-62000000D03*
X149000000Y-97000000D03*
X94000000Y-80000000D03*
X92000000Y-98000000D03*
X134000000Y-78000000D03*
X119000000Y-97000000D03*
X56000000Y-90000000D03*
X53000000Y-89000000D03*
X122000000Y-92000000D03*
X75000000Y-99000000D03*
X103000000Y-69000000D03*
X144000000Y-62000000D03*
X68000000Y-138000000D03*
X63000000Y-61000000D03*
X93000000Y-63000000D03*
X78000000Y-80000000D03*
X98000000Y-78000000D03*
X69000000Y-117000000D03*
X84000000Y-74000000D03*
X92000000Y-90000000D03*
X89000000Y-131000000D03*
X84000000Y-96000000D03*
X105000000Y-95000000D03*
X133000000Y-125000000D03*
X124000000Y-126000000D03*
X97000000Y-73000000D03*
X96000000Y-62000000D03*
X125000000Y-129000000D03*
X118000000Y-132000000D03*
X105000000Y-97000000D03*
X106000000Y-128000000D03*
X84000000Y-140000000D03*
X101000000Y-115000000D03*
X97000000Y-59000000D03*
X64000000Y-94000000D03*
X116000000Y-102000000D03*
X104000000Y-76000000D03*
X135000000Y-127000000D03*
X58000000Y-122000000D03*
X138000000Y-82000000D03*
X125000000Y-69000000D03*
X138000000Y-60000000D03*
X123000000Y-99000000D03*
X56000000Y-88000000D03*
X125000000Y-119000000D03*
X54000000Y-86000000D03*
X65000000Y-81000000D03*
X68000000Y-76000000D03*
X98000000Y-90000000D03*
X82000000Y-80000000D03*
X59000000Y-125000000D03*
X116000000Y-68000000D03*
X113000000Y-97000000D03*
X98000000Y-72000000D03*
X69000000Y-83000000D03*
X146000000Y-96000000D03*
X146000000Y-122000000D03*
X148000000Y-100000000D03*
X131000000Y-67000000D03*
X72000000Y-112000000D03*
X82000000Y-114000000D03*
X51000000Y-53000000D03*
X54000000Y-114000000D03*
X79000000Y-51000000D03*
X81000000Y-59000000D03*
X144000000Y-108000000D03*
X103000000Y-123000000D03*
X127000000Y-75000000D03*
X62000000Y-102000000D03*
X123000000Y-121000000D03*
X142000000Y-64000000D03*
X65000000Y-85000000D03*
X51000000Y-85000000D03*
X117000000Y-63000000D03*
X85000000Y-123000000D03*
X146000000Y-102000000D03*
X138000000Y-90000000D03*
X102000000Y-116000000D03*
X67000000Y-69000000D03*
X101000000Y-149000000D03*
X100000000Y-86000000D03*
X57000000Y-111000000D03*
X91000000Y-79000000D03*
X137000000Y-83000000D03*
X131000000Y-133000000D03*
X98000000Y-84000000D03*
X126000000Y-66000000D03*
X93000000Y-127000000D03*
X57000000Y-71000000D03*
X104000000Y-84000000D03*
X67000000Y-127000000D03*
X82000000Y-96000000D03*
X149000000Y-109000000D03*
X101000000Y-139000000D03*
X146000000Y-138000000D03*
X122000000Y-114000000D03*
X56000000Y-76000000D03*
X127000000Y-121000000D03*
X117000000Y-125000000D03*
X52000000Y-148000000D03*
X148000000Y-104000000D03*
X136000000Y-118000000D03*
X59000000Y-113000000D03*
X52000000Y-144000000D03*
X86000000Y-144000000D03*
X124000000Y-74000000D03*
X88000000Y-94000000D03*
X144000000Y-94000000D03*
X69000000Y-85000000D03*
X94000000Y-144000000D03*
X138000000Y-84000000D03*
X113000000Y-91000000D03*
X147000000Y-77000000D03*
X134000000Y-144000000D03*
X139000000Y-59000000D03*
X77000000Y-113000000D03*
X119000000Y-137000000D03*
X76000000Y-78000000D03*
X118000000Y-74000000D03*
X103000000Y-99000000D03*
X121000000Y-75000000D03*
X135000000Y-95000000D03*
X61000000Y-141000000D03*
X126000000Y-122000000D03*
X77000000Y-79000000D03*
X129000000Y-69000000D03*
X147000000Y-141000000D03*
X143000000Y-101000000D03*
X52000000Y-110000000D03*
X100000000Y-106000000D03*
X135000000Y-109000000D03*
X113000000Y-131000000D03*
X72000000Y-88000000D03*
X100000000Y-100000000D03*
X146000000Y-110000000D03*
X77000000Y-123000000D03*
X94000000Y-118000000D03*
X101000000Y-97000000D03*
X86000000Y-124000000D03*
X89000000Y-119000000D03*
X76000000Y-136000000D03*
X100000000Y-98000000D03*
X123000000Y-63000000D03*
X89000000Y-137000000D03*
X137000000Y-133000000D03*
X105000000Y-137000000D03*
X136000000Y-52000000D03*
X96000000Y-108000000D03*
X54000000Y-62000000D03*
X88000000Y-114000000D03*
X102000000Y-146000000D03*
X94000000Y-76000000D03*
X58000000Y-136000000D03*
X55000000Y-105000000D03*
X145000000Y-129000000D03*
X81000000Y-61000000D03*
X62000000Y-70000000D03*
X77000000Y-61000000D03*
X103000000Y-135000000D03*
X53000000Y-133000000D03*
X95000000Y-137000000D03*
X95000000Y-143000000D03*
X77000000Y-107000000D03*
X106000000Y-136000000D03*
X104000000Y-124000000D03*
X138000000Y-98000000D03*
X57000000Y-137000000D03*
X55000000Y-133000000D03*
X64000000Y-134000000D03*
X58000000Y-134000000D03*
X146000000Y-74000000D03*
X81000000Y-65000000D03*
X128000000Y-66000000D03*
X98000000Y-148000000D03*
X76000000Y-148000000D03*
X62000000Y-84000000D03*
X56000000Y-66000000D03*
X72000000Y-76000000D03*
X82000000Y-112000000D03*
X109000000Y-129000000D03*
X52000000Y-70000000D03*
X67000000Y-141000000D03*
X71000000Y-73000000D03*
X69000000Y-99000000D03*
X67000000Y-81000000D03*
X99000000Y-129000000D03*
X134000000Y-74000000D03*
X95000000Y-53000000D03*
X65000000Y-101000000D03*
X128000000Y-112000000D03*
X76000000Y-68000000D03*
X102000000Y-94000000D03*
X141000000Y-77000000D03*
X85000000Y-91000000D03*
X86000000Y-72000000D03*
X56000000Y-74000000D03*
X113000000Y-69000000D03*
X145000000Y-97000000D03*
X113000000Y-93000000D03*
X93000000Y-117000000D03*
X117000000Y-123000000D03*
X99000000Y-75000000D03*
X96000000Y-102000000D03*
X99000000Y-127000000D03*
X136000000Y-116000000D03*
X138000000Y-102000000D03*
X64000000Y-118000000D03*
X107000000Y-61000000D03*
X74000000Y-58000000D03*
X114000000Y-94000000D03*
X99000000Y-109000000D03*
X57000000Y-93000000D03*
X113000000Y-95000000D03*
X63000000Y-123000000D03*
X137000000Y-91000000D03*
X146000000Y-62000000D03*
X67000000Y-103000000D03*
X101000000Y-69000000D03*
X83000000Y-139000000D03*
X117000000Y-97000000D03*
X87000000Y-121000000D03*
X62000000Y-132000000D03*
X67000000Y-67000000D03*
X118000000Y-70000000D03*
X83000000Y-93000000D03*
X123000000Y-127000000D03*
X92000000Y-82000000D03*
X121000000Y-71000000D03*
X106000000Y-74000000D03*
X62000000Y-126000000D03*
X134000000Y-82000000D03*
X103000000Y-85000000D03*
X95000000Y-87000000D03*
X86000000Y-130000000D03*
X148000000Y-60000000D03*
X136000000Y-60000000D03*
X75000000Y-53000000D03*
X83000000Y-85000000D03*
X148000000Y-122000000D03*
X138000000Y-88000000D03*
X107000000Y-65000000D03*
X111000000Y-83000000D03*
X133000000Y-101000000D03*
X66000000Y-54000000D03*
X66000000Y-126000000D03*
X52000000Y-130000000D03*
X91000000Y-87000000D03*
X124000000Y-56000000D03*
X112000000Y-78000000D03*
X93000000Y-119000000D03*
X64000000Y-108000000D03*
X133000000Y-91000000D03*
X100000000Y-140000000D03*
X124000000Y-142000000D03*
X69000000Y-149000000D03*
X91000000Y-85000000D03*
X53000000Y-121000000D03*
X132000000Y-78000000D03*
X54000000Y-134000000D03*
X119000000Y-85000000D03*
X122000000Y-98000000D03*
X149000000Y-113000000D03*
X124000000Y-78000000D03*
X98000000Y-92000000D03*
X109000000Y-63000000D03*
X121000000Y-81000000D03*
X96000000Y-88000000D03*
X88000000Y-120000000D03*
X58000000Y-106000000D03*
X139000000Y-113000000D03*
X119000000Y-95000000D03*
X92000000Y-126000000D03*
X76000000Y-74000000D03*
X98000000Y-118000000D03*
X102000000Y-120000000D03*
X105000000Y-119000000D03*
X76000000Y-76000000D03*
X96000000Y-80000000D03*
X104000000Y-138000000D03*
X126000000Y-128000000D03*
X83000000Y-135000000D03*
X73000000Y-61000000D03*
X136000000Y-142000000D03*
X94000000Y-142000000D03*
X117000000Y-51000000D03*
X118000000Y-66000000D03*
X81000000Y-113000000D03*
X82000000Y-76000000D03*
X59000000Y-141000000D03*
X101000000Y-101000000D03*
X125000000Y-117000000D03*
X97000000Y-143000000D03*
X118000000Y-80000000D03*
X116000000Y-58000000D03*
X104000000Y-70000000D03*
X124000000Y-98000000D03*
X100000000Y-64000000D03*
X63000000Y-125000000D03*
X86000000Y-146000000D03*
X66000000Y-78000000D03*
X127000000Y-133000000D03*
X102000000Y-72000000D03*
X79000000Y-117000000D03*
X147000000Y-67000000D03*
X82000000Y-104000000D03*
X88000000Y-118000000D03*
X63000000Y-77000000D03*
X135000000Y-51000000D03*
X148000000Y-134000000D03*
X85000000Y-55000000D03*
X71000000Y-77000000D03*
X105000000Y-75000000D03*
X55000000Y-137000000D03*
X142000000Y-86000000D03*
X56000000Y-144000000D03*
X124000000Y-60000000D03*
X144000000Y-118000000D03*
X106000000Y-56000000D03*
X143000000Y-107000000D03*
X58000000Y-78000000D03*
X132000000Y-96000000D03*
X125000000Y-145000000D03*
X79000000Y-109000000D03*
X91000000Y-133000000D03*
X123000000Y-67000000D03*
X74000000Y-148000000D03*
X72000000Y-106000000D03*
X81000000Y-117000000D03*
X76000000Y-90000000D03*
X99000000Y-149000000D03*
X67000000Y-101000000D03*
X143000000Y-129000000D03*
X57000000Y-105000000D03*
X69000000Y-77000000D03*
X144000000Y-78000000D03*
X111000000Y-111000000D03*
X141000000Y-71000000D03*
X143000000Y-135000000D03*
X83000000Y-73000000D03*
X121000000Y-73000000D03*
X94000000Y-104000000D03*
X108000000Y-140000000D03*
X100000000Y-146000000D03*
X52000000Y-104000000D03*
X145000000Y-67000000D03*
X94000000Y-66000000D03*
X121000000Y-149000000D03*
X86000000Y-106000000D03*
X85000000Y-77000000D03*
X134000000Y-130000000D03*
X63000000Y-139000000D03*
X111000000Y-77000000D03*
X139000000Y-89000000D03*
X126000000Y-130000000D03*
X113000000Y-117000000D03*
X86000000Y-108000000D03*
X92000000Y-120000000D03*
X107000000Y-125000000D03*
X117000000Y-87000000D03*
X109000000Y-133000000D03*
X77000000Y-135000000D03*
X149000000Y-149000000D03*
X56000000Y-104000000D03*
X115000000Y-123000000D03*
X68000000Y-70000000D03*
X94000000Y-56000000D03*
X51000000Y-141000000D03*
X68000000Y-88000000D03*
X112000000Y-118000000D03*
X95000000Y-141000000D03*
X142000000Y-140000000D03*
X121000000Y-133000000D03*
X131000000Y-139000000D03*
X61000000Y-91000000D03*
X64000000Y-68000000D03*
X95000000Y-113000000D03*
X75000000Y-81000000D03*
X97000000Y-91000000D03*
X56000000Y-108000000D03*
X74000000Y-80000000D03*
X139000000Y-77000000D03*
X54000000Y-52000000D03*
X124000000Y-120000000D03*
X98000000Y-142000000D03*
X74000000Y-130000000D03*
X102000000Y-112000000D03*
X146000000Y-132000000D03*
X137000000Y-121000000D03*
X81000000Y-137000000D03*
X113000000Y-113000000D03*
X76000000Y-104000000D03*
X59000000Y-111000000D03*
X122000000Y-112000000D03*
X132000000Y-112000000D03*
X137000000Y-59000000D03*
X96000000Y-74000000D03*
X115000000Y-145000000D03*
X148000000Y-86000000D03*
X59000000Y-149000000D03*
X142000000Y-108000000D03*
X94000000Y-146000000D03*
X148000000Y-58000000D03*
X95000000Y-111000000D03*
X51000000Y-75000000D03*
X143000000Y-95000000D03*
X131000000Y-87000000D03*
X86000000Y-82000000D03*
X127000000Y-81000000D03*
X118000000Y-106000000D03*
X149000000Y-85000000D03*
X113000000Y-133000000D03*
X118000000Y-62000000D03*
X148000000Y-98000000D03*
X69000000Y-75000000D03*
X52000000Y-60000000D03*
X62000000Y-128000000D03*
X128000000Y-104000000D03*
X131000000Y-77000000D03*
X69000000Y-111000000D03*
X118000000Y-84000000D03*
X51000000Y-57000000D03*
X144000000Y-110000000D03*
X57000000Y-65000000D03*
X134000000Y-118000000D03*
X100000000Y-68000000D03*
X89000000Y-81000000D03*
X134000000Y-136000000D03*
X115000000Y-67000000D03*
X52000000Y-92000000D03*
X112000000Y-62000000D03*
X85000000Y-97000000D03*
X91000000Y-117000000D03*
X74000000Y-120000000D03*
X102000000Y-148000000D03*
X54000000Y-98000000D03*
X63000000Y-93000000D03*
X88000000Y-88000000D03*
X83000000Y-51000000D03*
X93000000Y-77000000D03*
X63000000Y-101000000D03*
X121000000Y-65000000D03*
X95000000Y-101000000D03*
X61000000Y-115000000D03*
X128000000Y-62000000D03*
X83000000Y-59000000D03*
X83000000Y-115000000D03*
X54000000Y-148000000D03*
X59000000Y-73000000D03*
X104000000Y-106000000D03*
X101000000Y-59000000D03*
X99000000Y-115000000D03*
X89000000Y-97000000D03*
X137000000Y-77000000D03*
X75000000Y-97000000D03*
X72000000Y-90000000D03*
X89000000Y-93000000D03*
X51000000Y-59000000D03*
X55000000Y-111000000D03*
X84000000Y-64000000D03*
X91000000Y-121000000D03*
X148000000Y-128000000D03*
X119000000Y-73000000D03*
X115000000Y-119000000D03*
X115000000Y-65000000D03*
X133000000Y-133000000D03*
X69000000Y-115000000D03*
X68000000Y-110000000D03*
X106000000Y-102000000D03*
X126000000Y-102000000D03*
X65000000Y-93000000D03*
X145000000Y-71000000D03*
X117000000Y-111000000D03*
X117000000Y-113000000D03*
X57000000Y-63000000D03*
X119000000Y-131000000D03*
X115000000Y-129000000D03*
X72000000Y-114000000D03*
X149000000Y-117000000D03*
X56000000Y-126000000D03*
X72000000Y-62000000D03*
X84000000Y-72000000D03*
X101000000Y-55000000D03*
X100000000Y-88000000D03*
X137000000Y-149000000D03*
X82000000Y-86000000D03*
X99000000Y-147000000D03*
X96000000Y-52000000D03*
X97000000Y-99000000D03*
X115000000Y-117000000D03*
X56000000Y-134000000D03*
X54000000Y-80000000D03*
X98000000Y-98000000D03*
X98000000Y-108000000D03*
X141000000Y-117000000D03*
X119000000Y-81000000D03*
X77000000Y-83000000D03*
X142000000Y-138000000D03*
X95000000Y-51000000D03*
X127000000Y-93000000D03*
X84000000Y-112000000D03*
X141000000Y-103000000D03*
X82000000Y-74000000D03*
X127000000Y-109000000D03*
X106000000Y-144000000D03*
X122000000Y-122000000D03*
X118000000Y-118000000D03*
X67000000Y-73000000D03*
X134000000Y-100000000D03*
X71000000Y-131000000D03*
X67000000Y-87000000D03*
X53000000Y-109000000D03*
X73000000Y-113000000D03*
X69000000Y-89000000D03*
X127000000Y-91000000D03*
X103000000Y-53000000D03*
X135000000Y-143000000D03*
X108000000Y-108000000D03*
X51000000Y-95000000D03*
X67000000Y-83000000D03*
X105000000Y-89000000D03*
X54000000Y-144000000D03*
X99000000Y-69000000D03*
X119000000Y-121000000D03*
X55000000Y-71000000D03*
X52000000Y-80000000D03*
%TD*%
D16*
%TO.N,Net-(AE1-PCB_Trace)*%
X70000000Y-145000000D02*
X70000000Y-55000000D01*
%TO.N,Net-(AE2-PCB_Trace)*%
X90000000Y-145000000D02*
X90000000Y-55000000D01*
%TO.N,Net-(J1-In)*%
X60000000Y-55000000D02*
X60000000Y-145000000D01*
D17*
%TO.N,Net-(J10-In)*%
X110000000Y-55000000D02*
X110000000Y-145000000D01*
%TO.N,Net-(AE3-PCB_Trace)*%
X120000000Y-145000000D02*
X120000000Y-55000000D01*
%TO.N,Net-(AE4-PCB_Trace)*%
X140000000Y-145000000D02*
X140000000Y-55000000D01*
%TO.N,Net-(J13-In)*%
X130000000Y-55000000D02*
X130000000Y-145000000D01*
D16*
%TO.N,Net-(J5-In)*%
X80000000Y-55000000D02*
X80000000Y-145000000D01*
%TD*%
%TA.AperFunction,Conductor*%
%TO.N,GND*%
G36*
X149442539Y-50520185D02*
G01*
X149488294Y-50572989D01*
X149499500Y-50624500D01*
X149499500Y-149375500D01*
X149479815Y-149442539D01*
X149427011Y-149488294D01*
X149375500Y-149499500D01*
X50624500Y-149499500D01*
X50557461Y-149479815D01*
X50511706Y-149427011D01*
X50500500Y-149375500D01*
X50500500Y-135250000D01*
X58210069Y-135250000D01*
X58212832Y-135285122D01*
X58212833Y-135285128D01*
X58257592Y-135439188D01*
X58257593Y-135439191D01*
X58339261Y-135577285D01*
X58339268Y-135577294D01*
X58452705Y-135690731D01*
X58452714Y-135690738D01*
X58590805Y-135772404D01*
X58730000Y-135812844D01*
X58730000Y-135250000D01*
X58210069Y-135250000D01*
X50500500Y-135250000D01*
X50500500Y-134750000D01*
X58210069Y-134750000D01*
X58730000Y-134750000D01*
X58730000Y-134187154D01*
X58729998Y-134187153D01*
X58590811Y-134227591D01*
X58590808Y-134227593D01*
X58452714Y-134309261D01*
X58452705Y-134309268D01*
X58339268Y-134422705D01*
X58339261Y-134422714D01*
X58257593Y-134560808D01*
X58257592Y-134560811D01*
X58212833Y-134714871D01*
X58212832Y-134714877D01*
X58210069Y-134750000D01*
X50500500Y-134750000D01*
X50500500Y-54999993D01*
X58629820Y-54999993D01*
X58629820Y-55000006D01*
X58648506Y-55225520D01*
X58704059Y-55444897D01*
X58794962Y-55652133D01*
X58918732Y-55841579D01*
X59072004Y-56008076D01*
X59072008Y-56008079D01*
X59250574Y-56147063D01*
X59250585Y-56147070D01*
X59409117Y-56232863D01*
X59458708Y-56282082D01*
X59474100Y-56341918D01*
X59474100Y-134092919D01*
X59454415Y-134159958D01*
X59401611Y-134205713D01*
X59332453Y-134215657D01*
X59315505Y-134211995D01*
X59230001Y-134187153D01*
X59230000Y-134187154D01*
X59230000Y-134739591D01*
X59229618Y-134749316D01*
X59229500Y-134750803D01*
X59229500Y-135249170D01*
X59229501Y-135249182D01*
X59229618Y-135250663D01*
X59230000Y-135260393D01*
X59230000Y-135812843D01*
X59315506Y-135788003D01*
X59385375Y-135788203D01*
X59444045Y-135826146D01*
X59472888Y-135889784D01*
X59474100Y-135907080D01*
X59474100Y-143658082D01*
X59454415Y-143725121D01*
X59409117Y-143767137D01*
X59250585Y-143852929D01*
X59250574Y-143852936D01*
X59072008Y-143991920D01*
X59072004Y-143991923D01*
X58918732Y-144158420D01*
X58794962Y-144347866D01*
X58704059Y-144555102D01*
X58648506Y-144774479D01*
X58629820Y-144999993D01*
X58629820Y-145000006D01*
X58648506Y-145225520D01*
X58704059Y-145444897D01*
X58794962Y-145652133D01*
X58918732Y-145841579D01*
X59072004Y-146008076D01*
X59072008Y-146008079D01*
X59250574Y-146147063D01*
X59250581Y-146147067D01*
X59250583Y-146147069D01*
X59449605Y-146254774D01*
X59560746Y-146292929D01*
X59663637Y-146328252D01*
X59663639Y-146328252D01*
X59663641Y-146328253D01*
X59886851Y-146365500D01*
X59886852Y-146365500D01*
X60113148Y-146365500D01*
X60113149Y-146365500D01*
X60336359Y-146328253D01*
X60550395Y-146254774D01*
X60749417Y-146147069D01*
X60927998Y-146008074D01*
X61081265Y-145841582D01*
X61205037Y-145652134D01*
X61295940Y-145444897D01*
X61351493Y-145225524D01*
X61370180Y-145000000D01*
X61370180Y-144999993D01*
X61351493Y-144774479D01*
X61351493Y-144774476D01*
X61295940Y-144555103D01*
X61205037Y-144347866D01*
X61081267Y-144158420D01*
X60927995Y-143991923D01*
X60927991Y-143991920D01*
X60749425Y-143852936D01*
X60749414Y-143852929D01*
X60590883Y-143767137D01*
X60541292Y-143717918D01*
X60525900Y-143658082D01*
X60525900Y-135744196D01*
X60545585Y-135677157D01*
X60562219Y-135656515D01*
X60641130Y-135577603D01*
X60641135Y-135577598D01*
X60722869Y-135439393D01*
X60767665Y-135285204D01*
X60770500Y-135249181D01*
X60770499Y-134750820D01*
X60767665Y-134714796D01*
X60722869Y-134560607D01*
X60641135Y-134422402D01*
X60641133Y-134422400D01*
X60641130Y-134422396D01*
X60562219Y-134343485D01*
X60538465Y-134299983D01*
X65999500Y-134299983D01*
X65999500Y-135700001D01*
X65999501Y-135700018D01*
X66010000Y-135802796D01*
X66010001Y-135802799D01*
X66044557Y-135907080D01*
X66065186Y-135969334D01*
X66157288Y-136118656D01*
X66281344Y-136242712D01*
X66430666Y-136334814D01*
X66597203Y-136389999D01*
X66699991Y-136400500D01*
X67500008Y-136400499D01*
X67500016Y-136400498D01*
X67500019Y-136400498D01*
X67564109Y-136393951D01*
X67602797Y-136389999D01*
X67769334Y-136334814D01*
X67918656Y-136242712D01*
X68042712Y-136118656D01*
X68134814Y-135969334D01*
X68189999Y-135802797D01*
X68200500Y-135700009D01*
X68200499Y-134299992D01*
X68197282Y-134268504D01*
X68189999Y-134197203D01*
X68189998Y-134197200D01*
X68176434Y-134156268D01*
X68134814Y-134030666D01*
X68042712Y-133881344D01*
X67918656Y-133757288D01*
X67769334Y-133665186D01*
X67602797Y-133610001D01*
X67602795Y-133610000D01*
X67500010Y-133599500D01*
X66699998Y-133599500D01*
X66699980Y-133599501D01*
X66597203Y-133610000D01*
X66597200Y-133610001D01*
X66430668Y-133665185D01*
X66430663Y-133665187D01*
X66281342Y-133757289D01*
X66157289Y-133881342D01*
X66065187Y-134030663D01*
X66065186Y-134030666D01*
X66010001Y-134197203D01*
X66010001Y-134197204D01*
X66010000Y-134197204D01*
X65999500Y-134299983D01*
X60538465Y-134299983D01*
X60528734Y-134282162D01*
X60525900Y-134255804D01*
X60525900Y-56341918D01*
X60545585Y-56274879D01*
X60590883Y-56232863D01*
X60603583Y-56225990D01*
X60749417Y-56147069D01*
X60927998Y-56008074D01*
X61081265Y-55841582D01*
X61205037Y-55652134D01*
X61295940Y-55444897D01*
X61351493Y-55225524D01*
X61370180Y-55000000D01*
X61370180Y-54999993D01*
X68629820Y-54999993D01*
X68629820Y-55000006D01*
X68648506Y-55225520D01*
X68704059Y-55444897D01*
X68794962Y-55652133D01*
X68918732Y-55841579D01*
X69072004Y-56008076D01*
X69072008Y-56008079D01*
X69250574Y-56147063D01*
X69250585Y-56147070D01*
X69409117Y-56232863D01*
X69458708Y-56282082D01*
X69474100Y-56341918D01*
X69474100Y-133528115D01*
X69454415Y-133595154D01*
X69401611Y-133640909D01*
X69389105Y-133645821D01*
X69330666Y-133665186D01*
X69181342Y-133757289D01*
X69057289Y-133881342D01*
X68965187Y-134030663D01*
X68965186Y-134030666D01*
X68910001Y-134197203D01*
X68910001Y-134197204D01*
X68910000Y-134197204D01*
X68899500Y-134299983D01*
X68899500Y-135700001D01*
X68899501Y-135700018D01*
X68910000Y-135802796D01*
X68910001Y-135802799D01*
X68944557Y-135907080D01*
X68965186Y-135969334D01*
X69057288Y-136118656D01*
X69181344Y-136242712D01*
X69330666Y-136334814D01*
X69389104Y-136354178D01*
X69446549Y-136393951D01*
X69473372Y-136458466D01*
X69474100Y-136471884D01*
X69474100Y-143658082D01*
X69454415Y-143725121D01*
X69409117Y-143767137D01*
X69250585Y-143852929D01*
X69250574Y-143852936D01*
X69072008Y-143991920D01*
X69072004Y-143991923D01*
X68918732Y-144158420D01*
X68794962Y-144347866D01*
X68704059Y-144555102D01*
X68648506Y-144774479D01*
X68629820Y-144999993D01*
X68629820Y-145000006D01*
X68648506Y-145225520D01*
X68704059Y-145444897D01*
X68794962Y-145652133D01*
X68918732Y-145841579D01*
X69072004Y-146008076D01*
X69072008Y-146008079D01*
X69250574Y-146147063D01*
X69250581Y-146147067D01*
X69250583Y-146147069D01*
X69449605Y-146254774D01*
X69560746Y-146292929D01*
X69663637Y-146328252D01*
X69663639Y-146328252D01*
X69663641Y-146328253D01*
X69886851Y-146365500D01*
X69886852Y-146365500D01*
X70113148Y-146365500D01*
X70113149Y-146365500D01*
X70336359Y-146328253D01*
X70550395Y-146254774D01*
X70749417Y-146147069D01*
X70927998Y-146008074D01*
X71081265Y-145841582D01*
X71205037Y-145652134D01*
X71295940Y-145444897D01*
X71351493Y-145225524D01*
X71370180Y-145000000D01*
X71370180Y-144999993D01*
X71351493Y-144774479D01*
X71351493Y-144774476D01*
X71295940Y-144555103D01*
X71205037Y-144347866D01*
X71081267Y-144158420D01*
X70927995Y-143991923D01*
X70927991Y-143991920D01*
X70749425Y-143852936D01*
X70749414Y-143852929D01*
X70590883Y-143767137D01*
X70541292Y-143717918D01*
X70525900Y-143658082D01*
X70525900Y-136471884D01*
X70545585Y-136404845D01*
X70598389Y-136359090D01*
X70610891Y-136354179D01*
X70669334Y-136334814D01*
X70818656Y-136242712D01*
X70942712Y-136118656D01*
X71034814Y-135969334D01*
X71089999Y-135802797D01*
X71100500Y-135700009D01*
X71100500Y-135250000D01*
X78210069Y-135250000D01*
X78212832Y-135285122D01*
X78212833Y-135285128D01*
X78257592Y-135439188D01*
X78257593Y-135439191D01*
X78339261Y-135577285D01*
X78339268Y-135577294D01*
X78452705Y-135690731D01*
X78452714Y-135690738D01*
X78590805Y-135772404D01*
X78730000Y-135812844D01*
X78730000Y-135250000D01*
X78210069Y-135250000D01*
X71100500Y-135250000D01*
X71100499Y-134750000D01*
X78210069Y-134750000D01*
X78730000Y-134750000D01*
X78730000Y-134187154D01*
X78729998Y-134187153D01*
X78590811Y-134227591D01*
X78590808Y-134227593D01*
X78452714Y-134309261D01*
X78452705Y-134309268D01*
X78339268Y-134422705D01*
X78339261Y-134422714D01*
X78257593Y-134560808D01*
X78257592Y-134560811D01*
X78212833Y-134714871D01*
X78212832Y-134714877D01*
X78210069Y-134750000D01*
X71100499Y-134750000D01*
X71100499Y-134299992D01*
X71097282Y-134268504D01*
X71089999Y-134197203D01*
X71089998Y-134197200D01*
X71076434Y-134156268D01*
X71034814Y-134030666D01*
X70942712Y-133881344D01*
X70818656Y-133757288D01*
X70669334Y-133665186D01*
X70610894Y-133645820D01*
X70553450Y-133606048D01*
X70526628Y-133541531D01*
X70525900Y-133528115D01*
X70525900Y-56341918D01*
X70545585Y-56274879D01*
X70590883Y-56232863D01*
X70603583Y-56225990D01*
X70749417Y-56147069D01*
X70927998Y-56008074D01*
X71081265Y-55841582D01*
X71205037Y-55652134D01*
X71295940Y-55444897D01*
X71351493Y-55225524D01*
X71370180Y-55000000D01*
X71370180Y-54999993D01*
X78629820Y-54999993D01*
X78629820Y-55000006D01*
X78648506Y-55225520D01*
X78704059Y-55444897D01*
X78794962Y-55652133D01*
X78918732Y-55841579D01*
X79072004Y-56008076D01*
X79072008Y-56008079D01*
X79250574Y-56147063D01*
X79250585Y-56147070D01*
X79409117Y-56232863D01*
X79458708Y-56282082D01*
X79474100Y-56341918D01*
X79474100Y-134092919D01*
X79454415Y-134159958D01*
X79401611Y-134205713D01*
X79332453Y-134215657D01*
X79315505Y-134211995D01*
X79230001Y-134187153D01*
X79230000Y-134187154D01*
X79230000Y-134739591D01*
X79229618Y-134749316D01*
X79229500Y-134750803D01*
X79229500Y-135249170D01*
X79229501Y-135249182D01*
X79229618Y-135250663D01*
X79230000Y-135260393D01*
X79230000Y-135812843D01*
X79315506Y-135788003D01*
X79385375Y-135788203D01*
X79444045Y-135826146D01*
X79472888Y-135889784D01*
X79474100Y-135907080D01*
X79474100Y-143658082D01*
X79454415Y-143725121D01*
X79409117Y-143767137D01*
X79250585Y-143852929D01*
X79250574Y-143852936D01*
X79072008Y-143991920D01*
X79072004Y-143991923D01*
X78918732Y-144158420D01*
X78794962Y-144347866D01*
X78704059Y-144555102D01*
X78648506Y-144774479D01*
X78629820Y-144999993D01*
X78629820Y-145000006D01*
X78648506Y-145225520D01*
X78704059Y-145444897D01*
X78794962Y-145652133D01*
X78918732Y-145841579D01*
X79072004Y-146008076D01*
X79072008Y-146008079D01*
X79250574Y-146147063D01*
X79250581Y-146147067D01*
X79250583Y-146147069D01*
X79449605Y-146254774D01*
X79560746Y-146292929D01*
X79663637Y-146328252D01*
X79663639Y-146328252D01*
X79663641Y-146328253D01*
X79886851Y-146365500D01*
X79886852Y-146365500D01*
X80113148Y-146365500D01*
X80113149Y-146365500D01*
X80336359Y-146328253D01*
X80550395Y-146254774D01*
X80749417Y-146147069D01*
X80927998Y-146008074D01*
X81081265Y-145841582D01*
X81205037Y-145652134D01*
X81295940Y-145444897D01*
X81351493Y-145225524D01*
X81370180Y-145000000D01*
X81370180Y-144999993D01*
X81351493Y-144774479D01*
X81351493Y-144774476D01*
X81295940Y-144555103D01*
X81205037Y-144347866D01*
X81081267Y-144158420D01*
X80927995Y-143991923D01*
X80927991Y-143991920D01*
X80749425Y-143852936D01*
X80749414Y-143852929D01*
X80590883Y-143767137D01*
X80541292Y-143717918D01*
X80525900Y-143658082D01*
X80525900Y-135744196D01*
X80545585Y-135677157D01*
X80562219Y-135656515D01*
X80641130Y-135577603D01*
X80641135Y-135577598D01*
X80722869Y-135439393D01*
X80767665Y-135285204D01*
X80770500Y-135249181D01*
X80770499Y-134750820D01*
X80767665Y-134714796D01*
X80722869Y-134560607D01*
X80641135Y-134422402D01*
X80641133Y-134422400D01*
X80641130Y-134422396D01*
X80562219Y-134343485D01*
X80538465Y-134299983D01*
X85999500Y-134299983D01*
X85999500Y-135700001D01*
X85999501Y-135700018D01*
X86010000Y-135802796D01*
X86010001Y-135802799D01*
X86044557Y-135907080D01*
X86065186Y-135969334D01*
X86157288Y-136118656D01*
X86281344Y-136242712D01*
X86430666Y-136334814D01*
X86597203Y-136389999D01*
X86699991Y-136400500D01*
X87500008Y-136400499D01*
X87500016Y-136400498D01*
X87500019Y-136400498D01*
X87564109Y-136393951D01*
X87602797Y-136389999D01*
X87769334Y-136334814D01*
X87918656Y-136242712D01*
X88042712Y-136118656D01*
X88134814Y-135969334D01*
X88189999Y-135802797D01*
X88200500Y-135700009D01*
X88200499Y-134299992D01*
X88197282Y-134268504D01*
X88189999Y-134197203D01*
X88189998Y-134197200D01*
X88176434Y-134156268D01*
X88134814Y-134030666D01*
X88042712Y-133881344D01*
X87918656Y-133757288D01*
X87769334Y-133665186D01*
X87602797Y-133610001D01*
X87602795Y-133610000D01*
X87500010Y-133599500D01*
X86699998Y-133599500D01*
X86699980Y-133599501D01*
X86597203Y-133610000D01*
X86597200Y-133610001D01*
X86430668Y-133665185D01*
X86430663Y-133665187D01*
X86281342Y-133757289D01*
X86157289Y-133881342D01*
X86065187Y-134030663D01*
X86065186Y-134030666D01*
X86010001Y-134197203D01*
X86010001Y-134197204D01*
X86010000Y-134197204D01*
X85999500Y-134299983D01*
X80538465Y-134299983D01*
X80528734Y-134282162D01*
X80525900Y-134255804D01*
X80525900Y-56341918D01*
X80545585Y-56274879D01*
X80590883Y-56232863D01*
X80603583Y-56225990D01*
X80749417Y-56147069D01*
X80927998Y-56008074D01*
X81081265Y-55841582D01*
X81205037Y-55652134D01*
X81295940Y-55444897D01*
X81351493Y-55225524D01*
X81370180Y-55000000D01*
X81370180Y-54999993D01*
X88629820Y-54999993D01*
X88629820Y-55000006D01*
X88648506Y-55225520D01*
X88704059Y-55444897D01*
X88794962Y-55652133D01*
X88918732Y-55841579D01*
X89072004Y-56008076D01*
X89072008Y-56008079D01*
X89250574Y-56147063D01*
X89250585Y-56147070D01*
X89409117Y-56232863D01*
X89458708Y-56282082D01*
X89474100Y-56341918D01*
X89474100Y-133528115D01*
X89454415Y-133595154D01*
X89401611Y-133640909D01*
X89389105Y-133645821D01*
X89330666Y-133665186D01*
X89181342Y-133757289D01*
X89057289Y-133881342D01*
X88965187Y-134030663D01*
X88965186Y-134030666D01*
X88910001Y-134197203D01*
X88910001Y-134197204D01*
X88910000Y-134197204D01*
X88899500Y-134299983D01*
X88899500Y-135700001D01*
X88899501Y-135700018D01*
X88910000Y-135802796D01*
X88910001Y-135802799D01*
X88944557Y-135907080D01*
X88965186Y-135969334D01*
X89057288Y-136118656D01*
X89181344Y-136242712D01*
X89330666Y-136334814D01*
X89389104Y-136354178D01*
X89446549Y-136393951D01*
X89473372Y-136458466D01*
X89474100Y-136471884D01*
X89474100Y-143658082D01*
X89454415Y-143725121D01*
X89409117Y-143767137D01*
X89250585Y-143852929D01*
X89250574Y-143852936D01*
X89072008Y-143991920D01*
X89072004Y-143991923D01*
X88918732Y-144158420D01*
X88794962Y-144347866D01*
X88704059Y-144555102D01*
X88648506Y-144774479D01*
X88629820Y-144999993D01*
X88629820Y-145000006D01*
X88648506Y-145225520D01*
X88704059Y-145444897D01*
X88794962Y-145652133D01*
X88918732Y-145841579D01*
X89072004Y-146008076D01*
X89072008Y-146008079D01*
X89250574Y-146147063D01*
X89250581Y-146147067D01*
X89250583Y-146147069D01*
X89449605Y-146254774D01*
X89560746Y-146292929D01*
X89663637Y-146328252D01*
X89663639Y-146328252D01*
X89663641Y-146328253D01*
X89886851Y-146365500D01*
X89886852Y-146365500D01*
X90113148Y-146365500D01*
X90113149Y-146365500D01*
X90336359Y-146328253D01*
X90550395Y-146254774D01*
X90749417Y-146147069D01*
X90927998Y-146008074D01*
X91081265Y-145841582D01*
X91205037Y-145652134D01*
X91295940Y-145444897D01*
X91351493Y-145225524D01*
X91370180Y-145000000D01*
X91370180Y-144999993D01*
X91351493Y-144774479D01*
X91351493Y-144774476D01*
X91295940Y-144555103D01*
X91205037Y-144347866D01*
X91081267Y-144158420D01*
X90927995Y-143991923D01*
X90927991Y-143991920D01*
X90749425Y-143852936D01*
X90749414Y-143852929D01*
X90590883Y-143767137D01*
X90541292Y-143717918D01*
X90525900Y-143658082D01*
X90525900Y-136471884D01*
X90545585Y-136404845D01*
X90598389Y-136359090D01*
X90610891Y-136354179D01*
X90669334Y-136334814D01*
X90818656Y-136242712D01*
X90942712Y-136118656D01*
X91034814Y-135969334D01*
X91089999Y-135802797D01*
X91100500Y-135700009D01*
X91100500Y-135250000D01*
X108210069Y-135250000D01*
X108212832Y-135285122D01*
X108212833Y-135285128D01*
X108257592Y-135439188D01*
X108257593Y-135439191D01*
X108339261Y-135577285D01*
X108339268Y-135577294D01*
X108452705Y-135690731D01*
X108452714Y-135690738D01*
X108590805Y-135772404D01*
X108730000Y-135812844D01*
X108730000Y-135250000D01*
X108210069Y-135250000D01*
X91100500Y-135250000D01*
X91100499Y-134750000D01*
X108210069Y-134750000D01*
X108730000Y-134750000D01*
X108730000Y-134187154D01*
X108729998Y-134187153D01*
X108590811Y-134227591D01*
X108590808Y-134227593D01*
X108452714Y-134309261D01*
X108452705Y-134309268D01*
X108339268Y-134422705D01*
X108339261Y-134422714D01*
X108257593Y-134560808D01*
X108257592Y-134560811D01*
X108212833Y-134714871D01*
X108212832Y-134714877D01*
X108210069Y-134750000D01*
X91100499Y-134750000D01*
X91100499Y-134299992D01*
X91097282Y-134268504D01*
X91089999Y-134197203D01*
X91089998Y-134197200D01*
X91076434Y-134156268D01*
X91034814Y-134030666D01*
X90942712Y-133881344D01*
X90818656Y-133757288D01*
X90669334Y-133665186D01*
X90610894Y-133645820D01*
X90553450Y-133606048D01*
X90526628Y-133541531D01*
X90525900Y-133528115D01*
X90525900Y-56341918D01*
X90545585Y-56274879D01*
X90590883Y-56232863D01*
X90603583Y-56225990D01*
X90749417Y-56147069D01*
X90927998Y-56008074D01*
X91081265Y-55841582D01*
X91205037Y-55652134D01*
X91295940Y-55444897D01*
X91351493Y-55225524D01*
X91370180Y-55000000D01*
X91370180Y-54999993D01*
X108629820Y-54999993D01*
X108629820Y-55000006D01*
X108648506Y-55225520D01*
X108704059Y-55444897D01*
X108794962Y-55652133D01*
X108918732Y-55841579D01*
X109072004Y-56008076D01*
X109072008Y-56008079D01*
X109250574Y-56147063D01*
X109250585Y-56147070D01*
X109396417Y-56225990D01*
X109446008Y-56275209D01*
X109461400Y-56335045D01*
X109461400Y-134089229D01*
X109441715Y-134156268D01*
X109388911Y-134202023D01*
X109319753Y-134211967D01*
X109302805Y-134208305D01*
X109230001Y-134187153D01*
X109230000Y-134187154D01*
X109230000Y-134739591D01*
X109229618Y-134749316D01*
X109229500Y-134750803D01*
X109229500Y-135249170D01*
X109229501Y-135249182D01*
X109229618Y-135250663D01*
X109230000Y-135260393D01*
X109230000Y-135812844D01*
X109302805Y-135791693D01*
X109372674Y-135791892D01*
X109431344Y-135829834D01*
X109460188Y-135893472D01*
X109461400Y-135910769D01*
X109461400Y-143664954D01*
X109441715Y-143731993D01*
X109396418Y-143774009D01*
X109250580Y-143852932D01*
X109250574Y-143852936D01*
X109072008Y-143991920D01*
X109072004Y-143991923D01*
X108918732Y-144158420D01*
X108794962Y-144347866D01*
X108704059Y-144555102D01*
X108648506Y-144774479D01*
X108629820Y-144999993D01*
X108629820Y-145000006D01*
X108648506Y-145225520D01*
X108704059Y-145444897D01*
X108794962Y-145652133D01*
X108918732Y-145841579D01*
X109072004Y-146008076D01*
X109072008Y-146008079D01*
X109250574Y-146147063D01*
X109250581Y-146147067D01*
X109250583Y-146147069D01*
X109449605Y-146254774D01*
X109560746Y-146292929D01*
X109663637Y-146328252D01*
X109663639Y-146328252D01*
X109663641Y-146328253D01*
X109886851Y-146365500D01*
X109886852Y-146365500D01*
X110113148Y-146365500D01*
X110113149Y-146365500D01*
X110336359Y-146328253D01*
X110550395Y-146254774D01*
X110749417Y-146147069D01*
X110927998Y-146008074D01*
X111081265Y-145841582D01*
X111205037Y-145652134D01*
X111295940Y-145444897D01*
X111351493Y-145225524D01*
X111370180Y-145000000D01*
X111370180Y-144999993D01*
X111351493Y-144774479D01*
X111351493Y-144774476D01*
X111295940Y-144555103D01*
X111205037Y-144347866D01*
X111081267Y-144158420D01*
X110927995Y-143991923D01*
X110927991Y-143991920D01*
X110749425Y-143852936D01*
X110749419Y-143852932D01*
X110603582Y-143774009D01*
X110553992Y-143724789D01*
X110538600Y-143664954D01*
X110538600Y-135731495D01*
X110558285Y-135664456D01*
X110574914Y-135643818D01*
X110641135Y-135577598D01*
X110722869Y-135439393D01*
X110767665Y-135285204D01*
X110770500Y-135249181D01*
X110770499Y-134750820D01*
X110767665Y-134714796D01*
X110722869Y-134560607D01*
X110641135Y-134422402D01*
X110641133Y-134422400D01*
X110641130Y-134422396D01*
X110574919Y-134356185D01*
X110544230Y-134299983D01*
X115999500Y-134299983D01*
X115999500Y-135700001D01*
X115999501Y-135700018D01*
X116010000Y-135802796D01*
X116010001Y-135802799D01*
X116044557Y-135907080D01*
X116065186Y-135969334D01*
X116157288Y-136118656D01*
X116281344Y-136242712D01*
X116430666Y-136334814D01*
X116597203Y-136389999D01*
X116699991Y-136400500D01*
X117500008Y-136400499D01*
X117500016Y-136400498D01*
X117500019Y-136400498D01*
X117564109Y-136393951D01*
X117602797Y-136389999D01*
X117769334Y-136334814D01*
X117918656Y-136242712D01*
X118042712Y-136118656D01*
X118134814Y-135969334D01*
X118189999Y-135802797D01*
X118200500Y-135700009D01*
X118200499Y-134299992D01*
X118197282Y-134268504D01*
X118189999Y-134197203D01*
X118189998Y-134197200D01*
X118176434Y-134156268D01*
X118134814Y-134030666D01*
X118042712Y-133881344D01*
X117918656Y-133757288D01*
X117769334Y-133665186D01*
X117602797Y-133610001D01*
X117602795Y-133610000D01*
X117500010Y-133599500D01*
X116699998Y-133599500D01*
X116699980Y-133599501D01*
X116597203Y-133610000D01*
X116597200Y-133610001D01*
X116430668Y-133665185D01*
X116430663Y-133665187D01*
X116281342Y-133757289D01*
X116157289Y-133881342D01*
X116065187Y-134030663D01*
X116065186Y-134030666D01*
X116010001Y-134197203D01*
X116010001Y-134197204D01*
X116010000Y-134197204D01*
X115999500Y-134299983D01*
X110544230Y-134299983D01*
X110541434Y-134294862D01*
X110538600Y-134268504D01*
X110538600Y-56335045D01*
X110558285Y-56268006D01*
X110603583Y-56225990D01*
X110749417Y-56147069D01*
X110927998Y-56008074D01*
X111081265Y-55841582D01*
X111205037Y-55652134D01*
X111295940Y-55444897D01*
X111351493Y-55225524D01*
X111370180Y-55000000D01*
X111370180Y-54999993D01*
X118629820Y-54999993D01*
X118629820Y-55000006D01*
X118648506Y-55225520D01*
X118704059Y-55444897D01*
X118794962Y-55652133D01*
X118918732Y-55841579D01*
X119072004Y-56008076D01*
X119072008Y-56008079D01*
X119250574Y-56147063D01*
X119250585Y-56147070D01*
X119396417Y-56225990D01*
X119446008Y-56275209D01*
X119461400Y-56335045D01*
X119461400Y-133532323D01*
X119441715Y-133599362D01*
X119388911Y-133645117D01*
X119376406Y-133650028D01*
X119330668Y-133665184D01*
X119181342Y-133757289D01*
X119057289Y-133881342D01*
X118965187Y-134030663D01*
X118965186Y-134030666D01*
X118910001Y-134197203D01*
X118910001Y-134197204D01*
X118910000Y-134197204D01*
X118899500Y-134299983D01*
X118899500Y-135700001D01*
X118899501Y-135700018D01*
X118910000Y-135802796D01*
X118910001Y-135802799D01*
X118944557Y-135907080D01*
X118965186Y-135969334D01*
X119057288Y-136118656D01*
X119181344Y-136242712D01*
X119330666Y-136334814D01*
X119376405Y-136349970D01*
X119433848Y-136389741D01*
X119460672Y-136454256D01*
X119461400Y-136467675D01*
X119461400Y-143664954D01*
X119441715Y-143731993D01*
X119396418Y-143774009D01*
X119250580Y-143852932D01*
X119250574Y-143852936D01*
X119072008Y-143991920D01*
X119072004Y-143991923D01*
X118918732Y-144158420D01*
X118794962Y-144347866D01*
X118704059Y-144555102D01*
X118648506Y-144774479D01*
X118629820Y-144999993D01*
X118629820Y-145000006D01*
X118648506Y-145225520D01*
X118704059Y-145444897D01*
X118794962Y-145652133D01*
X118918732Y-145841579D01*
X119072004Y-146008076D01*
X119072008Y-146008079D01*
X119250574Y-146147063D01*
X119250581Y-146147067D01*
X119250583Y-146147069D01*
X119449605Y-146254774D01*
X119560746Y-146292929D01*
X119663637Y-146328252D01*
X119663639Y-146328252D01*
X119663641Y-146328253D01*
X119886851Y-146365500D01*
X119886852Y-146365500D01*
X120113148Y-146365500D01*
X120113149Y-146365500D01*
X120336359Y-146328253D01*
X120550395Y-146254774D01*
X120749417Y-146147069D01*
X120927998Y-146008074D01*
X121081265Y-145841582D01*
X121205037Y-145652134D01*
X121295940Y-145444897D01*
X121351493Y-145225524D01*
X121370180Y-145000000D01*
X121370180Y-144999993D01*
X121351493Y-144774479D01*
X121351493Y-144774476D01*
X121295940Y-144555103D01*
X121205037Y-144347866D01*
X121081267Y-144158420D01*
X120927995Y-143991923D01*
X120927991Y-143991920D01*
X120749425Y-143852936D01*
X120749419Y-143852932D01*
X120603582Y-143774009D01*
X120553992Y-143724789D01*
X120538600Y-143664954D01*
X120538600Y-136467675D01*
X120558285Y-136400636D01*
X120611089Y-136354881D01*
X120623584Y-136349973D01*
X120669334Y-136334814D01*
X120818656Y-136242712D01*
X120942712Y-136118656D01*
X121034814Y-135969334D01*
X121089999Y-135802797D01*
X121100500Y-135700009D01*
X121100500Y-135250000D01*
X128210069Y-135250000D01*
X128212832Y-135285122D01*
X128212833Y-135285128D01*
X128257592Y-135439188D01*
X128257593Y-135439191D01*
X128339261Y-135577285D01*
X128339268Y-135577294D01*
X128452705Y-135690731D01*
X128452714Y-135690738D01*
X128590805Y-135772404D01*
X128730000Y-135812844D01*
X128730000Y-135250000D01*
X128210069Y-135250000D01*
X121100500Y-135250000D01*
X121100499Y-134750000D01*
X128210069Y-134750000D01*
X128730000Y-134750000D01*
X128730000Y-134187154D01*
X128729998Y-134187153D01*
X128590811Y-134227591D01*
X128590808Y-134227593D01*
X128452714Y-134309261D01*
X128452705Y-134309268D01*
X128339268Y-134422705D01*
X128339261Y-134422714D01*
X128257593Y-134560808D01*
X128257592Y-134560811D01*
X128212833Y-134714871D01*
X128212832Y-134714877D01*
X128210069Y-134750000D01*
X121100499Y-134750000D01*
X121100499Y-134299992D01*
X121097282Y-134268504D01*
X121089999Y-134197203D01*
X121089998Y-134197200D01*
X121076434Y-134156268D01*
X121034814Y-134030666D01*
X120942712Y-133881344D01*
X120818656Y-133757288D01*
X120669334Y-133665186D01*
X120669332Y-133665185D01*
X120669330Y-133665184D01*
X120669331Y-133665184D01*
X120623594Y-133650028D01*
X120566150Y-133610255D01*
X120539328Y-133545738D01*
X120538600Y-133532323D01*
X120538600Y-56335045D01*
X120558285Y-56268006D01*
X120603583Y-56225990D01*
X120749417Y-56147069D01*
X120927998Y-56008074D01*
X121081265Y-55841582D01*
X121205037Y-55652134D01*
X121295940Y-55444897D01*
X121351493Y-55225524D01*
X121370180Y-55000000D01*
X121370180Y-54999993D01*
X128629820Y-54999993D01*
X128629820Y-55000006D01*
X128648506Y-55225520D01*
X128704059Y-55444897D01*
X128794962Y-55652133D01*
X128918732Y-55841579D01*
X129072004Y-56008076D01*
X129072008Y-56008079D01*
X129250574Y-56147063D01*
X129250585Y-56147070D01*
X129396417Y-56225990D01*
X129446008Y-56275209D01*
X129461400Y-56335045D01*
X129461400Y-134089229D01*
X129441715Y-134156268D01*
X129388911Y-134202023D01*
X129319753Y-134211967D01*
X129302805Y-134208305D01*
X129230001Y-134187153D01*
X129230000Y-134187154D01*
X129230000Y-134739591D01*
X129229618Y-134749316D01*
X129229500Y-134750803D01*
X129229500Y-135249170D01*
X129229501Y-135249182D01*
X129229618Y-135250663D01*
X129230000Y-135260393D01*
X129230000Y-135812844D01*
X129302805Y-135791693D01*
X129372674Y-135791892D01*
X129431344Y-135829834D01*
X129460188Y-135893472D01*
X129461400Y-135910769D01*
X129461400Y-143664954D01*
X129441715Y-143731993D01*
X129396418Y-143774009D01*
X129250580Y-143852932D01*
X129250574Y-143852936D01*
X129072008Y-143991920D01*
X129072004Y-143991923D01*
X128918732Y-144158420D01*
X128794962Y-144347866D01*
X128704059Y-144555102D01*
X128648506Y-144774479D01*
X128629820Y-144999993D01*
X128629820Y-145000006D01*
X128648506Y-145225520D01*
X128704059Y-145444897D01*
X128794962Y-145652133D01*
X128918732Y-145841579D01*
X129072004Y-146008076D01*
X129072008Y-146008079D01*
X129250574Y-146147063D01*
X129250581Y-146147067D01*
X129250583Y-146147069D01*
X129449605Y-146254774D01*
X129560746Y-146292929D01*
X129663637Y-146328252D01*
X129663639Y-146328252D01*
X129663641Y-146328253D01*
X129886851Y-146365500D01*
X129886852Y-146365500D01*
X130113148Y-146365500D01*
X130113149Y-146365500D01*
X130336359Y-146328253D01*
X130550395Y-146254774D01*
X130749417Y-146147069D01*
X130927998Y-146008074D01*
X131081265Y-145841582D01*
X131205037Y-145652134D01*
X131295940Y-145444897D01*
X131351493Y-145225524D01*
X131370180Y-145000000D01*
X131370180Y-144999993D01*
X131351493Y-144774479D01*
X131351493Y-144774476D01*
X131295940Y-144555103D01*
X131205037Y-144347866D01*
X131081267Y-144158420D01*
X130927995Y-143991923D01*
X130927991Y-143991920D01*
X130749425Y-143852936D01*
X130749419Y-143852932D01*
X130603582Y-143774009D01*
X130553992Y-143724789D01*
X130538600Y-143664954D01*
X130538600Y-135731495D01*
X130558285Y-135664456D01*
X130574914Y-135643818D01*
X130641135Y-135577598D01*
X130722869Y-135439393D01*
X130767665Y-135285204D01*
X130770500Y-135249181D01*
X130770499Y-134750820D01*
X130767665Y-134714796D01*
X130722869Y-134560607D01*
X130641135Y-134422402D01*
X130641133Y-134422400D01*
X130641130Y-134422396D01*
X130574919Y-134356185D01*
X130544230Y-134299983D01*
X135999500Y-134299983D01*
X135999500Y-135700001D01*
X135999501Y-135700018D01*
X136010000Y-135802796D01*
X136010001Y-135802799D01*
X136044557Y-135907080D01*
X136065186Y-135969334D01*
X136157288Y-136118656D01*
X136281344Y-136242712D01*
X136430666Y-136334814D01*
X136597203Y-136389999D01*
X136699991Y-136400500D01*
X137500008Y-136400499D01*
X137500016Y-136400498D01*
X137500019Y-136400498D01*
X137564109Y-136393951D01*
X137602797Y-136389999D01*
X137769334Y-136334814D01*
X137918656Y-136242712D01*
X138042712Y-136118656D01*
X138134814Y-135969334D01*
X138189999Y-135802797D01*
X138200500Y-135700009D01*
X138200499Y-134299992D01*
X138197282Y-134268504D01*
X138189999Y-134197203D01*
X138189998Y-134197200D01*
X138176434Y-134156268D01*
X138134814Y-134030666D01*
X138042712Y-133881344D01*
X137918656Y-133757288D01*
X137769334Y-133665186D01*
X137602797Y-133610001D01*
X137602795Y-133610000D01*
X137500010Y-133599500D01*
X136699998Y-133599500D01*
X136699980Y-133599501D01*
X136597203Y-133610000D01*
X136597200Y-133610001D01*
X136430668Y-133665185D01*
X136430663Y-133665187D01*
X136281342Y-133757289D01*
X136157289Y-133881342D01*
X136065187Y-134030663D01*
X136065186Y-134030666D01*
X136010001Y-134197203D01*
X136010001Y-134197204D01*
X136010000Y-134197204D01*
X135999500Y-134299983D01*
X130544230Y-134299983D01*
X130541434Y-134294862D01*
X130538600Y-134268504D01*
X130538600Y-56335045D01*
X130558285Y-56268006D01*
X130603583Y-56225990D01*
X130749417Y-56147069D01*
X130927998Y-56008074D01*
X131081265Y-55841582D01*
X131205037Y-55652134D01*
X131295940Y-55444897D01*
X131351493Y-55225524D01*
X131370180Y-55000000D01*
X131370180Y-54999993D01*
X138629820Y-54999993D01*
X138629820Y-55000006D01*
X138648506Y-55225520D01*
X138704059Y-55444897D01*
X138794962Y-55652133D01*
X138918732Y-55841579D01*
X139072004Y-56008076D01*
X139072008Y-56008079D01*
X139250574Y-56147063D01*
X139250585Y-56147070D01*
X139396417Y-56225990D01*
X139446008Y-56275209D01*
X139461400Y-56335045D01*
X139461400Y-133532323D01*
X139441715Y-133599362D01*
X139388911Y-133645117D01*
X139376406Y-133650028D01*
X139330668Y-133665184D01*
X139181342Y-133757289D01*
X139057289Y-133881342D01*
X138965187Y-134030663D01*
X138965186Y-134030666D01*
X138910001Y-134197203D01*
X138910001Y-134197204D01*
X138910000Y-134197204D01*
X138899500Y-134299983D01*
X138899500Y-135700001D01*
X138899501Y-135700018D01*
X138910000Y-135802796D01*
X138910001Y-135802799D01*
X138944557Y-135907080D01*
X138965186Y-135969334D01*
X139057288Y-136118656D01*
X139181344Y-136242712D01*
X139330666Y-136334814D01*
X139376405Y-136349970D01*
X139433848Y-136389741D01*
X139460672Y-136454256D01*
X139461400Y-136467675D01*
X139461400Y-143664954D01*
X139441715Y-143731993D01*
X139396418Y-143774009D01*
X139250580Y-143852932D01*
X139250574Y-143852936D01*
X139072008Y-143991920D01*
X139072004Y-143991923D01*
X138918732Y-144158420D01*
X138794962Y-144347866D01*
X138704059Y-144555102D01*
X138648506Y-144774479D01*
X138629820Y-144999993D01*
X138629820Y-145000006D01*
X138648506Y-145225520D01*
X138704059Y-145444897D01*
X138794962Y-145652133D01*
X138918732Y-145841579D01*
X139072004Y-146008076D01*
X139072008Y-146008079D01*
X139250574Y-146147063D01*
X139250581Y-146147067D01*
X139250583Y-146147069D01*
X139449605Y-146254774D01*
X139560746Y-146292929D01*
X139663637Y-146328252D01*
X139663639Y-146328252D01*
X139663641Y-146328253D01*
X139886851Y-146365500D01*
X139886852Y-146365500D01*
X140113148Y-146365500D01*
X140113149Y-146365500D01*
X140336359Y-146328253D01*
X140550395Y-146254774D01*
X140749417Y-146147069D01*
X140927998Y-146008074D01*
X141081265Y-145841582D01*
X141205037Y-145652134D01*
X141295940Y-145444897D01*
X141351493Y-145225524D01*
X141370180Y-145000000D01*
X141370180Y-144999993D01*
X141351493Y-144774479D01*
X141351493Y-144774476D01*
X141295940Y-144555103D01*
X141205037Y-144347866D01*
X141081267Y-144158420D01*
X140927995Y-143991923D01*
X140927991Y-143991920D01*
X140749425Y-143852936D01*
X140749419Y-143852932D01*
X140603582Y-143774009D01*
X140553992Y-143724789D01*
X140538600Y-143664954D01*
X140538600Y-136467675D01*
X140558285Y-136400636D01*
X140611089Y-136354881D01*
X140623584Y-136349973D01*
X140669334Y-136334814D01*
X140818656Y-136242712D01*
X140942712Y-136118656D01*
X141034814Y-135969334D01*
X141089999Y-135802797D01*
X141100500Y-135700009D01*
X141100499Y-134299992D01*
X141097282Y-134268504D01*
X141089999Y-134197203D01*
X141089998Y-134197200D01*
X141076434Y-134156268D01*
X141034814Y-134030666D01*
X140942712Y-133881344D01*
X140818656Y-133757288D01*
X140669334Y-133665186D01*
X140669332Y-133665185D01*
X140669330Y-133665184D01*
X140669331Y-133665184D01*
X140623594Y-133650028D01*
X140566150Y-133610255D01*
X140539328Y-133545738D01*
X140538600Y-133532323D01*
X140538600Y-56335045D01*
X140558285Y-56268006D01*
X140603583Y-56225990D01*
X140749417Y-56147069D01*
X140927998Y-56008074D01*
X141081265Y-55841582D01*
X141205037Y-55652134D01*
X141295940Y-55444897D01*
X141351493Y-55225524D01*
X141370180Y-55000000D01*
X141370180Y-54999993D01*
X141351493Y-54774479D01*
X141351493Y-54774476D01*
X141295940Y-54555103D01*
X141205037Y-54347866D01*
X141081267Y-54158420D01*
X140927995Y-53991923D01*
X140927991Y-53991920D01*
X140749425Y-53852936D01*
X140749414Y-53852929D01*
X140550401Y-53745229D01*
X140550398Y-53745228D01*
X140550395Y-53745226D01*
X140550389Y-53745224D01*
X140550387Y-53745223D01*
X140336362Y-53671747D01*
X140168951Y-53643811D01*
X140113149Y-53634500D01*
X139886851Y-53634500D01*
X139842209Y-53641949D01*
X139663637Y-53671747D01*
X139449612Y-53745223D01*
X139449598Y-53745229D01*
X139250585Y-53852929D01*
X139250574Y-53852936D01*
X139072008Y-53991920D01*
X139072004Y-53991923D01*
X138918732Y-54158420D01*
X138794962Y-54347866D01*
X138704059Y-54555102D01*
X138648506Y-54774479D01*
X138629820Y-54999993D01*
X131370180Y-54999993D01*
X131351493Y-54774479D01*
X131351493Y-54774476D01*
X131295940Y-54555103D01*
X131205037Y-54347866D01*
X131081267Y-54158420D01*
X130927995Y-53991923D01*
X130927991Y-53991920D01*
X130749425Y-53852936D01*
X130749414Y-53852929D01*
X130550401Y-53745229D01*
X130550398Y-53745228D01*
X130550395Y-53745226D01*
X130550389Y-53745224D01*
X130550387Y-53745223D01*
X130336362Y-53671747D01*
X130168951Y-53643811D01*
X130113149Y-53634500D01*
X129886851Y-53634500D01*
X129842209Y-53641949D01*
X129663637Y-53671747D01*
X129449612Y-53745223D01*
X129449598Y-53745229D01*
X129250585Y-53852929D01*
X129250574Y-53852936D01*
X129072008Y-53991920D01*
X129072004Y-53991923D01*
X128918732Y-54158420D01*
X128794962Y-54347866D01*
X128704059Y-54555102D01*
X128648506Y-54774479D01*
X128629820Y-54999993D01*
X121370180Y-54999993D01*
X121351493Y-54774479D01*
X121351493Y-54774476D01*
X121295940Y-54555103D01*
X121205037Y-54347866D01*
X121081267Y-54158420D01*
X120927995Y-53991923D01*
X120927991Y-53991920D01*
X120749425Y-53852936D01*
X120749414Y-53852929D01*
X120550401Y-53745229D01*
X120550398Y-53745228D01*
X120550395Y-53745226D01*
X120550389Y-53745224D01*
X120550387Y-53745223D01*
X120336362Y-53671747D01*
X120168951Y-53643811D01*
X120113149Y-53634500D01*
X119886851Y-53634500D01*
X119842209Y-53641949D01*
X119663637Y-53671747D01*
X119449612Y-53745223D01*
X119449598Y-53745229D01*
X119250585Y-53852929D01*
X119250574Y-53852936D01*
X119072008Y-53991920D01*
X119072004Y-53991923D01*
X118918732Y-54158420D01*
X118794962Y-54347866D01*
X118704059Y-54555102D01*
X118648506Y-54774479D01*
X118629820Y-54999993D01*
X111370180Y-54999993D01*
X111351493Y-54774479D01*
X111351493Y-54774476D01*
X111295940Y-54555103D01*
X111205037Y-54347866D01*
X111081267Y-54158420D01*
X110927995Y-53991923D01*
X110927991Y-53991920D01*
X110749425Y-53852936D01*
X110749414Y-53852929D01*
X110550401Y-53745229D01*
X110550398Y-53745228D01*
X110550395Y-53745226D01*
X110550389Y-53745224D01*
X110550387Y-53745223D01*
X110336362Y-53671747D01*
X110168951Y-53643811D01*
X110113149Y-53634500D01*
X109886851Y-53634500D01*
X109842209Y-53641949D01*
X109663637Y-53671747D01*
X109449612Y-53745223D01*
X109449598Y-53745229D01*
X109250585Y-53852929D01*
X109250574Y-53852936D01*
X109072008Y-53991920D01*
X109072004Y-53991923D01*
X108918732Y-54158420D01*
X108794962Y-54347866D01*
X108704059Y-54555102D01*
X108648506Y-54774479D01*
X108629820Y-54999993D01*
X91370180Y-54999993D01*
X91351493Y-54774479D01*
X91351493Y-54774476D01*
X91295940Y-54555103D01*
X91205037Y-54347866D01*
X91081267Y-54158420D01*
X90927995Y-53991923D01*
X90927991Y-53991920D01*
X90749425Y-53852936D01*
X90749414Y-53852929D01*
X90550401Y-53745229D01*
X90550398Y-53745228D01*
X90550395Y-53745226D01*
X90550389Y-53745224D01*
X90550387Y-53745223D01*
X90336362Y-53671747D01*
X90168951Y-53643811D01*
X90113149Y-53634500D01*
X89886851Y-53634500D01*
X89842209Y-53641949D01*
X89663637Y-53671747D01*
X89449612Y-53745223D01*
X89449598Y-53745229D01*
X89250585Y-53852929D01*
X89250574Y-53852936D01*
X89072008Y-53991920D01*
X89072004Y-53991923D01*
X88918732Y-54158420D01*
X88794962Y-54347866D01*
X88704059Y-54555102D01*
X88648506Y-54774479D01*
X88629820Y-54999993D01*
X81370180Y-54999993D01*
X81351493Y-54774479D01*
X81351493Y-54774476D01*
X81295940Y-54555103D01*
X81205037Y-54347866D01*
X81081267Y-54158420D01*
X80927995Y-53991923D01*
X80927991Y-53991920D01*
X80749425Y-53852936D01*
X80749414Y-53852929D01*
X80550401Y-53745229D01*
X80550398Y-53745228D01*
X80550395Y-53745226D01*
X80550389Y-53745224D01*
X80550387Y-53745223D01*
X80336362Y-53671747D01*
X80168951Y-53643811D01*
X80113149Y-53634500D01*
X79886851Y-53634500D01*
X79842209Y-53641949D01*
X79663637Y-53671747D01*
X79449612Y-53745223D01*
X79449598Y-53745229D01*
X79250585Y-53852929D01*
X79250574Y-53852936D01*
X79072008Y-53991920D01*
X79072004Y-53991923D01*
X78918732Y-54158420D01*
X78794962Y-54347866D01*
X78704059Y-54555102D01*
X78648506Y-54774479D01*
X78629820Y-54999993D01*
X71370180Y-54999993D01*
X71351493Y-54774479D01*
X71351493Y-54774476D01*
X71295940Y-54555103D01*
X71205037Y-54347866D01*
X71081267Y-54158420D01*
X70927995Y-53991923D01*
X70927991Y-53991920D01*
X70749425Y-53852936D01*
X70749414Y-53852929D01*
X70550401Y-53745229D01*
X70550398Y-53745228D01*
X70550395Y-53745226D01*
X70550389Y-53745224D01*
X70550387Y-53745223D01*
X70336362Y-53671747D01*
X70168951Y-53643811D01*
X70113149Y-53634500D01*
X69886851Y-53634500D01*
X69842209Y-53641949D01*
X69663637Y-53671747D01*
X69449612Y-53745223D01*
X69449598Y-53745229D01*
X69250585Y-53852929D01*
X69250574Y-53852936D01*
X69072008Y-53991920D01*
X69072004Y-53991923D01*
X68918732Y-54158420D01*
X68794962Y-54347866D01*
X68704059Y-54555102D01*
X68648506Y-54774479D01*
X68629820Y-54999993D01*
X61370180Y-54999993D01*
X61351493Y-54774479D01*
X61351493Y-54774476D01*
X61295940Y-54555103D01*
X61205037Y-54347866D01*
X61081267Y-54158420D01*
X60927995Y-53991923D01*
X60927991Y-53991920D01*
X60749425Y-53852936D01*
X60749414Y-53852929D01*
X60550401Y-53745229D01*
X60550398Y-53745228D01*
X60550395Y-53745226D01*
X60550389Y-53745224D01*
X60550387Y-53745223D01*
X60336362Y-53671747D01*
X60168951Y-53643811D01*
X60113149Y-53634500D01*
X59886851Y-53634500D01*
X59842209Y-53641949D01*
X59663637Y-53671747D01*
X59449612Y-53745223D01*
X59449598Y-53745229D01*
X59250585Y-53852929D01*
X59250574Y-53852936D01*
X59072008Y-53991920D01*
X59072004Y-53991923D01*
X58918732Y-54158420D01*
X58794962Y-54347866D01*
X58704059Y-54555102D01*
X58648506Y-54774479D01*
X58629820Y-54999993D01*
X50500500Y-54999993D01*
X50500500Y-50624500D01*
X50520185Y-50557461D01*
X50572989Y-50511706D01*
X50624500Y-50500500D01*
X149375500Y-50500500D01*
X149442539Y-50520185D01*
G37*
%TD.AperFunction*%
%TD*%
M02*
