%TF.GenerationSoftware,KiCad,Pcbnew,8.0.3*%
%TF.CreationDate,2024-06-13T14:30:09-05:00*%
%TF.ProjectId,jlcpcb flex RF,6a6c6370-6362-4206-966c-65782052462e,rev?*%
%TF.SameCoordinates,Original*%
%TF.FileFunction,Soldermask,Top*%
%TF.FilePolarity,Negative*%
%FSLAX46Y46*%
G04 Gerber Fmt 4.6, Leading zero omitted, Abs format (unit mm)*
G04 Created by KiCad (PCBNEW 8.0.3) date 2024-06-13 14:30:09*
%MOMM*%
%LPD*%
G01*
G04 APERTURE LIST*
G04 Aperture macros list*
%AMRoundRect*
0 Rectangle with rounded corners*
0 $1 Rounding radius*
0 $2 $3 $4 $5 $6 $7 $8 $9 X,Y pos of 4 corners*
0 Add a 4 corners polygon primitive as box body*
4,1,4,$2,$3,$4,$5,$6,$7,$8,$9,$2,$3,0*
0 Add four circle primitives for the rounded corners*
1,1,$1+$1,$2,$3*
1,1,$1+$1,$4,$5*
1,1,$1+$1,$6,$7*
1,1,$1+$1,$8,$9*
0 Add four rect primitives between the rounded corners*
20,1,$1+$1,$2,$3,$4,$5,0*
20,1,$1+$1,$4,$5,$6,$7,0*
20,1,$1+$1,$6,$7,$8,$9,0*
20,1,$1+$1,$8,$9,$2,$3,0*%
%AMFreePoly0*
4,1,25,-1.500000,1.420000,-1.360000,1.280000,-1.205000,1.155000,-1.035000,1.045000,-0.860000,0.950000,-0.675000,0.875000,-0.480000,0.820000,-0.280000,0.780000,-0.085000,0.765000,0.085000,0.765000,0.280000,0.780000,0.480000,0.820000,0.675000,0.875000,0.860000,0.950000,1.035000,1.045000,1.205000,1.155000,1.360000,1.280000,1.500000,1.420000,1.645000,1.595000,3.555000,1.595000,
3.555000,-0.755000,-3.555000,-0.755000,-3.555000,1.595000,-1.645000,1.595000,-1.500000,1.420000,-1.500000,1.420000,$1*%
G04 Aperture macros list end*
%ADD10RoundRect,0.250000X-0.350000X-0.650000X0.350000X-0.650000X0.350000X0.650000X-0.350000X0.650000X0*%
%ADD11RoundRect,0.135000X0.135000X0.185000X-0.135000X0.185000X-0.135000X-0.185000X0.135000X-0.185000X0*%
%ADD12C,1.730000*%
%ADD13FreePoly0,270.000000*%
%ADD14FreePoly0,90.000000*%
G04 APERTURE END LIST*
D10*
%TO.C,AE2*%
X87100000Y-135000000D03*
X90000000Y-135000000D03*
%TD*%
D11*
%TO.C,R2*%
X130000000Y-135000000D03*
X128980000Y-135000000D03*
%TD*%
D12*
%TO.C,J8*%
X90000000Y-145000000D03*
D13*
X87200000Y-145000000D03*
D14*
X92800000Y-145000000D03*
%TD*%
D10*
%TO.C,AE4*%
X137100000Y-135000000D03*
X140000000Y-135000000D03*
%TD*%
D12*
%TO.C,J16*%
X140000000Y-145000000D03*
D13*
X137200000Y-145000000D03*
D14*
X142800000Y-145000000D03*
%TD*%
D11*
%TO.C,R1*%
X110000000Y-135000000D03*
X108980000Y-135000000D03*
%TD*%
D12*
%TO.C,J9*%
X110000000Y-55000000D03*
D13*
X107200000Y-55000000D03*
D14*
X112800000Y-55000000D03*
%TD*%
D12*
%TO.C,J4*%
X70000000Y-145000000D03*
D13*
X67200000Y-145000000D03*
D14*
X72800000Y-145000000D03*
%TD*%
D12*
%TO.C,J7*%
X90000000Y-55000000D03*
D13*
X87200000Y-55000000D03*
D14*
X92800000Y-55000000D03*
%TD*%
D12*
%TO.C,J3*%
X70000000Y-55000000D03*
D13*
X67200000Y-55000000D03*
D14*
X72800000Y-55000000D03*
%TD*%
D12*
%TO.C,J11*%
X120000000Y-55000000D03*
D13*
X117200000Y-55000000D03*
D14*
X122800000Y-55000000D03*
%TD*%
D12*
%TO.C,J10*%
X110000000Y-145000000D03*
D13*
X107200000Y-145000000D03*
D14*
X112800000Y-145000000D03*
%TD*%
D12*
%TO.C,J14*%
X130000000Y-145000000D03*
D13*
X127200000Y-145000000D03*
D14*
X132800000Y-145000000D03*
%TD*%
D12*
%TO.C,J15*%
X140000000Y-55000000D03*
D13*
X137200000Y-55000000D03*
D14*
X142800000Y-55000000D03*
%TD*%
D10*
%TO.C,AE1*%
X67100000Y-135000000D03*
X70000000Y-135000000D03*
%TD*%
D12*
%TO.C,J12*%
X120000000Y-145000000D03*
D13*
X117200000Y-145000000D03*
D14*
X122800000Y-145000000D03*
%TD*%
D11*
%TO.C,R6*%
X80000000Y-135000000D03*
X78980000Y-135000000D03*
%TD*%
D12*
%TO.C,J6*%
X80000000Y-145000000D03*
D13*
X77200000Y-145000000D03*
D14*
X82800000Y-145000000D03*
%TD*%
D12*
%TO.C,J2*%
X60000000Y-145000000D03*
D13*
X57200000Y-145000000D03*
D14*
X62800000Y-145000000D03*
%TD*%
D11*
%TO.C,R3*%
X60000000Y-135000000D03*
X58980000Y-135000000D03*
%TD*%
D10*
%TO.C,AE3*%
X117100000Y-135000000D03*
X120000000Y-135000000D03*
%TD*%
D12*
%TO.C,J13*%
X130000000Y-55000000D03*
D13*
X127200000Y-55000000D03*
D14*
X132800000Y-55000000D03*
%TD*%
D12*
%TO.C,J1*%
X60000000Y-55000000D03*
D13*
X57200000Y-55000000D03*
D14*
X62800000Y-55000000D03*
%TD*%
D12*
%TO.C,J5*%
X80000000Y-55000000D03*
D13*
X77200000Y-55000000D03*
D14*
X82800000Y-55000000D03*
%TD*%
G36*
X80443039Y-136019685D02*
G01*
X80488794Y-136072489D01*
X80500000Y-136124000D01*
X80500000Y-144876000D01*
X80480315Y-144943039D01*
X80427511Y-144988794D01*
X80376000Y-145000000D01*
X79624000Y-145000000D01*
X79556961Y-144980315D01*
X79511206Y-144927511D01*
X79500000Y-144876000D01*
X79500000Y-136124000D01*
X79519685Y-136056961D01*
X79572489Y-136011206D01*
X79624000Y-136000000D01*
X80376000Y-136000000D01*
X80443039Y-136019685D01*
G37*
G36*
X130443039Y-54519685D02*
G01*
X130488794Y-54572489D01*
X130500000Y-54624000D01*
X130500000Y-133876000D01*
X130480315Y-133943039D01*
X130427511Y-133988794D01*
X130376000Y-134000000D01*
X129624000Y-134000000D01*
X129556961Y-133980315D01*
X129511206Y-133927511D01*
X129500000Y-133876000D01*
X129500000Y-54624000D01*
X129519685Y-54556961D01*
X129572489Y-54511206D01*
X129624000Y-54500000D01*
X130376000Y-54500000D01*
X130443039Y-54519685D01*
G37*
G36*
X90443039Y-55019685D02*
G01*
X90488794Y-55072489D01*
X90500000Y-55124000D01*
X90500000Y-133376000D01*
X90480315Y-133443039D01*
X90427511Y-133488794D01*
X90376000Y-133500000D01*
X89624000Y-133500000D01*
X89556961Y-133480315D01*
X89511206Y-133427511D01*
X89500000Y-133376000D01*
X89500000Y-55124000D01*
X89519685Y-55056961D01*
X89572489Y-55011206D01*
X89624000Y-55000000D01*
X90376000Y-55000000D01*
X90443039Y-55019685D01*
G37*
G36*
X140443039Y-55019685D02*
G01*
X140488794Y-55072489D01*
X140500000Y-55124000D01*
X140500000Y-133376000D01*
X140480315Y-133443039D01*
X140427511Y-133488794D01*
X140376000Y-133500000D01*
X139624000Y-133500000D01*
X139556961Y-133480315D01*
X139511206Y-133427511D01*
X139500000Y-133376000D01*
X139500000Y-55124000D01*
X139519685Y-55056961D01*
X139572489Y-55011206D01*
X139624000Y-55000000D01*
X140376000Y-55000000D01*
X140443039Y-55019685D01*
G37*
G36*
X140443039Y-136519685D02*
G01*
X140488794Y-136572489D01*
X140500000Y-136624000D01*
X140500000Y-144876000D01*
X140480315Y-144943039D01*
X140427511Y-144988794D01*
X140376000Y-145000000D01*
X139624000Y-145000000D01*
X139556961Y-144980315D01*
X139511206Y-144927511D01*
X139500000Y-144876000D01*
X139500000Y-136624000D01*
X139519685Y-136556961D01*
X139572489Y-136511206D01*
X139624000Y-136500000D01*
X140376000Y-136500000D01*
X140443039Y-136519685D01*
G37*
G36*
X130443039Y-136019685D02*
G01*
X130488794Y-136072489D01*
X130500000Y-136124000D01*
X130500000Y-144876000D01*
X130480315Y-144943039D01*
X130427511Y-144988794D01*
X130376000Y-145000000D01*
X129624000Y-145000000D01*
X129556961Y-144980315D01*
X129511206Y-144927511D01*
X129500000Y-144876000D01*
X129500000Y-136124000D01*
X129519685Y-136056961D01*
X129572489Y-136011206D01*
X129624000Y-136000000D01*
X130376000Y-136000000D01*
X130443039Y-136019685D01*
G37*
G36*
X80443039Y-55019685D02*
G01*
X80488794Y-55072489D01*
X80500000Y-55124000D01*
X80500000Y-133876000D01*
X80480315Y-133943039D01*
X80427511Y-133988794D01*
X80376000Y-134000000D01*
X79624000Y-134000000D01*
X79556961Y-133980315D01*
X79511206Y-133927511D01*
X79500000Y-133876000D01*
X79500000Y-55124000D01*
X79519685Y-55056961D01*
X79572489Y-55011206D01*
X79624000Y-55000000D01*
X80376000Y-55000000D01*
X80443039Y-55019685D01*
G37*
G36*
X90443039Y-136519685D02*
G01*
X90488794Y-136572489D01*
X90500000Y-136624000D01*
X90500000Y-144876000D01*
X90480315Y-144943039D01*
X90427511Y-144988794D01*
X90376000Y-145000000D01*
X89624000Y-145000000D01*
X89556961Y-144980315D01*
X89511206Y-144927511D01*
X89500000Y-144876000D01*
X89500000Y-136624000D01*
X89519685Y-136556961D01*
X89572489Y-136511206D01*
X89624000Y-136500000D01*
X90376000Y-136500000D01*
X90443039Y-136519685D01*
G37*
M02*
